<?xml version="1.0" encoding="UTF-8"?>
<svg width="18px" height="17px" viewBox="0 0 18 17" version="1.1" xmlns="http://www.w3.org/2000/svg" xmlns:xlink="http://www.w3.org/1999/xlink">
    <!-- Generator: Sketch 53 (72520) - https://sketchapp.com -->
    <title>Combined Shape</title>
    <desc>Created with Sketch.</desc>
    <g id="Page-2" stroke="none" stroke-width="1" fill="none" fill-rule="evenodd">
        <g id="门户首页-copy-3" transform="translate(-137.000000, -15.000000)" fill="#505050" fill-rule="nonzero">
            <path d="M154.725185,22.7363263 C155.081922,23.0885357 155.092674,23.6488189 154.749695,24.0135947 C154.509818,24.2687322 154.196736,24.3999368 153.8196,24.4034145 C153.532336,24.4062599 153.240496,24.4062599 152.958134,24.4062599 L152.641457,24.4062599 L152.641457,31.0110654 C152.641457,31.6670882 152.296021,32 151.614953,32 L140.405441,32 C139.754766,32 139.395278,31.6553904 139.395278,31.0297186 L139.395278,24.4043629 L139.17795,24.4043629 C139.047554,24.4062599 138.918138,24.4062599 138.790029,24.4062599 C138.565185,24.4062599 138.382173,24.4034145 138.213867,24.3974075 C138.00022,24.3922281 137.789523,24.3479222 137.592932,24.2668353 C137.283445,24.1312045 137.079517,23.9038887 137.01873,23.6272526 C136.95631,23.3439772 137.051084,23.0474233 137.285406,22.792602 C137.318086,22.7568764 137.352728,22.7243124 137.383448,22.6955422 L137.386716,22.6926968 L137.419397,22.6610812 L138.801468,21.3332279 C140.661985,19.5444199 142.585904,17.6955422 144.495442,15.86184 C144.675016,15.6846867 144.865687,15.5183908 145.066376,15.363895 C145.373692,15.1293509 145.753406,15.0012281 146.144842,15 C146.564031,15.0009779 146.969082,15.1467297 147.287036,15.4110022 C147.400656,15.5065778 147.508877,15.6079996 147.611229,15.7148277 C147.64293,15.7464432 147.67365,15.7780588 147.70633,15.8096744 L152.800613,20.8365476 L154.725185,22.7363263 Z M145.160831,26.5613431 C145.076401,26.2306597 144.855182,26.0234931 144.583895,26.0234931 C144.537384,26.0235884 144.49104,26.029561 144.445797,26.0412909 C144.297307,26.0767476 144.16844,26.1763204 144.08877,26.3171571 C144.000414,26.4734219 143.976852,26.6731134 144.023321,26.8788562 C144.301405,28.1188328 145.32,28.9935436 146.49338,29 L146.497635,29 C147.075527,28.9989317 147.635865,28.7838817 148.086418,28.3902468 C148.537566,27.9939922 148.852668,27.4438171 148.980784,26.8286663 C149.06096,26.4417418 148.884901,26.1089226 148.552418,26.0192216 C148.505751,26.00654 148.457839,26.0000853 148.409738,26 C148.13976,26 147.91625,26.2050308 147.840656,26.5228999 C147.667869,27.2451353 147.144602,27.7153536 146.507779,27.7206929 L146.496326,27.7206929 C145.865066,27.7206929 145.341471,27.2654248 145.160831,26.5613431 Z" id="Combined-Shape"></path>
        </g>
    </g>
</svg>