<?xml version="1.0" encoding="UTF-8"?>
<svg width="4px" height="13px" viewBox="0 0 4 13" version="1.1" xmlns="http://www.w3.org/2000/svg" xmlns:xlink="http://www.w3.org/1999/xlink">
    <!-- Generator: Sketch 53 (72520) - https://sketchapp.com -->
    <title>Combined Shape Copy 5</title>
    <desc>Created with Sketch.</desc>
    <g id="Page-2" stroke="none" stroke-width="1" fill="none" fill-rule="evenodd">
        <g id="门户首页-copy-3" transform="translate(-1444.000000, -516.000000)" fill="#3976FF">
            <path d="M1440.75,524.125 C1439.85254,524.125 1439.125,523.397463 1439.125,522.5 C1439.125,521.602537 1439.85254,520.875 1440.75,520.875 C1441.64746,520.875 1442.375,521.602537 1442.375,522.5 C1442.375,523.397463 1441.64746,524.125 1440.75,524.125 Z M1445.625,524.125 C1444.72754,524.125 1444,523.397463 1444,522.5 C1444,521.602537 1444.72754,520.875 1445.625,520.875 C1446.52246,520.875 1447.25,521.602537 1447.25,522.5 C1447.25,523.397463 1446.52246,524.125 1445.625,524.125 Z M1450.5,524.125 C1449.60254,524.125 1448.875,523.397463 1448.875,522.5 C1448.875,521.602537 1449.60254,520.875 1450.5,520.875 C1451.39746,520.875 1452.125,521.602537 1452.125,522.5 C1452.125,523.397463 1451.39746,524.125 1450.5,524.125 Z" id="Combined-Shape-Copy-5" transform="translate(1445.625000, 522.500000) rotate(-90.000000) translate(-1445.625000, -522.500000) "></path>
        </g>
    </g>
</svg>