<?xml version="1.0" encoding="UTF-8"?>
<svg width="4px" height="13px" viewBox="0 0 4 13" version="1.1" xmlns="http://www.w3.org/2000/svg" xmlns:xlink="http://www.w3.org/1999/xlink">
    <!-- Generator: Sketch 53 (72520) - https://sketchapp.com -->
    <title>Combined Shape Copy 9</title>
    <desc>Created with Sketch.</desc>
    <g id="Page-2" stroke="none" stroke-width="1" fill="none" fill-rule="evenodd">
        <g id="门户首页-copy-3" transform="translate(-762.000000, -515.000000)" fill="#3976FF">
            <path d="M758.75,523.125 C757.852537,523.125 757.125,522.397463 757.125,521.5 C757.125,520.602537 757.852537,519.875 758.75,519.875 C759.647463,519.875 760.375,520.602537 760.375,521.5 C760.375,522.397463 759.647463,523.125 758.75,523.125 Z M763.625,523.125 C762.727537,523.125 762,522.397463 762,521.5 C762,520.602537 762.727537,519.875 763.625,519.875 C764.522463,519.875 765.25,520.602537 765.25,521.5 C765.25,522.397463 764.522463,523.125 763.625,523.125 Z M768.5,523.125 C767.602537,523.125 766.875,522.397463 766.875,521.5 C766.875,520.602537 767.602537,519.875 768.5,519.875 C769.397463,519.875 770.125,520.602537 770.125,521.5 C770.125,522.397463 769.397463,523.125 768.5,523.125 Z" id="Combined-Shape-Copy-9" transform="translate(763.625000, 521.500000) rotate(-90.000000) translate(-763.625000, -521.500000) "></path>
        </g>
    </g>
</svg>