<?xml version="1.0" encoding="UTF-8"?>
<svg width="4px" height="13px" viewBox="0 0 4 13" version="1.1" xmlns="http://www.w3.org/2000/svg" xmlns:xlink="http://www.w3.org/1999/xlink">
    <!-- Generator: Sketch 53 (72520) - https://sketchapp.com -->
    <title>Combined Shape Copy 6</title>
    <desc>Created with Sketch.</desc>
    <g id="Page-2" stroke="none" stroke-width="1" fill="none" fill-rule="evenodd">
        <g id="门户首页-copy-3" transform="translate(-761.000000, -953.000000)" fill="#3976FF">
            <path d="M757.75,961.125 C756.852537,961.125 756.125,960.397463 756.125,959.5 C756.125,958.602537 756.852537,957.875 757.75,957.875 C758.647463,957.875 759.375,958.602537 759.375,959.5 C759.375,960.397463 758.647463,961.125 757.75,961.125 Z M762.625,961.125 C761.727537,961.125 761,960.397463 761,959.5 C761,958.602537 761.727537,957.875 762.625,957.875 C763.522463,957.875 764.25,958.602537 764.25,959.5 C764.25,960.397463 763.522463,961.125 762.625,961.125 Z M767.5,961.125 C766.602537,961.125 765.875,960.397463 765.875,959.5 C765.875,958.602537 766.602537,957.875 767.5,957.875 C768.397463,957.875 769.125,958.602537 769.125,959.5 C769.125,960.397463 768.397463,961.125 767.5,961.125 Z" id="Combined-Shape-Copy-6" transform="translate(762.625000, 959.500000) rotate(-90.000000) translate(-762.625000, -959.500000) "></path>
        </g>
    </g>
</svg>