<?xml version="1.0" encoding="UTF-8"?>
<svg width="24px" height="24px" viewBox="0 0 24 24" version="1.1" xmlns="http://www.w3.org/2000/svg" xmlns:xlink="http://www.w3.org/1999/xlink">
    <!-- Generator: Sketch 53 (72520) - https://sketchapp.com -->
    <title>daiban</title>
    <desc>Created with Sketch.</desc>
    <g id="Page-2" stroke="none" stroke-width="1" fill="none" fill-rule="evenodd">
        <g id="门户首页-copy-3" transform="translate(-145.000000, -947.000000)" fill-rule="nonzero">
            <g id="daiban" transform="translate(145.000000, 947.000000)">
                <path d="M0,12 C8.11624501e-16,18.627417 5.372583,24 12,24 C18.627417,24 24,18.627417 24,12 C24,5.372583 18.627417,4.05812251e-16 12,0 C5.372583,-4.05812251e-16 8.11624501e-16,5.372583 0,12 Z" id="Path" fill="#6C6C6C"></path>
                <path d="M16.398102,6 L7.08015888,6 C6.79368294,6 6.5189403,6.11380213 6.31637121,6.31637121 C6.11380213,6.5189403 6,6.79368294 6,7.08015888 L6,16.398102 C6,16.9946573 6.48360361,17.4782609 7.08015888,17.4782609 L16.398102,17.4782609 C16.9946573,17.4782609 17.4782609,16.9946573 17.4782609,16.398102 L17.4782609,7.08015888 C17.4782609,6.48360361 16.9946573,6 16.398102,6 Z M15.2561322,11.4691022 L11.4365496,14.6672582 C11.2614707,14.8139654 11.001215,14.7937244 10.8509241,14.6217121 L8.9899616,12.5069404 C8.87599651,12.3964449 8.83349538,12.2314406 8.87989877,12.079638 C8.92630215,11.9278354 9.05379641,11.8147957 9.21006362,11.7869054 C9.36633082,11.7590151 9.52505791,11.8209704 9.62111039,11.9473478 L11.2120674,13.7530418 L14.7160527,10.824914 C14.8957344,10.6757689 15.1623012,10.7005237 15.3114463,10.8802053 C15.4605915,11.059887 15.4358367,11.3264538 15.256155,11.4755989 L15.2561322,11.4691022 Z M6.839389,8.97365101 L6.839389,8.13426201 L16.6193358,8.13426201 L16.6193358,8.97365101 L6.839389,8.97365101 Z" id="Shape" fill="#FFFFFF"></path>
            </g>
        </g>
    </g>
</svg>