<?xml version="1.0" encoding="UTF-8"?>
<svg width="24px" height="24px" viewBox="0 0 24 24" version="1.1" xmlns="http://www.w3.org/2000/svg" xmlns:xlink="http://www.w3.org/1999/xlink">
    <!-- Generator: Sketch 53 (72520) - https://sketchapp.com -->
    <title>daiban</title>
    <desc>Created with Sketch.</desc>
    <g id="Page-2" stroke="none" stroke-width="1" fill="none" fill-rule="evenodd">
        <g id="门户首页-copy-3" transform="translate(-818.000000, -947.000000)" fill-rule="nonzero">
            <g id="daiban" transform="translate(818.000000, 947.000000)">
                <path d="M0,12 C8.11624501e-16,18.627417 5.372583,24 12,24 C18.627417,24 24,18.627417 24,12 C24,5.372583 18.627417,4.05812251e-16 12,0 C5.372583,-4.05812251e-16 8.11624501e-16,5.372583 0,12 Z" id="Path" fill="#6C6C6C"></path>
                <path d="M10.5294762,6 L6.47052376,6 C6.3457331,6 6.22605354,6.0495729 6.13781322,6.13781322 C6.0495729,6.22605354 6,6.3457331 6,6.47052376 L6,10.5294762 C6,10.7893393 6.21066066,11 6.47052376,11 L10.5294762,11 C10.7893393,11 11,10.7893393 11,10.5294762 L11,6.47052376 C11,6.21066066 10.7893393,6 10.5294762,6 Z" id="Shape" fill="#FFFFFF"></path>
                <path d="M10.5294762,13 L6.47052376,13 C6.3457331,13 6.22605354,13.0495729 6.13781322,13.1378132 C6.0495729,13.2260535 6,13.3457331 6,13.4705238 L6,17.5294762 C6,17.7893393 6.21066066,18 6.47052376,18 L10.5294762,18 C10.7893393,18 11,17.7893393 11,17.5294762 L11,13.4705238 C11,13.2106607 10.7893393,13 10.5294762,13 Z" id="Shape-Copy-2" fill="#FFFFFF"></path>
                <path d="M17.5294762,6 L13.4705238,6 C13.3457331,6 13.2260535,6.0495729 13.1378132,6.13781322 C13.0495729,6.22605354 13,6.3457331 13,6.47052376 L13,10.5294762 C13,10.7893393 13.2106607,11 13.4705238,11 L17.5294762,11 C17.7893393,11 18,10.7893393 18,10.5294762 L18,6.47052376 C18,6.21066066 17.7893393,6 17.5294762,6 Z" id="Shape-Copy" fill="#FFFFFF"></path>
                <path d="M17.5294762,13 L13.4705238,13 C13.3457331,13 13.2260535,13.0495729 13.1378132,13.1378132 C13.0495729,13.2260535 13,13.3457331 13,13.4705238 L13,17.5294762 C13,17.7893393 13.2106607,18 13.4705238,18 L17.5294762,18 C17.7893393,18 18,17.7893393 18,17.5294762 L18,13.4705238 C18,13.2106607 17.7893393,13 17.5294762,13 Z" id="Shape-Copy-3" fill="#FFFFFF"></path>
            </g>
        </g>
    </g>
</svg>