<?xml version="1.0" encoding="UTF-8"?>
<svg width="24px" height="24px" viewBox="0 0 24 24" version="1.1" xmlns="http://www.w3.org/2000/svg" xmlns:xlink="http://www.w3.org/1999/xlink">
    <!-- Generator: Sketch 53 (72520) - https://sketchapp.com -->
    <title>gongwenbao</title>
    <desc>Created with Sketch.</desc>
    <g id="Page-2" stroke="none" stroke-width="1" fill="none" fill-rule="evenodd">
        <g id="门户首页-copy-3" transform="translate(-146.000000, -510.000000)" fill-rule="nonzero">
            <g id="gongwenbao" transform="translate(146.000000, 510.000000)">
                <path d="M0.765625,12.0703125 C0.765625,18.4215871 5.91435038,23.5703125 12.265625,23.5703125 C18.6168996,23.5703125 23.765625,18.4215871 23.765625,12.0703125 C23.765625,5.71903788 18.6168996,0.5703125 12.265625,0.5703125 C5.91435038,0.5703125 0.765625,5.71903788 0.765625,12.0703125 Z" id="Path" fill="#6C6C6C"></path>
                <path d="M11.5271447,12.0901737 C11.4874663,12.1355328 11.4530215,12.3889645 11.4530215,12.5241355 C11.4530215,12.93124 11.8162126,13.2372371 12.2653572,13.2372371 C12.7139663,13.2372371 13.0779363,12.9434861 13.0779363,12.5363374 C13.0779363,12.401498 13.0280828,12.0949483 12.9580979,12.0949483 L11.5271447,12.0901737 L11.5271447,12.0901737 Z M13.8445567,12.0981977 C13.878685,12.0981977 13.8908319,12.3956844 13.8908319,12.5241355 C13.8908319,13.3390519 13.1630866,13.9751402 12.2656007,13.9751402 C11.3684311,13.9751402 10.6407345,13.3512979 10.6407345,12.5366248 C10.6407345,12.4079968 10.6255448,12.0872337 10.6591862,12.0872337 L5.765625,12.0701909 L5.765625,16.1636059 C5.765625,16.9787875 6.49310251,17.5703125 7.39029638,17.5703125 L17.1409536,17.5703125 C18.0383909,17.5703125 18.765625,16.9787875 18.765625,16.1636059 L18.765625,12.1205236 L13.8445567,12.0981977 L13.8445567,12.0981977 Z M17.1409536,8.18000767 L14.6293366,8.18000767 L14.6293366,7.30947561 C14.6293366,6.90210586 14.3394654,6.5703125 13.8902964,6.5703125 L10.6407345,6.5703125 C10.1915656,6.5703125 9.90196208,6.90212797 9.90196208,7.30947561 L9.90196208,8.18000767 L7.39029638,8.18000767 C6.49310251,8.18000767 5.765625,8.70820237 5.765625,9.52316292 L5.765625,11.3548126 L18.765625,11.3995749 L18.765625,9.52342817 C18.765625,8.70822448 18.0383909,8.18000767 17.1409536,8.18000767 L17.1409536,8.18000767 Z M13.7428535,8.18000767 L10.4930239,8.18000767 L10.4930239,7.67855981 C10.4930239,7.47486388 10.8223301,7.37506062 11.0468902,7.37506062 L13.4844328,7.37506062 C13.7087009,7.37506062 13.7428535,7.47488599 13.7428535,7.67855981 L13.7428535,8.18000767 Z" id="Shape" fill="#FFFFFF"></path>
            </g>
        </g>
    </g>
</svg>