<?xml version="1.0" encoding="UTF-8"?>
<svg width="168px" height="103px" viewBox="0 0 168 103" version="1.1" xmlns="http://www.w3.org/2000/svg" xmlns:xlink="http://www.w3.org/1999/xlink">
    <!-- Generator: Sketch 53 (72520) - https://sketchapp.com -->
    <title>Group 3 Copy</title>
    <desc>Created with Sketch.</desc>
    <defs>
        <rect id="path-1" x="0" y="0" width="168" height="103"></rect>
    </defs>
    <g id="Page-2" stroke="none" stroke-width="1" fill="none" fill-rule="evenodd">
        <g id="门户首页-copy-3" transform="translate(-1111.000000, -344.000000)">
            <g id="Group-3-Copy" transform="translate(1111.000000, 344.000000)">
                <mask id="mask-2" fill="white">
                    <use xlink:href="#path-1"></use>
                </mask>
                <use id="Mask" fill="#F4F6F8" xlink:href="#path-1"></use>
                <g opacity="0.211449033" mask="url(#mask-2)" id="Group-2">
                    <g transform="translate(105.000000, 42.000000)">
                        <g>
                            <g id="zengjiawenzhendan-copy" fill-rule="nonzero">
                                <path d="M66.6153846,9.82772489 L66.6153846,37.9410189 L66.3870634,37.9410189 C58.3213557,37.938606 50.9708443,41.56618 47.4896183,47.2671564 C44.0083924,52.9681327 45.0153478,59.728986 50.0784021,64.6486482 L8.52393308,64.6486482 C7.17702387,64.6490147 5.84452112,64.4314955 4.60985434,64.0097097 C2.90286198,62.4435206 1.97610257,60.4465557 2.00046852,58.3870509 L2.00046852,12.6390543 C2.00026217,10.3301723 3.1796776,8.11731326 5.27550581,6.49431889 C7.37133402,4.87132452 10.2091327,3.97328169 13.1555929,4.00060576 L58.8198445,4.00060576 C60.9528576,3.99868814 63.0396638,4.48745048 64.8214319,5.40627049 C65.9878061,6.6995577 66.614489,8.24410788 66.6153846,9.82772489 Z" id="Path" fill="#EDF2F6"></path>
                                <path d="M66.3913687,6.55070935 L66.3913687,30.0006856 C65.56637,29.8329313 63.6844037,29.3994988 62.8415087,29.4054054 L62.8415087,7.31047186 C62.8415087,3.27655703 60.8692414,3.7229781 56.7121593,3.7229781 L8.89981701,3.7229781 C4.7427349,3.7229781 3.54986006,3.27655703 3.54986006,7.31047186 L3.54986006,56.972973 C3.54986003,60.6486486 4.94236862,60.6780885 6.93866986,60.6780885 L34.266671,60.6780885 C34.9995713,61.5841739 36.9180213,63.6131386 37.8517722,64.3243243 L6.93866986,64.3243243 C1.3958937,64.3243243 4.89409909e-13,63.9173352 4.88731114e-13,58.538782 L-4.54747351e-13,7.31047186 C-4.55426145e-13,1.93191874 0.211709588,9.8802418e-16 5.75448575,0 L60.9230769,0 C66.4658531,3.29341393e-16 66.3913687,1.17215622 66.3913687,6.55070935 Z" id="Path" fill="#B1B1B1"></path>
                                <path d="M53.5731808,16.5405405 L12.8883578,16.5405405 C11.88793,16.5405405 11.0769231,15.7177125 11.0769231,14.7027027 C11.0769231,13.6876929 11.88793,12.8648649 12.8883578,12.8648649 L53.5731808,12.8648649 C54.5736085,12.8648649 55.3846154,13.6876929 55.3846154,14.7027027 C55.3846154,15.7177125 54.5736085,16.5405405 53.5731808,16.5405405 L53.5731808,16.5405405 Z M53.5731807,27.5675676 L12.8883577,27.5675676 C12.4079354,27.5675676 11.9471899,27.3739388 11.60748,27.0292773 C11.2677701,26.6846158 11.0769231,26.2171546 11.0769231,25.7297297 C11.0769231,24.7147199 11.88793,23.8918919 12.8883577,23.8918919 L53.5731807,23.8918919 C54.5736085,23.8918919 55.3846154,24.7147199 55.3846154,25.7297297 C55.3846154,26.2171546 55.1937684,26.6846158 54.8540585,27.0292773 C54.5143486,27.3739388 54.0536031,27.5675676 53.5731807,27.5675676 Z M28.1545381,40.4324324 L12.4608465,40.4324324 C12.0938072,40.4324324 11.7418008,40.2388036 11.4822648,39.8941422 C11.2227288,39.5494807 11.0769231,39.0820195 11.0769231,38.5945945 C11.0769231,37.5795848 11.6965267,36.7567568 12.4608465,36.7567568 L28.1545381,36.7567568 C28.5215774,36.7567567 28.8735837,36.9503855 29.1331197,37.2950469 C29.3926557,37.6397084 29.5384615,38.1071696 29.5384615,38.5945945 C29.5384616,39.0820195 29.3926558,39.5494807 29.1331198,39.8941422 C28.8735838,40.2388037 28.5215774,40.4324325 28.1545381,40.4324324 L28.1545381,40.4324324 Z" id="Shape" fill="#B1B1B1"></path>
                            </g>
                            <path d="M52.6153846,68 C41.9095384,68 33.2307692,59.3603243 33.2307692,48.7027027 C33.2307692,38.0450811 41.9095384,29.4054054 52.6153846,29.4054054 C63.3212308,29.4054054 72,38.0450811 72,48.7027027 C72,59.3603243 63.3212308,68 52.6153846,68 Z M52.6153847,64.3243243 C61.2820069,64.3243242 68.3076923,57.330286 68.3076923,48.7027027 C68.3076923,40.0751194 61.2820069,33.0810812 52.6153847,33.0810811 C43.9487624,33.0810811 36.9230769,40.0751193 36.9230769,48.7027027 C36.9230769,57.3302861 43.9487624,64.3243243 52.6153847,64.3243243 Z" id="Combined-Shape" fill="#B1B1B1" fill-rule="nonzero"></path>
                            <ellipse id="Oval" fill="#B1B1B1" cx="45.2307692" cy="48.7027027" rx="2.76923077" ry="2.75675676"></ellipse>
                            <ellipse id="Oval-Copy-11" fill="#B1B1B1" cx="52.6153846" cy="48.7027027" rx="2.76923077" ry="2.75675676"></ellipse>
                            <ellipse id="Oval-Copy-13" fill="#B1B1B1" cx="60" cy="48.7027027" rx="2.76923077" ry="2.75675676"></ellipse>
                        </g>
                    </g>
                </g>
            </g>
        </g>
    </g>
</svg>