<?xml version="1.0" encoding="UTF-8"?>
<svg width="168px" height="103px" viewBox="0 0 168 103" version="1.1" xmlns="http://www.w3.org/2000/svg" xmlns:xlink="http://www.w3.org/1999/xlink">
    <!-- Generator: Sketch 53 (72520) - https://sketchapp.com -->
    <title>Group Copy</title>
    <desc>Created with Sketch.</desc>
    <defs>
        <rect id="path-1" x="-2.84217094e-14" y="0" width="168" height="103"></rect>
    </defs>
    <g id="Page-2" stroke="none" stroke-width="1" fill="none" fill-rule="evenodd">
        <g id="门户首页-copy-3" transform="translate(-1291.000000, -344.000000)">
            <g id="Group-Copy" transform="translate(1291.000000, 344.000000)">
                <mask id="mask-2" fill="white">
                    <use xlink:href="#path-1"></use>
                </mask>
                <use id="Mask" fill="#F4F6F8" xlink:href="#path-1"></use>
                <g opacity="0.202845982" mask="url(#mask-2)">
                    <g transform="translate(108.000000, 45.000000)">
                        <g id="zengjiawenzhendan-copy-2" stroke-width="1" fill="none">
                            <path d="M63.9324292,6.28856358 L63.9324292,28.9166272 C63.1379859,28.7549346 61.3257221,28.337164 60.5140454,28.3428571 L60.5140454,7.57026283 C60.5140454,3.6821113 59.1113452,3.58845032 55.108229,3.58845032 L6.87674221,3.58845032 C2.8736261,3.58845032 3.41838376,5.49867664 3.41838376,9.38682817 L3.41838376,55.0846867 C3.41838373,58.4855189 4.95437805,58.4855189 6.87674221,58.4855189 L32.997535,58.4855189 C33.7032909,59.3588635 35.5506871,61.3145126 36.4498547,62 L6.87674221,62 C1.53925405,62 6.53653779e-16,61.6077172 0,56.4235151 L9.08534462e-13,5.2974598 C9.07880808e-13,0.113257756 0.203868492,9.52322466e-16 5.54135665,0 L57.9487895,0 C63.2862776,3.17440822e-16 63.9324292,1.10436153 63.9324292,6.28856358 Z" id="Path" fill="#B1B1B1" fill-rule="nonzero"></path>
                            <path d="M51.5889889,15.9428571 L12.4110112,15.9428571 C11.4476363,15.9428571 10.6666667,15.1497616 10.6666667,14.1714286 C10.6666667,13.1930956 11.4476363,12.4 12.4110112,12.4 L51.5889889,12.4 C52.5523637,12.4 53.3333333,13.1930956 53.3333333,14.1714286 C53.3333333,15.1497615 52.5523637,15.9428571 51.5889889,15.9428571 L51.5889889,15.9428571 Z M51.5889889,26.5714286 L12.4110111,26.5714286 C11.9483822,26.5714286 11.5047013,26.3847964 11.1775733,26.0525891 C10.8504453,25.7203818 10.6666666,25.269812 10.6666667,24.8 C10.6666667,23.821667 11.4476363,23.0285714 12.4110111,23.0285714 L51.5889889,23.0285714 C52.5523637,23.0285714 53.3333333,23.821667 53.3333333,24.8 C53.3333334,25.269812 53.1495547,25.7203818 52.8224267,26.0525891 C52.4952987,26.3847964 52.0516178,26.5714286 51.5889889,26.5714286 Z M27.1117774,38.9714286 L11.9993336,38.9714286 C11.6458884,38.9714286 11.3069193,38.7847964 11.0569958,38.4525891 C10.8070722,38.1203818 10.6666666,37.669812 10.6666667,37.2 C10.6666667,36.221667 11.263322,35.4285714 11.9993336,35.4285714 L27.1117774,35.4285714 C27.4652227,35.4285714 27.8041917,35.6152035 28.0541153,35.9474108 C28.3040389,36.2796181 28.4444444,36.7301879 28.4444444,37.2 C28.4444445,37.669812 28.3040389,38.1203819 28.0541153,38.4525892 C27.8041918,38.7847965 27.4652227,38.9714286 27.1117774,38.9714286 L27.1117774,38.9714286 Z" id="Shape" fill="#B1B1B1" fill-rule="nonzero"></path>
                        </g>
                        <g id="daitijiaoxiangmu-copy-2" stroke-width="1" fill="none" transform="translate(32.000000, 29.000000)">
                            <path d="M18.5,37 C8.28271427,37 0,28.7172857 0,18.5 C0,8.28271432 8.28271421,2.84217094e-14 18.5,2.84217094e-14 C28.7172857,2.84217094e-14 37,8.28271432 37,18.5 C37,28.7172857 28.7172857,37 18.5,37 Z M18.5000001,33.4761905 C26.7711217,33.4761904 33.4761905,26.7711215 33.4761905,18.5 C33.4761905,10.2288785 26.7711217,3.52380965 18.5000001,3.52380952 C10.2288784,3.52380952 3.52380952,10.2288784 3.52380952,18.5 C3.52380952,26.7711216 10.2288784,33.4761905 18.5000001,33.4761905 Z" id="Combined-Shape" fill="#B1B1B1" fill-rule="nonzero"></path>
                        </g>
                        <path d="M51.3076923,45.4864865 L58.2692308,45.4864865 C58.8215155,45.4864865 59.2692308,45.9342017 59.2692308,46.4864865 L59.2692308,48.0540541 C59.2692308,48.6063388 58.8215155,49.0540541 58.2692308,49.0540541 L51.3076923,49.0540541 L51.3076923,56.0810811 C51.3076923,56.6333658 50.8599771,57.0810811 50.3076923,57.0810811 L48.7692308,57.0810811 C48.216946,57.0810811 47.7692308,56.6333658 47.7692308,56.0810811 L47.7692308,49.0540541 L40.8076923,49.0540541 C40.2554076,49.0540541 39.8076923,48.6063388 39.8076923,48.0540541 L39.8076923,46.4864865 C39.8076923,45.9342017 40.2554076,45.4864865 40.8076923,45.4864865 L47.7692308,45.4864865 L47.7692308,38.4594595 C47.7692308,37.9071747 48.216946,37.4594595 48.7692308,37.4594595 L50.3076923,37.4594595 C50.8599771,37.4594595 51.3076923,37.9071747 51.3076923,38.4594595 L51.3076923,45.4864865 Z" id="Combined-Shape" fill="#B1B1B1" transform="translate(49.538462, 47.270270) rotate(-45.000000) translate(-49.538462, -47.270270) "></path>
                    </g>
                </g>
            </g>
        </g>
    </g>
</svg>