<?xml version="1.0" encoding="UTF-8"?>
<svg width="27px" height="14px" viewBox="0 0 27 14" version="1.1" xmlns="http://www.w3.org/2000/svg" xmlns:xlink="http://www.w3.org/1999/xlink">
    <!-- Generator: Sketch 53 (72520) - https://sketchapp.com -->
    <title>NEW-2</title>
    <desc>Created with Sketch.</desc>
    <g id="Page-2" stroke="none" stroke-width="1" fill="none" fill-rule="evenodd">
        <g id="门户首页-copy-3" transform="translate(-658.000000, -285.000000)" fill-rule="nonzero">
            <g id="NEW-2" transform="translate(658.000000, 285.000000)">
                <path d="M27,10.2442056 C27,11.8758869 25.6690601,13.2109375 24.0423355,13.2109375 L2.95769468,13.2109375 C1.33097016,13.2109375 0,11.8758869 0,10.2442056 L0,3.17769971 C0,1.54598807 1.33097016,0.2109375 2.95769468,0.2109375 L24.0423355,0.2109375 C25.6690601,0.2109375 27,1.54598807 27,3.17769971 L27,10.2442056 Z" id="Path" fill="#45C173"></path>
                <path d="M3,3.2109375 L4.06027454,3.2109375 L7.5772528,8.41683958 L7.61593846,8.41683958 L7.61593846,3.2109375 L8.66680378,3.2109375 L8.66680378,10.2109375 L7.64521489,10.210907 L4.0890116,4.94598414 L4.05032594,4.94598414 L4.05032594,10.2109375 L3,10.2109375 L3,3.2109375 L3,3.2109375 Z M10.2174662,3.2109375 L15.1611689,3.2109375 L15.1611689,4.12261971 L11.2683015,4.12261971 L11.2683015,6.1619161 L14.9301038,6.1619161 L14.9301038,7.0738422 L11.2683015,7.0738422 L11.2683015,9.2992248 L15.3253507,9.2992248 L15.3253507,10.210907 L10.2174662,10.210907 L10.2174662,3.2109375 Z M15.9610719,3.2109375 L17.1463332,3.2109375 L18.4857377,8.66200756 L18.5239139,8.66200756 L19.9313405,3.2109375 L21.0297613,3.2109375 L22.4366785,8.66200756 L22.4753642,8.66200756 L23.8147687,3.2109375 L25,3.2109375 L23.0148957,10.210907 L21.897117,10.210907 L20.4996391,4.80873641 L20.4614928,4.80873641 L19.0639549,10.210907 L17.9362876,10.210907 L15.9610719,3.2109375 Z" id="Shape" fill="#FFFFFF"></path>
            </g>
        </g>
    </g>
</svg>