<?xml version="1.0" encoding="UTF-8"?>
<svg width="16px" height="15px" viewBox="0 0 16 15" version="1.1" xmlns="http://www.w3.org/2000/svg" xmlns:xlink="http://www.w3.org/1999/xlink">
    <!-- Generator: Sketch 53 (72520) - https://sketchapp.com -->
    <title>release copy 2</title>
    <desc>Created with Sketch.</desc>
    <g id="Page-2" stroke="none" stroke-width="1" fill="none" fill-rule="evenodd">
        <g id="门户首页-copy-3" transform="translate(-652.000000, -951.000000)" fill="#3976FF" fill-rule="nonzero">
            <g id="release-copy-2" transform="translate(652.000000, 951.000000)">
                <path d="M5.03949395,15 C4.94216309,14.999883 4.84603706,14.9789985 4.75785864,14.9388114 C4.5327385,14.8371298 4.38391572,14.6221716 4.37133669,14.3805228 L4.13379989,9.86330741 L0.314058254,7.53141363 C0.104225384,7.40324338 -0.0159206216,7.1725701 0.00170375721,6.93171133 C0.0193589146,6.69081956 0.171930254,6.47923454 0.398353763,6.38109059 L15.0605128,0.0558321047 C15.2761383,-0.0378533649 15.5290248,-0.0123709162 15.7218129,0.122747538 C15.9145616,0.258480966 16.0197832,0.483460624 15.9969063,0.71416709 L14.6762766,14.3818104 C14.6560204,14.5972197 14.5259712,14.7897025 14.3312521,14.8929391 C14.1365133,14.9961757 13.9006317,15 13.7032919,14.9005685 L8.75797456,12.4049029 L5.44497154,14.8661691 C5.32637062,14.9541085 5.18325741,15 5.03949395,15 Z M8.68934407,10.9836895 C8.79456569,10.9836895 8.89976758,11.0079036 8.99647688,11.0563318 L13.4373216,13.2958277 L14.5579909,1.69941153 L2.09307199,7.07763005 L5.13945448,8.93792558 C5.32438048,9.05007911 5.44134593,9.24509862 5.45245924,9.45797122 L5.64294188,13.07915 L8.28386645,11.1162329 C8.40280235,11.0283126 8.54558059,10.9836895 8.68934407,10.9836895 L8.68934407,10.9836895 Z" id="Shape"></path>
                <path d="M6.71792267,10 C6.53915102,10 6.36035821,9.93627628 6.22118439,9.80745914 C5.93478188,9.54168816 5.92531053,9.10236873 6.19981044,8.82574201 L11.7637825,3.21345619 C12.037923,2.93682949 12.4922305,2.9280386 12.7789924,3.19311448 C13.0650356,3.45819037 13.0748663,3.89822535 12.8000281,4.1748316 L7.23605607,9.78711744 C7.10040284,9.92316905 6.91336163,10.0000176 6.71792267,10 L6.71792267,10 Z" id="Path"></path>
            </g>
        </g>
    </g>
</svg>