<?xml version="1.0" encoding="UTF-8"?>
<svg width="17px" height="14px" viewBox="0 0 17 14" version="1.1" xmlns="http://www.w3.org/2000/svg" xmlns:xlink="http://www.w3.org/1999/xlink">
    <!-- Generator: Sketch 53 (72520) - https://sketchapp.com -->
    <title>shengjixinban</title>
    <desc>Created with Sketch.</desc>
    <g id="Page-2" stroke="none" stroke-width="1" fill="none" fill-rule="evenodd">
        <g id="门户首页-copy-3" transform="translate(-1438.000000, -18.000000)" fill="#333333" fill-rule="nonzero">
            <g id="shengjixinban" transform="translate(1446.500000, 25.000000) scale(-1, 1) translate(-1446.500000, -25.000000) translate(1438.000000, 18.000000)">
                <g id="huanfu">
                    <path d="M12.7721926,14 L4.23287255,14 C3.97674612,14 3.76621236,13.801466 3.76621236,13.5544385 L3.76621236,7.74246447 L3.45934809,8.03549372 C3.37308636,8.11783621 3.25388566,8.16628265 3.12961363,8.16628265 C3.0053416,8.16628265 2.88867655,8.12023385 2.79990378,8.03549372 L0.136942261,5.49277271 C0.0492780505,5.40939365 0,5.29611148 0,5.17796489 C0,5.05981829 0.0492780505,4.94653613 0.136942261,4.86315707 L5.09516977,0.133694102 C5.17636017,0.056193906 5.28539362,0.0101921215 5.399523,0.00290517559 L5.40459432,0.00290517559 C5.66074537,-0.00917705088 5.87886149,0.17727474 5.89405084,0.421857554 C5.97521663,1.73682221 7.11904613,2.76602105 8.50125243,2.76602105 C9.8783874,2.76602105 11.0196812,1.74408565 11.1058691,0.433986793 C11.1084294,0.371013476 11.1211077,0.310484813 11.1515356,0.252353789 C11.2377727,0.082826518 11.4254609,-0.0188851434 11.6207561,0.00292868187 C11.7348363,0.0150579209 11.8337763,0.0634808519 11.9073351,0.136138755 L16.8630269,4.86802287 C16.9507094,4.95139267 17,5.0646783 17,5.18283069 C17,5.30098307 16.9507094,5.4142687 16.8630269,5.4976385 L14.2000162,8.04035952 C14.1138283,8.1226785 13.994603,8.17112494 13.8703556,8.17112494 C13.7460589,8.17112494 13.6293939,8.12509965 13.5406457,8.04035952 L13.2337568,7.74733027 L13.2337568,13.5592808 C13.2388528,13.801466 13.0308793,14 12.7721926,14 Z M4.69699707,13.1112747 L12.3055324,13.1112747 L12.3055324,6.0158814 C12.3055324,5.77127508 12.5134813,5.57029641 12.7721926,5.57029641 C13.0283683,5.57029641 13.2388528,5.76885393 13.2388528,6.0158814 L13.2388528,6.48807549 L13.8754269,7.09590081 L15.8789933,5.18279543 L11.8616686,1.34692359 C11.3899371,2.69336314 10.0559083,3.65476988 8.50125243,3.65476988 C6.94913219,3.65476988 5.61510346,2.69338665 5.1408363,1.34692359 L1.1260718,5.18281893 L3.12963824,7.09592432 L3.76621236,6.488099 L3.76621236,6.0159049 C3.76621236,5.77129858 3.97418584,5.57031991 4.23287255,5.57031991 C4.35674305,5.57000044 4.47563692,5.61684252 4.56322922,5.70047458 C4.65082152,5.78410665 4.6998854,5.89762859 4.69955735,6.0159049 L4.69955735,13.1112982 L4.69699707,13.1112982 L4.69699707,13.1112747 Z" id="Shape"></path>
                </g>
            </g>
        </g>
    </g>
</svg>