<?xml version="1.0" encoding="UTF-8"?>
<svg width="13px" height="13px" viewBox="0 0 13 13" version="1.1" xmlns="http://www.w3.org/2000/svg" xmlns:xlink="http://www.w3.org/1999/xlink">
    <!-- Generator: Sketch 53 (72520) - https://sketchapp.com -->
    <title>sheweizhiding copy</title>
    <desc>Created with Sketch.</desc>
    <g id="Page-2" stroke="none" stroke-width="1" fill="none" fill-rule="evenodd">
        <g id="门户首页-copy-3" transform="translate(-504.000000, -320.000000)" fill-rule="nonzero">
            <g id="sheweizhiding-copy" transform="translate(504.000000, 320.000000)">
                <path d="M3.25,0 L9.75,0 C11.9166667,0 13,1.08333333 13,3.25 L13,9.75 C13,11.9166667 11.9166667,13 9.75,13 L3.25,13 C1.08333333,13 0,11.9166667 0,9.75 L0,3.25 C0,1.08333333 1.08333333,0 3.25,0 Z" id="Path" fill="#FF3B30"></path>
                <path d="M4.75,7.06247528 L8.25,7.06247528 L8.25,11 L4.75,11 L4.75,7.06247528 Z M3,2 L10,2 L10,3.12495056 L3,3.12495056 L3,2 Z" id="Shape" fill="#FFFFFF"></path>
                <polygon id="Path" fill="#FFFFFF" points="6.5 4 3 7 10 7 6.5 4"></polygon>
            </g>
        </g>
    </g>
</svg>