<?xml version="1.0" encoding="UTF-8"?>
<svg width="168px" height="103px" viewBox="0 0 168 103" version="1.1" xmlns="http://www.w3.org/2000/svg" xmlns:xlink="http://www.w3.org/1999/xlink">
    <!-- Generator: Sketch 53 (72520) - https://sketchapp.com -->
    <title>shouyetubiao2-27 copy</title>
    <desc>Created with Sketch.</desc>
    <defs>
        <rect id="path-1" x="0" y="0" width="168" height="103"></rect>
    </defs>
    <g id="Page-2" stroke="none" stroke-width="1" fill="none" fill-rule="evenodd">
        <g id="门户首页-copy-3" transform="translate(-1111.000000, -227.000000)">
            <g id="shouyetubiao2-27-copy" transform="translate(1111.000000, 227.000000)">
                <mask id="mask-2" fill="white">
                    <use xlink:href="#path-1"></use>
                </mask>
                <use id="Mask" fill="#F4F6F8" xlink:href="#path-1"></use>
                <g opacity="0.201102121" mask="url(#mask-2)" fill="#B1B1B1" fill-rule="nonzero">
                    <g transform="translate(104.000000, 39.000000)">
                        <path d="M66.4489791,69 L2.70600391,69 C1.17632129,69 0,67.8301098 0,66.3885281 L0,8.6114719 C0,7.16989015 1.17632129,6 2.70600391,6 L66.4489791,6 C67.8236787,6 69,7.16989015 69,8.6114719 L69,66.3908371 C69,67.8331885 67.8236787,69 66.4489791,69 Z M4.13058622,65.1337645 L65.1783036,65.1337645 L65.1783036,10.250527 L4.13058622,10.250527 L4.13058622,65.1337645 Z" id="Shape"></path>
                        <path d="M45.1903787,42.6481294 L45.1903787,45.9868554 L37.6591607,45.9868554 L37.6591607,50.1142568 L47,50.1142568 L47,53.4529828 L37.6591607,53.4529828 L37.6591607,59 L33.7737973,59 L33.7737973,53.4529828 L21.1596725,53.4529828 L21.1596725,50.1142568 L24.8853634,50.1142568 L24.8853634,43.6865521 C24.4063436,44.186049 23.9095897,44.672394 23.395087,45.1456016 C22.720911,44.1466077 21.9225566,43.0249472 21,41.7805865 C23.696704,39.5898104 25.7724253,36.6629775 27.2272262,33 L31.3520983,33.6046512 C31.0416225,34.3670412 30.7089748,35.1118939 30.3541453,35.8392315 L46.2016377,35.8392315 L46.2016377,39.1779575 L37.6591607,39.1779575 L37.6591607,42.6481294 L45.1903787,42.6481294 Z M25.8300921,42.6481294 L33.7737973,42.6481294 L33.7737973,39.1779575 L28.4513818,39.1779575 C27.6530155,40.396029 26.779261,41.5527414 25.8300921,42.6481294 Z M28.6110542,50.1142568 L33.7737973,50.1142568 L33.7737973,45.9868554 L28.6110542,45.9868554 L28.6110542,50.1142568 Z" id="年"></path>
                        <path d="M64.4584716,27 L2.69593473,27 C1.17194414,27 0,26.1387828 0,25.0775592 C0,24.0163356 1.17194414,23.155685 2.69593473,23.155685 L64.4584716,23.155685 C65.8280559,23.155685 67,24.0163356 67,25.0775592 C67,26.1387828 65.8280559,27 64.4584716,27 Z M21.4415184,15.3772602 C20.353165,15.3769263 19.4709604,14.4582048 19.4706397,13.3248015 L19.4706397,2.01722428 C19.4890993,0.897583903 20.365932,0 21.441228,0 C22.516524,0 23.3933567,0.897583903 23.4118162,2.01722428 L23.4118162,13.3248015 C23.4118163,14.4581069 22.5297778,15.3769261 21.4415184,15.3772602 L21.4415184,15.3772602 Z M47.6182622,15.3772602 C46.5300028,15.3769261 45.6479643,14.4581069 45.6479644,13.3248015 L45.6479644,2.01722428 C45.6664239,0.897583903 46.5432566,0 47.6185526,0 C48.6938486,0 49.5706813,0.897583903 49.5891409,2.01722428 L49.5891409,13.3248015 C49.5888202,14.4582048 48.7066156,15.3769263 47.6182622,15.3772602 Z" id="Shape"></path>
                    </g>
                </g>
            </g>
        </g>
    </g>
</svg>