<?xml version="1.0" encoding="UTF-8"?>
<svg width="168px" height="103px" viewBox="0 0 168 103" version="1.1" xmlns="http://www.w3.org/2000/svg" xmlns:xlink="http://www.w3.org/1999/xlink">
    <!-- Generator: Sketch 53 (72520) - https://sketchapp.com -->
    <title>tiaoxiushenqing copy</title>
    <desc>Created with Sketch.</desc>
    <defs>
        <rect id="path-1" x="-2.84217094e-14" y="0" width="168" height="103"></rect>
    </defs>
    <g id="Page-2" stroke="none" stroke-width="1" fill="none" fill-rule="evenodd">
        <g id="门户首页-copy-3" transform="translate(-1291.000000, -227.000000)">
            <g id="tiaoxiushenqing-copy" transform="translate(1291.000000, 227.000000)">
                <mask id="mask-2" fill="white">
                    <use xlink:href="#path-1"></use>
                </mask>
                <use id="Mask" fill="#F4F6F8" xlink:href="#path-1"></use>
                <g opacity="0.200451079" mask="url(#mask-2)" fill="#B1B1B1" fill-rule="nonzero" id="Shape">
                    <g transform="translate(106.000000, 41.000000)">
                        <path d="M48.4615385,19.7826087 L51.5384615,17.5 L48.4615385,14.4565217 L45.3846154,17.5 L48.4615385,19.7826087 L48.4615385,19.7826087 Z M3.84615385,33.4782609 C3.84615385,17.5 16.9230769,4.56521739 33.0769231,4.56521739 C48.4615385,4.56521739 61.5384615,16.7391304 62.3076923,32.7173913 C63.8461538,33.4782609 64.6153846,34.2391304 66.1538462,35.7608696 L66.1538462,33.4782609 C66.1538462,15.2173913 51.5384615,0 33.0769231,0 C14.6153846,0 0,15.2173913 0,33.4782609 C0,50.9782609 14.6153846,66.1956522 33.0769231,66.1956522 L34.6153846,66.1956522 C33.0769231,64.673913 32.3076923,63.1521739 31.5384615,61.6304348 C16.1538462,60.8695652 3.84615385,48.6956522 3.84615385,33.4782609 Z M34.6153846,33.4782609 L34.6153846,10.6521739 C34.6153846,9.13043478 33.8461538,8.36956522 33.0769231,8.36956522 C31.5384615,8.36956522 30.7692308,9.13043478 30.7692308,10.6521739 L30.7692308,31.1956522 L13.8461538,31.1956522 C13.0769231,31.1956522 12.3076923,31.9565217 12.3076923,33.4782609 C12.3076923,34.2391304 13.0769231,35 13.8461538,35 L33.0769231,35 C33.8461538,35 34.6153846,34.2391304 34.6153846,33.4782609 Z M20,17.5 L16.9230769,14.4565217 L13.8461538,17.5 L16.9230769,20.5434783 L20,17.5 Z M16.1538462,50.2173913 L19.2307692,47.173913 L16.1538462,44.1304348 L13.8461538,47.173913 L16.1538462,50.2173913 Z M50.7692308,33.4782609 C40.7692308,33.4782609 32.3076923,41.8478261 32.3076923,51.7391304 C32.3076923,62.3913043 40.7692308,70 50.7692308,70 C61.5384615,70 70,62.3913043 70,51.7391304 C70,41.8478261 61.5384615,33.4782609 50.7692308,33.4782609 Z M50.7692308,66.1956522 C43.0769231,66.1956522 36.1538462,60.1086957 36.1538462,51.7391304 C36.1538462,44.1304348 43.0769231,37.2826087 50.7692308,37.2826087 C59.2307692,37.2826087 66.1538462,44.1304348 66.1538462,51.7391304 C66.1538462,60.1086957 59.2307692,66.1956522 50.7692308,66.1956522 Z M44.9475532,43.522534 L48.5534317,43.522534 L46.4293458,48.0950631 L61.5399166,48.0950631 L61.6709205,51.3382998 L41.6414926,51.3869974 L44.9475532,43.522534 Z M57.7672822,60.9090548 L54.1614037,60.9090548 L56.2854895,56.3365257 L41.1749188,56.3365257 L41.0439149,53.093289 L61.0733428,53.0445914 L57.7672822,60.9090548 Z"></path>
                    </g>
                </g>
            </g>
        </g>
    </g>
</svg>