<?xml version="1.0" encoding="UTF-8"?>
<svg width="16px" height="16px" viewBox="0 0 16 16" version="1.1" xmlns="http://www.w3.org/2000/svg" xmlns:xlink="http://www.w3.org/1999/xlink">
    <!-- Generator: Sketch 53 (72520) - https://sketchapp.com -->
    <title>topbar-xieyoujian</title>
    <desc>Created with Sketch.</desc>
    <g id="Page-2" stroke="none" stroke-width="1" fill="none" fill-rule="evenodd">
        <g id="门户首页-copy-3" transform="translate(-1358.000000, -512.000000)" fill="#3976FF" fill-rule="nonzero">
            <g id="topbar-xieyoujian" transform="translate(1358.000000, 512.000000)">
                <path d="M1.54411181,14.465267 L4.96220525,14.1306815 L14.3365084,4.7477396 C14.6184819,4.46404201 14.6184819,4.00585981 14.3365084,3.72216223 L12.2711072,1.6637339 C11.9874509,1.38171933 11.5293354,1.38171933 11.2456792,1.6637339 L1.87864861,11.0394022 L1.54411181,14.465267 Z M13.3038078,0.638156526 L15.3619364,2.69658486 C16.2126879,3.54851975 16.2126879,4.92865568 15.3619364,5.78059057 L5.82036488,15.3380988 C5.69955358,15.4592681 5.53989595,15.5339575 5.36946744,15.5490332 L0.787767721,15.9999963 L0.729587397,15.9999963 C0.526190818,16.0006483 0.331815804,15.9160812 0.193625825,15.7668143 C0.0554358472,15.6175474 -0.0139393739,15.4172228 0.0023334792,15.2144476 L0.44595837,10.6466279 C0.459599811,10.4700686 0.537174815,10.3045512 0.664134557,10.1811176 L10.2202511,0.638156526 C11.072062,-0.212718842 12.4519969,-0.212718842 13.3038078,0.638156526 Z M9.45663451,14.5452766 L14.547412,14.5452766 C14.9490216,14.5453355 15.2745593,14.8709683 15.2745593,15.2726364 C15.2745593,15.6743045 14.9490216,15.9999374 14.547412,15.9999963 L9.45663451,15.9999963 C9.05502489,15.9999374 8.72948718,15.6743045 8.72948718,15.2726364 C8.72948718,14.8709683 9.05502489,14.5453355 9.45663451,14.5452766 L9.45663451,14.5452766 Z" id="Shape"></path>
                <path d="M8.20631441,4.17575132 L11.8242487,7.79368559 C12.0725901,8.08367602 12.0558931,8.51595253 11.7859228,8.78592281 C11.5159525,9.05589308 11.083676,9.07259007 10.7936856,8.82424868 L7.17575132,5.20631441 C6.92740993,4.91632398 6.94410692,4.48404747 7.21407719,4.21407719 C7.48404747,3.94410692 7.91632398,3.92740993 8.20631441,4.17575132 L8.20631441,4.17575132 Z" id="Path"></path>
            </g>
        </g>
    </g>
</svg>