<?xml version="1.0" encoding="UTF-8"?>
<svg width="23px" height="23px" viewBox="0 0 23 23" version="1.1" xmlns="http://www.w3.org/2000/svg" xmlns:xlink="http://www.w3.org/1999/xlink">
    <!-- Generator: Sketch 53 (72520) - https://sketchapp.com -->
    <title>youjian</title>
    <desc>Created with Sketch.</desc>
    <g id="Page-2" stroke="none" stroke-width="1" fill="none" fill-rule="evenodd">
        <g id="门户首页-copy-3" transform="translate(-818.000000, -512.000000)" fill-rule="nonzero">
            <g id="youjian" transform="translate(818.000000, 512.000000)">
                <path d="M11.4998786,23 C17.8511775,23 23,17.8512647 23,11.5001215 C23,5.14897818 17.8511775,0 11.4998786,0 C5.14857973,0 0,5.14897818 0,11.5001215 C0,17.8512647 5.14882254,23 11.4998786,23 Z" id="Path" fill="#6C6C6C"></path>
                <path d="M12.0002375,12.2588095 L17.5888849,7.02047618 C17.5587222,7.01428571 17.5314096,7 17.5000594,7 L6.50041564,7 C6.46977794,7 6.44222778,7.01428571 6.41206508,7.02047618 L12.0002375,12.2588095 Z M18,7.56261904 C18,7.50357143 17.9855124,7.44880951 17.9695998,7.3952381 L14.0080751,11.11 L17.9755374,15.5745238 C17.9857499,15.5297619 18,15.4861905 18,15.437619 L18,7.56261904 Z M6.0308752,7.3947619 C6.01543761,7.44880951 6,7.50261904 6,7.56261904 L6,15.4371429 C6,15.4864286 6.01496259,15.5297619 6.02493766,15.5745238 L9.99382497,11.1097619 L6.0308752,7.3947619 L6.0308752,7.3947619 Z M13.6218976,11.4714286 L12.160076,12.8411905 C12.0712577,12.928366 11.9292173,12.928366 11.840399,12.8411905 L10.3797649,11.4721429 L6.37952739,15.9721429 C6.41895264,15.9838095 6.45790288,16 6.50041564,16 L17.5002969,16 C17.5437597,16 17.5827099,15.9840476 17.6228477,15.9721429 L13.6218976,11.4714286 L13.6218976,11.4714286 Z" id="Shape" fill="#FFFFFF"></path>
            </g>
        </g>
    </g>
</svg>