<?xml version="1.0" encoding="UTF-8"?>
<svg width="16px" height="17px" viewBox="0 0 16 17" version="1.1" xmlns="http://www.w3.org/2000/svg" xmlns:xlink="http://www.w3.org/1999/xlink">
    <!-- Generator: Sketch 53 (72520) - https://sketchapp.com -->
    <title>提醒-3</title>
    <desc>Created with Sketch.</desc>
    <g id="Page-2" stroke="none" stroke-width="1" fill="none" fill-rule="evenodd">
        <g id="门户首页-copy-3" transform="translate(-1398.000000, -16.000000)">
            <g id="提醒-3" transform="translate(1398.000000, 16.000000)">
                <g id="Group">
                    <path d="M14.4677676,12.0587042 L13.3665911,11.2132136 C13.1680701,11.0609091 13.0545911,10.8312244 13.0545911,10.5831364 L13.0545911,6.6848189 C13.0545911,6.00713203 12.9200365,5.34955772 12.6543895,4.72980231 C12.3983222,4.13171934 12.0316668,3.5946544 11.5650785,3.13389105 C11.0984567,2.67272944 10.5545743,2.31100216 9.94865836,2.05813492 C9.72717937,1.96563709 9.49771719,1.88853896 9.26554912,1.82795238 L9.26554912,1.28015079 C9.26506172,0.574170274 8.68331383,0 7.9684903,0 C7.25334744,0 6.67151551,0.574236652 6.67151551,1.28015079 L6.67151551,1.82762049 C6.43956593,1.8881075 6.20976761,1.9656039 5.98827181,2.05780303 C5.38227181,2.31072006 4.83892727,2.67269625 4.37191887,3.13355916 C3.90491046,3.59417316 3.53854072,4.13125469 3.28220458,4.72940404 C3.01686004,5.34919264 2.88190206,6.00706566 2.88190206,6.68427128 L2.88190206,10.5822569 C2.88190206,10.8304113 2.7680029,11.0602121 2.56993567,11.2122511 L1.46872559,12.0578413 C1.25716256,12.220368 1.10894408,12.4397309 1.04092727,12.6926811 C0.97887685,12.9228636 0.987397859,13.1645628 1.06638946,13.3914264 C1.14509534,13.6184892 1.28857433,13.8148355 1.48055752,13.9586768 C1.69143147,14.1165404 1.94470878,14.2003759 2.21322979,14.2003759 L13.7229945,14.2003759 C13.991129,14.2003759 14.2447088,14.1167893 14.4556668,13.9590916 C14.6477676,13.8151342 14.7910785,13.6187381 14.8699357,13.3918413 C14.9490113,13.1647785 14.9577172,12.9232785 14.8957508,12.69293 C14.8275659,12.4405938 14.6794819,12.2211479 14.4678853,12.0585714 L14.4678853,12.0585714 L14.4677676,12.0587042 Z M12.808255,11.9215505 L13.9093306,12.7669913 C14.035297,12.864202 14.0442046,13.0028658 14.0100197,13.1006241 C13.9761037,13.1984986 13.8827256,13.3029278 13.7233811,13.3029278 L2.21317937,13.3029278 C2.05381803,13.3029278 1.96040626,13.1984986 1.92669198,13.1006241 C1.89279282,13.0028824 1.90122979,12.8641356 2.02717937,12.7669913 L3.128255,11.9215505 C3.54990206,11.5978911 3.79153231,11.1098463 3.79153231,10.5827713 L3.79153231,6.68425469 C3.79153231,4.41034127 5.66507853,2.56015224 7.9684903,2.56015224 C10.2712298,2.56015224 12.1447928,4.41029149 12.1447928,6.68425469 L12.1447928,10.5827713 C12.1450953,11.1101782 12.386776,11.5978745 12.8083054,11.9215505 L12.8083054,11.9215505 L12.808255,11.9215505 Z M7.96838946,0.897912698 C8.18170038,0.897912698 8.35559954,1.06961616 8.35559954,1.28008442 L8.35559954,1.61049784 L7.58091046,1.61049784 L7.58091046,1.28008442 C7.58091046,1.06928427 7.75452391,0.897912698 7.96838946,0.897912698 L7.96838946,0.897912698 Z" id="Shape" fill="#333333"></path>
                    <path d="M6,15.0333384 C6,15.9686385 6.77060504,16.7294971 7.71801681,16.7294971 C8.66515966,16.7294971 9.43569748,15.9685887 9.43569748,15.0333384 L9.43569748,15 L6.00005042,15 L6.00005042,15.0333384 L6,15.0333384 Z" id="Shape" fill="#333333"></path>
                    <path d="M3.50941247,1.79776479 C3.60396709,1.72220996 3.66279062,1.61487662 3.67564776,1.49559524 C3.68858894,1.37633045 3.65351331,1.25907359 3.57702591,1.16602814 C3.49001751,1.06040404 3.36129482,1 3.22305953,1 C3.11971499,1 3.01816877,1.03527994 2.93737885,1.09971645 C2.1284881,1.7459899 1.46310995,2.5279733 0.959009106,3.42379509 C0.441748602,4.34411039 0.120051123,5.34110895 0.00282423209,6.3877417 C-0.0249572805,6.63368903 0.155378854,6.85588961 0.404672972,6.88328716 C0.421530114,6.8852619 0.438387257,6.88609163 0.454925072,6.88609163 C0.686706585,6.88609163 0.880757005,6.71433838 0.90616877,6.48664502 C1.11379902,4.63876263 2.03833684,2.9731544 3.50939566,1.79771501 L3.50939566,1.79771501 L3.50941247,1.79776479 Z" id="Shape" fill="#333333"></path>
                    <path d="M14.7193115,3.42429293 C14.2151771,2.52795671 13.5496476,1.74615584 12.7409418,1.09966667 C12.6604376,1.03542929 12.5591098,1 12.455093,1 C12.3170426,1 12.1882191,1.06085209 12.1011266,1.16647619 C11.9433787,1.35895599 11.9734796,1.64229076 12.1684039,1.79768182 C13.6399334,2.97356926 14.5643871,4.63869625 14.7712107,6.48661183 C14.7969586,6.71448773 14.9911098,6.88625758 15.222488,6.88625758 C15.2392443,6.88625758 15.2563703,6.88537807 15.2728913,6.8834531 C15.3935804,6.87039322 15.5018493,6.81148268 15.578051,6.71757431 C15.6538997,6.62416378 15.6881518,6.50702309 15.6749586,6.38772511 C15.5582527,5.3418557 15.236572,4.34454185 14.7192611,3.42419336 L14.7192611,3.42419336 L14.7193115,3.42429293 Z" id="Shape" fill="#FFFFFF"></path>
                </g>
            </g>
        </g>
    </g>
</svg>