<?xml version="1.0" standalone="no"?><!DOCTYPE svg PUBLIC "-//W3C//DTD SVG 1.1//EN" "http://www.w3.org/Graphics/SVG/1.1/DTD/svg11.dtd"><svg class="icon" width="48px" height="45.18px" viewBox="0 0 1088 1024" version="1.1" xmlns="http://www.w3.org/2000/svg"><path fill="#D9DDE1" d="M32.637165 898.225967l39.868536-41.852364a16.446571 16.446571 0 0 0 0-24.445877 17.982438 17.982438 0 0 0-25.341798 0l-39.932531 38.396665a26.109732 26.109732 0 0 0-7.231372 13.950788c0 10.495088 7.231372 17.470482 18.110427 17.470482 7.295366 0 10.879055 0 14.526738-3.519694z m1004.520732-509.58773l-264.745-52.347452a24.509871 24.509871 0 0 1-21.75811-14.014783l-134.196342-230.379985A58.36293 58.36293 0 0 0 565.710854 63.99444a58.36293 58.36293 0 0 0-50.747591 27.901577l-141.427714 226.924285a24.509871 24.509871 0 0 1-21.75811 13.950789l-264.745 55.867146c-21.75811 3.4557-36.284848 17.406488-43.516219 38.396664-7.231372 20.926182-3.647683 41.852364 10.879054 55.803152L235.691524 678.341069c7.295366 7.039388 10.879055 13.950788 7.295367 24.445876L217.581098 957.612807a51.259547 51.259547 0 0 0 25.405793 52.347453c18.110427 13.950788 39.868536 13.950788 61.626646 6.975394l246.570579-104.694905a32.061215 32.061215 0 0 1 25.405793 0l250.218262 104.694905c7.231372 3.4557 18.110427 6.975394 25.405793 6.975394a62.970529 62.970529 0 0 0 36.220853-10.495089c18.174421-10.431094 25.405793-31.357276 25.405793-52.347452l-28.989481-261.737261c0-7.039388 3.583689-17.470482 7.231371-24.509871l181.29625-195.439021c14.526738-13.950788 18.174421-38.396664 10.879055-55.867147-7.231372-17.470482-25.341798-31.357276-47.099908-34.87697z"  /><path fill="#D9DDE1" d="M156.274424 824.504371l67.194162-70.201901a18.430399 18.430399 0 0 0 0-25.853754 16.57456 16.57456 0 0 0-24.765848 0l-67.194163 70.201901C127.988881 802.362295 127.988881 806.073972 127.988881 813.433333c0 11.071038 7.039388 18.494393 17.662466 18.494393 3.519694-3.711678 7.039388-3.711678 10.623077-7.423355z m791.611228-561.743198c3.583689 3.711678 7.103383 3.711678 10.623078 3.711677 3.583689 0 7.039388 0 10.623077-3.711677l49.467702-51.771503a18.430399 18.430399 0 0 0 0-25.853754 16.57456 16.57456 0 0 0-24.701854 0l-49.531697 51.771503c0 7.359361 0 18.430399 3.583689 25.853754z m21.246155-258.729523l-151.986796 158.898195c-3.519694 3.711678-3.519694 7.423355-3.519695 14.782716 0 11.135033 7.039388 18.558388 17.662466 18.558388 3.519694 0 10.623077 0 14.142771-3.775672L997.417349 33.597081a18.430399 18.430399 0 0 0 0-25.853754c-7.039388-7.423355-21.246154-11.135033-28.285542-3.711677z"  /></svg>