<?xml version="1.0" standalone="no"?><!DOCTYPE svg PUBLIC "-//W3C//DTD SVG 1.1//EN" "http://www.w3.org/Graphics/SVG/1.1/DTD/svg11.dtd"><svg class="icon" width="48px" height="48.00px" viewBox="0 0 1024 1024" version="1.1" xmlns="http://www.w3.org/2000/svg"><path fill="#D9DDE1" d="M64 0h896a64 64 0 0 1 64 64v896a64 64 0 0 1-64 64H64a64 64 0 0 1-64-64V64a64 64 0 0 1 64-64z m176 192a48 48 0 1 0 0 96h544a48 48 0 1 0 0-96h-544z m0 192a48 48 0 1 0 0 96h160a48 48 0 1 0 0-96h-160z m0 192a48 48 0 1 0 0 96h96a48 48 0 1 0 0-96h-96z m534.08 128h-268.16C438.848 704 384 745.152 384 795.456v9.088c0 15.552 15.872 27.456 36.544 27.456h438.912c20.672 0 36.544-11.904 36.544-27.456v-9.088c0-50.304-54.848-91.456-121.92-91.456zM512 512a128 128 0 1 0 256 0 128 128 0 0 0-256 0z"  /></svg>