<?xml version="1.0" standalone="no"?><!DOCTYPE svg PUBLIC "-//W3C//DTD SVG 1.1//EN" "http://www.w3.org/Graphics/SVG/1.1/DTD/svg11.dtd"><svg class="icon" width="48px" height="48.00px" viewBox="0 0 1024 1024" version="1.1" xmlns="http://www.w3.org/2000/svg"><path fill="#D9DDE1" d="M1024 589.248V768h-57.6a129.28 129.28 0 0 0-32-59.52c-44.8-59.584-121.6-79.488-185.6-92.736-25.6-6.592-51.2-13.248-70.4-19.84-6.4 0-12.8-6.656-19.2-6.656 19.2-26.496 38.4-52.928 51.2-86.016 19.2-39.744 25.6-86.08 25.6-125.824 0-66.176-6.4-139.008-32-198.656-12.8-26.496-32-52.928-64-79.424C652.8 39.744 691.2 0 768 0c115.2 0 134.4 99.328 134.4 218.496 0 59.648-25.6 125.824-64 165.504-6.4 6.656-6.4 6.656-6.4 13.312 0 13.248 0 33.088 6.4 39.68 12.672 22.912 49.984 42.24 112 57.856 43.264 10.88 73.6 49.792 73.6 94.4z m-708.224 31.872c29.44-6.72 58.752-13.44 80.768-20.032 7.36 0 14.72-6.72 22.08-6.72-22.08-26.752-44.096-53.44-58.752-86.784-22.016-40.064-29.44-86.784-29.44-126.912 0-53.44 0-100.224 14.72-133.568 14.72-53.44 36.736-93.504 66.112-120.192 7.36-13.44 22.016-20.032 36.736-26.752C433.28 40.064 389.184 0 308.48 0 168.96 0 146.816 100.16 146.816 220.416c0 60.16 29.44 126.848 73.408 160.256 7.36 6.656 7.36 6.656 7.36 13.376 0 13.312 0 33.344-7.36 40.064-16.64 21.248-56.128 38.4-118.4 51.328A128 128 0 0 0 0 610.752V768h66.112c0-13.44 14.72-33.408 29.312-53.44 51.456-66.752 139.584-80.128 220.352-93.44zM939.136 1024H84.864C70.912 1024 64 1010.048 64 996.224c0-55.616 13.952-173.632 55.552-229.184 62.528-83.392 279.04-58.752 334.72-135.168 6.912-6.912 6.912-27.776 6.912-48.64 0-6.912 0-13.888-6.912-13.888-48.64-41.6-74.944-114.944-74.944-184.32 0-138.944 4.416-256.448 150.208-256.448 138.944 0 152.64 117.504 152.64 256.384 0 76.416-34.688 145.92-83.392 194.496-6.912 6.976-6.912 13.952-6.912 13.952 0 13.824 0 41.6 6.912 48.576 55.552 76.352 250.112 48.64 312.64 131.904 34.688 48.64 48.576 173.696 48.576 222.336 0 13.888-6.976 27.776-20.864 27.776z"  /></svg>