<?xml version="1.0" standalone="no"?><!DOCTYPE svg PUBLIC "-//W3C//DTD SVG 1.1//EN" "http://www.w3.org/Graphics/SVG/1.1/DTD/svg11.dtd"><svg class="icon" width="48px" height="48.00px" viewBox="0 0 1024 1024" version="1.1" xmlns="http://www.w3.org/2000/svg"><path fill="#D9DDE1" d="M1023.232576 890.468149c-6.842868 35.109668-34.342243 56.149888-68.684487 63.184611-27.499375 0-48.091931-7.034724-68.684487-21.104171l-89.277042-91.195604c-116.712466-119.398451-151.054709-173.69373-267.831127-293.028229v-7.034724a212.064951 212.064951 0 0 0-41.185111-98.294279c-20.592556-35.109668-54.934799-70.155383-82.370222-98.294279-20.656508-21.04022-48.091931-42.08044-82.434174-63.184612-13.749688-14.069448-34.342243-21.04022-61.777667-28.074943v-7.034724c0-28.074944 13.685736-42.08044 27.499375-63.184612 13.685736-7.034724 34.278291-21.04022 54.870847-28.074944 20.592556-7.034724 41.185111 0 61.841619 7.034724 27.499375 7.034724 48.027979 21.104172 68.620535 35.109668 48.091931 42.144392 89.277042 84.224831 123.619285 140.438671 6.90682 21.04022 20.592556 42.08044 20.592556 63.184612v7.034723c61.841619 63.184612 116.776418 126.369223 178.554084 182.519111 89.277042 98.294279 109.869598 124.450662 199.14664 222.744941 13.749688 14.069448 20.656508 28.138896 20.656508 49.179116 6.842868 7.034724 6.842868 7.034724 6.842868 14.069448v14.005496z m-1023.232576 42.208344c6.842868-21.104172 20.592556-35.17362 41.185111-35.17362h41.249063v-105.265051c0-14.069448 6.842868-21.104172 20.592556-21.104172h549.347989c13.749688 0 20.592556 7.034724 20.592556 21.104172v105.329003h41.249063c20.592556 0 41.185111 21.104172 41.185111 42.144392v42.080439c0 21.104172-13.749688 35.17362-34.342243 42.144392H41.249063c-13.749688-7.034724-27.499375-14.069448-27.499375-28.138896v-6.970772C0 967.722208 0 953.716712 0 932.676493zM521.912566 0.703472h20.592555c20.592556 7.034724 41.249063 14.069448 61.841619 28.138896 27.499375 28.010992 54.934799 49.115164 82.370222 84.224832 20.592556 21.04022 41.249063 49.115164 54.998751 70.155383 13.685736 21.104172 20.528604 42.208344 27.435424 63.184612 13.749688 70.219335-27.499375 112.363727-68.684487 126.433175-13.749688 7.034724-27.499375 7.034724-34.342243 7.034724-20.592556-56.21384-48.091931-91.323507-82.370223-133.467899-27.499375-28.074944-54.998751-63.184612-89.277042-84.224832-20.656508-21.104172-48.091931-35.109668-82.434174-42.144391v-7.034724c0-35.045716 13.749688-63.184612 34.342243-84.224832 13.749688-14.069448 27.499375-21.104172 48.091931-28.074944h27.499376z"  /><path fill="#D9DDE1" d="M191.216588 256.511616c25.516862 0 50.969773 8.377717 76.422683 16.755434 33.894579 16.755433 59.411441 33.510867 93.369972 58.644017 33.894579 41.888584 67.85311 75.39945 101.811641 117.224082 16.94729 25.13315 33.894579 58.644017 42.4002 83.777167s8.505621 58.644017 0 83.777167c-16.94729 41.888584-50.905821 75.39945-93.369972 83.777167-16.94729 8.313765-42.4002 0-59.34749 0-33.958531-8.377717-59.475393-25.13315-84.864351-41.888584-50.905821-33.510867-84.864352-67.021734-127.264552-117.288034-17.011242-16.755433-42.464152-41.888584-59.475393-75.39945C72.457657 440.757432 63.952036 415.752186 63.952036 390.555084c0-41.888584 16.94729-67.021734 42.464152-92.154884 16.94729-16.755433 33.894579-33.510867 59.347489-33.510867C174.269298 256.511616 182.774919 256.511616 191.28054 256.511616z"  /></svg>