<?xml version="1.0" standalone="no"?><!DOCTYPE svg PUBLIC "-//W3C//DTD SVG 1.1//EN" "http://www.w3.org/Graphics/SVG/1.1/DTD/svg11.dtd"><svg class="icon" width="48px" height="48.00px" viewBox="0 0 1024 1024" version="1.1" xmlns="http://www.w3.org/2000/svg"><path fill="#D9DDE1" d="M64 0h896a64 64 0 0 1 64 64v896a64 64 0 0 1-64 64H64a64 64 0 0 1-64-64V64a64 64 0 0 1 64-64z m125.248 669.184c-0.512 4.544-0.768 9.152-0.768 13.824 0.128 70.4 55.808 127.36 124.544 127.552 63.168-0.128 115.328-48.256 123.52-110.656a128 128 0 0 0 7.936-44.416c-1.856-70.528-59.328-128-128-128a128.192 128.192 0 0 0-127.232 141.696z m486.656-322.432c55.936 38.784 92.032 99.84 97.408 177.408 18.048 0 37.952 5.504 56 12.928-5.44-99.776-56-190.272-135.424-240.192-5.376 11.072-5.376 31.36-17.984 49.92z m-37.952 417.6c-30.72 12.928-61.312 24-97.472 24-36.096 0-68.544-5.504-97.408-24a230.208 230.208 0 0 1-37.952 44.352c43.328 24 86.656 38.784 135.36 38.784 48.768 0 97.472-12.992 135.424-38.784-10.88-14.784-23.488-25.856-37.952-44.352zM305.792 522.24A236.928 236.928 0 0 1 403.392 344.96c-5.44-18.496-12.672-38.848-18.048-57.28-79.424 51.712-129.984 145.92-135.424 247.552 18.048-7.424 36.096-12.928 56-12.928z m234.688-378.816c-68.736 0.128-124.416 57.216-124.48 127.552 0.128 70.336 55.808 127.36 124.48 127.424 68.736-0.128 124.416-57.088 124.544-127.424-0.128-70.4-55.808-127.36-124.544-127.488zM768 555.584c-68.8 0.064-124.48 57.088-124.608 127.424 0.128 70.4 55.808 127.36 124.544 127.552 68.736-0.128 124.416-57.152 124.544-127.488-0.128-70.336-55.808-127.36-124.48-127.488z"  /></svg>