<?xml version="1.0" standalone="no"?><!DOCTYPE svg PUBLIC "-//W3C//DTD SVG 1.1//EN" "http://www.w3.org/Graphics/SVG/1.1/DTD/svg11.dtd"><svg class="icon" width="48px" height="48.00px" viewBox="0 0 1024 1024" version="1.1" xmlns="http://www.w3.org/2000/svg"><path fill="#D9DDE1" d="M192 0h640a192 192 0 0 1 192 192v640a192 192 0 0 1-192 192H192a192 192 0 0 1-192-192V192a192 192 0 0 1 192-192z m560.96 602.368a30.08 30.08 0 1 1 0-60.288 30.08 30.08 0 0 1 0 60.288z m-180.736 0a30.08 30.08 0 1 1 0-60.288 30.08 30.08 0 0 1 0 60.288z m331.328-7.36c0-91.52-98.56-166.4-223.36-172.928a353.216 353.216 0 0 0-17.6-0.448c-133.12 0-240.96 77.632-240.96 173.376 0 14.4 2.56 28.416 7.168 41.728 25.92 75.584 120.768 131.584 233.792 131.584 38.464 0 74.752-6.4 106.944-17.984l54.08 30.592s14.464 8.32 13.056-7.68l-15.296-48c50.432-31.68 82.176-78.272 82.176-130.24z m-632.512-233.6a30.08 30.08 0 1 1 0-60.224 30.08 30.08 0 0 1 0 60.224z m301.248-60.224a30.08 30.08 0 1 1 0 60.16 30.08 30.08 0 0 1 0-60.16z m154.56 74.944C705.28 281.792 575.36 180.736 423.232 180.736c-167.168 0-302.72 87.552-302.72 195.392 0 60.16 42.048 113.92 108.16 149.76l-22.336 62.592s-7.68 20.8 21.312 11.456l83.456-42.24c34.688 8.96 72.448 13.952 112.128 13.952h-41.6c-4.736-13.312 30.912-85.888 40-98.624 23.936-33.472 112.384-104.576 266.88-104.576 5.696 0 32.768 7.488 38.336 7.68z"  /></svg>