<?xml version="1.0" standalone="no"?><!DOCTYPE svg PUBLIC "-//W3C//DTD SVG 1.1//EN" "http://www.w3.org/Graphics/SVG/1.1/DTD/svg11.dtd"><svg class="icon" width="48px" height="48.00px" viewBox="0 0 1024 1024" version="1.1" xmlns="http://www.w3.org/2000/svg"><path fill="#D9DDE1" d="M774.435196 539.260592v-11.1986a18.685664 18.685664 0 0 0-31.996001-13.182352 18.55768 18.55768 0 0 0-5.503312 13.182352v11.1986c0 10.302712-8.382952 18.621672-18.749656 18.621673h-11.262592a18.685664 18.685664 0 0 0-18.749657 18.685664c0 10.23872 8.382952 18.55768 18.749657 18.621672h11.262592c10.302712 0 18.749656 8.31896 18.749656 18.621673v11.1986a18.685664 18.685664 0 0 0 31.996001 13.182352 18.55768 18.55768 0 0 0 5.503312-13.182352v-11.1986c0-10.23872 8.31896-18.55768 18.685664-18.621673h11.262592a18.685664 18.685664 0 0 0 13.246344-31.804024 18.813648 18.813648 0 0 0-13.246344-5.503312h-11.262592a18.685664 18.685664 0 0 1-18.685664-18.557681zM595.705537 18.621672V342.997125a18.55768 18.55768 0 0 0 18.749656 18.685665h358.675166c10.366704 0 18.749656 8.31896 18.749656 18.55768v577.847769c0 36.347457-29.628296 65.847769-66.231721 65.847769H98.231721c-17.533808 0-34.427697-6.911136-46.842145-19.261592A65.655793 65.655793 0 0 1 32 957.960255V65.847769C32 48.377953 39.03912 31.612048 51.389576 19.261592 63.804024 6.911136 80.697913 0 98.231721 0h478.660168c10.366704 0 18.813648 8.31896 18.813648 18.621672zM424.526934 523.1986l-137.454818 315.608549a18.55768 18.55768 0 0 0 1.535808 17.5978 18.749656 18.749656 0 0 0 15.67804 8.446945h75.958505c7.35908 0 14.07824-4.287464 17.085865-10.942633l14.590176-31.996a18.749656 18.749656 0 0 1 17.085864-10.942632h111.474066c7.551056 0 14.3982 4.47944 17.27784 11.390576l13.11836 31.03612a18.749656 18.749656 0 0 0 17.277841 11.454569h76.534433a18.55768 18.55768 0 0 0 17.27784-25.980753L545.27984 523.134608A18.749656 18.749656 0 0 0 528.065992 511.936008h-86.389202a18.749656 18.749656 0 0 0-17.149856 11.262592z m75.894513 152.748907l13.054369 28.284464a18.55768 18.55768 0 0 1-1.27984 17.789776 18.749656 18.749656 0 0 1-15.742033 8.574928h-25.020872a18.749656 18.749656 0 0 1-15.614048-8.31896 18.55768 18.55768 0 0 1-1.663792-17.533808l11.966504-28.284464a18.749656 18.749656 0 0 1 34.299712-0.511936zM663.28109 28.348456l292.763404 264.798901c12.670416 11.454568 4.47944 32.379953-12.606424 32.379952H650.674666a18.685664 18.685664 0 0 1-18.749657-18.55768V42.106737a18.813648 18.813648 0 0 1 31.356081-13.758281z"  /></svg>