<?xml version="1.0" standalone="no"?><!DOCTYPE svg PUBLIC "-//W3C//DTD SVG 1.1//EN" "http://www.w3.org/Graphics/SVG/1.1/DTD/svg11.dtd"><svg class="icon" width="48px" height="48.00px" viewBox="0 0 1024 1024" version="1.1" xmlns="http://www.w3.org/2000/svg"><path fill="#D9DDE1" d="M1024 199.104H0V49.792C0 22.272 22.144 0 49.408 0h925.184a49.28 49.28 0 0 1 34.944 14.592 49.984 49.984 0 0 1 14.464 35.2V199.04z m0 132.096v643.008c0 27.52-22.144 49.792-49.408 49.792H49.408a49.28 49.28 0 0 1-34.944-14.592 49.92 49.92 0 0 1-14.464-35.2V331.2h1024zM457.6 519.04l-256.768 256h640v-113.792H457.6V519.104z"  /></svg>