<?xml version="1.0" standalone="no"?><!DOCTYPE svg PUBLIC "-//W3C//DTD SVG 1.1//EN" "http://www.w3.org/Graphics/SVG/1.1/DTD/svg11.dtd"><svg class="icon" width="48px" height="48.00px" viewBox="0 0 1024 1024" version="1.1" xmlns="http://www.w3.org/2000/svg"><path fill="#D9DDE1" d="M950.729159 1023.872016a73.142857 73.142857 0 0 1-73.142857-73.142857 73.142857 73.142857 0 1 0-146.221723 0 73.142857 73.142857 0 1 1-146.285714 0 73.142857 73.142857 0 1 0-146.285714 0 73.142857 73.142857 0 0 1-146.285714 0 73.142857 73.142857 0 1 0-146.221723 0c0 40.378953-34.299713 73.142857-74.742657 73.142857-40.314961 0-69.303337-32.763905-69.303337-73.142857V172.202475C2.23972 91.444569 33.275841 25.91676 114.033746 25.91676h795.228596C990.084239 25.91676 1023.872016 91.508561 1023.872016 172.202475v778.526684c0 40.378953-32.763905 73.142857-73.142857 73.142857zM679.851019 220.132483c-62.456193 19.453568-139.246594 29.180352-229.347332 29.180353l15.870016 46.074241c31.228096 0 60.920385-1.535808 88.56493-3.583552v35.323584H420.811399v49.145857h134.127234v45.050369H445.384327v46.586176h273.373828v-46.586176H607.668041V376.272966h130.543683v-49.145857h-130.543683v-40.954881a511.296088 511.296088 0 0 0 97.267842-23.549056l-25.084864-42.490689z m-297.946757-5.631296c-31.228096 59.384577-67.575553 104.946882-108.530434 137.19885l32.763905 39.419073c10.23872-8.702912 20.989376-18.429696 31.740032-28.668416V478.660167h53.241345V298.970629c15.35808-22.525184 29.692288-46.586177 43.002625-72.694913l-52.217473-11.774529z m14.334208 280.540933v70.135233c0 46.586177-37.883265 75.766529-113.137858 87.029121l30.204225 45.050369c88.564929-16.381952 134.127234-57.848769 136.174978-124.912386v-28.15648H570.808649v92.660417c0 32.763905 16.381952 49.145857 50.169729 49.145857h68.087489c23.03712 0 37.883265-6.655168 44.538432-18.941633 6.655168-11.262592 12.286464-37.883265 17.405825-80.885889l-48.633921-15.35808c-4.607424 38.395201-8.190976 58.872641-10.23872 61.944257a16.95788 16.95788 0 0 1-12.286464 5.11936H634.80065c-7.167104 0-10.750656-4.095488-10.750656-12.286464v-130.543682h-227.811524z"  /></svg>