<?xml version="1.0" standalone="no"?><!DOCTYPE svg PUBLIC "-//W3C//DTD SVG 1.1//EN" "http://www.w3.org/Graphics/SVG/1.1/DTD/svg11.dtd"><svg class="icon" width="48px" height="48.00px" viewBox="0 0 1024 1024" version="1.1" xmlns="http://www.w3.org/2000/svg"><path fill="#D9DDE1" d="M0 256h1024v616.768C1024 956.288 1009.088 1024 869.12 1024H128a128 128 0 0 1-128-128V256z m275.2 448c-12.8 0-19.2 6.4-19.2 19.2v153.6c0 12.8 6.4 19.2 19.2 19.2h153.6c12.8 0 19.2-6.4 19.2-19.2v-153.6c0-12.8-6.4-19.2-19.2-19.2H275.2z m320 0c-12.8 0-19.2 6.4-19.2 19.2v153.6c0 12.8 6.4 19.2 19.2 19.2h153.6c12.8 0 19.2-6.4 19.2-19.2v-153.6c0-12.8-6.4-19.2-19.2-19.2H595.2zM409.6 384c-17.088 0-25.6 6.4-25.6 19.2v153.6c0 12.8 8.512 19.2 25.6 19.2h204.8c17.088 0 25.6-6.4 25.6-19.2V403.2c0-12.8-8.512-19.2-25.6-19.2H409.6zM320 628.736v26.944h384v-26.88H320zM499.008 576v52.736h25.6V576h-25.6zM320 655.68V704h25.28v-48.32H320z m358.72 0V704H704v-48.32h-25.28zM1024 192H0V110.912C0 49.664 66.176 0 147.84 0h728.32C957.76 0 1024 49.664 1024 110.912V192z"  /></svg>