<?xml version="1.0" standalone="no"?><!DOCTYPE svg PUBLIC "-//W3C//DTD SVG 1.1//EN" "http://www.w3.org/Graphics/SVG/1.1/DTD/svg11.dtd"><svg class="icon" width="48px" height="48.00px" viewBox="0 0 1024 1024" version="1.1" xmlns="http://www.w3.org/2000/svg"><path fill="#D9DDE1" d="M238.351059 171.670588C347.738353 160.466824 448.752941 112.64 529.046588 48.429176c83.727059 66.680471 189.741176 116.193882 304.188236 124.205177 25.901176 2.891294 51.862588 5.903059 78.064941 5.360941 33.189647-0.722824 67.463529 3.252706 99.508706-6.144-2.228706 160.828235-1.927529 321.656471-1.686589 482.484706 0.843294 22.407529-11.264 42.767059-20.419764 63.006118a447.849412 447.849412 0 0 1-212.389647 208.775529c-72.342588 34.213647-147.034353 66.921412-227.568942 83.847529-19.395765 5.240471-39.273412 0.120471-58.187294-4.21647-53.308235-13.010824-104.086588-33.008941-153.539764-54.392471-44.935529-19.877647-90.112-40.357647-128.90353-68.848941A454.234353 454.234353 0 0 1 54.814118 683.610353c-8.071529-18.311529-5.360941-38.249412-5.662118-57.404235C49.392941 492.483765 49.152 358.881882 49.392941 225.219765c0-17.829647-1.445647-35.599059-2.288941-53.428706 62.644706 12.649412 128.060235 5.481412 191.307294-0.180706z m129.807059 134.204236c34.514824 41.562353 76.619294 76.257882 111.134117 118.061176-41.080471 0.602353-82.100706 0.361412-123.120941 0-0.662588 21.564235-0.662588 43.188706-0.662588 64.692706 47.164235 0 94.328471 0.120471 141.552941-0.120471v84.329412c-46.742588-0.301176-93.545412 0.722824-140.288-0.602353-1.686588 21.925647-1.385412 43.971765-1.144471 66.017882h141.492706c0 55.657412-0.120471 111.254588 0 166.851765h64.090353v-166.851765h141.432471c0.301176-22.106353 0.602353-44.092235-1.204706-66.078117-46.682353 1.445647-93.424941 0.361412-140.227765 0.722823V488.508235c47.224471 0.240941 94.388706 0.120471 141.552941 0.120471 0-21.564235 0-43.128471-0.662588-64.692706-41.803294 0.421647-83.606588 0.602353-125.349647-0.060235 38.369882-39.152941 76.8-78.125176 114.627765-117.76-14.878118-14.697412-29.515294-29.696-44.092235-44.694589-38.128941 42.044235-79.028706 81.257412-118.061177 122.217412-39.152941-40.96-80.112941-80.173176-118.181647-122.277647-14.034824 15.179294-29.635765 28.732235-42.887529 44.574118z"  /></svg>