<?xml version="1.0" standalone="no"?><!DOCTYPE svg PUBLIC "-//W3C//DTD SVG 1.1//EN" "http://www.w3.org/Graphics/SVG/1.1/DTD/svg11.dtd"><svg class="icon" width="48px" height="48.00px" viewBox="0 0 1024 1024" version="1.1" xmlns="http://www.w3.org/2000/svg"><path fill="#D9DDE1" d="M1023.99936 613.823616V1023.99936H89.407944a88.703945 88.703945 0 0 1-89.087944-88.255945L0 149.951906C0 102.399936 38.783976 63.99996 86.783946 63.99996h105.535934v168.959894H426.879733V63.99996h170.687894v168.959894h234.687853V63.99996h107.775932C986.367384 63.99996 1023.99936 101.247937 1023.99936 147.071908v466.751708zM158.847901 307.263808l135.167915 252.799842H204.607872v47.99997H319.9998l0.64 0.64v60.351962H204.671872v47.93597h116.159927v108.927932h88.703945v-108.927932h116.863927v-47.99997H409.471744v-60.223962l0.64-0.768h116.223927v-47.93597H436.223727l135.167916-252.799842H471.423705L365.119772 526.015671 258.815838 307.327808H158.847901zM609.279619 730.879543l-30.399981 45.119972-2.623998 49.343969h383.99976l-0.64-60.607962-39.679975-46.527971c16.51199-241.151849-98.559938-226.367859-98.559938-226.367858-8.511995-79.67995-68.671957-59.903963-68.671957-59.903963-44.287972-4.287997-60.799962 59.199963-60.799962 59.199963C607.99962 477.695701 609.279619 730.879543 609.279619 730.879543z m60.735962 120.831925c5.567997 70.847956 43.967973 106.239934 115.199928 106.239933 71.167956 0 109.567932-35.391978 115.199928-106.239933h-230.399856z"  /><path fill="#D9DDE1" d="M383.99976 0v191.99988H255.99984V0h127.99992z m383.99976 0v191.99988h-127.99992V0h127.99992z"  /></svg>