<?xml version="1.0" standalone="no"?><!DOCTYPE svg PUBLIC "-//W3C//DTD SVG 1.1//EN" "http://www.w3.org/Graphics/SVG/1.1/DTD/svg11.dtd"><svg class="icon" width="48px" height="48.00px" viewBox="0 0 1024 1024" version="1.1" xmlns="http://www.w3.org/2000/svg"><path fill="#D9DDE1" d="M0.00064 1006.08v-102.08c0-4.8 1.92-9.408 5.376-12.8a18.432 18.432 0 0 1 13.056-5.184h987.136a18.432 18.432 0 0 1 18.432 17.92v102.08a18.432 18.432 0 0 1-18.432 17.984H18.43264a18.368 18.368 0 0 1-13.056-5.12 17.664 17.664 0 0 1-5.376-12.8zM90.17664 339.84h203.968a18.176 18.176 0 0 1 12.672 5.376c3.392 3.328 5.184 7.872 5.12 12.544v459.776a17.472 17.472 0 0 1-5.12 12.608 18.112 18.112 0 0 1-12.672 5.312H90.24064a18.112 18.112 0 0 1-12.736-5.312 17.472 17.472 0 0 1-5.056-12.608V357.76a17.536 17.536 0 0 1 5.12-12.544 18.176 18.176 0 0 1 12.672-5.376z m319.808-146.816h204.032a17.92 17.92 0 0 1 17.728 18.048v606.464a17.472 17.472 0 0 1-5.056 12.608 18.112 18.112 0 0 1-12.672 5.312H409.98464a18.112 18.112 0 0 1-12.672-5.312 17.472 17.472 0 0 1-5.12-12.608V211.072a17.92 17.92 0 0 1 17.792-18.048zM729.85664 0h203.968a18.176 18.176 0 0 1 12.672 5.376c3.328 3.392 5.184 7.872 5.12 12.608v799.552a17.472 17.472 0 0 1-5.12 12.608 18.112 18.112 0 0 1-12.672 5.312h-203.968a18.112 18.112 0 0 1-12.736-5.312 17.472 17.472 0 0 1-5.056-12.608V17.92a17.472 17.472 0 0 1 5.12-12.608 18.112 18.112 0 0 1 12.672-5.376z"  /></svg>