<?xml version="1.0" standalone="no"?><!DOCTYPE svg PUBLIC "-//W3C//DTD SVG 1.1//EN" "http://www.w3.org/Graphics/SVG/1.1/DTD/svg11.dtd"><svg class="icon" width="48px" height="48.00px" viewBox="0 0 1024 1024" version="1.1" xmlns="http://www.w3.org/2000/svg"><path fill="#D9DDE1" d="M56.895893 690.110706h56.895894c15.103972 0 29.567945 5.823989 40.191924 16.25597a55.039897 55.039897 0 0 1 16.639969 39.359926v250.43153a28.159947 28.159947 0 0 1-28.415947 27.839948H28.415947A28.159947 28.159947 0 0 1 0 996.158132v-250.43153a55.039897 55.039897 0 0 1 16.639969-39.359926 57.535892 57.535892 0 0 1 40.255924-16.25597z m284.415467-194.815635h56.959893c15.039972 0 29.503945 5.887989 40.191925 16.31997a55.039897 55.039897 0 0 1 16.639969 39.359926v445.183165a28.159947 28.159947 0 0 1-28.415947 27.839948H312.895413a28.159947 28.159947 0 0 1-28.479946-27.839948V551.038967c0-30.719942 25.471952-55.679896 56.959893-55.679896z m284.479467 111.359792h56.895893c15.039972 0 29.567945 5.759989 40.191925 16.255969a55.039897 55.039897 0 0 1 16.639968 39.359926v333.887374a28.159947 28.159947 0 0 1-28.415946 27.839948H597.31088a28.159947 28.159947 0 0 1-28.415947-27.839948v-333.887374a55.039897 55.039897 0 0 1 16.639969-39.359926 57.535892 57.535892 0 0 1 40.255925-16.319969zM910.206293 383.99928h56.959894c15.039972 0 29.503945 5.887989 40.191924 16.319969a55.039897 55.039897 0 0 1 16.639969 39.359927v556.478956a28.159947 28.159947 0 0 1-28.415947 27.839948h-113.791786a28.159947 28.159947 0 0 1-28.479947-27.839948V439.679176c0-30.719942 25.471952-55.679896 56.959893-55.679896z"  /><path fill="#D9DDE1" d="M886.398338 93.311825h-75.839858c-23.487956-0.192-42.43192-20.991961-42.43192-46.719912 0-25.599952 18.943964-46.463913 42.43192-46.591913h170.75168c23.551956 0 42.68792 20.863961 42.68792 46.655913v186.55965a47.615911 47.615911 0 0 1-21.24796 40.703923 39.551926 39.551926 0 0 1-42.87992 0 47.615911 47.615911 0 0 1-21.24796-40.703923V168.831683l-248.959533 301.055436a40.127925 40.127925 0 0 1-59.199889 2.559995L371.839303 248.511534l-298.87944 313.599412a40.127925 40.127925 0 0 1-59.839888 0.959998 49.791907 49.791907 0 0 1-1.919996-65.343877l327.295386-346.239351a40.127925 40.127925 0 0 1 59.263889-2.559995l258.623515 223.99958 229.951569-279.679476z"  /></svg>