<?xml version="1.0" standalone="no"?><!DOCTYPE svg PUBLIC "-//W3C//DTD SVG 1.1//EN" "http://www.w3.org/Graphics/SVG/1.1/DTD/svg11.dtd"><svg class="icon" width="48px" height="48.00px" viewBox="0 0 1024 1024" version="1.1" xmlns="http://www.w3.org/2000/svg"><path fill="#D9DDE1" d="M14.208 768c1.728 0 3.52 0.256 5.12 0.832l489.6 166.144a16 16 0 0 0 10.24 0l485.504-166.08a15.872 15.872 0 0 1 13.184 1.344 12.16 12.16 0 0 1 6.144 10.368v205.824c0 20.736-19.136 37.568-42.688 37.568H42.688C19.072 1024 0 1007.168 0 986.432v-205.888C0 773.568 6.4 768 14.208 768z m497.6-192A515.328 515.328 0 0 1 896 747.392l-376.448 147.52a15.104 15.104 0 0 1-8.256 0.832l-2.688-0.832L128 746.944A515.52 515.52 0 0 1 511.808 576z m-9.792-576c149.248 0 270.208 116.16 270.208 259.392 0 143.296-120.96 259.456-270.208 259.456-149.248 0-270.208-116.16-270.208-259.456C231.808 116.16 352.768 0 502.016 0z"  /></svg>