<?xml version="1.0" standalone="no"?><!DOCTYPE svg PUBLIC "-//W3C//DTD SVG 1.1//EN" "http://www.w3.org/Graphics/SVG/1.1/DTD/svg11.dtd"><svg class="icon" width="48px" height="45.34px" viewBox="0 0 1084 1024" version="1.1" xmlns="http://www.w3.org/2000/svg"><path fill="#D9DDE1" d="M320.752941 96.557176L247.326118 25.901176C124.084706 116.254118 43.008 255.698824 35.779765 413.816471h102.640941c7.710118-131.011765 77.643294-245.76 182.332235-317.259295zM957.138824 413.756235h102.701176c-7.710118-158.057412-88.847059-297.562353-211.606588-387.915294l-72.884706 70.716235c103.725176 71.559529 174.08 186.247529 181.790118 317.199059z m-101.195295 24.696471c0-151.792941-84.269176-278.708706-231.062588-312.380235v-33.611295c0-40.96-34.454588-74.089412-77.101176-74.089411-42.586353 0-76.980706 33.129412-76.980706 74.089411v33.611295C323.282824 159.623529 239.676235 286.117647 239.676235 438.452706v247.024941l-102.701176 98.906353v49.453176h821.669647v-49.392941l-102.761412-98.785882V438.392471z m-308.103529 543.683765a103.424 103.424 0 0 0 94.509176-60.235295c5.12-11.806118 7.649882-24.696471 7.649883-38.550588H444.536471c0.602353 54.272 46.200471 98.785882 103.243294 98.785883z"  /></svg>