<?xml version="1.0" standalone="no"?><!DOCTYPE svg PUBLIC "-//W3C//DTD SVG 1.1//EN" "http://www.w3.org/Graphics/SVG/1.1/DTD/svg11.dtd"><svg class="icon" width="48px" height="48.00px" viewBox="0 0 1024 1024" version="1.1" xmlns="http://www.w3.org/2000/svg"><path fill="#D9DDE1" d="M573.44 0h-128C409.6 0 384 34.112 384 79.616v864.768c0 45.44 30.72 79.616 61.44 79.616h128c35.84 0 66.56-34.112 66.56-79.616V79.616C640 34.176 609.28 0 573.44 0z m-384 128h-128C25.6 128 0 157.888 0 197.696V954.24C0 994.112 30.72 1024 61.44 1024h128C225.28 1024 256 994.112 256 954.304V197.76C256 157.888 225.28 128 189.44 128z m773.12 128h-128C798.72 256 768 289.152 768 333.376v613.248c0 44.224 30.72 77.376 66.56 77.376h128c35.84 0 61.44-33.152 61.44-77.376V327.808C1024 289.152 993.28 256 962.56 256z"  /></svg>