<?xml version="1.0" standalone="no"?><!DOCTYPE svg PUBLIC "-//W3C//DTD SVG 1.1//EN" "http://www.w3.org/Graphics/SVG/1.1/DTD/svg11.dtd"><svg class="icon" width="48px" height="48.00px" viewBox="0 0 1024 1024" version="1.1" xmlns="http://www.w3.org/2000/svg"><path fill="#D9DDE1" d="M199.61856 561.28a87.04 87.04 0 0 0 111.68-50.56A215.232 215.232 0 0 1 511.36256 372.48c88.32 0 169.152 55.488 200 138.24a86.4 86.4 0 0 0 111.744 50.56 87.04 87.04 0 0 0 50.56-111.68 389.376 389.376 0 0 0-140.096-179.648 383.104 383.104 0 0 0-222.208-70.4 387.584 387.584 0 0 0-361.664 250.048c-17.28 45.056 5.504 95.04 49.92 111.68z m-9.92-96.256A347.392 347.392 0 0 1 406.40256 259.456a42.88 42.88 0 0 1 54.272 27.776 43.392 43.392 0 0 1-27.776 54.336 259.712 259.712 0 0 0-162.304 154.304 43.072 43.072 0 0 1-40.128 27.776 34.56 34.56 0 0 1-15.424-3.072 42.88 42.88 0 0 1-25.344-55.552z m358.656 104.96a41.088 41.088 0 0 1-37.056 58.048 40.704 40.704 0 0 1-40.704-40.832V423.68c0-3.136 2.432-6.208 5.504-6.784 3.136-0.64 6.848 1.216 8.064 4.288l64.192 148.736zM939.65056 0H82.94656C36.67456 0 0.00256 36.672 0.00256 82.944v856.128a83.2 83.2 0 0 0 82.944 83.904h856.128c46.272 0 83.904-37.632 83.904-83.904V82.944C1022.97856 36.672 985.34656 0 939.65056 0z m-504.32 928.576a48.192 48.192 0 0 1 0-96.32 48.192 48.192 0 0 1 0 96.32z m151.872 0a48.192 48.192 0 0 1 0-96.32c26.56 0 48.192 21.632 48.192 48.192a49.024 49.024 0 0 1-48.192 48.128z m350.016-190.08H85.37856V84.736h851.84v653.632z"  /></svg>