<?xml version="1.0" standalone="no"?><!DOCTYPE svg PUBLIC "-//W3C//DTD SVG 1.1//EN" "http://www.w3.org/Graphics/SVG/1.1/DTD/svg11.dtd"><svg class="icon" width="48px" height="48.00px" viewBox="0 0 1024 1024" version="1.1" xmlns="http://www.w3.org/2000/svg"><path fill="#D9DDE1" d="M407.515429 78.08C372.662857 31.926857 315.209143 0 252.525714 0 144.530286 0 57.417143 90.514286 57.417143 200.521143c0 35.510857 8.740571 71.021714 26.148571 99.401143 73.142857-111.798857 189.805714-193.462857 323.913143-221.842286zM945.627429 301.714286c15.689143-30.171429 26.112-63.890286 26.112-99.401143 0-110.043429-87.04-200.521143-195.035429-200.521143C714.020571 1.792 658.285714 31.963429 621.714286 79.872c132.388571 26.624 249.051429 108.251429 323.913143 221.842286z m-431.908572-161.499429C274.285714 140.214857 80.091429 338.066286 80.091429 582.107429S274.285714 1024 513.755429 1024c239.469714 0 433.627429-197.851429 433.627428-441.892571 0-244.077714-194.157714-441.892571-433.627428-441.892572z m0 505.782857l-188.050286-161.499428 43.52-53.248 139.337143 120.685714 165.449143-200.557714 48.749714 40.813714-208.969142 253.805714z"  /></svg>