<?xml version="1.0" standalone="no"?><!DOCTYPE svg PUBLIC "-//W3C//DTD SVG 1.1//EN" "http://www.w3.org/Graphics/SVG/1.1/DTD/svg11.dtd"><svg class="icon" width="48px" height="48.00px" viewBox="0 0 1024 1024" version="1.1" xmlns="http://www.w3.org/2000/svg"><path fill="#D9DDE1" d="M85.333333 326.656V967.111111a56.888889 56.888889 0 0 0 56.888889 56.888889h738.076445a56.888889 56.888889 0 0 0 56.888889-56.888889V264.533333a29.013333 29.013333 0 1 0-58.026667 0v604.956445a56.888889 56.888889 0 0 1-52.679111 56.775111l-467.399111 34.702222-50.858667 3.413333 48.184889-18.318222 381.838222-125.610666a56.888889 56.888889 0 0 0 39.139556-54.044445V80.668444a56.888889 56.888889 0 0 0-76.003556-53.646222l-540.444444 192.455111A113.777778 113.777778 0 0 0 85.333333 326.656z m339.968-6.144L490.951111 427.064889l121.173333-10.808889-76.970666 115.370667 34.133333 126.919111-113.095111-35.271111-100.408889 89.6 6.712889-137.102223-96.426667-71.964444 117.816889-49.550222 41.528889-133.688889z"  /></svg>