<?xml version="1.0" standalone="no"?><!DOCTYPE svg PUBLIC "-//W3C//DTD SVG 1.1//EN" "http://www.w3.org/Graphics/SVG/1.1/DTD/svg11.dtd"><svg class="icon" width="48px" height="48.00px" viewBox="0 0 1024 1024" version="1.1" xmlns="http://www.w3.org/2000/svg"><path fill="#D9DDE1" d="M674.944 213.248v59.52h204.672c0-16.448 0.64-31.808-0.448-46.976-0.384-4.416-6.336-11.968-9.728-11.968-64.384-0.768-128.832-0.64-194.496-0.64z"  /><path fill="#D9DDE1" d="M0.384 488v-352C0.512 52.352 52.288 0.704 135.936 0.704c110.208-0.128 220.288 0 330.56 0h21.504v21.824c0 147.84-0.256 295.68 0.448 443.584 0.064 18.048-5.12 22.464-22.592 22.208-147.904-0.64-295.808-0.448-443.84-0.448H0.384v0.064z m136.64-271.168v53.952h83.328v82.88h54.528v-83.84h82.752v-53.76H273.536V133.76h-54.08v83.2H137.024v-0.128zM32.576 869.12c0.128 65.664 37.44 102.912 103.168 102.912h319.936v-88.064c-0.064-166.528 0-243.712 0.384-335.104-141.184 0.384-282.368 0.512-423.552 0.384l0.064 319.872z m398.976 135.232l-295.872-0.064c-83.584 0-135.232-51.776-135.36-135.168V517.056h21.824c147.84 0 295.872 0.192 443.84-0.448 17.6-0.064 22.464 4.8 22.4 22.336-0.704 147.84-0.448 295.68-0.448 443.648l-0.064 21.76h-56.32zM888.64 32.256c65.664 0.064 102.912 37.376 102.912 103.104v320h-88.064a54444.16 54444.16 0 0 0-335.04 0.384c0.384-141.184 0.512-282.368 0.384-423.552h319.808v0.064z m135.296 398.976l-0.064-295.872C1023.872 51.84 972.032 0.128 888.576 0h-352v21.824c0 147.84 0.192 295.872-0.448 443.776-0.064 17.6 4.736 22.528 22.336 22.464 147.84-0.768 295.68-0.448 443.648-0.448l21.76-0.064v-56.32z"  /><path fill="#D9DDE1" d="M246.72 808.384c10.24 17.728 18.368 32.64 27.52 47.04 3.072 4.672 8.704 10.496 13.568 10.88 17.536 1.28 35.328 0.384 56.704 0.384l-39.936-60.032c-26.88-40.32-26.88-40.064 0.384-80.64l37.568-55.808c-17.728 0-30.592 0.896-43.2-0.128-13.184-1.152-21.248 3.008-26.88 15.488-6.272 13.696-14.976 26.24-23.552 41.28-9.92-16.96-18.112-32-27.52-46.464-2.624-4.224-7.872-9.216-12.352-9.6-17.408-1.024-34.944-0.448-56-0.448 19.84 30.08 36.864 56.768 55.296 82.816 7.552 10.624 7.296 17.92-0.256 28.416-19.2 26.88-37.12 54.592-57.792 85.184 18.112 0 32-0.832 45.824 0.256 12.672 1.024 19.904-3.392 25.408-14.848 6.784-14.016 15.552-27.136 25.216-43.776zM1024.256 536.384v352.128c-0.128 83.584-51.84 135.168-135.616 135.168-110.208 0.128-220.288 0-330.496 0H536.576v-21.888c0-147.84 0.256-295.68-0.448-443.52-0.064-18.112 5.12-22.464 22.592-22.272 147.84 0.64 295.872 0.448 443.84 0.448H1024.256z m-172.8 77.056l-50.176 90.304c-13.44 24.512-21.504 40.704-24.512 48.768h-0.896c-8.832-19.584-33.728-65.92-74.688-139.072h-47.168l87.744 147.2h-71.936v32.512h84.288v44.864h-84.288v32.96h84.288v65.28h41.856v-65.28h81.28v-32.96h-81.28v-44.8h81.28v-32.576h-69.76l88.576-147.2H851.456z"  /></svg>