<?xml version="1.0" standalone="no"?><!DOCTYPE svg PUBLIC "-//W3C//DTD SVG 1.1//EN" "http://www.w3.org/Graphics/SVG/1.1/DTD/svg11.dtd"><svg class="icon" width="48px" height="48.00px" viewBox="0 0 1024 1024" version="1.1" xmlns="http://www.w3.org/2000/svg"><path fill="#D9DDE1" d="M594.688 591.104c41.088 0 44.48 45.888 44.48 60.032 0 38.848-16.32 61.12-44.48 61.12a37.44 37.44 0 0 1-36.288-29.568v-60.864a38.592 38.592 0 0 1 36.288-31.04v0.32z m-331.392-60.928l26.24 90.24h-50.688l24.448-90.24z m-56.256-109.376l-112.512 366.464h102.4l25.024-89.088h84.416l28.16 89.088h106.56L326.08 420.8h-119.04z m251.2-18.56v386.112h84.48l1.6-20.288c18.88 17.472 43.84 26.816 69.504 25.984 33.024 0 64.64-13.44 87.488-37.248a153.216 153.216 0 0 0 39.104-109.056 145.6 145.6 0 0 0-38.272-106.24 106.24 106.24 0 0 0-76.8-31.36 107.328 107.328 0 0 0-67.776 21.44V401.92l-99.328 0.32zM152.768 84.48l-47.296 71.04h692.8a64 64 0 0 1 64 64V917.76l74.816-56.384V148.48a64 64 0 0 0-64-64H152.768zM174.272 0H896a128 128 0 0 1 128 128v711.808a128 128 0 0 1-50.56 101.952l-74.048 56.192a128 128 0 0 1-77.44 26.048H128a128 128 0 0 1-128-128V195.328a128 128 0 0 1 22.528-72.512L68.736 55.488A128 128 0 0 1 174.272 0z"  /></svg>