<?xml version="1.0" standalone="no"?><!DOCTYPE svg PUBLIC "-//W3C//DTD SVG 1.1//EN" "http://www.w3.org/Graphics/SVG/1.1/DTD/svg11.dtd"><svg class="icon" width="48px" height="48.00px" viewBox="0 0 1024 1024" version="1.1" xmlns="http://www.w3.org/2000/svg"><path fill="#D9DDE1" d="M512 1024a58.624 58.624 0 0 1-8.448-0.64C483.072 1020.416 0 950.4 0 619.52V60.672C0 34.112 16.64 10.496 41.6 1.728h940.8c24.96 8.768 41.6 32.384 41.6 58.88V619.52c0 330.88-483.008 400.96-503.552 403.84A58.624 58.624 0 0 1 512 1024zM124.608 129.344V619.52c0 203.904 329.728 268.992 387.392 278.72 57.6-9.728 387.392-74.816 387.392-278.72V129.344H124.608z"  /><path fill="#D9DDE1" d="M436.736 704c-16.768 0-33.6-6.592-46.4-19.392L211.2 504.128a66.56 66.56 0 0 1 0-93.568 65.28 65.28 0 0 1 92.8 0l134.144 135.168 219.328-207.808c26.432-24.96 67.84-23.68 92.8 2.88 24.704 26.688 23.424 68.48-2.944 93.568L481.664 686.08a65.28 65.28 0 0 1-44.928 17.92z"  /></svg>