<?xml version="1.0" standalone="no"?><!DOCTYPE svg PUBLIC "-//W3C//DTD SVG 1.1//EN" "http://www.w3.org/Graphics/SVG/1.1/DTD/svg11.dtd"><svg class="icon" width="48px" height="48.00px" viewBox="0 0 1024 1024" version="1.1" xmlns="http://www.w3.org/2000/svg"><path fill="#D9DDE1" d="M289.087266 91.902891h78.525906c27.967967 0 46.591944-18.367978 46.591945-45.951946 0-27.519967 18.559978-45.950945 46.590944-45.950945h93.118889c27.966967 0 46.589944 18.367978 46.589945 45.950945 0 27.519967 18.559978 45.951945 46.527944 45.951946h105.789874c27.967967 0 46.591944 18.366978 46.591945 45.949945v45.887945c0 27.583967-18.623978 45.950945-46.591945 45.950945H279.807277c-27.967967 0-46.590944-18.366978-46.590945-45.949945v-45.887945s0-45.950945 55.869934-45.950945z m734.899124 858.480977c0 46.079945-37.246956 73.598912-74.494911 73.598912H74.498521A72.958913 72.958913 0 0 1 0.00361 950.447868V202.236759c0-27.583967 27.967967-55.166934 55.870933-55.166934h83.838901v55.166934c0 55.038934 46.590944 101.05388 102.461877 101.05388h539.639358c55.870933 0 102.397878-45.950945 102.397878-101.11788v-45.886945h83.8399c27.966967 0 55.933933 27.519967 55.933933 55.102934v739.187119zM631.864857 703.476162H253.247308c-26.046969 0-52.158938 26.239969-52.158938 52.479937s26.111969 52.541937 52.159938 52.541938H623.159868c26.047969 0 52.159938-26.239969 52.159937-52.478938s-17.407979-52.478937-43.519948-52.478937z m-378.617549-262.459687c-26.046969 0-52.158938 26.239969-52.158938 52.479937s26.111969 52.541937 52.159938 52.541937h517.686384c26.111969 0 52.159938-26.239969 52.159937-52.478937s-26.047969-52.478937-52.159937-52.478938H253.247308zM451.452072 110.269869c0 20.287976 16.63998 36.735956 37.247956 36.735956a36.990956 36.990956 0 0 0 37.246955-36.735956A36.990956 36.990956 0 0 0 488.700028 73.534912a36.990956 36.990956 0 0 0-37.247956 36.734957z"  /></svg>