<?xml version="1.0" standalone="no"?><!DOCTYPE svg PUBLIC "-//W3C//DTD SVG 1.1//EN" "http://www.w3.org/Graphics/SVG/1.1/DTD/svg11.dtd"><svg class="icon" width="48px" height="48.00px" viewBox="0 0 1024 1024" version="1.1" xmlns="http://www.w3.org/2000/svg"><path fill="#D9DDE1" d="M639.9996 61.055962c0-18.751988-5.183997-33.215979-15.61599-44.479972C613.951616 5.375997 599.423625 0 580.671637 0H443.839723c-18.751988 0-33.279979 5.375997-43.711973 16.63999A63.48796 63.48796 0 0 0 383.99976 60.991962V127.99992h255.99984V61.055962z"  /><path fill="#D9DDE1" d="M983.999385 102.975936c-25.599984-24.639985-57.855964-37.247977-96.63994-38.975976h-156.927902v72.767955c-0.64 20.095987-7.167996 35.583978-19.135988 47.03997-11.903993 11.455993-28.607982 17.727989-48.895969 18.303989h-300.799812c-20.863987-0.576-36.991977-6.847996-48.895969-18.303989-11.967993-11.519993-18.559988-27.519983-19.135988-47.03997V63.99996H136.639915c-38.207976 1.151999-70.399956 14.335991-96.63994 38.975976-26.239984 24.639985-39.423975 55.039966-39.999975 92.287942v697.471564c0.64 36.671977 14.335991 67.647958 39.999975 92.863942 25.599984 25.215984 57.855964 37.823976 96.63994 38.399976h750.71953a139.647913 139.647913 0 0 0 96.63994-38.399976c26.239984-24.639985 39.423975-55.615965 39.999975-92.799942V195.199878a125.567922 125.567922 0 0 0-39.999975-92.223942zM396.799752 394.687753c29.887981-29.823981 68.031957-45.823971 115.199928-46.97597 47.167971 1.727999 85.311947 17.151989 114.559928 47.55197 29.247982 28.671982 45.375972 67.071958 45.375972 107.199933-0.64 45.247972-16.70399 82.559948-47.74397 111.16793a163.839898 163.839898 0 0 1-112.76793 44.159973 167.679895 167.679895 0 0 1-112.831929-47.039971 148.927907 148.927907 0 0 1-47.67997-108.287932c0.576-40.703975 17.279989-79.103951 45.887971-107.775933z m353.279779 451.071718c-8.319995 10.879993-18.495988 16.63999-30.399981 17.21599h-415.35974a38.399976 38.399976 0 0 1-30.399981-14.335991c-8.319995-9.791994-11.327993-21.759986-7.743995-37.247977 8.959994-33.855979 26.239984-60.159962 51.839967-80.25595 26.303984-19.519988 54.975966-29.823981 85.951947-30.399981h15.55199c31.039981 14.911991 62.079961 21.759986 92.479942 21.759986 30.463981 0 61.439962-7.423995 92.479942-21.759986h15.55199c30.399981 0.64 60.223962 11.519993 83.519948 30.399981 24.447985 19.455988 42.367974 46.399971 54.271966 80.25595a39.807975 39.807975 0 0 1-7.679995 34.367978z"  /></svg>