<?xml version="1.0" standalone="no"?><!DOCTYPE svg PUBLIC "-//W3C//DTD SVG 1.1//EN" "http://www.w3.org/Graphics/SVG/1.1/DTD/svg11.dtd"><svg class="icon" width="48px" height="48.00px" viewBox="0 0 1024 1024" version="1.1" xmlns="http://www.w3.org/2000/svg"><path fill="#D9DDE1" d="M950.53696 0c40.384 0 73.152 38.016 73.472 85.12v853.44c0 22.656-7.68 44.416-21.44 60.416-13.696 16-32.32 25.024-51.776 25.024H73.22496c-19.456 0-38.08-8.96-51.84-24.96A93.12 93.12 0 0 1 0.00896 938.496V85.12C0.07296 38.08 32.84096 0 73.22496 0h877.312zM191.17696 551.36a33.088 33.088 0 0 0-29.12 19.712 45.312 45.312 0 0 0 0 39.36c6.016 12.16 17.088 19.712 29.12 19.712h169.024a33.088 33.088 0 0 0 29.12-19.712 45.312 45.312 0 0 0 0-39.36 33.088 33.088 0 0 0-29.12-19.712H191.17696z m401.28 315.072c20.8 0 37.76-17.6 37.76-39.36a38.592 38.592 0 0 0-37.76-39.36H195.27296a37.44 37.44 0 0 0-32.64 19.648 40.96 40.96 0 0 0 0 39.424c6.72 12.16 19.2 19.648 32.64 19.648h397.184z m241.6-445.696h-91.712v-55.744h91.712a33.216 33.216 0 0 0 32.384-32.832 33.216 33.216 0 0 0-32.384-32.896h-77.824l87.04-85.632a32.512 32.512 0 0 0 0-46.464 33.664 33.664 0 0 0-46.912-0.256l-0.256 0.256-87.04 85.76-87.296-85.76a33.664 33.664 0 0 0-46.848-0.256l-0.256 0.256a32.512 32.512 0 0 0 0 46.464l86.912 85.76H583.81696a33.216 33.216 0 0 0-32.448 32.768c0 17.728 14.336 32.256 32.448 32.896h91.712v55.68H583.81696a33.216 33.216 0 0 0-32.448 32.896c0 17.664 14.336 32.192 32.448 32.832h91.712v34.304c1.088 17.216 15.68 30.592 33.28 30.592 17.728 0 32.32-13.44 33.408-30.592V486.4h91.712a33.216 33.216 0 0 0 32.384-32.832 33.216 33.216 0 0 0-32.384-32.896h0.128z"  /></svg>