<?xml version="1.0" standalone="no"?><!DOCTYPE svg PUBLIC "-//W3C//DTD SVG 1.1//EN" "http://www.w3.org/Graphics/SVG/1.1/DTD/svg11.dtd"><svg class="icon" width="48px" height="48.00px" viewBox="0 0 1024 1024" version="1.1" xmlns="http://www.w3.org/2000/svg"><path fill="#D9DDE1" d="M14.528 713.472c4.992 13.44 11.648 25.152 18.368 35.2 6.72 10.048 13.376 16.832 21.76 20.16 9.984 5.12 19.968 6.72 30.016 3.328 15.04-5.12 30.784-8 46.72-8.32 13.44 0 26.752 1.6 41.728 4.992a63.68 63.68 0 0 1 36.8 21.952c16.704 18.432 25.088 38.592 26.688 60.352 1.728 21.696-1.6 40.32-9.984 56.96-5.056 11.84-8.32 21.952-8.32 28.608 0 6.784 1.664 13.44 4.992 18.56 5.056 6.592 13.376 15.04 23.36 21.76 10.048 8.448 20.032 15.104 33.472 20.16 13.376 6.656 24.96 11.712 38.4 15.104 13.312 4.992 25.088 6.592 35.072 6.592 8.32 0 16.704-1.6 23.424-4.992a36.672 36.672 0 0 0 16.704-18.56c8.32-21.696 23.296-40.128 43.392-56.96a98.56 98.56 0 0 1 66.752-23.552c25.088 0 48.512 8.448 66.944 25.216 18.304 16.896 31.68 35.2 40.064 58.88h1.792c1.6 6.592 6.528 11.712 11.52 16.64 4.8 5.12 11.52 8.192 18.56 8.448 9.92 0 21.568 0 33.344-3.328 11.584-3.392 23.232-6.72 35.072-11.776 11.648-5.056 21.632-10.048 31.68-16.832 9.984-6.592 16.64-13.44 21.76-18.432 8.32-15.168 9.984-28.544 3.328-43.52a132.288 132.288 0 0 1-8.384-67.264c3.392-23.424 13.44-43.584 31.744-62.08 8.32-8.384 18.304-15.232 30.08-18.496 9.92-3.328 21.696-4.928 33.408-6.72 11.648 0 21.696 0 33.472 1.792 9.92 1.664 19.968 4.992 26.624 6.656 8.384 3.392 15.04 4.928 21.696 4.928a44.416 44.416 0 0 0 23.36-6.592 61.312 61.312 0 0 0 25.088-21.76c6.656-10.112 13.44-20.16 18.56-33.6 4.928-11.776 9.92-25.216 11.52-36.992 1.6-11.712 3.392-23.424 1.6-31.872a51.072 51.072 0 0 0-16.576-25.152c-3.392-1.664-8.448-5.12-13.44-8.448a113.152 113.152 0 0 1-51.84-40.256 120.768 120.768 0 0 1-18.304-65.472c0-26.752 8.32-48.64 25.088-68.8 16.768-20.16 35.072-33.6 58.56-41.984a39.168 39.168 0 0 0 23.296-41.984 301.44 301.44 0 0 0-16.768-63.744c-8.192-20.096-18.304-36.8-28.288-46.976a51.328 51.328 0 0 0-21.696-10.048 30.464 30.464 0 0 0-21.824 3.328c-21.568 10.048-46.72 13.44-71.808 11.712a91.136 91.136 0 0 1-63.424-30.08 114.688 114.688 0 0 1-30.08-62.208c-3.392-23.488 0-45.312 9.92-67.136 2.304-4.8 3.968-9.92 4.992-15.168 1.856-6.656 0-11.648-3.2-18.432a129.024 129.024 0 0 0-55.104-47.04 159.68 159.68 0 0 0-35.072-13.44 126.656 126.656 0 0 0-33.472-4.928c-6.656 0-11.776 3.328-21.696 13.44a532.48 532.48 0 0 0-13.376 18.432c-8.32 21.76-21.696 40.32-41.728 53.76-20.352 13.376-44.16 20.416-68.48 20.16a98.56 98.56 0 0 1-63.488-23.68 142.4 142.4 0 0 1-38.4-53.76C407.04 23.488 403.712 16.768 398.72 10.112 393.728 3.392 387.008 0 377.024 0c-8.512 0-18.368 1.792-30.08 3.392a189.184 189.184 0 0 0-38.4 10.112c-13.44 4.992-25.152 11.776-36.8 18.368C261.76 38.72 253.696 48 248.32 58.88a21.44 21.44 0 0 0-1.6 15.104c0 5.056 1.6 10.048 3.328 15.04 0 3.456 0 11.84 1.664 21.76a113.28 113.28 0 0 1 0 33.664 154.56 154.56 0 0 1-8.448 38.528c-4.864 11.904-11.584 23.68-19.968 31.872-17.536 16.384-39.68 27.008-63.424 30.336a158.72 158.72 0 0 1-68.544-10.048 43.52 43.52 0 0 0-18.368-5.056c-4.928-1.792-9.984 0-16.704 3.392a115.968 115.968 0 0 0-20.096 20.032c-6.144 9.728-11.712 19.84-16.64 30.208-4.992 10.176-8.32 21.824-11.712 33.6-3.2 10.368-4.864 21.12-5.056 31.872 0 8.32 1.728 16.832 6.784 25.28 4.992 10.048 9.92 15.104 16.64 16.832 21.76 8.256 41.856 23.488 58.496 41.856 16.64 18.432 25.024 41.984 25.024 67.072 0 25.216-8.32 47.04-26.752 67.2-16.512 18.56-37.12 32.96-60.16 41.984-11.584 3.328-20.032 13.44-21.76 30.272a79.36 79.36 0 0 0 1.728 33.408c3.392 13.632 6.72 27.008 11.776 40.448zM291.776 414.72c11.776-28.608 30.08-53.76 51.84-75.584a235.072 235.072 0 0 1 76.8-50.368c30.08-11.776 60.16-16.832 93.44-16.832 31.872 0 63.616 6.72 91.968 20.096a236.864 236.864 0 0 1 125.248 129.28c11.776 28.544 16.768 58.688 16.768 92.352 0.128 31.872-6.72 63.36-20.032 92.224-11.648 28.608-30.08 53.76-51.712 75.52a221.76 221.76 0 0 1-76.992 50.432c-29.824 11.52-61.504 17.28-93.44 16.832a210.432 210.432 0 0 1-91.904-20.16 269.248 269.248 0 0 1-75.2-53.632 238.72 238.72 0 0 1-50.112-77.248 239.68 239.68 0 0 1-16.64-92.288 258.56 258.56 0 0 1 19.968-90.624z"  /><path fill="#D9DDE1" d="M409.6 512a102.4 102.4 0 1 0 204.8 0 102.4 102.4 0 0 0-204.8 0z"  /></svg>