<?xml version="1.0" standalone="no"?><!DOCTYPE svg PUBLIC "-//W3C//DTD SVG 1.1//EN" "http://www.w3.org/Graphics/SVG/1.1/DTD/svg11.dtd"><svg class="icon" width="48px" height="48.00px" viewBox="0 0 1024 1024" version="1.1" xmlns="http://www.w3.org/2000/svg"><path fill="#D9DDE1" d="M480.3998 867.278361c0-43.498251 37.229385-78.808596 83.222389-78.808596h67.422289c48.35982-24.051974 51.494253-88.595702 49.895052-121.667166-52.325837-38.316842-83.990005-97.615192-83.990005-160.687656 0-111.944028 95.952024-195.998001 214.804598-195.998001 6.396802 0 13.433283 0 19.830085 0.767616V72.091954C831.584208 32.303848 797.489255 0 755.462269 0H76.121939C34.094953 0 0 32.303848 0 72.091954v879.304348C0 991.184408 34.094953 1023.488256 76.121939 1023.488256h404.277861v-156.209895zM172.841579 171.946027h407.476262c19.830085 0 35.630185 15.032484 35.630185 33.775112 0 18.806597-15.864068 33.83908-35.694153 33.839081h-407.476262c-19.830085 0-35.630185-15.032484-35.630185-33.839081 0-18.742629 15.864068-33.775112 35.694153-33.775112zM344.787606 587.226387H172.713643a34.734633 34.734633 0 0 1-35.630185-34.542729c0-18.806597 15.864068-33.775112 35.694153-34.542728H344.787606c19.830085 0 35.694153 15.032484 35.694153 34.542728 0 18.742629-15.864068 34.542729-35.694153 34.542729z m92.753623-174.248876H172.713643c-19.830085 0-35.630185-14.968516-35.630185-33.775112 0-18.742629 15.864068-33.775112 35.694153-33.775113H437.541229c19.830085 0 35.630185 15.032484 35.630185 33.775113 0 18.806597-15.8001 33.775112-35.630185 33.775112z"  /><path fill="#D9DDE1" d="M527.608196 1023.488256C518.396802 1023.488256 511.744128 1016.707646 511.744128 1009.15942v-136.187906c0-8.315842 7.484258-14.264868 15.864068-14.264867H600.01999l5.821089-2.302849c127.552224-46.696652 112.583708-191.904048 108.36182-220.497751l-2.494753-15.032484-14.136932-7.548226C655.928036 590.744628 630.084958 550.124938 630.084958 507.266367 630.084958 438.82059 691.750125 383.808096 766.784608 383.808096h9.97901c59.170415 3.774113 110.024988 42.858571 123.394303 95.568216 12.473763 50.406797-10.042979 102.348826-56.675662 130.942529l-13.369315 7.548225-1.663169 14.264868c-5.821089 41.387306-15.8001 179.110445 107.466267 224.271864l6.716642 2.302849h64.991504c9.211394 0 15.864068 6.716642 15.864068 14.264867v134.716642c0 14.264868-5.821089 15.8001-13.305347 15.8001H527.608196z"  /></svg>