<?xml version="1.0" standalone="no"?><!DOCTYPE svg PUBLIC "-//W3C//DTD SVG 1.1//EN" "http://www.w3.org/Graphics/SVG/1.1/DTD/svg11.dtd"><svg class="icon" width="48px" height="48.00px" viewBox="0 0 1024 1024" version="1.1" xmlns="http://www.w3.org/2000/svg"><path fill="#D9DDE1" d="M758.208 847.04H265.856a47.488 47.488 0 0 1-42.56-22.72 45.952 45.952 0 0 1 0-47.616 47.488 47.488 0 0 1 42.56-22.72h492.352c25.344 0.96 45.44 21.504 45.44 46.528 0 24.96-20.096 45.504-45.44 46.528z m-539.648-200.512c0-3.008 1.408-5.888 3.648-7.872a436.992 436.992 0 0 1 195.84-96.64c0.896-0.192 1.92-0.192 2.816-0.192h4.672c2.112 0 4.032 0.32 5.888 1.216 21.44 10.24 50.752 16.128 80.64 16.128 27.776 0.448 55.232-5.12 80.512-16.128a12.8 12.8 0 0 1 5.888-1.28h6.4c2.048 0 4.032 0.512 5.824 1.344a436.672 436.672 0 0 1 190.976 95.488c2.368 1.92 3.84 4.864 3.84 7.936v39.232c0 6.08-5.632 10.944-12.416 10.944H230.848c-6.784 0-12.288-4.864-12.288-11.072v-39.104z m154.88-284.608a21.312 21.312 0 0 1 13.44-19.456 118.4 118.4 0 0 1-7.04-40.384c0-69.12 59.072-125.696 132.224-125.056 73.28 0.64 132.992 58.496 132.224 124.992a121.408 121.408 0 0 1-7.04 40.32 21.44 21.44 0 0 1 13.44 19.584 21.76 21.76 0 0 1-6.784 15.36 22.528 22.528 0 0 1-15.872 6.144h-0.384c-4.736 56.384-54.592 112.96-115.52 112.96S401.216 439.808 396.672 383.36H396.096a22.4 22.4 0 0 1-16-6.08 21.76 21.76 0 0 1-6.784-15.488l0.128 0.064z m595.968-216.96L857.984 47.744C827.968 21.632 770.432 0 730.24 0H113.856C50.688 0 0 50.176 0 111.104v802.048C0 974.72 51.456 1024 113.856 1024h796.544C972.8 1024 1024 974.784 1024 913.152V264.448c0-39.552-24.64-93.312-54.592-119.488z"  /></svg>