<?xml version="1.0" standalone="no"?><!DOCTYPE svg PUBLIC "-//W3C//DTD SVG 1.1//EN" "http://www.w3.org/Graphics/SVG/1.1/DTD/svg11.dtd"><svg class="icon" width="48px" height="48.00px" viewBox="0 0 1024 1024" version="1.1" xmlns="http://www.w3.org/2000/svg"><path d="M401.713771 1023.296535c-19.824921 0-39.010328-6.842795-57.236465-20.144677a309.076908 309.076908 0 0 1-48.603031-44.382242 272.432781 272.432781 0 0 1-32.03963-44.446193c-8.057871-14.580909-8.057871-17.90638-7.802066-18.737748 0 0 0.127903-0.191854 0.575563-0.191854h230.352787c6.395136 22.766683 14.708812 45.085707 24.813127 66.189655-14.069299 15.348326-30.248992 29.417624-47.963518 41.568382A108.077793 108.077793 0 0 1 401.777722 1023.296535z" fill="#D9DDE1" /><path d="M421.794497 833.105199c6.267233 22.12717 14.389055 43.742728 24.301515 64.271114a279.403479 279.403479 0 0 1-47.196101 40.481209c-19.057504 13.110028-39.777744 19.824921-61.457254 19.824921-19.505164 0-38.498717-6.714892-56.533-19.633067a292.065847 292.065847 0 0 1-48.219323-43.806679 258.555336 258.555336 0 0 1-31.655922-43.614826c-7.034649-12.790271-7.738114-16.563401-7.674163-17.394769h228.434248v-0.127903zM422.753767 831.442464H193.296298c-3.005714 0-0.639514 6.714892 6.650941 20.016775 7.290455 13.301882 17.970331 28.010694 31.975679 43.934582 13.941396 15.923888 30.057138 30.696651 48.347226 43.934582 18.290088 13.301882 37.347592 20.016775 57.172513 20.016775a108.717307 108.717307 0 0 0 62.160719-20.016775c18.417991-12.598417 34.40583-26.539813 48.219323-41.632333A390.423034 390.423034 0 0 1 422.753767 831.442464z" fill="#DDCB72" /><path d="M26.830916 895.265918a25.708446 25.708446 0 0 1-23.917808-13.046076c-4.988206-8.633433-3.197568-19.505164 5.307963-32.423338 13.557688-23.214343 29.609478-49.434399 47.899566-78.020656 18.290088-28.650208 35.81276-59.730567 52.120356-92.601565 16.371547-32.807046 30.696651-68.236098 42.591604-104.880225a375.970028 375.970028 0 0 0 17.970331-116.135665c0-38.62662 5.563768-73.735915 16.627353-104.688371a296.094783 296.094783 0 0 1 43.614826-81.282175 282.025484 282.025484 0 0 1 62.032816-59.218956c23.406197-16.179693 47.963518-28.650208 73.352206-37.091788l0.895319-0.319756-0.447659-0.703465a115.368248 115.368248 0 0 1-18.993553-62.544427c0-31.528019 11.191487-58.323638 33.254706-79.811294A113.449707 113.449707 0 0 1 461.252484 0.074823c32.423338 0 59.986373 10.871731 82.049591 32.423338 22.12717 21.487656 33.254706 48.283275 33.254706 79.811294a111.083507 111.083507 0 0 1-17.778478 60.242178l-0.447659 0.703465 0.895319 0.319757c26.923521 8.441579 52.887772 20.912094 76.997434 37.091787 24.173613 16.243645 45.405463 36.580176 63.247892 60.370081 17.778477 23.917808 32.231484 51.608745 42.975312 82.433299a314.001163 314.001163 0 0 1 16.05179 103.345393c0 27.115375 3.133616 54.614459 9.145044 82.049591-135.832682 42.143944-226.835463 163.587571-226.835463 302.362016 0 17.202915 1.598784 34.981392 4.988206 54.166799H26.830916v-0.127903z" fill="#D9DDE1" /><path d="M961.991609 748.113846l-11.383341-27.499084s26.284008-60.625886 23.981759-62.864184l-34.789539-34.661635c-2.430152-2.3662-61.840962 25.260786-61.840962 25.260786l-27.371181-11.31939S826.414732 575.637036 823.089262 575.637036H773.97462c-3.389422 0-25.772397 61.521205-25.772397 61.521206l-27.371181 11.255438s-60.625886-26.284008-62.928135-23.917807l-34.661636 34.789538c-2.430152 2.302249 25.324737 61.71306 25.324738 61.71306l-11.319391 27.499083S575.725413 772.607216 575.725413 775.868735v49.242545c0 3.325471 61.585157 25.772397 61.585157 25.772397l11.31939 27.37118s-26.284008 60.497984-23.981759 62.864184l34.789538 34.789539c2.302249 2.3662 61.71306-25.388689 61.71306-25.388689l27.371181 11.31939s24.173613 61.393303 27.499083 61.393303h49.178594c3.389422 0 25.772397-61.521205 25.772397-61.521206l27.37118-11.255439s60.497984 26.284008 62.800233 23.917808l34.789538-34.789538c2.430152-2.302249-25.324737-61.71306-25.324737-61.71306l11.31939-27.371181s61.457254-24.173613 61.457254-27.499083v-49.242545c0.127903-3.389422-61.393303-25.708446-61.393303-25.708445z m-90.555121 51.288988c0 39.521939-32.295435 71.817374-71.817374 71.817374a71.881325 71.881325 0 0 1-71.817374-71.817374 71.881325 71.881325 0 0 1 143.634748 0z" fill="#D9DDE1" /></svg>