<?xml version="1.0" standalone="no"?><!DOCTYPE svg PUBLIC "-//W3C//DTD SVG 1.1//EN" "http://www.w3.org/Graphics/SVG/1.1/DTD/svg11.dtd"><svg class="icon" width="48px" height="48.00px" viewBox="0 0 1024 1024" version="1.1" xmlns="http://www.w3.org/2000/svg"><path fill="#D9DDE1" d="M511.966784 1024c-22.225189 0-44.450379-7.348166-66.675568-22.044497L126.910862 810.782737C89.86888 788.678009 60.235294 744.528785 60.235294 700.439791V318.094258c0-44.088993 22.225189-88.238218 66.675568-110.282715L445.291216 16.638777c44.450379-22.104728 88.900757-22.104728 133.351136 0l318.380355 191.172766C934.064689 229.85604 963.698275 274.005264 963.698275 318.094258v382.345533c0 44.149224-22.225189 88.238218-66.675568 110.342946l-318.380355 191.172766c-22.28542 14.696331-44.450379 22.044497-66.675568 22.044497z m-296.215395-330.908374l296.215395 176.476435 296.215396-176.476435V325.442423L511.966784 148.965988l-296.215395 176.476435v367.649203z"  /><path fill="#D9DDE1" d="M361.389621 512.037644a150.577163 150.577163 0 1 0 301.154327 0 150.577163 150.577163 0 0 0-301.154327 0z"  /></svg>