<?xml version="1.0" standalone="no"?><!DOCTYPE svg PUBLIC "-//W3C//DTD SVG 1.1//EN" "http://www.w3.org/Graphics/SVG/1.1/DTD/svg11.dtd"><svg class="icon" width="48px" height="48.00px" viewBox="0 0 1024 1024" version="1.1" xmlns="http://www.w3.org/2000/svg"><path fill="#D9DDE1" d="M823.488 0C861.888 0 896 40.704 896 93.12v249.408l-3.648-1.536c-107.264-43.52-233.216-18.432-318.336 66.688l-10.24 10.752a296.448 296.448 0 0 0-75.136 235.904l2.624 17.024-133.76 133.888A128 128 0 0 0 337.28 960L72.512 960C34.112 960 0 913.472 0 861.12V98.88C0 46.528 34.112 0 72.512 0zM275.2 384H172.8a44.8 44.8 0 0 0 0 89.6h102.4a44.8 44.8 0 0 0 0-89.6z m256-192H172.8a44.8 44.8 0 0 0 0 89.6h358.4a44.8 44.8 0 0 0 0-89.6z"  /><path fill="#D9DDE1" d="M984.192 510.4c39.168 83.904 22.848 188.352-48.128 259.328a231.168 231.168 0 0 1-237.76 56.832L538.496 986.24a64 64 0 0 1-90.496 0l-45.248-45.248a64 64 0 0 1 0-90.496l159.68-159.744a231.168 231.168 0 0 1 56.832-237.824c70.976-70.976 175.424-87.296 259.328-48.128L752 531.392l105.6 105.6 126.592-126.592z"  /></svg>