<?xml version="1.0" standalone="no"?><!DOCTYPE svg PUBLIC "-//W3C//DTD SVG 1.1//EN" "http://www.w3.org/Graphics/SVG/1.1/DTD/svg11.dtd"><svg class="icon" width="48px" height="48.00px" viewBox="0 0 1024 1024" version="1.1" xmlns="http://www.w3.org/2000/svg"><path fill="#D9DDE1" d="M638.184107 1024H222.383218v-62.236444c-25.998222-14.051556-82.602667-50.232889-132.380445-120.490667C30.26944 756.963556-30.886116 605.013333 17.46944 360.163556L21.224107 341.333333h822.385777l2.730667 20.195556c2.616889 19.569778 60.472889 473.429333-208.156444 603.761778V1024z m166.684444-510.862222s7.395556-53.304889-3.413333-125.326222H60.47744C42.955662 447.260444 47.506773 518.826667 47.506773 518.826667l757.361778-5.745778z"  /><path fill="#D9DDE1" d="M808.964551 739.555556c-7.395556 0-11.889778-0.341333-12.515555-0.398223a22.584889 22.584889 0 0 1-20.081778-24.234666 22.528 22.528 0 0 1 23.552-20.821334c6.712889 0.455111 163.384889 10.410667 178.062222-135.168 3.982222-39.708444-2.730667-66.901333-20.024889-80.782222-25.031111-19.968-73.102222-13.596444-109.795555-0.910222l-0.910223 0.341333a22.357333 22.357333 0 0 1-22.016-4.551111 22.755556 22.755556 0 0 1 7.793778-38.4l0.568889-0.170667c29.809778-10.24 104.277333-30.037333 152.234667 8.305778 30.151111 24.064 42.496 64.682667 36.864 120.775111-10.069333 99.441778-72.021333 142.108444-122.197334 160.426667A275.911111 275.911111 0 0 1 808.964551 739.555556zM363.865884 295.822222a22.698667 22.698667 0 0 1-13.425777-40.732444c13.368889-10.126222 41.016889-37.262222 41.016889-56.775111 0-17.692444-6.257778-25.713778-15.815112-37.831111-11.719111-14.961778-26.339556-33.564444-26.339555-69.12 0-51.768889 50.005333-86.129778 52.110222-87.552a22.357333 22.357333 0 0 1 31.175111 6.257777 22.755556 22.755556 0 0 1-6.087111 31.288889c-8.988444 6.144-32.312889 27.192889-32.312889 50.005334 0 19.911111 6.997333 28.785778 16.668445 41.073777 11.377778 14.449778 25.543111 32.426667 25.543111 65.877334 0 47.445333-53.134222 88.519111-59.164445 93.070222a22.300444 22.300444 0 0 1-13.368889 4.437333z m121.799112 6.257778a22.698667 22.698667 0 0 1-13.425778-40.732444c13.368889-10.069333 41.016889-37.205333 41.016889-56.775112 0-17.692444-6.257778-25.713778-15.815111-37.831111-11.719111-14.904889-26.339556-33.564444-26.339556-69.12 0-51.768889 50.005333-86.072889 52.110222-87.495111a22.357333 22.357333 0 0 1 31.175111 6.144 22.755556 22.755556 0 0 1-6.087111 31.345778c-9.045333 6.200889-32.312889 27.192889-32.312889 50.062222 0 19.854222 6.997333 28.728889 16.668445 41.016889 11.377778 14.449778 25.486222 32.426667 25.486222 65.877333 0 47.445333-53.077333 88.519111-59.107556 93.070223a22.186667 22.186667 0 0 1-13.368888 4.437333z"  /></svg>