<svg width="21" height="20" xmlns="http://www.w3.org/2000/svg"><g><path d="M1.82 3h14.36C17.187 3 18 3.73 18 4.631V18.37c0 .9-.814 1.631-1.82 1.631H1.82C.813 20 0 19.27 0 18.369V4.63C0 3.73.814 3 1.82 3zm.075 1.79c-.025 0-.05.009-.067.025a.085.085 0 00-.028.063v13.21c0 .024.01.047.028.063a.098.098 0 00.067.026h14.21c.025 0 .05-.01.067-.026a.085.085 0 00.028-.062V4.878a.085.085 0 00-.028-.063.098.098 0 00-.067-.026H1.895z"/><path d="M7.2 11.346v.217h.882c.409 0 .74.334.74.746a.743.743 0 01-.74.745H7.2v1.853c0 .342-.403.62-.9.62s-.9-.278-.9-.62v-1.853H4.341a.743.743 0 01-.741-.745c0-.412.331-.746.74-.746H5.4v-.247L4.38 11.3a.79.79 0 01-.68-.417.827.827 0 01.013-.81.788.788 0 01.692-.395l.612.01-1.262-1.85a.85.85 0 01-.106-.775.702.702 0 01.551-.478.653.653 0 01.637.314L6.13 8.793l1.203-1.862a.734.734 0 011.062-.208.849.849 0 01.195 1.132L7.379 9.728l1.03.017a.802.802 0 01.78.824.8.8 0 01-.805.797l-1.184-.02zm3.586-2.235V7.418c0-.464.358-.84.799-.84.44 0 .798.376.798.84V9.11h.857c.409 0 .74.334.74.746a.743.743 0 01-.74.745h-.857v1.047c0 .463-.357.838-.798.838-.441 0-.799-.375-.799-.838v-1.047h-.89a.74.74 0 01-.64-.373.75.75 0 010-.745.74.74 0 01.64-.373h.89zm-.597 6.415c-.421 0-.763-.364-.763-.814 0-.45.342-.814.763-.814h3.448c.421 0 .763.365.763.814 0 .45-.342.814-.763.814h-3.448z"/><path d="M20 0H5a1 1 0 00-1 1v1.63h1.97V1.457h12.318a1 1 0 011 1V17H20a1 1 0 001-1V1a1 1 0 00-1-1z"/></g></svg>