<svg width="19" height="20" xmlns="http://www.w3.org/2000/svg"><defs><linearGradient x1="50%" y1="22.197%" x2="50%" y2="100%" id="a"><stop stop-color="#B7B7B7" offset="0%"/><stop stop-color="#FFF" offset="100%"/></linearGradient><linearGradient x1="39.4%" y1="0%" x2="39.4%" y2="100%" id="b"><stop stop-color="#B7B7B7" offset="0%"/><stop stop-color="#FFF" offset="100%"/></linearGradient></defs><g><path d="M12.536 10.597h-1.769V9.503h1.767c.258 0 .466-.219.466-.492v-.577a.478.478 0 00-.466-.492h-1.797c-.007-.024-.018-.049-.028-.07l1.458-1.54a.812.812 0 000-1.104.712.712 0 00-1.045 0l-1.102 1.17L8.915 5.23a.712.712 0 00-1.045 0 .812.812 0 000 1.103l1.47 1.552a.574.574 0 00-.024.056h-1.85A.478.478 0 007 8.434v.575c0 .273.208.492.466.492h1.82v1.094h-1.82a.478.478 0 00-.466.492v.575c0 .272.208.492.466.492h1.82v1.305c0 .3.228.541.512.541h.452a.526.526 0 00.512-.54v-1.306h1.77c.258 0 .466-.22.466-.492v-.573a.473.473 0 00-.462-.492z"/><path d="M9.5 0C4.254 0 0 4.584 0 9.545 0 14.505 4.254 19 9.5 19S19 14.505 19 9.545 14.746 0 9.5 0zm2.92 16.41c-.924.39-1.907.59-2.92.59a7.422 7.422 0 01-2.92-.59 7.432 7.432 0 01-1.737-1.032L3.349 13.79A7.452 7.452 0 012 9.498a7.464 7.464 0 012.197-5.302A7.466 7.466 0 019.5 2c1.013 0 1.996.197 2.92.59a7.466 7.466 0 012.383 1.606A7.464 7.464 0 0117 9.498a7.417 7.417 0 01-.59 2.918 7.417 7.417 0 01-1.607 2.388 7.466 7.466 0 01-2.384 1.606z"/><path d="M3.836 19.903l1.034-.37s.608-.185 1.077-.284a9.56 9.56 0 011.77-.192c1.198-.023 2.57.827 4.653.835 2.621-.008 4.274-1.654 5.44-2.26.757-.405 1.18-.98 1.19-1.546a.96.96 0 00-.339-.708c-.222-.192-.531-.287-.866-.287-.463.003-.987.16-1.591.501-1.518.854-2.28 1.245-3.062 1.237-.4 0-.856-.096-1.471-.318-.848-.302-1.427-.513-1.751-.67a1.525 1.525 0 01-.288-.168c.004-.004.007-.004.022-.008a.846.846 0 01.251-.035c.637-.007 1.871.406 2.607.57.186.04.364.055.531.055.863-.004 1.584-.494 1.592-1.191-.004-.636-.616-1.164-1.639-1.382-1.667-.368-2.476-.67-3.663-.682-.31 0-.64.023-1.012.073-2.472.325-5.727 2.71-5.767 2.718l-.306.218-1.198.782c-.56-.843 3.772 3.94 2.786 3.112z"/></g></svg>