<svg width="25" height="23" xmlns="http://www.w3.org/2000/svg"><defs><linearGradient x1="5.863%" y1="21.187%" x2="82.325%" y2="112.258%" id="a"><stop stop-color="#FFF" offset="0%"/><stop stop-color="#FFF" offset="100%"/></linearGradient><linearGradient x1="5.863%" y1="21.187%" x2="82.325%" y2="112.258%" id="b"><stop stop-color="#FFF" offset="0%"/><stop stop-color="#FFF" offset="100%"/></linearGradient></defs><g><path d="M8.824 16h13.514C24.113 13.313 25 11.11 25 9.392 25 4.205 20.88 0 15.8 0c-1.86 0-4.185 1.09-6.976 3.268V16z"/><path d="M9.988 3.364C5.968 3.339 2.329 5.716.773 9.383a9.74 9.74 0 002.113 10.72 10.006 10.006 0 0010.825 2.155c3.717-1.516 6.142-5.1 6.142-9.076 0-5.4-4.407-9.785-9.865-9.818zm-.062 17.781c-3.145 0-6.357-2.156-7.56-5.03-1.204-2.874-.157-6.433 2.067-8.633 2.224-2.2 5.824-2.703 8.73-1.512 2.906 1.19 4.995 4.027 4.995 7.138.004 2.041-1.191 4.277-2.65 5.72-1.46 1.444-3.518 2.32-5.582 2.317z"/></g></svg>