<?xml version="1.0" encoding="UTF-8"?>
<svg width="23px" height="22px" viewBox="0 0 23 22" version="1.1" xmlns="http://www.w3.org/2000/svg" xmlns:xlink="http://www.w3.org/1999/xlink">
    <!-- Generator: Sketch 53 (72520) - https://sketchapp.com -->
    <title>caiwuguanli</title>
    <desc>Created with Sketch.</desc>
    <defs>
        <linearGradient x1="80.3358337%" y1="0%" x2="50%" y2="32.2586427%" id="linearGradient-1">
            <stop stop-color="#B7B7B7" offset="0%"></stop>
            <stop stop-color="#FFFFFF" offset="100%"></stop>
        </linearGradient>
        <linearGradient x1="82.3245512%" y1="0%" x2="82.3245512%" y2="111.749478%" id="linearGradient-2">
            <stop stop-color="#B7B7B7" offset="0%"></stop>
            <stop stop-color="#FFFFFF" offset="100%"></stop>
        </linearGradient>
    </defs>
    <g id="Page-2" stroke="none" stroke-width="1" fill="none" fill-rule="evenodd">
        <g id="图标" transform="translate(-625.000000, -341.000000)">
            <g id="caiwuguanli" transform="translate(625.000000, 341.000000)">
                <ellipse id="Oval" fill="url(#linearGradient-1)" cx="15.09375" cy="8.16129032" rx="7.90625" ry="8.16129032"></ellipse>
                <path d="M9.76279103,2.83889123 C5.83297214,2.81508581 2.27668258,5.13414622 0.75607063,8.71218369 C-0.76454132,12.2902212 0.0508471701,16.4205687 2.82113761,19.1727732 C5.59142805,21.9249776 9.76948449,22.7554751 13.4025555,21.2761055 C17.0356266,19.7967359 19.406176,16.2996765 19.40625,12.4193925 C19.4063504,7.1510965 15.098341,2.87121206 9.76279103,2.83889123 Z M9.703125,20.1899003 C6.62858871,20.1899003 3.48907044,18.0862398 2.31249635,15.2815956 C1.13592225,12.4769514 2.15950743,9.00399673 4.33353289,6.857415 C6.50755835,4.71083327 10.025972,4.21999732 12.8664731,5.38171899 C15.7069743,6.54344065 17.7494698,9.3114454 17.7494698,12.3471704 C17.7532651,14.3389213 16.5852502,16.5212175 15.1588612,17.9296005 C13.7324722,19.3379836 11.7203401,20.1936477 9.703125,20.1899003 Z" id="Shape" fill="#333333" fill-rule="nonzero"></path>
                <polygon id="Shape" fill="url(#linearGradient-2)" points="12.9375 14.9032258 10.235 14.6590846 7.1875 14.892611 7.39450001 12.3344362 7.1875 9.93548387 10.2005 10.1690102 12.9375 9.93548387 12.7075 12.4193548"></polygon>
            </g>
        </g>
    </g>
</svg>