<svg width="19" height="21" xmlns="http://www.w3.org/2000/svg"><path d="M8.333 7v2.333H6v2.334h2.333V14h2.334v-2.333H13V9.333h-2.333V7z"/><path d="M18.399 3.567l-.732-.11C13.43 2.814 10.592.412 10.563.387l-.077-.066A1.649 1.649 0 009.5 0c-.397 0-.758.138-1.037.365l-.042.037c-.064.055-2.88 2.465-7.069 3.052l-.758.106A.764.764 0 000 4.289v4.914c0 4.106 2.569 7.553 8.589 11.523.258.173.57.274.911.274.333 0 .642-.098.897-.263l.008-.006C16.43 16.758 19 13.311 19 9.203V4.29c0-.351-.257-.64-.601-.722zM17 9.2c0 3.013-1.224 5.64-7.52 9.799C3.184 14.84 2 12.214 2 9.201V5.254C6.771 4.584 9.48 2 9.48 2S12.278 4.538 17 5.254v3.947z"/></svg>