<svg width="23" height="22" xmlns="http://www.w3.org/2000/svg"><ellipse cx="15.094" cy="8.161" rx="7.906" ry="8.161"/><path d="M9.763 2.839C5.833 2.815 2.277 5.134.756 8.712a9.492 9.492 0 002.065 10.46c2.77 2.753 6.948 3.583 10.582 2.104 3.633-1.48 6.003-4.976 6.003-8.857 0-5.268-4.308-9.548-9.643-9.58zm-.06 17.35c-3.074 0-6.214-2.103-7.39-4.907-1.177-2.805-.153-6.278 2.02-8.425 2.175-2.146 5.693-2.637 8.533-1.475 2.841 1.161 4.883 3.93 4.883 6.965.004 1.992-1.164 4.174-2.59 5.583-1.427 1.408-3.439 2.264-5.456 2.26z"/><path d="M12.938 14.903l-2.703-.244-3.047.234.207-2.559-.207-2.399 3.013.234 2.736-.234-.23 2.484z"/></svg>