<?xml version="1.0" encoding="UTF-8"?>
<svg width="23px" height="22px" viewBox="0 0 23 22" version="1.1" xmlns="http://www.w3.org/2000/svg" xmlns:xlink="http://www.w3.org/1999/xlink">
    <!-- Generator: Sketch 53 (72520) - https://sketchapp.com -->
    <title>xiaoshouguanli</title>
    <desc>Created with Sketch.</desc>
    <defs>
        <linearGradient x1="71.5125536%" y1="32.9865398%" x2="-3.29866098%" y2="99.8853062%" id="linearGradient-1">
            <stop stop-color="#B7B7B7" offset="0%"></stop>
            <stop stop-color="#FFFFFF" offset="100%"></stop>
        </linearGradient>
    </defs>
    <g id="Page-2" stroke="none" stroke-width="1" fill="none" fill-rule="evenodd">
        <g id="图标" transform="translate(-624.000000, -438.000000)">
            <g id="xiaoshouguanli" transform="translate(625.000000, 438.000000)">
                <polygon id="Path" fill-opacity="0" fill="#000000" fill-rule="nonzero" points="0 3 19 3 19 22 0 22"></polygon>
                <path d="M8.90748979,4.00007681 C4.80290226,3.98339132 1.22268381,6.68682484 0.252293096,10.5356414 C-0.718097618,14.3844579 1.17488761,18.3730208 4.82859471,20.1780129 C6.9543975,21.2281948 11.4137701,21.5774252 14.3742034,19.3524194 C16.5019919,17.7532136 18,14.2492215 18,12.5469912 L8.90748979,12.5469912 L8.90748979,4.00007681 Z" id="Path" stroke="#252525" stroke-width="2" fill-rule="nonzero"></path>
                <path d="M22,10 C22,3.49664119 18.5410243,3.73522571e-16 11.9885109,0 L11.9885109,10 L22,10 Z" id="Shape" fill="url(#linearGradient-1)"></path>
            </g>
        </g>
    </g>
</svg>