<svg width="18" height="22" xmlns="http://www.w3.org/2000/svg"><g><path d="M10.002.303l7.028 4.22A2 2 0 0118 6.239v8.716a2 2 0 01-.93 1.689L10.198 21v-2.392l5.983-3.725V6.845L9.99 10.75a2 2 0 01-2.068.041L1.926 7.33v7.553l1.625.948c-.63.63-.65 1.049-.731 1.994L.936 16.642A2 2 0 010 14.948V6.234a2 2 0 01.965-1.711L7.937.306a2 2 0 012.065-.003zm-1.8 1.83L3.608 4.604A1 1 0 003.6 6.362l4.57 2.5a1 1 0 001.005-.026l4.276-2.634a1 1 0 00-.043-1.728L9.157 2.137a1 1 0 00-.955-.004z"/><path d="M5 18.5a3.5 3.5 0 107 0 3.5 3.5 0 00-7 0z"/></g></svg>