<svg width="20" height="18" xmlns="http://www.w3.org/2000/svg"><path d="M.338 7.734L4.07 1.266A2.533 2.533 0 016.266 0h7.468c.905 0 1.742.482 2.195 1.266l3.732 6.468a2.533 2.533 0 010 2.532l-3.732 6.468A2.533 2.533 0 0113.734 18h-7.47a2.533 2.533 0 01-2.193-1.266L.34 10.266a2.533 2.533 0 010-2.532H.338zm1.805 1.688l3.39 6.34c.151.26.43.422.732.422h7.469c.301 0 .58-.161.73-.423l3.465-6.339a.844.844 0 000-.844l-3.463-6.182a.844.844 0 00-.732-.422h-7.47c-.3 0-.58.161-.73.422l-3.39 6.182a.84.84 0 000 .844z"/><path d="M10 11.52c1.432 0 2.593-1.128 2.593-2.52 0-1.392-1.161-2.52-2.593-2.52S7.407 7.608 7.407 9c0 1.392 1.161 2.52 2.593 2.52z"/></svg>