<?xml version="1.0" standalone="no"?><!DOCTYPE svg PUBLIC "-//W3C//DTD SVG 1.1//EN" "http://www.w3.org/Graphics/SVG/1.1/DTD/svg11.dtd"><svg t="1601259748039" class="icon" viewBox="0 0 1025 1024" version="1.1" xmlns="http://www.w3.org/2000/svg" p-id="20834" xmlns:xlink="http://www.w3.org/1999/xlink" width="48.046875" height="48"><defs><style type="text/css"></style></defs><path d="M741.888 80.384c17.408-17.408 46.08-17.408 64 0l138.752 138.752c17.408 17.408 17.408 46.08 0 64l-138.752 138.752c-17.408 17.408-46.08 17.408-64 0l-138.752-138.752c-17.408-17.408-17.408-46.08 0-64l138.752-138.752m-47.616-47.616l-138.752 138.752c-44.032 44.032-44.032 115.2 0 159.232l138.752 138.752c44.032 44.032 115.2 44.032 159.232 0l138.752-138.752c44.032-44.032 44.032-115.2 0-159.232L853.504 32.768c-44.032-44.032-115.2-44.032-159.232 0zM123.392 0h215.04c82.432 0 123.392 40.96 123.392 123.392v215.04c0 82.432-40.96 123.392-123.392 123.392h-215.04C40.96 461.824 0 420.352 0 338.432v-215.04C0 40.96 40.96 0 123.392 0zM123.392 562.176h215.04c82.432 0 123.392 40.96 123.392 123.392v215.04c0 82.432-40.96 123.392-123.392 123.392h-215.04C40.96 1024 0 983.04 0 900.608v-215.04c0-81.92 40.96-123.392 123.392-123.392zM686.592 562.176h215.04c82.432 0 123.392 40.96 123.392 123.392v215.04c0 82.432-40.96 123.392-123.392 123.392h-215.04c-82.432 0-123.392-40.96-123.392-123.392v-215.04c0-81.92 40.96-123.392 123.392-123.392z" p-id="20835"></path></svg>