<svg width="24" height="20" xmlns="http://www.w3.org/2000/svg"><path d="M7 4l1.628-2.804A2.409 2.409 0 0110.714 0h7.093c.86 0 1.656.455 2.086 1.196l3.545 6.108c.43.74.43 1.652 0 2.392l-3.545 6.108A2.409 2.409 0 0117.807 17H16.52l1.918-3.304a2.38 2.38 0 000-2.392l-3.545-6.108A2.409 2.409 0 0012.807 4H7z"/><path d="M.338 9.734L4.07 3.266A2.533 2.533 0 016.266 2h7.468c.905 0 1.742.482 2.195 1.266l3.732 6.468a2.533 2.533 0 010 2.532l-3.732 6.468A2.533 2.533 0 0113.734 20h-7.47a2.533 2.533 0 01-2.193-1.266L.34 12.266a2.533 2.533 0 010-2.532H.338zm1.805 1.688l3.39 6.34c.151.26.43.422.732.422h7.469c.301 0 .58-.161.73-.423l3.465-6.339a.844.844 0 000-.844l-3.463-6.182a.844.844 0 00-.732-.422h-7.47c-.3 0-.58.161-.73.422l-3.39 6.182a.84.84 0 000 .844z"/><path d="M10 13.52c1.432 0 2.593-1.128 2.593-2.52 0-1.392-1.161-2.52-2.593-2.52S7.407 9.608 7.407 11c0 1.392 1.161 2.52 2.593 2.52z"/></svg>