<svg width="20" height="22" xmlns="http://www.w3.org/2000/svg"><g><path d="M6.9 10.075C4.78 8.677 4.244 5.917 5.345 3.663 6.446 1.408 9.41.118 11.853.85c2.444.731 4.217 3.309 3.838 5.78-.378 2.47-2.635 4.73-5.191 4.73-2.884 0-8.989 3.242-8.31 8.56-.025.33-.679.788-1.262.788-.582 0-.904-.458-.928-.788-.002-4.488 2.492-8.59 6.9-9.845zm3.42-.756c2.046 0 3.454-1.276 3.454-3.275 0-2-1.408-3.25-3.454-3.25-2.045 0-3.453 1.25-3.453 3.25s1.408 3.275 3.453 3.275z"/><path d="M9.89 15.266l4.516-3.28a.66.66 0 01.77 0l4.518 3.28c.163.12.26.307.26.507v4.92c0 .349-.29.632-.646.632h-9.034a.639.639 0 01-.644-.631v-4.921c0-.198.098-.388.26-.507zm3.396 4.797c.001.055 2.965.055 2.963.002V17.67c-.046-.388-.696-.69-1.481-.69-.786 0-1.435.302-1.482.69v2.392z"/></g></svg>