<?xml version="1.0" encoding="UTF-8"?>
<svg width="24px" height="22px" viewBox="0 0 24 22" version="1.1" xmlns="http://www.w3.org/2000/svg" xmlns:xlink="http://www.w3.org/1999/xlink">
    <!-- Generator: Sketch 53 (72520) - https://sketchapp.com -->
    <title>zhaoshangzulin</title>
    <desc>Created with Sketch.</desc>
    <defs>
        <linearGradient x1="83.8638833%" y1="13.937807%" x2="50%" y2="50%" id="linearGradient-1">
            <stop stop-color="#B7B7B7" offset="0%"></stop>
            <stop stop-color="#FFFFFF" offset="100%"></stop>
        </linearGradient>
        <linearGradient x1="14.3387761%" y1="50%" x2="100%" y2="50%" id="linearGradient-2">
            <stop stop-color="#333333" offset="0%"></stop>
            <stop stop-color="#FFFFFF" offset="100%"></stop>
        </linearGradient>
        <linearGradient x1="14.3387761%" y1="50%" x2="100%" y2="50%" id="linearGradient-3">
            <stop stop-color="#B7B7B7" offset="0%"></stop>
            <stop stop-color="#FFFFFF" offset="100%"></stop>
        </linearGradient>
        <linearGradient x1="14.3387761%" y1="50%" x2="100%" y2="50%" id="linearGradient-4">
            <stop stop-color="#B7B7B7" offset="0%"></stop>
            <stop stop-color="#FFFFFF" offset="100%"></stop>
        </linearGradient>
    </defs>
    <g id="Page-2" stroke="none" stroke-width="1" fill="none" fill-rule="evenodd">
        <g id="图标" transform="translate(-524.000000, -341.000000)">
            <g id="zhaoshangzulin" transform="translate(524.000000, 341.000000)">
                <circle id="Oval" fill="url(#linearGradient-1)" cx="18" cy="6" r="6"></circle>
                <g id="zulin" transform="translate(0.000000, 1.000000)">
                    <path d="M14.7606746,15.8184532 L8.3617701,15.8184532 C7.91876902,15.8184532 7.5294362,15.3404714 7.5294362,14.9717967 C7.5294362,14.603122 7.90725544,14.1815468 8.34736109,14.1815468 L14.7462656,14.1815468 C15.1892667,14.1815468 15.5294362,14.603122 15.5294362,14.9717967 C15.5294362,15.3404714 15.2007803,15.8184532 14.7606746,15.8184532 Z" id="Path-Copy-9" fill="url(#linearGradient-2)" transform="translate(11.529436, 15.000000) rotate(-90.000000) translate(-11.529436, -15.000000) "></path>
                    <path d="M10.8761153,11.7970924 L9.09323954,9.32451864 C8.85931796,8.98537311 9.10659241,8.46940813 9.38304518,8.18533752 C9.65949795,7.89836823 10.0706328,7.95344314 10.3021916,8.28968999 L11.5639503,10.1274529 L12.7808151,8.30708206 C13.010011,7.96503786 13.418783,7.91576031 13.6999615,8.19693224 C13.9787771,8.47810417 14.1125907,8.98247443 13.8833948,9.32451864 L12.4104667,11.6626506 C12.2875988,11.8452674 11.7742435,12 11.5804903,12 C11.3820113,12 11.001346,11.9768106 10.8761153,11.7970924 Z" id="Path" fill="url(#linearGradient-3)"></path>
                    <path d="M14.4489444,12.4711249 L8.84793062,12.4711249 C8.46016813,12.4711249 8.13199424,12.0495496 8.13199424,11.6808749 C8.13199424,11.3122002 8.46270253,10.890625 8.84793062,10.890625 L14.4489444,10.890625 C14.8367069,10.890625 15.13446,11.3122002 15.13446,11.6808749 C15.13446,12.0495496 14.8341725,12.4711249 14.4489444,12.4711249 Z M14.4489444,15.1247576 L8.84793062,15.1247576 C8.46016813,15.1247576 8.18287081,14.7016672 8.18287081,14.3329925 C8.18287081,13.9643178 8.46270253,13.5412274 8.84793062,13.5412274 L14.4489444,13.5412274 C14.8367069,13.5412274 15.1353165,13.9643178 15.1353165,14.3329925 C15.1353165,14.7016672 14.8341725,15.1247576 14.4489444,15.1247576 Z" id="Shape" fill="url(#linearGradient-4)"></path>
                    <path d="M17.7460057,20.890625 L15.9713341,20.890625 C15.590514,20.890625 15.2677361,20.4029866 15.2677361,20.0361662 C15.2677361,19.6669326 15.5806648,19.2061473 15.9589959,19.2061473 L17.3147664,19.203734 C17.503932,19.203734 17.6557622,19.0444567 17.6557622,18.8513934 L17.6681004,10.248008 C17.6681004,9.87877436 17.976739,9.58193947 18.3550701,9.58193947 L19.4609408,9.58193947 L11.6777738,3.11516869 C11.2372172,2.8159205 10.6622535,2.82316038 10.2291639,3.13206174 L2.83677319,9.58193947 L4.0589215,9.58193947 C4.43974163,9.58193947 4.74589115,9.88118765 4.74589115,10.248008 L4.74589115,18.8795872 C4.74589115,19.0750638 4.90021042,19.2319278 5.08688695,19.2319278 L9.83095785,19.2319278 C10.4357898,19.2319278 10.7401007,18.754096 10.7401007,18.1676661 L12.3478894,18.1676661 C12.3478894,19.49015 11.4911511,20.890625 9.82846883,20.890625 L4.5541973,20.890625 C3.60836953,20.890625 2.83677319,20.1352647 2.83677319,19.203734 L2.83221567,11 L1.17701706,11 C0.733971421,11 0.34526371,10.6413746 0.203389544,10.2335283 C0.0640043981,9.83050852 0.195922482,9.39128941 0.529451223,9.12341402 L9.35800678,1.44914598 C9.37045188,1.43707953 9.385386,1.42501307 9.40032013,1.4153599 C10.3312138,0.727571726 11.5906581,0.715505267 12.5339969,1.38157381 C12.548931,1.39122698 12.5638651,1.40329344 12.5787992,1.4153599 L21.7483506,9.10893427 C22.0918354,9.36956978 22.2337096,9.81361548 22.0968135,10.2190485 C21.9574283,10.6341347 21.5686585,11 21.1231238,11 L19.4679252,11 L19.4609408,19.203734 C19.4609408,20.1352647 18.6918335,20.890625 17.7460057,20.890625 Z" id="Path" fill="#333333" fill-rule="nonzero"></path>
                </g>
            </g>
        </g>
    </g>
</svg>