<svg width="21" height="20" xmlns="http://www.w3.org/2000/svg"><g><path d="M10.512 0a.858.858 0 00-.614.264L.243 9.6l-.024.023a.876.876 0 00.057 1.22c.345.323.881.898 1.206.54l1.082-1.162v8.051c0 .956.76 1.728 1.697 1.728h12.48c.938 0 1.697-.772 1.697-1.728V10l1.083 1.163c.325.35.862-.012 1.206-.342a.865.865 0 00.045-1.22L11.126.263A.819.819 0 0010.512 0zm-5.91 18.06V8.455l5.91-5.597 5.964 5.597v9.603h.265H4.603z"/><path d="M13.776 14.543l-1.106-1.208c.835-1.268.912-2.961.196-4.315-1-1.916-3.254-2.59-5.011-1.494-.844.517-1.465 1.387-1.724 2.414a4.345 4.345 0 00.35 3.05c1.002 1.918 3.255 2.592 5.011 1.497.011.023.032.033.052.056l1.115 1.209a.751.751 0 001.117 0c.299-.335.299-.874 0-1.209zm-4.102-1.255c-1.157 0-2.099-1.026-2.099-2.283 0-1.254.942-2.282 2.1-2.282 1.156 0 2.097 1.028 2.097 2.283 0 1.256-.941 2.283-2.098 2.283v-.001zm4.102 1.255l-1.106-1.208c.835-1.268.912-2.961.196-4.315-1-1.916-3.254-2.59-5.011-1.494-.844.517-1.465 1.387-1.724 2.414a4.345 4.345 0 00.35 3.05c1.002 1.918 3.255 2.592 5.011 1.497.011.023.032.033.052.056l1.115 1.209a.751.751 0 001.117 0c.299-.335.299-.874 0-1.209zm-4.102-1.255c-1.157 0-2.099-1.026-2.099-2.283 0-1.254.942-2.282 2.1-2.282 1.156 0 2.097 1.028 2.097 2.283 0 1.256-.941 2.283-2.098 2.283v-.001zm4.102 1.255l-1.106-1.208c.835-1.268.912-2.961.196-4.315-1-1.916-3.254-2.59-5.011-1.494-.844.517-1.465 1.387-1.724 2.414a4.345 4.345 0 00.35 3.05c1.002 1.918 3.255 2.592 5.011 1.497.011.023.032.033.052.056l1.115 1.209a.751.751 0 001.117 0c.299-.335.299-.874 0-1.209zm-4.102-1.255c-1.157 0-2.099-1.026-2.099-2.283 0-1.254.942-2.282 2.1-2.282 1.156 0 2.097 1.028 2.097 2.283 0 1.256-.941 2.283-2.098 2.283v-.001z"/></g></svg>