<?xml version="1.0" encoding="UTF-8"?>
<svg width="20px" height="20px" viewBox="0 0 20 20" version="1.1" xmlns="http://www.w3.org/2000/svg" xmlns:xlink="http://www.w3.org/1999/xlink">
    <!-- Generator: Sketch 53 (72520) - https://sketchapp.com -->
    <title>kehufuwuActive</title>
    <desc>Created with Sketch.</desc>
    <defs>
        <linearGradient x1="14.3387761%" y1="50%" x2="100%" y2="50%" id="linearGradient-1">
            <stop stop-color="#FFFFFF" offset="0%"></stop>
            <stop stop-color="#FFFFFF" offset="100%"></stop>
        </linearGradient>
    </defs>
    <g id="Page-2" stroke="none" stroke-width="1" fill="none" fill-rule="evenodd">
        <g id="图标" transform="translate(-797.000000, -541.000000)">
            <g id="kehufuwuActive" transform="translate(797.000000, 540.000000)">
                <path d="M10.5406839,17.4939473 L10.5404806,17.2293306 L10.5404806,17.22756 C10.516488,17.2287404 10.4910721,17.2293306 10.4644362,17.2293306 L2.32585952,17.2293306 C1.93974121,17.2293306 1.82994455,17.1122697 1.82994455,16.7252801 L1.82994455,4.27471994 C1.82994455,3.88773031 1.93974121,3.77066939 2.32585952,3.77066939 L7.67966729,3.77066939 C7.96127543,3.2607166 8.24227358,2.78204566 8.68573012,2.35236321 C8.81301294,2.22880983 8.94517559,2.11135543 9.08160813,2 L0.914972274,2 C0.409500927,2 0,2.39623646 0,2.88533469 L0,18.1146653 C0,18.6035668 0.409500927,19 0.914972274,19 L11,19 C10.6755102,18.5638251 10.5410702,18.0418711 10.5406839,17.4939473 Z" id="Path" fill="#FFFFFF" fill-rule="nonzero"></path>
                <path d="M18.0943873,2.57555108 C17.462712,1.96675236 16.7209592,1.49732953 15.8902976,1.18056619 L15.4974057,1.03097213 C15.4594925,1.01850598 15.4186579,1.01094452 15.3760876,1.01094452 C15.1944598,1.01135324 15.0469136,1.15399892 15.0469136,1.32995586 C15.0469136,1.33240823 15.0437595,1.33056895 15.0433149,1.33261259 L15.0477604,6.30375346 L12.6421442,6.30416218 L12.6421442,1.03097213 L11,2 L11,7.8372093 L12.6421442,7.90841523 L16.3293162,7.90718906 C16.5304193,7.90432797 16.6881264,7.757595 16.7105653,7.57162427 L16.7065644,3.8109281 C16.7027329,3.60309048 16.6862424,3.31595984 16.7958965,3.4218201 C18.8498998,5.40148881 18.8530751,8.21720839 16.8022471,10.2005557 C16.2912336,10.6945021 15.6917348,11.0750473 15.0206855,11.3317074 L14.6295083,11.4817101 L14.6348005,17.8991515 C14.6350122,18.1556277 14.6089746,18.3971853 14.5473736,18.6082723 C14.4108352,19.0760806 14.0996546,19.3948672 13.5117986,19.3955007 C12.8199828,19.3955007 12.4118706,19.0599359 12.3864681,18.0080773 C12.3856213,17.9733355 12.3851768,17.9379601 12.3851768,17.9018083 L12.3794612,11.484796 L11.9878394,11.335202 C11.3155201,11.0789302 10.7151745,10.6992229 10.2039281,10.206707 C8.35843693,8.42792755 8.16857444,5.97495309 9.63639406,4.05638905 L12.6421442,1.01094452 C11.9995678,0.932231187 11.3582183,1.03945388 10.7180958,1.33261259 C9.75791197,1.77235066 8.95250101,2.34070809 8.5,2.90793392 C8.25984155,3.20898093 8.0150789,3.59179931 7.76571206,4.05638905 C6.44986287,6.43313594 6.83005352,9.4613935 8.9054373,11.4614986 C9.43634941,11.9732246 10.0442946,12.3858344 10.7180958,12.6930131 L10.7229646,18.0365042 L10.7231763,18.311373 C10.7236208,18.8805252 10.9058625,19.4227015 11.2437157,19.8757752 C11.3319894,19.9949191 11.4314825,20.1077277 11.5409249,20.2133836 C12.0678361,20.7212472 12.7685216,21.0006121 13.5128147,20.999999 C15.0486071,20.9983641 16.2975631,19.7905761 16.2967163,18.3068975 L16.2918687,12.6883332 C16.9643997,12.3807662 17.5719427,11.9669302 18.1022198,11.4541824 C20.6354835,9.00421205 20.6323082,5.02157718 18.0943873,2.57555108 Z" id="Shape" fill="#FFFFFF" fill-rule="nonzero"></path>
                <path d="M6.90322581,7.8372093 C6.90322581,8.2995907 6.51328387,8.6744186 6.03225806,8.6744186 L4.87096774,8.6744186 C4.38994194,8.6744186 4,8.2995907 4,7.8372093 C4,7.37482791 4.38994194,7 4.87096774,7 L6.03225806,7 C6.51328387,7 6.90322581,7.37482791 6.90322581,7.8372093 Z M7.67741935,11 C7.67741935,11.4623628 7.28747742,11.8372093 6.80645161,11.8372093 L4.87096774,11.8372093 C4.38994194,11.8372093 4,11.4623628 4,11 C4,10.5376186 4.38994194,10.1627907 4.87096774,10.1627907 L6.80645161,10.1627907 C7.28747742,10.1627907 7.67741935,10.5376186 7.67741935,11 L7.67741935,11 Z M10,14.1627907 C10,14.6251535 9.61005806,15 9.12903226,15 L4.87096774,15 C4.38994194,15 4,14.6251535 4,14.1627907 C4,13.7003907 4.38994194,13.3255814 4.87096774,13.3255814 L9.12903226,13.3255814 C9.61005806,13.3255814 10,13.7003907 10,14.1627907 Z" id="Shape" fill="url(#linearGradient-1)"></path>
            </g>
        </g>
    </g>
</svg>