<svg class="icon" width="48" height="47.95" viewBox="0 0 1025 1024" xmlns="http://www.w3.org/2000/svg"><path d="M741.888 80.384c17.408-17.408 46.08-17.408 64 0L944.64 219.136c17.408 17.408 17.408 46.08 0 64L805.888 421.888c-17.408 17.408-46.08 17.408-64 0L603.136 283.136c-17.408-17.408-17.408-46.08 0-64L741.888 80.384m-47.616-47.616L555.52 171.52c-44.032 44.032-44.032 115.2 0 159.232l138.752 138.752c44.032 44.032 115.2 44.032 159.232 0l138.752-138.752c44.032-44.032 44.032-115.2 0-159.232L853.504 32.768c-44.032-44.032-115.2-44.032-159.232 0zM123.392 0h215.04c82.432 0 123.392 40.96 123.392 123.392v215.04c0 82.432-40.96 123.392-123.392 123.392h-215.04C40.96 461.824 0 420.352 0 338.432v-215.04C0 40.96 40.96 0 123.392 0zm0 562.176h215.04c82.432 0 123.392 40.96 123.392 123.392v215.04c0 82.432-40.96 123.392-123.392 123.392h-215.04C40.96 1024 0 983.04 0 900.608v-215.04c0-81.92 40.96-123.392 123.392-123.392zm563.2 0h215.04c82.432 0 123.392 40.96 123.392 123.392v215.04c0 82.432-40.96 123.392-123.392 123.392h-215.04C604.16 1024 563.2 983.04 563.2 900.608v-215.04c0-81.92 40.96-123.392 123.392-123.392z"/></svg>