<svg width="24" height="22" xmlns="http://www.w3.org/2000/svg"><path d="M21.843 10.608a6 6 0 10-8.924-7.8c-.582.924 7.883 8.669 8.924 7.8zM12.348 12.77v6.397c0 .443-.478.833-.846.833-.369 0-.79-.378-.79-.818v-6.4c0-.442.421-.782.79-.782.368 0 .846.328.846.768z"/><path d="M10.876 12.797l-1.783-2.472c-.234-.34.014-.856.29-1.14.276-.287.688-.232.92.105l1.261 1.837 1.217-1.82c.229-.342.638-.391.919-.11.279.281.413.785.183 1.128l-1.473 2.338c-.122.182-.636.337-.83.337-.198 0-.579-.023-.704-.203z"/><path d="M14.449 13.471H8.848c-.388 0-.716-.421-.716-.79 0-.369.33-.79.716-.79h5.6c.389 0 .686.421.686.79 0 .369-.3.79-.685.79zm0 2.654H8.848c-.388 0-.665-.423-.665-.792 0-.369.28-.792.665-.792h5.6c.389 0 .687.423.687.792 0 .369-.3.792-.686.792z"/><path d="M17.746 21.89h-1.775c-.38 0-.703-.487-.703-.854 0-.37.313-.83.691-.83l1.356-.002c.189 0 .34-.16.34-.353l.013-8.603c0-.37.309-.666.687-.666h1.106l-7.783-6.467a1.264 1.264 0 00-1.449.017l-7.392 6.45h1.222c.38 0 .687.3.687.666v8.632c0 .195.154.352.34.352h4.745c.605 0 .91-.478.91-1.064h1.607c0 1.322-.857 2.723-2.52 2.723H4.554c-.946 0-1.717-.756-1.717-1.687L2.832 12H1.177c-.443 0-.832-.359-.974-.766a1 1 0 01.326-1.11l8.829-7.675a2.672 2.672 0 013.176-.068c.015.01.03.022.045.034l9.17 7.694c.343.26.485.705.348 1.11-.14.415-.528.781-.974.781h-1.655l-.007 8.204c0 .931-.77 1.687-1.715 1.687z"/></svg>