<svg width="25" height="24" xmlns="http://www.w3.org/2000/svg"><defs><linearGradient x1="82.325%" y1="0%" x2="42.751%" y2="50%" id="a"><stop stop-color="#B7B7B7" offset="0%"/><stop stop-color="#FFF" offset="100%"/></linearGradient></defs><g><circle cx="15.5" cy="9.5" r="9.5"/><g><path d="M10.549 6.938a5.144 5.144 0 014.987 1.315 5.131 5.131 0 011.312 4.988.89.89 0 11-1.715-.472 3.357 3.357 0 00-.855-3.258 3.35 3.35 0 00-3.259-.856.89.89 0 01-.47-1.716v-.001zM19.28 20.02c-.463 1.686-2.695 3.215-5.062 3.215-.675 0-1.253-.067-1.768-.206-2.685-.67-5.287-1.99-7.251-3.938C3.253 17.1 1.66 14.2 1.02 11.596c-.82-3.23.805-6.424 2.692-6.994.243-.084.484-.084.698-.084 1.492 0 3.265 1.563 4.673 4.075.846 1.56.346 2.432-.248 3.256l-.214.308c-.123.177-.27.387-.434.636.047.147.115.286.2.413.08.099.605.9 1.146 1.438.36.389.511.628.763.798h.024l.224.146c.161.109.374.219.509.269.418-.267.683-.436.89-.607l.212-.15c.515-.343.875-.708 1.543-.708.59 0 1.062.227 1.408.425 3.615 2.01 4.482 4.036 4.174 5.203zm-4.933-3.526c-.244-.139-.398-.196-.532-.196-.132 0-.385.171-.679.368a13.55 13.55 0 01-1.164.791l-.175.109c-.125.061-.361.18-.704.18-.598 0-1.28-.409-1.545-.586l.001-.006c-.718-.374-1.642-1.3-1.653-1.312a11.83 11.83 0 01-1.232-1.547l-.056-.063c-.04-.058-.995-1.353-.337-2.345.175-.27.356-.535.543-.796l.205-.298c.553-.77.573-.797.265-1.364-1.451-2.59-2.452-2.87-2.814-2.87l-.18.008c-.955.287-1.921 2.121-1.327 4.454A13.935 13.935 0 006.51 17.33a13.79 13.79 0 006.29 3.531c.373.103.813.15 1.325.15 1.67 0 2.88-.783 3.09-1.54.07-.275.088-1.338-2.866-2.977h-.002z"/><path d="M21.67 12.404a.93.93 0 01-1.768-.553c.6-1.91.078-3.995-1.351-5.403a5.42 5.42 0 00-5.402-1.376.923.923 0 01-.542-1.765 7.279 7.279 0 017.252 1.837 7.173 7.173 0 011.81 7.262v-.002z"/></g></g></svg>