<svg width="21" height="24" xmlns="http://www.w3.org/2000/svg"><path d="M20.399 3.737l-.732-.116C15.43 2.949 12.592.432 12.563.407l-.077-.07a1.6 1.6 0 00-2.023.045l-.042.04c-.064.057-2.88 2.582-7.069 3.196l-.758.111A.793.793 0 002 4.493v5.149c0 4.3 2.569 7.912 8.589 12.071a1.59 1.59 0 001.808.01l.008-.004C18.43 17.556 21 13.945 21 9.642V4.493a.783.783 0 00-.601-.756z"/><path d="M8.333 10v2.333H6v2.334h2.333V17h2.334v-2.333H13v-2.334h-2.333V10z"/><path d="M18.399 6.567l-.732-.11c-4.236-.642-7.075-3.044-7.104-3.069l-.077-.066A1.649 1.649 0 009.5 3c-.397 0-.758.138-1.037.365l-.042.037c-.064.055-2.88 2.465-7.069 3.052l-.758.106A.764.764 0 000 7.289v4.914c0 4.106 2.569 7.553 8.589 11.523.258.173.57.274.911.274.333 0 .642-.098.897-.263l.008-.006C16.43 19.758 19 16.311 19 12.203V7.29c0-.351-.257-.64-.601-.722zM17 12.2c0 3.013-1.224 5.64-7.52 9.799C3.184 17.84 2 15.214 2 12.201V8.254C6.771 7.584 9.48 5 9.48 5S12.278 7.538 17 8.254v3.947z"/></svg>