<svg width="21" height="20" xmlns="http://www.w3.org/2000/svg"><defs><linearGradient x1="14.339%" y1="50%" x2="100%" y2="50%" id="a"><stop stop-color="#B7B7B7" offset="0%"/><stop stop-color="#FFF" offset="100%"/></linearGradient><linearGradient x1="13.544%" y1="8.664%" x2="100%" y2="55.672%" id="b"><stop stop-color="#B7B7B7" offset="0%"/><stop stop-color="#FFF" offset="100%"/></linearGradient></defs><g><path d="M1.82 3h14.36C17.187 3 18 3.73 18 4.631V18.37c0 .9-.814 1.631-1.82 1.631H1.82C.813 20 0 19.27 0 18.369V4.63C0 3.73.814 3 1.82 3zm.075 1.79c-.025 0-.05.009-.067.025a.085.085 0 00-.028.063v13.21c0 .024.01.047.028.063a.098.098 0 00.067.026h14.21c.025 0 .05-.01.067-.026a.085.085 0 00.028-.062V4.878a.085.085 0 00-.028-.063.098.098 0 00-.067-.026H1.895z"/><path d="M7.2 8.346v.217h.882c.409 0 .74.334.74.746a.743.743 0 01-.74.745H7.2v1.853c0 .342-.403.62-.9.62s-.9-.278-.9-.62v-1.853H4.341A.743.743 0 013.6 9.31c0-.412.331-.746.74-.746H5.4v-.247L4.38 8.3a.79.79 0 01-.68-.417.827.827 0 01.013-.81.788.788 0 01.692-.395l.612.01-1.262-1.85a.85.85 0 01-.106-.775.702.702 0 01.551-.478.653.653 0 01.637.314L6.13 5.793l1.203-1.862a.734.734 0 011.062-.208.849.849 0 01.195 1.132L7.379 6.728l1.03.017a.802.802 0 01.78.824.8.8 0 01-.805.797L7.2 8.346zm3.586-2.235V4.418c0-.464.358-.84.799-.84.44 0 .798.376.798.84V6.11h.857c.409 0 .74.334.74.746a.743.743 0 01-.74.745h-.857V8.65c0 .463-.357.838-.798.838-.441 0-.799-.375-.799-.838V7.602h-.89a.74.74 0 01-.64-.373.75.75 0 010-.745.74.74 0 01.64-.373h.89zm-.597 6.415c-.421 0-.763-.364-.763-.814 0-.45.342-.814.763-.814h3.448c.421 0 .763.365.763.814 0 .45-.342.814-.763.814h-3.448z" transform="translate(0 3)"/><path d="M5 .908h15a1 1 0 011 1v1.63H8.615a2 2 0 00-2 2v12.37H5a1 1 0 01-1-1v-15a1 1 0 011-1z" transform="matrix(-1 0 0 1 25 -.908)"/></g></svg>