<?xml version="1.0" encoding="UTF-8"?>
<svg width="25px" height="23px" viewBox="0 0 25 23" version="1.1" xmlns="http://www.w3.org/2000/svg" xmlns:xlink="http://www.w3.org/1999/xlink">
    <!-- Generator: Sketch 53 (72520) - https://sketchapp.com -->
    <title>juecefenxi</title>
    <desc>Created with Sketch.</desc>
    <defs>
        <linearGradient x1="5.86281758%" y1="21.1868367%" x2="82.3245512%" y2="112.25772%" id="linearGradient-1">
            <stop stop-color="#B7B7B7" offset="0%"></stop>
            <stop stop-color="#FFFFFF" offset="100%"></stop>
        </linearGradient>
    </defs>
    <g id="Page-2" stroke="none" stroke-width="1" fill="none" fill-rule="evenodd">
        <g id="图标" transform="translate(-326.000000, -340.000000)">
            <g id="juecefenxi" transform="translate(326.000000, 340.000000)">
                <path d="M8.82352941,16 L22.3378046,16 C24.1126015,13.3125219 25,11.1099136 25,9.39217529 C25,4.20502011 20.8807467,0 15.7993902,0 C13.9399024,0 11.6146155,1.08932392 8.82352941,3.26797177 L8.82352941,16 Z" id="Oval" fill="url(#linearGradient-1)"></path>
                <path d="M9.98751,3.36382242 C5.96723493,3.33942678 2.32908704,5.71598455 0.773473791,9.3827337 C-0.782139458,13.0494828 0.0520175653,17.2822357 2.88607428,20.1026766 C5.720131,22.9231176 9.99435754,23.7742059 13.7110543,22.2581577 C17.427751,20.7421095 19.8528655,17.1583461 19.8529412,13.1818568 C19.8530439,7.78294187 15.4458731,3.39694459 9.98751,3.36382242 Z M9.92647059,21.1450218 C6.78116492,21.1450218 3.56938153,18.9892045 2.36572516,16.1150236 C1.1620688,13.2408428 2.20921476,9.68178177 4.43328173,7.48197901 C6.6573487,5.28217624 10.2567488,4.77917081 13.1626324,5.96969549 C16.0685159,7.16022017 18.1580254,9.99685313 18.1580254,13.107844 C18.1619081,15.1489772 16.9670079,17.3853799 15.5077864,18.8286815 C14.0485649,20.2719832 11.9901177,21.1488621 9.92647059,21.1450218 Z" id="Shape" fill="#333333" fill-rule="nonzero"></path>
            </g>
        </g>
    </g>
</svg>