<svg width="20" height="20" xmlns="http://www.w3.org/2000/svg"><defs><linearGradient x1="14.339%" y1="50%" x2="100%" y2="50%" id="a"><stop stop-color="#FFF" offset="0%"/><stop stop-color="#FFF" offset="100%"/></linearGradient></defs><g><path d="M10.54 16.494v-.266l-.076.001H2.326c-.386 0-.496-.117-.496-.504V3.275c0-.387.11-.504.496-.504H7.68c.281-.51.562-.989 1.006-1.419.127-.123.26-.24.396-.352H.915C.41 1 0 1.396 0 1.885v15.23c0 .489.41.885.915.885H11c-.324-.436-.459-.958-.46-1.506z"/><path d="M18.094 1.576A6.488 6.488 0 0015.89.18l-.393-.15a.388.388 0 00-.12-.02.325.325 0 00-.33.319c0 .002-.003 0-.004.003l.005 4.97-2.406.001V.031L11 1v5.837l1.642.071h3.687a.384.384 0 00.382-.336l-.004-3.761c-.004-.208-.02-.495.089-.39 2.054 1.98 2.057 4.796.006 6.78a5.242 5.242 0 01-1.781 1.13l-.391.15.005 6.418c0 .257-.026.498-.088.71-.136.467-.447.786-1.035.787-.692 0-1.1-.336-1.126-1.388v-.106l-.007-6.417-.391-.15a5.251 5.251 0 01-1.784-1.128c-1.846-1.78-2.035-4.232-.568-6.15L12.642.01C12-.068 11.358.039 10.718.333 9.758.773 8.953 1.34 8.5 1.908c-.24.301-.485.684-.734 1.148a6.127 6.127 0 001.14 7.405c.53.512 1.138.925 1.812 1.232l.005 5.344v.274c0 .57.183 1.112.52 1.565A2.821 2.821 0 0013.514 20c1.536-.002 2.785-1.21 2.784-2.693l-.005-5.619a6.456 6.456 0 001.81-1.234 6.132 6.132 0 00-.008-8.878z"/><path d="M6.903 7.837c0 .463-.39.837-.87.837H4.87C4.39 8.674 4 8.3 4 7.837 4 7.375 4.39 7 4.871 7h1.161c.481 0 .871.375.871.837zM7.677 11c0 .462-.39.837-.87.837H4.87C4.39 11.837 4 11.462 4 11c0-.462.39-.837.871-.837h1.935c.481 0 .871.375.871.837zM10 14.163c0 .462-.39.837-.871.837H4.871C4.39 15 4 14.625 4 14.163c0-.463.39-.837.871-.837h4.258c.481 0 .871.374.871.837z" transform="translate(0 -1)"/></g></svg>