<svg width="20" height="20" xmlns="http://www.w3.org/2000/svg"><g><path d="M19.732 7.164c-.118-.127-.247-.222-.36-.308l-.013-.01c-.737-.565-1.477-1.128-2.214-1.693A1242.475 1242.475 0 0110.88.351C10.686.2 10.382 0 10 0c-.386 0-.688.202-.881.353A549.015 549.015 0 014.53 3.88c-.49.376-.981.75-1.475 1.125-.435.336-.873.669-1.308 1.002-.436.333-.869.666-1.304.996-.211.162-.35.35-.41.56-.078.27-.015.555.17.8.185.242.439.378.713.378.121 0 .242-.025.365-.076v1.983c0 2.17-.002 4.41.003 6.614.002.817.264 1.506.76 1.995.493.487 1.183.744 1.998.744h11.65c.997 0 1.73-.252 2.243-.77.51-.516.757-1.255.757-2.262V8.656c.124.061.255.092.386.092.244 0 .48-.109.661-.308.35-.381.348-.893-.007-1.276zm-2.8 10.072c0 .633-.258.88-.918.883-.853.002-1.9.002-3.095.002H4.06c-.687-.002-.944-.25-.944-.918-.005-1.64-.005-3.312-.005-4.927 0-1.614 0-3.358-.005-4.998 0-.018.002-.028.002-.035a.353.353 0 01.066-.058c2.003-1.524 4.417-3.359 6.849-5.233 2.17 1.67 4.516 3.305 6.84 5.233.07.056.071.058.071.141-.005 1.539 0 3.114 0 4.628 0 1.73 0 3.521-.002 5.282z"/><path d="M12.928 12h-.02c-.494-.003-1.02-.003-1.707-.003H6.077c-.239 0-.598 0-.852-.295-.107-.123-.232-.346-.225-.711.01-.548.302-.782.475-.873.205-.11.427-.118.618-.118 2.275.003 4.548.003 6.824 0 .203 0 .58 0 .847.303.109.124.238.347.236.71 0 .407-.172.73-.472.88-.208.107-.434.107-.6.107zM12.966 16c-1.15-.003-2.315-.003-3.462-.003-1.148 0-2.312 0-3.463.003-.19 0-.413-.016-.614-.138-.158-.095-.425-.337-.427-.866-.002-.361.125-.584.23-.706.252-.29.601-.29.81-.29.434.003.904.003 1.48.003h3.955c.579 0 1.049 0 1.481-.003h.026c.175 0 .536 0 .789.293.106.122.231.342.229.703-.002.526-.267.768-.425.863-.196.125-.418.141-.61.141z"/></g></svg>