<svg width="25" height="22" xmlns="http://www.w3.org/2000/svg"><defs><linearGradient x1="82.325%" y1="4.76%" x2="50%" y2="43.259%" id="a"><stop stop-color="#B7B7B7" offset="0%"/><stop stop-color="#FFF" offset="100%"/></linearGradient><linearGradient x1="14.339%" y1="50%" x2="100%" y2="50%" id="b"><stop stop-color="#B7B7B7" offset="0%"/><stop stop-color="#FFF" offset="100%"/></linearGradient></defs><g><path d="M14.503 17l3.29-3.592c.429-.74 1.074-1.364.644-2.104l-4.044-5.292c-.43-.74-2.044-2.013-2.904-2.012H7l1.628-2.804A2.409 2.409 0 0110.713 0h7.094c.86 0 1.655.455 2.085 1.196l4.658 6.707c.43.74.43 1.652 0 2.392l-4.658 5.509A2.409 2.409 0 0117.807 17h-3.304z"/><path d="M10.519 13.79l-3.013-3.764H4.815c3.219 3.91 5.12 6.234 5.704 6.974.584-.766 2.47-3.078 5.657-6.934h-2.72l-2.937 3.724z"/><path d="M10.481 22c-.448 0-1.059-.085-1.792-.897l-3.3-3.714c-2.12-2.391-3.912-4.398-4.727-5.337l-.04-.086c-.856-1.238-.815-2.562.04-3.544.449-.512 1.467-1.665 2.2-2.476l.612-.726c.448-.512.896-.982 1.181-1.323C5.185 3.299 5.795 3 6.448 3h8.107c.897.043 1.386.555 1.712.897.733.768 2.24 2.476 3.218 3.586l.856.94c.978 1.152.774 2.732 0 3.629-.856.982-2.363 2.647-4.156 4.654l-3.911 4.397c-.733.812-1.304.897-1.793.897zm1.094-16.984H7.423c-.239 0-.882.087-1.25.456-.326.327-3.157 3.138-3.532 3.623-.513.647-.513 1.26 0 2.108.455.592 2.741 3.257 6.859 7.994.41.526.717.607.99.607.24 0 .546-.04.99-.607 4.034-4.71 6.29-7.375 6.768-7.994.41-.566.546-1.335 0-2.063-2.452-2.725-3.85-4.101-4.19-4.128-.364 0-.98.004-2.483.004z"/></g></svg>