<svg width="23" height="20" xmlns="http://www.w3.org/2000/svg"><path d="M11.873 10.344a1.082 1.082 0 10-1.529 1.528l3.783 3.784a1.082 1.082 0 101.529-1.528l-3.783-3.784z"/><path d="M14.507 8.443a7.288 7.288 0 00-2.624-6.826A7.303 7.303 0 004.651.497a.943.943 0 00-.326 1.547l2.886 2.881a.943.943 0 010 1.333l-.923.924a.945.945 0 01-1.335 0L2.057 4.29a.945.945 0 00-1.545.32 7.286 7.286 0 001.084 7.232 7.3 7.3 0 006.821 2.654l4.302 4.299a4.298 4.298 0 006.023-.052 4.29 4.29 0 00.051-6.017L14.507 8.44v.002zm2.8 8.865a2.37 2.37 0 01-3.347 0l-4.94-4.935-.502.117a5.324 5.324 0 01-4.69-1.169A5.31 5.31 0 012.02 6.842l1.677 1.675a2.786 2.786 0 003.938 0l.908-.907a2.78 2.78 0 000-3.933l-1.66-1.659a5.322 5.322 0 014.47 1.83 5.306 5.306 0 011.142 4.689l-.12.503 4.933 4.925c.922.924.921 2.42-.002 3.343z"/><rect x="15" y="1" width="8" height="2" rx="1"/><rect x="16" y="5" width="7" height="2" rx="1"/><rect x="18" y="9" width="5" height="2" rx="1"/></svg>