<svg width="19" height="19" xmlns="http://www.w3.org/2000/svg"><g><path d="M10.66 17.008v-6.442l3.235 3.367.145-1.214c0-.05.048-.1.048-.1v-.051c-.048-.1-.097-.1-.097-.1l-5.795-6.03h-.145l-.193.15c-2.994 1.86-5.41 6.3-5.41 10.42h8.211zM18.271 19h-1.817v-4.851c0-.453-.215-.611-.602-.611-.531 0-.51.46-.558.862-.048.553-.434 1.005-1.062 1.005-.58 0-1.014-.452-1.063-1.005-.096-.05-.193-.15-.29-.251l-.334-.804V19H.266v-1.508c0-4.673 2.31-10.491 6.411-12.847 0 0 .242-.201.435-.251l.145-.05h.193v.2-.2c.483-.101 1.194-.202 1.532.2l6.182 6.33.241.201c.29-.1.483-.15.725-.15 1.255 0 2.239 1.264 2.239 2.42V19h-.097z"/><path d="M14 8c-2.2 0-4-1.8-4-4s1.8-4 4-4 4 1.8 4 4-1.8 4-4 4m0-2c1.12 0 2-.88 2-2s-.88-2-2-2-2 .88-2 2 .88 2 2 2"/></g></svg>