<svg width="23" height="20" xmlns="http://www.w3.org/2000/svg"><defs><linearGradient x1="100%" y1="50%" x2="50%" y2="50%" id="a"><stop stop-color="#B7B7B7" offset="0%"/><stop stop-color="#FFF" offset="100%"/></linearGradient><linearGradient x1="14.339%" y1="50%" x2="100%" y2="50%" id="b"><stop stop-color="#B7B7B7" offset="0%"/><stop stop-color="#FFF" offset="100%"/></linearGradient></defs><g><circle cx="17" cy="9" r="6"/><rect stroke="#333" stroke-width="2" x="1" y="1" width="15" height="18" rx="3"/><path d="M5 5h6a1 1 0 010 2H5a1 1 0 110-2zm0 3h6a1 1 0 010 2H5a1 1 0 110-2zm0 4h2a1 1 0 010 2H5a1 1 0 010-2z"/></g></svg>