<svg width="20" height="21" xmlns="http://www.w3.org/2000/svg"><defs><linearGradient x1="50%" y1="32.358%" x2="50%" y2="116.901%" id="a"><stop stop-color="#B7B7B7" offset="0%"/><stop stop-color="#FFF" offset="100%"/></linearGradient><linearGradient x1="14.339%" y1="50%" x2="100%" y2="50%" id="b"><stop stop-color="#B7B7B7" offset="0%"/><stop stop-color="#FFF" offset="100%"/></linearGradient></defs><g><path d="M6.587 20.114a1.049 1.049 0 01-1.486.167 1.08 1.08 0 01-.165-1.505l3.137-3.967h3.832l3.137 3.967a1.08 1.08 0 01-.165 1.505 1.049 1.049 0 01-1.487-.167l-2.5-3.165H9.088l-2.5 3.165z"/><path d="M2.143 2.697v11.637h15.714V2.697H2.143zm0-2.181h15.714C19.041.516 20 1.492 20 2.697v11.637c0 1.205-.96 2.182-2.143 2.182H2.143C.959 16.516 0 15.539 0 14.334V2.697C0 1.492.96.516 2.143.516z"/><path d="M5.762 12.397a1.048 1.048 0 01-1.493-.085 1.08 1.08 0 01.084-1.51L7.05 8.355a1.047 1.047 0 011.06-.21l2.71.98 3.368-3.289c.27-.278.667-.387 1.038-.282.37.104.657.404.745.783.09.38-.033.778-.318 1.04l-3.835 3.75c-.289.282-.711.375-1.09.238l-2.734-.989-2.232 2.02z"/></g></svg>