<?xml version="1.0" encoding="UTF-8"?>
<svg width="15px" height="19px" viewBox="0 0 15 19" version="1.1" xmlns="http://www.w3.org/2000/svg" xmlns:xlink="http://www.w3.org/1999/xlink">
    <!-- Generator: Sketch 53 (72520) - https://sketchapp.com -->
    <title>shejizhongxinActive@2x</title>
    <desc>Created with Sketch.</desc>
    <g id="Page-2" stroke="none" stroke-width="1" fill="none" fill-rule="evenodd">
        <g id="图标" transform="translate(-998.000000, -836.000000)" fill="#FFFFFF" fill-rule="nonzero">
            <g id="shejizhongxinActive" transform="translate(998.000000, 836.000000)">
                <path d="M12.9953632,19 L2.00463677,19 C1.4497912,19 1,18.5083793 1,17.9019344 L1,13.0978975 C1.00008493,12.4915183 1.44985126,12 2.00463678,12 C2.5594223,12 3.00918863,12.4915183 3.00927356,13.0978975 L3.00927356,16.8038688 L11.9907264,16.8038688 L11.9907264,13.0978975 C11.9908114,12.4915183 12.4405777,12 12.9953632,12 C13.5501487,12 13.9999151,12.4915183 14,13.0978975 L14,17.9019344 C14,18.5083793 13.5502088,19 12.9953632,19 L12.9953632,19 Z" id="Path"></path>
                <path d="M12.9954932,13 L2.00450676,13 C1.44970812,12.9999155 1,12.552225 1,12 C1,11.447775 1.44970812,11.0000845 2.00450676,11 L12.9954932,11 C13.5502919,11.0000845 14,11.447775 14,12 C14,12.552225 13.5502919,12.9999155 12.9954932,13 L12.9954932,13 Z" id="Path"></path>
                <path d="M12.7603508,14.9785532 C12.5005074,14.9355115 12.2684881,14.7909937 12.1154818,14.5768836 C11.9624754,14.3627736 12.0717642,13.2141348 12.1154818,12.9547399 L12.9363569,7.84121053 L7.48264728,2.39474721 L2.02893772,7.84121053 L2.8125,13.125 C2.87457349,13.4755364 2.95149613,14.5446449 2.67714381,14.7719098 C2.40279149,14.9991746 2.02740575,15.0618934 1.69392224,14.9361846 C1.36043872,14.8104758 1.12017744,14.5156848 1.0646227,14.1640593 L0.013544141,7.65305999 C-0.0392547548,7.3371652 0.0641832042,7.01527337 0.291187522,6.78905285 L6.79845462,0.290431826 C6.98444423,0.104482591 7.23682455,0 7.5,0 C7.76317545,0 8.01555577,0.104482591 8.20154538,0.290431826 L14.7088125,6.78905285 C14.9358168,7.01527337 15.0392548,7.3371652 14.9864559,7.65305999 L13.9006719,14.151681 C13.8208103,14.6284245 13.4079734,14.9779278 12.9239621,14.9785532 C12.8694872,14.9822329 12.8148256,14.9822329 12.7603508,14.9785532 Z" id="Path"></path>
                <path d="M7,8.04060723 L7,1.93023256 C7,1.41647931 7.22385763,1 7.5,1 C7.77614237,1 8,1.41647931 8,1.93023256 L8,8.04060723 C8,8.40148267 7.77614237,8.59121061 7.5,8.59121061 C7.22385763,8.59121061 7,8.43504554 7,8.04060723 Z" id="Path"></path>
            </g>
        </g>
    </g>
</svg>