<?xml version="1.0" encoding="UTF-8"?>
<svg width="20px" height="19px" viewBox="0 0 20 19" version="1.1" xmlns="http://www.w3.org/2000/svg" xmlns:xlink="http://www.w3.org/1999/xlink">
    <!-- Generator: Sketch 53 (72520) - https://sketchapp.com -->
    <title>xietongbangongActive</title>
    <desc>Created with Sketch.</desc>
    <g id="Page-2" stroke="none" stroke-width="1" fill="none" fill-rule="evenodd">
        <g id="图标" transform="translate(-796.000000, -244.000000)" fill="#FFFFFF" fill-rule="nonzero">
            <g id="xietongbangongActive" transform="translate(796.000000, 244.000000)">
                <path d="M17.5277644,3.38749396 L14.8647996,3.38749396 L14.8575567,3.36359247 C14.348141,1.41236118 12.3056494,0 10,0 C7.75229358,0 5.79913085,1.351521 5.14244326,3.36359247 L5.13520039,3.38749396 L2.47223563,3.38749396 C1.10816031,3.38749396 0,4.38701111 0,5.61250604 L0,16.7749879 C0,18.0026557 1.1105746,19 2.47223563,19 L17.5277644,19 C18.8918397,19 20,18.0004829 20,16.7749879 L20,5.61250604 C20,4.38483824 18.8918397,3.38749396 17.5277644,3.38749396 Z M6.91812733,3.4621443 C7.28933322,2.76906364 8.09217489,1.75167121 9.99294279,1.75167121 C11.8937107,1.75167121 12.6982951,2.77014997 13.0677582,3.4621443 L13.0677582,3.48387097 L7.42857143,3.48387097 L6.91812733,3.4621443 Z M18.3218487,16.5316296 C18.3218487,16.9447368 17.7828095,17.3486639 17.2356337,17.3486639 L2.81114554,17.3486639 C2.26193572,17.3486639 1.72493055,16.9432068 1.72493055,16.5316296 L1.72493055,11.8674449 L1.77171509,11.8903953 C2.09920688,12.0556382 2.41042578,12.1244894 2.81114554,12.1244894 L17.2356337,12.1244894 C17.6363535,12.1244894 17.9475724,12.0541081 18.2750642,11.8903953 L18.3218487,11.8674449 L18.3218487,16.5316296 Z M18.2857143,9.66339678 C18.2857143,10.061933 17.746675,10.4516129 17.1994993,10.4516129 L2.8005007,10.4516129 C2.25129088,10.4516129 1.71428571,10.060457 1.71428571,9.66339678 L1.71428571,6.01402257 C1.71428571,5.61548633 2.25332499,5.22580645 2.8005007,5.22580645 L17.1994993,5.22580645 C17.7487091,5.22580645 18.2857143,5.61696239 18.2857143,6.01402257 L18.2857143,9.66339678 Z" id="Shape"></path>
            </g>
        </g>
    </g>
</svg>