<?xml version="1.0" encoding="UTF-8"?>
<svg width="19px" height="19px" viewBox="0 0 19 19" version="1.1" xmlns="http://www.w3.org/2000/svg" xmlns:xlink="http://www.w3.org/1999/xlink">
    <!-- Generator: Sketch 53 (72520) - https://sketchapp.com -->
    <title>yanglao</title>
    <desc>Created with Sketch.</desc>
    <defs>
        <linearGradient x1="33.4311847%" y1="93.9106887%" x2="33.4311847%" y2="33.2172872%" id="linearGradient-1">
            <stop stop-color="#B7B7B7" offset="0%"></stop>
            <stop stop-color="#FFFFFF" offset="100%"></stop>
        </linearGradient>
    </defs>
    <g id="Page-2" stroke="none" stroke-width="1" fill="none" fill-rule="evenodd">
        <g id="图标" transform="translate(-526.000000, -739.000000)">
            <g id="yanglao" transform="translate(525.679688, 738.500000)">
                <path d="M1.5,18.5 C1.55707461,14.4820126 2.28664798,11.6486793 3.68872011,10 C5.09079223,8.35132071 6.724145,6.96864999 8.58877841,5.85198784 L15.5166404,13.0193763 L14.4083807,15.3137476 L12.3203125,13.0193763 L12.3203125,18.5 L1.5,18.5 Z" id="Path-8" fill="url(#linearGradient-1)"></path>
                <path d="M10.9794034,17.5084269 L10.9794034,11.065691 L14.2151989,14.4325252 L14.3600852,13.218593 C14.3600852,13.1683417 14.4083807,13.1180904 14.4083807,13.1180905 L14.4083807,13.0678392 C14.3600852,12.9673367 14.3117898,12.9673367 14.3117898,12.9673367 L8.51633524,6.93718595 L8.37144887,6.93718595 L8.17826704,7.08793972 C5.18394887,8.94723619 2.76917614,13.3878239 2.76917614,17.5084269 L10.9794034,17.5084269 Z M18.5923362,19.5 L16.774858,19.5 L16.774858,14.6486727 C16.774858,14.1964114 16.5599295,14.0378143 16.1735658,14.0378143 C15.6423158,14.0378143 15.6640625,14.497919 15.6157671,14.899929 C15.5674716,15.4526928 15.181108,15.9049541 14.553267,15.9049541 C13.9737216,15.9049541 13.5390625,15.4526928 13.4907671,14.899929 C13.3941761,14.8496778 13.2975852,14.7491752 13.2009943,14.6486727 L12.866591,13.8446526 L12.866591,19.5 L0.58697477,19.5 L0.58697477,17.9924623 C0.58697477,13.3190955 2.89573013,7.50069395 6.99773853,5.14486446 C6.99773853,5.14486446 7.23921581,4.94385944 7.43239762,4.89360819 L7.57728398,4.84335692 L7.77046582,4.84335692 L7.77046582,5.04436196 L7.77046582,4.84335692 C8.25342035,4.7428544 8.96435786,4.64235191 9.30242604,5.04436196 L15.4842105,11.3743845 L15.7256878,11.5753895 C16.0154605,11.474887 16.2086423,11.4246357 16.4501196,11.4246357 C17.7058014,11.4246357 18.6889271,12.6888737 18.6889271,13.8446526 L18.6889271,19.5 L18.5923362,19.5 Z" id="Shape" fill="#333333" fill-rule="nonzero"></path>
                <path d="M14.3203125,8.5 C12.1203125,8.5 10.3203125,6.7 10.3203125,4.50000001 C10.3203125,2.30000003 12.1203125,0.5 14.3203125,0.5 C16.5203125,0.5 18.3203125,2.3 18.3203125,4.50000001 C18.3203125,6.70000002 16.5203125,8.50000002 14.3203125,8.5 M14.3203125,6.5 C15.4403125,6.5 16.3203125,5.62 16.3203125,4.50000001 C16.3203125,3.38000001 15.4403125,2.5 14.3203125,2.5 C13.2003125,2.5 12.3203125,3.38 12.3203125,4.50000001 C12.3203125,5.62000002 13.2003125,6.50000002 14.3203125,6.5" id="Shape" fill="#333333" fill-rule="nonzero"></path>
            </g>
        </g>
    </g>
</svg>