<svg width="22" height="21" xmlns="http://www.w3.org/2000/svg"><path d="M20.58 4.614a2.977 2.977 0 00-2.437-1.269H5.33l-.195-.927a1.935 1.935 0 00-1.9-1.512H1.092a.978.978 0 00-.975.976c0 .536.439.975.975.975h2.143l.39 1.659 2.241 10a1.935 1.935 0 001.9 1.512h9.89a.978.978 0 00.975-.975.978.978 0 00-.975-.976H7.717l-.194-.976h9.256a3.02 3.02 0 002.777-1.902l1.413-3.805c.292-.976.146-2-.39-2.78zm-1.462 2.048l-1.462 3.854a.953.953 0 01-.925.634H7.084L5.77 5.296h12.374c.341 0 .634.147.829.44.195.292.243.634.146.926zM7.912 20.906a1.956 1.956 0 01-1.948-1.951c0-1.073.876-1.951 1.948-1.951s1.95.878 1.95 1.951a1.956 1.956 0 01-1.95 1.951zm8.77 0a1.956 1.956 0 01-1.949-1.951c0-1.073.877-1.951 1.949-1.951s1.949.878 1.949 1.951a1.956 1.956 0 01-1.95 1.951z"/></svg>