<svg width="18" height="18" xmlns="http://www.w3.org/2000/svg"><path d="M1.442 18A1.445 1.445 0 010 16.558V3.904L2.159.643A1.435 1.435 0 013.359 0h11.25c.483 0 .932.24 1.2.643L18 3.901v12.654c0 .794-.648 1.442-1.442 1.442H1.442V18zM16 15.997V5.945H2.072V16H16v-.003zM14.297 2.01H3.63L2.326 4h13.556l-1.585-1.99z"/><path d="M9.529 14a.83.83 0 01-.583-1.42l1.237-1.248H5.825A.83.83 0 015 10.5a.83.83 0 01.825-.832h4.358L8.946 8.42a.83.83 0 010-1.175.816.816 0 011.166 0l2.647 2.67a.84.84 0 010 1.178l-2.647 2.67a.832.832 0 01-.583.237z"/></svg>