<?xml version="1.0" standalone="no"?><!DOCTYPE svg PUBLIC "-//W3C//DTD SVG 1.1//EN" "http://www.w3.org/Graphics/SVG/1.1/DTD/svg11.dtd"><svg class="icon" width="48px" height="48.00px" viewBox="0 0 1024 1024" version="1.1" xmlns="http://www.w3.org/2000/svg"><path fill="#D9DDE1" d="M901.191 74.07a49.38 49.38 0 0 1 49.38 49.38v214.805a49.38 49.38 0 0 1-49.38 49.38H686.387a49.38 49.38 0 0 1-49.38-49.38V123.451a49.38 49.38 0 0 1 49.38-49.38H901.19m0-74.071H686.387a123.45 123.45 0 0 0-123.451 123.45v214.805a123.45 123.45 0 0 0 123.45 123.451h214.805a123.45 123.45 0 0 0 123.45-123.45V123.45A123.45 123.45 0 0 0 901.192 0zM123.45 0h214.805q123.451 0 123.451 123.45v214.805q0 123.451-123.45 123.451H123.45Q0 461.706 0 338.256V123.45Q0 0 123.45 0zM123.45 562.294h214.805q123.451 0 123.451 123.45V900.55q0 123.451-123.45 123.451H123.45Q0 1024 0 900.55V685.744q0-123.451 123.45-123.451zM686.436 562.294H901.24q123.451 0 123.451 123.45V900.55q0 123.451-123.45 123.451H686.435q-123.45 0-123.45-123.45V685.744q0-123.451 123.45-123.451z"  /></svg>