<svg width="19" height="20" xmlns="http://www.w3.org/2000/svg"><defs><linearGradient x1="14.339%" y1="50%" x2="100%" y2="50%" id="a"><stop stop-color="#FFF" offset="0%"/><stop stop-color="#FFF" offset="100%"/></linearGradient><linearGradient x1="14.339%" y1="50%" x2="100%" y2="50%" id="b"><stop stop-color="#FFF" offset="0%"/><stop stop-color="#FFF" offset="100%"/></linearGradient><linearGradient x1="14.339%" y1="50%" x2="100%" y2="50%" id="c"><stop stop-color="#FFF" offset="0%"/><stop stop-color="#FFF" offset="100%"/></linearGradient></defs><g><path d="M4 6.286v1.428c0 .157.085.286.19.286h7.62c.105 0 .19-.129.19-.286V6.286c0-.157-.085-.286-.19-.286H4.19c-.105 0-.19.129-.19.286zM7.81 10H4.19c-.104 0-.19.129-.19.286v1.428c0 .157.086.286.19.286h3.62c.104 0 .19-.129.19-.286v-1.428c0-.157-.086-.286-.19-.286z"/><path d="M15.28 2.59H1.15a1 1 0 00-1 1v15.696c0 .395.322.714.72.714h14.41c.398 0 .72-.32.72-.714V3.304a.716.716 0 00-.72-.715zm-1.2 15.576H2V4.41h12.08v13.755z"/><path d="M11.36 12.004c-.076-.017-.155.019-.155.07V13.2c0 .041-.053.073-.115.073H9.91c-.065 0-.115-.034-.115-.073v-1.127c0-.05-.08-.086-.156-.069-.956.223-1.639.807-1.639 1.493 0 .65.612 1.21 1.492 1.456.041.011.068.04.068.067v1.907c0 .041.053.073.115.073h1.65c.065 0 .115-.034.115-.073V15.02c0-.03.027-.056.068-.067.877-.247 1.492-.805 1.492-1.456 0-.686-.683-1.27-1.64-1.493z"/><path d="M18 0H6a1 1 0 00-1 1v1.573h2.016V1.88h9.232a1 1 0 011 1V17H18a1 1 0 001-1V1a1 1 0 00-1-1z"/></g></svg>