<svg width="24" height="24" xmlns="http://www.w3.org/2000/svg"><g><path d="M11.5 22C5.71 22 1 17.514 1 12S5.71 2 11.5 2 22 6.486 22 12s-4.71 10-10.5 10zm.026-18.175c-4.454 0-8.54 3.939-8.54 8.18 0 4.242 4.086 8.125 8.54 8.125 4.453 0 8.54-3.888 8.54-8.13 0-4.242-4.087-8.175-8.54-8.175z"/><path d="M5.454 13H.545C.245 13 0 12.552 0 12s.244-1 .545-1h4.91c.3 0 .545.448.545 1s-.244 1-.546 1zM18.546 11h4.909c.3 0 .545.448.545 1s-.244 1-.545 1h-4.91c-.3 0-.545-.448-.545-1s.244-1 .546-1zM10.5 5.045V.955c0-.251.448-.455 1-.455s1 .204 1 .454v4.091c0 .251-.448.455-1 .455s-1-.204-1-.455zM12.5 18.955v4.09c0 .251-.448.455-1 .455s-1-.204-1-.454v-4.091c0-.251.448-.455 1-.455s1 .204 1 .455zM10.417 11.35A1.491 1.491 0 0110 10.333v-.666C10 8.747 10.897 8 12 8s2 .748 2 1.667v.666c0 .383-.155.736-.416 1.017l2.02 1.263a.82.82 0 01.396.693v1.444c0 .11-.047.217-.13.295a3.959 3.959 0 01-2.536.955h-2.668a3.96 3.96 0 01-2.536-.955.404.404 0 01-.13-.295v-1.444a.82.82 0 01.396-.693l2.02-1.263z"/><path d="M16 15h.016H16z"/></g></svg>