<?xml version="1.0" encoding="UTF-8"?>
<svg width="20px" height="21px" viewBox="0 0 20 21" version="1.1" xmlns="http://www.w3.org/2000/svg" xmlns:xlink="http://www.w3.org/1999/xlink">
    <!-- Generator: Sketch 53 (72520) - https://sketchapp.com -->
    <title>yunyingzhichengActive</title>
    <desc>Created with Sketch.</desc>
    <defs>
        <linearGradient x1="50%" y1="32.3582729%" x2="50%" y2="116.901108%" id="linearGradient-1">
            <stop stop-color="#FFFFFF" offset="0%"></stop>
            <stop stop-color="#FFFFFF" offset="100%"></stop>
        </linearGradient>
        <linearGradient x1="50%" y1="32.3582729%" x2="50%" y2="116.901108%" id="linearGradient-2">
            <stop stop-color="#FFFFFF" offset="0%"></stop>
            <stop stop-color="#FFFFFF" offset="100%"></stop>
        </linearGradient>
        <linearGradient x1="50%" y1="32.3582729%" x2="50%" y2="116.901108%" id="linearGradient-3">
            <stop stop-color="#FFFFFF" offset="0%"></stop>
            <stop stop-color="#FFFFFF" offset="100%"></stop>
        </linearGradient>
    </defs>
    <g id="Page-2" stroke="none" stroke-width="1" fill="none" fill-rule="evenodd">
        <g id="图标" transform="translate(-796.000000, -840.000000)">
            <g id="yunyingzhichengActive" transform="translate(796.000000, 840.000000)">
                <path d="M6.58749762,20.1139582 C6.22252837,20.5755903 5.5569875,20.650308 5.10097048,20.2808447 C4.64495347,19.9113814 4.57114466,19.2376454 4.93611391,18.7760133 L8.07261573,14.809249 L11.9051786,14.809249 L15.0416804,18.7760133 C15.4066497,19.2376454 15.3328409,19.9113814 14.8768238,20.2808447 C14.4208068,20.650308 13.755266,20.5755903 13.3902967,20.1139582 L10.8906767,16.9488198 L9.08711766,16.9488198 L6.58749762,20.1139582 L6.58749762,20.1139582 Z" id="Path" fill="url(#linearGradient-1)"></path>
                <path d="M2.14285715,2.69744319 L2.14285715,14.3338068 L17.8571429,14.3338068 L17.8571429,2.69744319 L2.14285715,2.69744319 Z M2.14285715,0.515625 L17.8571429,0.515625 C19.0406102,0.515625 20,1.49245828 20,2.69744319 L20,14.3338068 C20,15.5387917 19.0406102,16.515625 17.8571429,16.515625 L2.14285715,16.515625 C0.959389824,16.515625 1.44932947e-16,15.5387917 0,14.3338068 L0,2.69744319 C1.19606308e-15,1.49245828 0.959389824,0.515625 2.14285715,0.515625 Z" id="Shape" fill="url(#linearGradient-2)" fill-rule="nonzero"></path>
                <path d="M5.76180577,12.3972396 C5.32641068,12.7911237 4.65803103,12.7531262 4.26893801,12.3123699 C3.87984499,11.8716136 3.91738022,11.1950039 4.35277529,10.8011198 L7.04965961,8.35630359 C7.33857652,8.09472297 7.74577072,8.01425205 8.11065955,8.14662565 L10.8202251,9.12654907 L14.187808,5.83731561 C14.4570907,5.55867906 14.8547734,5.45037077 15.2258123,5.55461666 C15.5968512,5.65886256 15.8825091,5.95916005 15.9714172,6.33843277 C16.0603253,6.71770548 15.938409,7.11591284 15.6531997,7.37780656 L11.8178187,11.1277609 C11.5289665,11.4102246 11.106916,11.5025277 10.7286382,11.3659665 L7.99371002,10.3774848 L5.76180577,12.3972396 Z" id="Path" fill="url(#linearGradient-3)"></path>
            </g>
        </g>
    </g>
</svg>