<svg width="20" height="19" xmlns="http://www.w3.org/2000/svg"><path d="M1 5h18v6H1z"/><path d="M17.528 3.387h-2.663l-.007-.023C14.348 1.412 12.306 0 10 0 7.752 0 5.8 1.352 5.142 3.364l-.007.023H2.472C1.108 3.387 0 4.387 0 5.613v11.162C0 18.003 1.11 19 2.472 19h15.056C18.892 19 20 18 20 16.775V5.613c0-1.228-1.108-2.226-2.472-2.226zm-10.61.075c.371-.693 1.174-1.71 3.075-1.71 1.9 0 2.705 1.018 3.075 1.71v.022h-5.64l-.51-.022zm11.404 13.07c0 .413-.54.817-1.086.817H2.81c-.55 0-1.086-.406-1.086-.817v-4.665l.047.023c.327.166.638.234 1.04.234h14.424c.4 0 .712-.07 1.04-.234l.046-.023v4.665zm-.036-6.869c0 .399-.54.789-1.087.789H2.801c-.55 0-1.087-.392-1.087-.789V6.014c0-.399.54-.788 1.087-.788h14.398c.55 0 1.087.391 1.087.788v3.65z"/></svg>