<?xml version="1.0" encoding="UTF-8"?>
<svg width="24px" height="20px" viewBox="0 0 24 20" version="1.1" xmlns="http://www.w3.org/2000/svg" xmlns:xlink="http://www.w3.org/1999/xlink">
    <!-- Generator: Sketch 53 (72520) - https://sketchapp.com -->
    <title>shezhizhongxin</title>
    <desc>Created with Sketch.</desc>
    <defs>
        <linearGradient x1="81.4205658%" y1="0%" x2="50%" y2="42.5494435%" id="linearGradient-1">
            <stop stop-color="#B7B7B7" offset="0%"></stop>
            <stop stop-color="#FFFFFF" offset="100%"></stop>
        </linearGradient>
        <linearGradient x1="82.3245512%" y1="0%" x2="82.3245512%" y2="100%" id="linearGradient-2">
            <stop stop-color="#B7B7B7" offset="0%"></stop>
            <stop stop-color="#FFFFFF" offset="100%"></stop>
        </linearGradient>
    </defs>
    <g id="Page-2" stroke="none" stroke-width="1" fill="none" fill-rule="evenodd">
        <g id="图标" transform="translate(-625.000000, -541.000000)">
            <g id="shezhizhongxin" transform="translate(625.000000, 540.480000)">
                <path d="M7,4.52000049 L8.62826466,1.71606044 C9.05838378,0.975461145 9.85348378,0.519452206 10.7137222,0.520000494 L17.8074862,0.520000494 C18.6677246,0.519452206 19.4628246,0.975461145 19.8929437,1.71606044 L23.4382215,7.82394002 C23.8680651,8.5640645 23.8680651,9.47593547 23.4382215,10.21606 L19.8929437,16.3239395 C19.4628246,17.0645388 18.6677246,17.5205478 17.8074862,17.5199995 L16.5204719,17.5199995 L18.4382215,14.21606 C18.8680651,13.4759355 18.8680651,12.5640645 18.4382215,11.82394 L14.8929437,5.71606044 C14.4628246,4.97546115 13.6677246,4.51945221 12.8074862,4.52000049 L7,4.52000049 Z" id="Combined-Shape-Copy-7" fill="url(#linearGradient-1)"></path>
                <g id="shezhi-4-copy" transform="translate(0.000000, 2.520000)" fill="#000000" fill-rule="nonzero">
                    <path d="M0.337661566,7.73358355 L4.07122156,1.26641694 C4.52397852,0.482252977 5.3609259,-0.000580017134 6.26644,5.22925222e-07 L13.73356,5.22925222e-07 C14.6390741,-0.000580017134 15.4760215,0.482252977 15.9287784,1.26641694 L19.6606498,7.73358355 C20.1131167,8.51724477 20.1131167,9.48275521 19.6606498,10.2664164 L15.9287784,16.733583 C15.4760215,17.517747 14.6390741,18.00058 13.73356,17.9999995 L6.26475137,17.9999995 C5.3598405,17.9999765 4.52367699,17.5172243 4.07122156,16.733583 L0.339350199,10.2664164 C-0.113116733,9.48275521 -0.113116733,8.51724477 0.339350199,7.73358355 L0.337661566,7.73358355 Z M2.1431939,9.42213879 L5.53357476,15.7613732 C5.68439324,16.022587 5.96311441,16.1835044 6.26475137,16.183512 L13.73356,16.183512 C14.035197,16.1835044 14.3139181,16.022587 14.4647366,15.7613732 L17.9286651,9.42213879 C18.0794874,9.16091839 18.0794874,8.83908159 17.9286651,8.57786118 L14.4664252,2.39619271 C14.3153055,2.1344558 14.0358001,1.97345747 13.73356,1.97405391 L6.26475137,1.97405391 C5.96311441,1.97406157 5.68439324,2.13497895 5.53357476,2.39619271 L2.14488253,8.57786118 C1.99237159,8.83908159 1.99237159,9.16091839 2.1431939,9.42213879 Z" id="Shape-Copy-6"></path>
                </g>
                <path d="M10,14.04 C11.4318494,14.04 12.5925926,12.9117576 12.5925926,11.52 C12.5925926,10.1282424 11.4318494,9 10,9 C8.56815065,9 7.40740741,10.1282424 7.40740741,11.52 C7.40740741,12.9117576 8.56815065,14.04 10,14.04 Z" id="Path-Copy-11" fill="url(#linearGradient-2)"></path>
            </g>
        </g>
    </g>
</svg>