<?xml version="1.0" standalone="no"?><!DOCTYPE svg PUBLIC "-//W3C//DTD SVG 1.1//EN" "http://www.w3.org/Graphics/SVG/1.1/DTD/svg11.dtd"><svg class="icon" width="48px" height="48.00px" viewBox="0 0 1024 1024" version="1.1" xmlns="http://www.w3.org/2000/svg"><path fill="#D9DDE1" d="M1016.512 0H291.52C127.04 0 0 127.04 0 291.52v724.992L7.488 1024h724.992C889.472 1024 1024 896.96 1024 732.48V7.488C1024 0 1016.512 0 1016.512 0z m-276.544 695.104c0 22.4-22.4 44.864-44.8 44.864H328.832c-22.4 0-44.864-22.4-44.864-44.8 0-22.464 22.4-44.864 44.8-44.864h366.272c22.4 0 44.864 22.4 44.864 44.8z m0-186.88c0 22.464-22.4 44.864-44.8 44.864H328.832c-22.4 0-44.864-22.4-44.864-44.8s22.4-44.864 44.8-44.864h366.272c22.4 0 44.864 22.4 44.864 44.8z m0-186.88c0 22.464-22.4 44.928-44.8 44.928H328.832c-22.4 0-44.864-14.976-44.864-44.864 0-29.888 22.4-44.8 44.8-44.8h366.272c22.4 0 44.864 22.4 44.864 44.8z"  /></svg>