<svg class="icon" width="48" height="48" viewBox="0 0 1024 1024" xmlns="http://www.w3.org/2000/svg"><path d="M71.68 0h296.576c27.52.128 52.608 15.552 64.32 39.552l42.432 84.992a6.464 6.464 0 005.824 3.584h343.424c39.68 0 71.744 31.744 71.744 70.976v625.92C896 864.256 863.872 896 824.32 896H71.68C32.192 896 0 864.256 0 825.088V70.912C0 31.744 32.128 0 71.68 0zM240 256a48 48 0 00-48 48v352a48 48 0 1096 0V304a48 48 0 00-48-48zm192 128a48 48 0 00-48 48v224a48 48 0 1096 0V432a48 48 0 00-48-48zm192 0a48 48 0 00-48 48v224a48 48 0 1096 0V432a48 48 0 00-48-48z"/><path d="M950.528 956.032c0 3.392-3.264 6.144-7.36 6.144H164.736c-20.288 0-36.736 13.888-36.736 30.976 0 17.024 16.448 30.848 36.736 30.848h778.432c44.672 0 80.832-30.464 80.832-67.968v-477.12c0-17.088-16.448-30.912-36.736-30.912-20.288 0-36.736 13.824-36.736 30.848v477.184z"/></svg>