<svg class="icon" width="48" height="42.01" viewBox="0 0 1170 1024" xmlns="http://www.w3.org/2000/svg"><path d="M1075.566 0H94.72C44.617 0 0 49.664 0 105.472v813.056C0 974.263 44.617 1024 94.72 1024h980.846c50.103 0 94.72-49.664 94.72-105.472v-819.2c0-55.881-44.617-99.328-94.72-99.328zM317.659 201.728c27.795-28.818 66.853-40.375 100.28-40.375 33.426 0 72.41 17.262 100.351 46.08 27.795 28.818 44.617 63.415 44.617 103.79 0 40.302-16.822 74.898-44.617 103.716-27.867 28.819-61.293 40.302-100.352 40.302-38.985 0-72.411-17.262-100.279-40.302-27.867-23.04-38.985-69.193-38.985-109.494 0-40.375 11.118-74.899 38.985-103.717zm339.895 530.14c0 23.04-22.235 46.08-44.544 46.08H228.498c-27.867 0-44.617-23.04-44.617-46.08v-74.899c0-86.455 72.412-161.353 156.087-161.353h161.646c83.529 0 155.94 74.898 155.94 161.353v74.898zm334.41-63.415c0 28.818-22.31 46.08-44.618 46.08H796.891c-27.794 0-44.617-22.967-44.617-46.08 0-28.819 22.309-46.08 44.617-46.08h150.455c22.309 0 44.617 23.04 44.617 46.08zm0-195.877c0 28.818-22.31 46.08-44.618 46.08H746.79c-27.868 0-44.618-23.04-44.618-46.08 0-28.818 22.309-46.08 44.618-46.08h200.557c22.309 0 44.617 17.262 44.617 46.08zm0-196.023c0 28.892-22.31 46.153-44.618 46.153H707.73c-27.794 0-44.617-23.04-44.617-46.08 0-28.818 22.309-46.08 44.617-46.08h239.616c22.309-5.851 44.617 17.262 44.617 46.08z"/></svg>