<svg class="icon" width="48" height="48" viewBox="0 0 1024 1024" xmlns="http://www.w3.org/2000/svg"><path d="M1001.472 60.826L1024 80.076l-.683 1.025c0 .136-6.417 6.144-15.223 17.75a39.117 39.117 0 01-4.096 5.938l-1.365 1.434a268.015 268.015 0 00-51.405 169.847 122.152 122.152 0 004.027 26.624c8.534 32.7 29.014 118.238 36.045 207.736 9.148 116.6-7.646 199.748-49.903 247.33l-.41.546c-11.536 15.497-69.358 81.647-247.193 142.268-.341 0-.683.136-.887.273-45.056 19.524-115.03 65.877-148.412 93.798-7.714 6.554-34.953 29.355-35.499 29.355-.136-.137-24.917-26.146-26.965-27.921-33.246-27.443-103.765-75.571-149.572-95.369l-.888-.273c-177.834-60.62-235.52-126.77-247.193-142.267l-.478-.547c-42.257-47.65-59.05-130.935-49.767-247.33 7.032-89.634 27.512-175.104 36.045-207.735 2.321-9.148 3.618-18.09 3.96-26.624 1.433-53.316-10.309-102.059-35.226-144.794C20.139 98.85 0 81.51 0 81.51l24.576-21.64.75-.615 13.86-12.151c.887-.546 1.57-1.16 2.32-1.57l39.185-33.246a44.646 44.646 0 0146.422-6.827c37.341 16.248 230.946 92.706 367.41-.273.683-.273 1.23-.682 1.776-1.024.478-.136.75-.41 1.228-.546.41-.273.888-.41 1.434-.683l1.502-.682 1.365-.41c.546-.068 1.093-.41 1.707-.546l1.16-.273 1.912-.41c.478 0 .75-.204 1.229-.204a8.806 8.806 0 011.911-.273c.41-.137.888-.137 1.297-.137h3.414a5.052 5.052 0 001.433.137l1.775.273c.273 0 .683 0 1.16.204l1.776.41 1.16.273 1.639.546 1.365.478 1.297.546c.614.137 1.024.478 1.638.751.41.137.683.41 1.16.546l1.776 1.024.41.273c134.894 91.819 328.089 16.794 365.43.751a47.991 47.991 0 0149.63 7.373l34.339 29.218c1.024.546 2.048 1.366 3.072 2.458l11.196 9.694 5.734 4.915 1.024.956zm-637.27 568.183c-13.38 17.408-28.262 35.635-46.284 54.75V496.026c0-36.523 1.365-84.651 3.277-117.283h-83.422c-28.74 0-21.231-1.228-45.739-3.003v62.873c26.146-1.775 18.91-2.048 45.739-2.048h26.214v234.018l-1.638 41.097V768s53.59-15.701 70.314-33.382c29.765-31.267 28.74-28.195 51.337-62.26-10.172-24.166-10.24-24.166-19.797-43.349zM352.94 276.958l-76.459-84.992a268.083 268.083 0 01-43.145 36.523c23.006 22.528 40.824 45.806 73.592 87.517 11.4-13.79 26.624-26.897 45.943-39.048zm302.899 169.37h62.396c32.29 0 38.502 1.365 66.082 3.071V400.93c-29.082 1.775-35.635 1.912-66.082 1.912h-62.396V237.636h67.925c35.772 0 54.409 1.16 84.992 2.73v-48.332c-30.583 1.707-49.22 2.116-84.992 2.116H554.325c-41.301 0-80.418-.41-118.647-2.116v48.401c39.526-1.843 79.053-2.73 118.647-2.73h47.992v420.18h-79.394v-133.12c0-37.41.136-66.9 1.98-88.541h-56.594c1.844 23.21 2.458 52.838 2.458 88.542v133.461c-25.941 0-55.023-.887-82.603-2.662v48.47c27.58-1.776 63.966-2.732 106.906-2.732h236.544c30.447 0 64.853.956 104.584 2.731v-48.47c-39.73 1.776-74.137 2.185-104.584 2.185h-75.776V446.327z"/></svg>