<?xml version="1.0" standalone="no"?><!DOCTYPE svg PUBLIC "-//W3C//DTD SVG 1.1//EN" "http://www.w3.org/Graphics/SVG/1.1/DTD/svg11.dtd"><svg class="icon" width="48px" height="48.00px" viewBox="0 0 1024 1024" version="1.1" xmlns="http://www.w3.org/2000/svg"><path fill="#D9DDE1" d="M782.336 204.8h12.288c7.031467 0 12.288-4.3008 17.544533-8.6016A35.908267 35.908267 0 0 0 819.2 176.7424V28.0576a30.378667 30.378667 0 0 0-7.031467-19.456A24.507733 24.507733 0 0 0 794.624 0h-12.288c-7.031467 0-12.288 4.3008-17.544533 8.6016a35.908267 35.908267 0 0 0-7.031467 19.456v146.568533c0 8.6016 3.4816 15.018667 7.031467 19.387734 5.256533 8.6016 10.513067 10.786133 17.544533 10.786133z m-552.96 0h12.288c7.031467 0 12.288-4.3008 17.544533-8.6016a35.908267 35.908267 0 0 0 7.031467-19.456V28.0576a30.378667 30.378667 0 0 0-7.031467-19.456A24.507733 24.507733 0 0 0 241.664 0h-12.288c-7.031467 0-12.288 4.3008-17.544533 8.6016A35.908267 35.908267 0 0 0 204.8 28.0576v146.568533c0 8.6016 3.4816 15.018667 7.031467 19.387734 5.256533 8.6016 12.288 10.786133 17.544533 10.786133z"  /><path fill="#D9DDE1" d="M930.884267 68.266667h-35.703467v133.5296c0 15.701333-7.714133 34.065067-18.090667 44.509866a60.142933 60.142933 0 0 1-43.963733 18.363734h-54.749867a65.9456 65.9456 0 0 1-46.557866-18.363734c-12.970667-13.1072-18.090667-28.808533-20.6848-44.509866V68.266667H318.0544v133.5296c0 15.701333-5.188267 34.065067-18.090667 44.509866a60.142933 60.142933 0 0 1-43.963733 18.363734h-64.7168c-15.496533 0-33.5872-5.256533-43.963733-18.363734-12.970667-10.4448-18.090667-26.146133-18.090667-44.509866V68.266667h-36.181333C41.437867 70.8608 0 110.1824 0 165.205333v761.856c0 26.2144 10.376533 52.4288 28.4672 68.130134 18.090667 18.363733 41.3696 28.808533 67.242667 28.808533h832.580266c25.941333 0 51.746133-10.4448 67.242667-28.808533 18.090667-18.295467 28.4672-41.915733 28.4672-68.061867V167.799467c0-26.2144-10.376533-52.4288-28.4672-68.130134a81.578667 81.578667 0 0 0-64.648533-31.402666zM240.503467 827.5968c0 26.2144-23.278933 49.834667-51.746134 49.834667h-43.963733c-25.873067 0-49.152-23.620267-51.677867-49.834667v-15.701333c0-26.146133 23.210667-49.7664 51.677867-49.7664h43.963733c25.873067 0 49.152 23.620267 51.746134 49.834666v15.701334z m0-198.997333c0 26.2144-23.278933 49.7664-51.746134 49.7664h-43.963733c-25.873067 0-49.152-23.552-51.677867-49.7664v-15.701334c0-26.146133 23.210667-49.7664 51.677867-49.7664h43.963733c12.970667 0 25.873067 5.256533 33.655467 13.1072 10.308267 10.513067 12.9024 23.552 12.9024 34.065067l5.188267 18.295467z m0-198.997334c0 28.808533-23.278933 52.360533-51.746134 52.360534h-43.963733a48.810667 48.810667 0 0 1-33.5872-13.1072c-10.376533-10.4448-12.970667-23.552-12.970667-36.590934v-15.701333c0-28.8768 23.278933-52.4288 51.746134-52.4288h43.963733c28.4672 0 51.677867 23.552 51.677867 52.360533l-5.12 13.1072z m227.5328 397.994667c0 26.2144-23.210667 49.834667-51.746134 49.834667h-46.4896c-25.941333 0-49.152-23.620267-51.746133-49.834667v-15.701333c0-26.146133 23.278933-49.7664 51.746133-49.7664h46.4896c25.941333 0 49.152 23.620267 51.746134 49.834666v15.701334z m0-198.997333c0 26.2144-23.210667 49.7664-51.746134 49.7664h-46.4896c-25.941333 0-49.152-23.552-51.746133-49.7664v-15.701334c0-13.1072 5.188267-26.146133 12.970667-34.065066a46.011733 46.011733 0 0 1 33.5872-13.038934h46.557866c12.970667 0 25.873067 5.188267 33.5872 13.038934 10.376533 10.513067 12.970667 23.620267 12.970667 34.133333v15.701333h10.308267z m0-198.997334c0 28.808533-23.210667 52.360533-51.746134 52.360534h-46.4896a48.810667 48.810667 0 0 1-33.655466-13.1072 47.3088 47.3088 0 0 1-12.970667-33.9968v-15.701334c0-28.808533 23.3472-52.360533 51.746133-52.360533h46.557867c12.970667 0 25.873067 5.188267 33.655467 13.038933 10.308267 10.513067 12.970667 23.620267 12.970666 34.065067v15.701333z m237.909333 198.997334c0 26.2144-23.278933 49.7664-51.746133 49.7664h-46.4896c-25.941333 0-49.152-23.552-51.746134-49.7664v-15.701334c0-13.1072 5.188267-26.146133 12.970667-34.065066a46.011733 46.011733 0 0 1 33.5872-13.038934h46.557867c12.9024 0 25.8048 5.188267 33.5872 13.038934 10.376533 10.513067 12.970667 23.620267 12.970666 34.133333v15.701333h10.24z m0-198.997334c0 28.808533-23.278933 52.360533-51.746133 52.360534h-46.4896a48.810667 48.810667 0 0 1-33.655467-13.1072 47.3088 47.3088 0 0 1-12.970667-33.9968v-15.701334c0-28.808533 23.3472-52.360533 51.746134-52.360533h46.557866c12.970667 0 25.873067 5.188267 33.655467 13.038933 10.308267 10.513067 12.9024 23.620267 12.9024 34.065067v15.701333z m227.5328 198.997334c0 26.2144-23.210667 49.7664-51.677867 49.7664h-46.557866c-25.873067 0-49.152-23.552-51.746134-49.7664v-15.701334c0-13.1072 5.188267-26.146133 12.970667-34.065066a46.011733 46.011733 0 0 1 33.5872-13.038934h43.963733c12.970667 0 25.873067 5.188267 33.5872 13.038934 10.376533 10.513067 12.970667 23.620267 12.970667 34.133333l12.970667 15.701333z m0-198.997334c0 28.808533-23.210667 52.360533-51.677867 52.360534h-46.557866a48.810667 48.810667 0 0 1-33.655467-13.1072 47.3088 47.3088 0 0 1-12.9024-33.9968v-15.701334c0-28.808533 23.210667-52.360533 51.746133-52.360533h43.963734c12.9024 0 25.8048 5.188267 33.5872 13.038933 10.308267 10.513067 12.970667 23.620267 12.970666 34.065067l2.525867 15.701333z"  /></svg>