<?xml version="1.0" standalone="no"?><!DOCTYPE svg PUBLIC "-//W3C//DTD SVG 1.1//EN" "http://www.w3.org/Graphics/SVG/1.1/DTD/svg11.dtd"><svg class="icon" width="48px" height="48.00px" viewBox="0 0 1024 1024" version="1.1" xmlns="http://www.w3.org/2000/svg"><path fill="#D9DDE1" d="M571.915614 25.511833a85.290417 85.290417 0 0 0-121.611124 0L28.068739 394.079674c-33.549973 33.911373-39.031208 83.603883-5.421001 117.635723l61.678946 48.78901v377.060742C84.326684 984.245992 132.69406 1024 178.893036 1024h676.239769c46.198976 0 81.315016-39.693775 81.315016-86.434851l-2.830967-377.060742 64.570146-38.308407c33.610207-33.911373 34.75464-83.664117 1.204667-117.575491L571.915614 25.511833z m100.770387 709.849976c-40.175641 67.642047-140.464161 151.185697-144.680495 154.799698a24.936605 24.936605 0 0 1-16.02207 5.842634 24.996838 24.996838 0 0 1-16.02207-5.963101c-4.276568-3.614001-104.685554-87.338351-144.680496-154.739464-13.974136-23.430771-31.32134-52.643944-31.321339-94.807286 0-70.894648 49.33111-128.477726 109.805388-128.477726 31.68274 0 61.438012 15.720903 82.218517 43.368009 20.900971-27.647106 50.59601-43.368009 82.218516-43.368009 60.534512 0 109.805389 57.583078 109.805389 128.477726 0 42.163342-17.347203 71.376514-31.32134 94.807286"  /></svg>