<svg class="icon" width="48" height="48" viewBox="0 0 1024 1024" xmlns="http://www.w3.org/2000/svg"><path d="M774.435 539.26v-11.198a18.686 18.686 0 00-31.996-13.182 18.558 18.558 0 00-5.503 13.182v11.199c0 10.302-8.383 18.621-18.75 18.621h-11.262a18.686 18.686 0 00-18.75 18.686c0 10.239 8.383 18.558 18.75 18.622h11.262c10.303 0 18.75 8.319 18.75 18.621v11.199a18.686 18.686 0 0031.996 13.182 18.558 18.558 0 005.503-13.182V613.81c0-10.238 8.32-18.557 18.686-18.621h11.262a18.686 18.686 0 0013.247-31.804 18.814 18.814 0 00-13.247-5.504h-11.262a18.686 18.686 0 01-18.686-18.557zM595.705 18.623v324.375a18.558 18.558 0 0018.75 18.686H973.13c10.367 0 18.75 8.319 18.75 18.557v577.848c0 36.348-29.628 65.848-66.232 65.848H98.232c-17.534 0-34.428-6.911-46.842-19.262A65.656 65.656 0 0132 957.96V65.848c0-17.47 7.04-34.236 19.39-46.586C63.804 6.912 80.698 0 98.232 0h478.66c10.367 0 18.814 8.319 18.814 18.622zM424.528 523.199L287.072 838.807a18.558 18.558 0 001.536 17.598 18.75 18.75 0 0015.678 8.447h75.958c7.36 0 14.079-4.288 17.086-10.943l14.59-31.996a18.75 18.75 0 0117.086-10.942H540.48c7.551 0 14.399 4.48 17.278 11.39l13.119 31.036a18.75 18.75 0 0017.277 11.455h76.535a18.558 18.558 0 0017.278-25.98L545.28 523.134a18.75 18.75 0 00-17.214-11.199h-86.39a18.75 18.75 0 00-17.15 11.263zm75.894 152.749l13.055 28.284a18.558 18.558 0 01-1.28 17.79 18.75 18.75 0 01-15.742 8.575h-25.02a18.75 18.75 0 01-15.615-8.32 18.558 18.558 0 01-1.664-17.533l11.967-28.285a18.75 18.75 0 0134.3-.511zm162.86-647.6l292.763 264.8c12.67 11.454 4.48 32.38-12.606 32.38H650.675a18.686 18.686 0 01-18.75-18.558V42.107a18.814 18.814 0 0131.356-13.759z"/></svg>