<?xml version="1.0" standalone="no"?><!DOCTYPE svg PUBLIC "-//W3C//DTD SVG 1.1//EN" "http://www.w3.org/Graphics/SVG/1.1/DTD/svg11.dtd"><svg class="icon" width="48px" height="48.00px" viewBox="0 0 1024 1024" version="1.1" xmlns="http://www.w3.org/2000/svg"><path fill="#D9DDE1" d="M1023.98144 320.332754l-0.51199 59.134928v568.3097s9.599826 69.438741-54.783007 75.774626l-9.727824 0.447992H86.654429c-49.535102-0.255995-70.398724-21.439611-79.486559-39.359287a107.070059 107.070059 0 0 1-6.847876-31.231434L0 943.42546V320.332754h1023.98144zM590.389299 453.322344l-19.199652 51.135073c-6.399884 3.199942-15.99971 6.399884-22.399594 9.599826l-51.199072-22.399594c-28.799478 19.199652-51.199072 41.599246-70.398724 70.398724l25.599536 51.071074c-3.199942 6.399884-6.399884 12.799768-9.599826 22.399594l-54.399014 19.199652c-6.399884 31.99942-6.399884 67.134783 0 99.070204l51.199072 19.199652c3.199942 6.399884 6.399884 15.99971 9.599826 22.399594l-22.399594 51.135074c19.199652 28.799478 41.599246 51.135073 70.398724 70.334725l51.199072-22.399594c6.399884 3.199942 15.99971 6.399884 22.399594 9.599826l19.199652 51.199072c31.99942 6.335885 67.198782 6.335885 99.198202 0l19.199652-51.199072c9.599826-3.199942 15.99971-6.399884 25.599536-9.599826l47.99913 22.399594c28.799478-19.199652 51.199072-41.599246 70.398724-70.398724l-22.399594-47.935131c3.199942-9.599826 6.399884-15.99971 9.599826-25.599536l51.199072-19.135654c6.399884-31.99942 6.399884-67.134783 0-99.070204l-51.199072-19.199652c-3.199942-9.599826-6.399884-19.199652-9.599826-25.599536l22.399594-51.135073c-19.199652-28.799478-41.599246-51.199072-70.398724-70.334725l-51.199072 22.399594c-9.599826-3.199942-15.99971-6.399884-25.599536-9.599826l-15.99971-51.199072c-31.99942-3.199942-67.198782-3.199942-99.198202 3.199942z m51.199072 172.604871c41.599246 0 76.798608 35.199362 76.798608 76.734609 0 41.599246-35.199362 76.734609-76.798608 76.734609-41.599246 0-76.798608-35.199362-76.798608-76.798608 0-41.471248 35.199362-76.67061 76.798608-76.67061zM468.151515 39.69784c30.271451 44.863187 47.167145 73.150674 47.167145 73.150675s11.967783 12.927766 36.287342 12.415775c-17.791678 0.383993 246.011541 0.191997 355.065565 0h45.951167s64.254835-6.399884 70.398724 58.622937l0.447992 10.303813v64.638829H0V81.297086C0.255995 75.089199 4.351921 7.058432 76.67061 0.914543l10.815804-0.447991h312.058344s36.799333-7.679861 68.542758 39.295287z"  /></svg>