<?xml version="1.0" standalone="no"?><!DOCTYPE svg PUBLIC "-//W3C//DTD SVG 1.1//EN" "http://www.w3.org/Graphics/SVG/1.1/DTD/svg11.dtd"><svg class="icon" width="48px" height="48.00px" viewBox="0 0 1024 1024" version="1.1" xmlns="http://www.w3.org/2000/svg"><path fill="#D9DDE1" d="M866.432 0C953.088 0 1024 61.44 1024 136.512v750.976C1024 962.56 953.088 1024 866.432 1024H157.568C70.912 1024 0 962.56 0 887.488V136.512C0 61.44 70.912 0 157.568 0h708.864zM223.616 378.24h226.24v68.864c0 21.888-11.712 32.832-35.2 32.832-15.36 0-36.48-0.896-63.232-2.496 2.56 11.52 4.8 23.168 6.528 34.816 27.008 0.64 49.152 0.896 66.24 0.896 40.96 0 61.44-20.48 61.44-61.44V128H194.688v143.616c0 52.288-3.328 93.184-10.048 122.816A219.008 219.008 0 0 1 128 498.176c10.496 7.808 20.48 16.064 30.08 24.896A268.16 268.16 0 0 0 223.616 378.24z m3.456-30.272c2.24-25.472 3.264-52.032 3.264-79.68H449.92v79.68H227.072z m3.264-188.8H449.92v78.848H230.4V159.168z m564.48 524.352c20.48 0 37.184-15.936 37.184-35.392 0-19.456-16.704-35.392-37.12-35.392H200.128c-20.48 0-37.184 15.936-37.184 35.392 0 19.52 16.64 35.392 37.12 35.392h594.688z m0 212.48c20.48 0 37.184-15.936 37.184-35.392 0-19.52-16.704-35.456-37.12-35.456H200.128c-20.48 0-37.184 16-37.184 35.456 0 19.52 16.64 35.328 37.12 35.392h594.688z m0-424.96c20.48 0 37.184-15.936 37.184-35.392 0-19.456-16.704-35.392-37.12-35.392H571.776c-20.48 0-37.12 15.936-37.12 35.392 0 19.52 16.64 35.392 37.12 35.392h222.976z m0-212.48c20.48 0 37.184-15.872 37.184-35.392 0-19.456-16.704-35.392-37.12-35.392H571.776c-20.48 0-37.12 15.936-37.12 35.392 0 19.584 16.64 35.392 37.12 35.456h222.976z"  /></svg>