<?xml version="1.0" standalone="no"?><!DOCTYPE svg PUBLIC "-//W3C//DTD SVG 1.1//EN" "http://www.w3.org/Graphics/SVG/1.1/DTD/svg11.dtd"><svg class="icon" width="48px" height="48.00px" viewBox="0 0 1024 1024" version="1.1" xmlns="http://www.w3.org/2000/svg"><path fill="#D9DDE1" d="M580.544 448H443.52v128H32v448h960V576H580.544V448z m342.912 320v192H100.48v-192H923.52zM288 448h89.6c0-137.728 60.288-153.6 134.4-153.6 74.112 0 134.4 15.872 134.4 153.6H736c0-137.728-100.48-256-224-256S288 310.272 288 448z"  /><path fill="#D9DDE1" d="M512 99.072c217.088 0 387.072 146.304 387.072 412.928H992c0-333.248-210.88-512-480-512C238.4 0 32 178.752 32 512h92.928c0-266.624 162.816-412.928 387.072-412.928zM224 832h64v64H224v-64z m128 0h64v64H352v-64z m128 0h64v64H480v-64z m128 0h64v64H608v-64z"  /></svg>