<svg class="icon" width="48" height="48" viewBox="0 0 1024 1024" xmlns="http://www.w3.org/2000/svg"><path d="M445.44 94.4V66.496a66.624 66.624 0 01133.12 0V94.4h282.752c43.2 0 84.16 17.024 114.88 47.168 30.72 29.568 47.808 70.528 47.808 113.152v489.6a35.2 35.2 0 01-9.088 23.232 33.216 33.216 0 01-23.36 9.664H579.2v135.36h122.304c30.72 0 55.744 24.96 55.744 55.68v33.6c0 12.48-10.24 22.144-22.208 22.144H289.6a22.208 22.208 0 01-22.144-22.144v-33.6c0-30.72 24.96-55.68 55.68-55.68H445.44v-135.36H162.688a165.76 165.76 0 01-114.88-46.592A161.408 161.408 0 010 616.32V126.208c0-8.512 3.392-16.448 9.664-22.72a31.872 31.872 0 0122.784-9.664H445.44v.576zM155.904 311.04v66.496h311.68v-66.56h-311.68zm0 200.128v66.56h712.192v-66.56H155.904z"/></svg>