<svg class="icon" width="48" height="48" viewBox="0 0 1024 1024" xmlns="http://www.w3.org/2000/svg"><path d="M779.048 865.325c24.623-20.274 44.77-53.34 44.77-86.468 0-49.566-42.531-75.34-87.236-75.34-46.88 0-87.172 25.774-87.172 75.34 0 33.065 17.907 66.194 42.466 86.404a29.036 29.036 0 01-11.192 36.775c-49.182 14.71-105.08 40.42-105.08 67.921v9.21c0 34.92 82.695 44.13 160.978 44.13 76.043 0 158.802-7.292 158.802-44.13v-9.21c-2.238-27.5-60.438-55.066-109.62-67.921-2.239 0-17.908-12.92-6.716-36.775z"/><path d="M931.072 839.935c19.187-24.112 32.617-65.172 32.617-106.167 0-60.375-29.931-84.87-68.305-84.87-26.861 0-52.444 7.547-62.037 41.315 23.024 24.112 38.374 60.311 38.374 108.598 0 50.717-17.332 43.618-38.374 74.956 32.618 14.454 144.86 74.061 94.015 149.53 49.758-2.43 95.934-16.885 95.934-53.084v-12.152c1.855-36.07-44.257-67.41-86.404-84.294-1.919 0-13.43-4.796-5.756-33.896zM575.604 0v240.73c0 5.309 2.559 10.233 6.652 12.92a12.663 12.663 0 0013.494.383l69.329-40.548a12.6 12.6 0 0112.919 0l69.328 40.548a12.663 12.663 0 0013.495-.383 15.413 15.413 0 006.651-12.92V0h49.438c43.299 0 78.474 35.176 78.474 78.602v510.241a158.995 158.995 0 00-19.89-1.407c-43.874 0-83.143 18.42-109.365 49.118a162.704 162.704 0 00-15.797-.767c-88.26 0-152.407 66.386-152.407 157.843.128 28.909 6.076 57.497 17.524 83.975-52.636 31.466-80.073 71.183-80.073 117.04v9.593c0 6.395.448 12.79 1.47 19.058H78.475C35.176 1023.296 0 988.121 0 944.631V78.666C0 35.176 35.176 0 78.474 0h497.13zM78.026 319.78c-9.401 0-14.07 3.901-14.07 11.768v40.42c0 7.867 4.669 11.768 14.07 11.768h291.64c9.401 0 14.07-3.901 14.07-11.768v-40.42c0-7.867-4.669-11.768-14.07-11.768H78.026zm-1.662 127.912c-8.315 0-12.408 3.902-12.408 11.768v40.42c0 7.867 4.157 11.768 12.407 11.768h358.922c8.314 0 12.407-3.901 12.407-11.768v-40.42c0-7.866-4.157-11.768-12.407-11.768H76.363zm-.768 127.912c-7.803 0-11.64 3.902-11.64 11.768v40.42c0 7.867 3.837 11.768 11.64 11.768h168.588c7.803 0 11.64-3.901 11.64-11.768v-40.42c0-7.866-3.837-11.768-11.64-11.768H75.596z"/></svg>