<svg class="icon" width="48" height="48" viewBox="0 0 1024 1024" xmlns="http://www.w3.org/2000/svg"><path d="M289.087 91.903h78.526c27.968 0 46.592-18.368 46.592-45.952C414.205 18.43 432.765 0 460.796 0h93.119c27.967 0 46.59 18.368 46.59 45.95 0 27.52 18.56 45.953 46.528 45.953h105.79c27.968 0 46.592 18.367 46.592 45.95v45.888c0 27.584-18.624 45.95-46.592 45.95H279.807c-27.968 0-46.59-18.366-46.59-45.95v-45.887s0-45.951 55.87-45.951zm734.9 858.48c0 46.08-37.248 73.6-74.496 73.6H74.5A72.959 72.959 0 01.004 950.448V202.237c0-27.584 27.968-55.167 55.87-55.167h83.84v55.167c0 55.039 46.59 101.054 102.461 101.054h539.64c55.87 0 102.398-45.951 102.398-101.118v-45.887h83.84c27.966 0 55.933 27.52 55.933 55.103v739.187zM631.864 703.477H253.247c-26.047 0-52.159 26.24-52.159 52.48s26.112 52.542 52.16 52.542H623.16c26.048 0 52.16-26.24 52.16-52.479s-17.408-52.479-43.52-52.479zm-378.618-262.46c-26.047 0-52.159 26.24-52.159 52.48s26.112 52.542 52.16 52.542h517.687c26.112 0 52.16-26.24 52.16-52.479s-26.048-52.479-52.16-52.479H253.247zM451.452 110.27c0 20.288 16.64 36.736 37.248 36.736a36.991 36.991 0 0037.247-36.736A36.991 36.991 0 00488.7 73.535a36.991 36.991 0 00-37.248 36.735z"/></svg>