<?xml version="1.0" standalone="no"?><!DOCTYPE svg PUBLIC "-//W3C//DTD SVG 1.1//EN" "http://www.w3.org/Graphics/SVG/1.1/DTD/svg11.dtd"><svg class="icon" width="48px" height="48.00px" viewBox="0 0 1024 1024" version="1.1" xmlns="http://www.w3.org/2000/svg"><path fill="#D9DDE1" d="M817.392941 1.867294H150.166588A148.720941 148.720941 0 0 0 1.807059 150.166588V817.392941a148.720941 148.720941 0 0 0 148.299294 148.239059H817.392941a148.720941 148.720941 0 0 0 148.239059-148.239059V150.166588A148.720941 148.720941 0 0 0 817.392941 1.807059z m-148.299294 704.331294a36.743529 36.743529 0 0 1-37.044706 37.044706H261.360941a36.743529 36.743529 0 0 1-37.044706-37.044706 36.743529 36.743529 0 0 1 37.044706-37.104941h370.688a36.743529 36.743529 0 0 1 37.044706 37.104941zM224.316235 483.689412a36.743529 36.743529 0 0 1 37.044706-37.044706h296.538353a36.743529 36.743529 0 0 1 37.044706 37.044706 36.743529 36.743529 0 0 1-37.044706 37.104941H261.360941a36.743529 36.743529 0 0 1-37.044706-37.104941z m481.882353-185.344H261.360941a36.743529 36.743529 0 0 1-37.044706-37.044706 36.743529 36.743529 0 0 1 37.044706-37.044706h444.837647a36.743529 36.743529 0 0 1 37.044706 37.044706 36.743529 36.743529 0 0 1-37.044706 37.044706z"  /></svg>