<svg class="icon" width="48" height="48" viewBox="0 0 1024 1024" xmlns="http://www.w3.org/2000/svg"><path d="M0 454.912h64L63.936 960H512v64H0V454.912zM951.488 0c35.968 0 68.224 33.408 72.128 77.824l.384 9.088v716.8c0 45.76-30.016 86.848-65.408 91.776l-7.104.512H200.512c-35.968 0-68.224-38.208-72.128-83.2l-.384-9.088V92.288c0-45.76 30.016-86.848 65.408-91.776L200.512 0h750.976zM640 576H448v192l11.264-.32A192 192 0 00640 576zM416 384a160 160 0 00-10.496 319.68L416 704V544h160l-.256-9.408A160 160 0 00416 384zm451.904 185.6h-115.2a38.4 38.4 0 00-6.208 76.288l6.208.512h115.2a38.4 38.4 0 000-76.8zm-179.2-192a38.4 38.4 0 00-6.208 76.288l6.208.512h179.2a38.4 38.4 0 006.208-76.288l-6.208-.512h-179.2zm-192-192a38.4 38.4 0 00-6.208 76.288l6.208.512h371.2a38.4 38.4 0 006.208-76.288l-6.208-.512h-371.2z"/></svg>