<svg class="icon" width="48" height="48" viewBox="0 0 1024 1024" xmlns="http://www.w3.org/2000/svg"><path d="M576.017 640h64v64h-64z"/><path d="M999.377 237.889L899.473 68.801C874.257 25.793 830.097-.19 782.609.001H241.298c-47.616 0-91.328 25.792-116.8 68.8L24.658 237.89C-13.55 302.977-6.83 387.265 41.17 444.545l2.304 2.688c7.552 8.832 15.936 16.832 24.704 23.68v463.36c0 49.663 41.408 89.727 92.288 89.727h703.167c51.072 0 92.288-40.256 92.288-89.728V469.505a160 160 0 0027.008-25.28c47.936-56.704 54.592-141.696 16.448-206.4v.064zM456.08 871.296h-42.496V708.8c-8.32 14.912-17.344 29.44-26.944 43.52a628.8 628.8 0 00-13.824-62.72c25.856-40.512 47.552-92.351 65.472-155.52l43.84 12.929a939.159 939.159 0 01-25.92 73.408v250.88h-.128zm51.2 3.456a568.895 568.895 0 00-35.264-30.72 540.16 540.16 0 0066.688-77.952l39.04 26.048c-19.648 26.88-43.328 54.4-70.528 82.624zm167.36-.704a797.759 797.759 0 00-67.392-81.152l35.584-25.344c23.936 23.936 48 49.28 72 76.16l-40.192 30.4v-.064zm41.28-112.32H471.377v-44.416h48.64v-74.496h-37.696v-44.543h37.76v-62.72h47.04v62.72h53.568v-62.72h47.04v62.72h38.528v44.543h-38.336v74.496h48v44.48zm223.168-376.191a79.04 79.04 0 01-108.096 11.2l-76.16-58.048a100.224 100.224 0 00-132.352 9.984 136.32 136.32 0 01-187.904 8.832l-22.016-18.816a99.84 99.84 0 00-122.687-5.888l-96.64 68.352a79.424 79.424 0 01-105.92-12.992l-2.432-2.624a86.208 86.208 0 01-8.32-101.056l103.936-169.024a57.792 57.792 0 0149.344-27.84h564.03c20.033 0 38.465 10.368 49.28 27.84l104.065 169.024c19.84 31.744 16.256 73.28-8.128 101.056z"/></svg>