<svg class="icon" width="48" height="48" viewBox="0 0 1024 1024" xmlns="http://www.w3.org/2000/svg"><path d="M0 128A128 128 0 01128 0h768a128 128 0 01128 128v768a128 128 0 01-128 128H128A128 128 0 010 896V128zm192 64v96h211.584v-96H192zm0 240v96h211.584v-96H192zm386.112 148.8l89.92-81.6 89.92 81.6L832 513.6l-68.736-62.4c36.992-28.8 63.424-67.2 63.424-115.2 0-81.6-68.736-144-158.656-144s-158.72 62.4-158.72 144c0 48 26.496 86.4 63.488 115.2l-68.736 62.4 74.048 67.2zm89.92-292.8c31.744 0 52.864 19.2 52.864 48s-21.12 48-52.864 48c-31.744 0-52.864-19.2-52.864-48s21.12-48 52.864-48zM192 672v96h634.688v-96H192z"/></svg>