<svg class="icon" width="48" height="48" viewBox="0 0 1024 1024" xmlns="http://www.w3.org/2000/svg"><path d="M642.77 486.16c-.18-73.187-58.668-132.398-130.77-132.398s-130.59 59.211-130.77 132.397a56.08 56.08 0 01-27.589 48.49 54.332 54.332 0 01-55.055 0 56.08 56.08 0 01-27.527-48.55 245.399 245.399 0 01120.29-212.33 237.749 237.749 0 01241.302 0c74.632 43.791 120.47 124.808 120.29 212.33 0 30.9-24.696 55.958-55.055 55.958a55.477 55.477 0 01-55.115-55.958z"/><path d="M929.07 481.882c-35.78 0-64.754-25.6-64.754-57.103 0-171.49-157.756-310.573-352.316-310.573S159.684 253.29 159.684 424.78c0 31.503-28.973 57.103-64.753 57.103s-64.813-25.6-64.813-57.103C30.118 190.163 245.88 0 512 0s481.882 190.163 481.882 424.78c0 31.502-29.033 57.102-64.813 57.102zm4.577 191.97H560.188v-148.72c0-23.854-21.564-43.25-48.188-43.25-26.624 0-48.188 19.396-48.188 43.25v148.72H90.352c-33.249 0-60.234 24.215-60.234 54.092v241.965c0 29.876 26.985 54.091 60.235 54.091h843.294c33.25 0 60.235-24.215 60.235-54.091V727.944c0-29.877-26.985-54.092-60.235-54.092zm-754.99 218.353c-26.563 0-48.187-19.396-48.187-43.309 0-23.853 21.624-43.249 48.188-43.249 26.624 0 48.188 19.396 48.188 43.249 0 11.505-5.06 22.528-14.095 30.6a51.14 51.14 0 01-34.093 12.649zm146.071 0c-19.516 0-37.044-10.541-44.574-26.744a40.117 40.117 0 0110.481-47.104 52.284 52.284 0 0152.525-9.397c18.071 6.686 29.757 22.468 29.757 39.936 0 11.505-5.06 22.528-14.095 30.6a51.14 51.14 0 01-34.094 12.649z"/></svg>