<svg class="icon" width="48" height="48" viewBox="0 0 1024 1024" xmlns="http://www.w3.org/2000/svg"><path d="M129.792 1.088C34.816 1.088 1.28 40.256 1.28 129.984v796.544c-3.264 40.192 29.44 95.872 78.528 95.872 65.536 0 72.064-92.8 137.472-95.872h9.856c62.144 3.136 68.8 86.656 130.944 95.872h13.12c62.208-6.144 65.536-89.664 131.008-95.872h9.856c62.144 3.136 68.8 86.656 130.944 95.872h13.12c62.144-6.144 65.536-89.664 130.944-95.872h16.384c52.48 3.136 65.536 68.032 108.096 89.728 58.88 30.912 114.56-37.12 111.36-89.728V129.984c0-89.728-33.216-128.896-128.128-128.896H129.792zM754.24 619.392c0 18.752-19.84 37.568-43.712 37.568H555.712v88.96c0 18.752-15.872 33.792-43.712 33.792-23.872 0-39.744-14.976-39.744-33.792v-88.96H313.472c-23.872 0-43.712-18.752-43.712-41.344 0-18.688 19.84-37.504 43.712-37.504H472.32V510.08H313.472c-23.872 0-43.712-18.688-43.712-41.28 0-18.752 19.84-37.568 43.712-37.568H432.64l-120-175.68a40.448 40.448 0 01-2.176-30.912 34.816 34.816 0 0123.872-22.528c19.84-7.488 41.792.96 53.76 16L512 390.08l115.52-174.592c11.968-14.976 38.208-22.912 58.048-11.648 8 3.776 11.968 7.552 15.936 11.328 4.8 5.248 7.104 9.216 7.104 11.712 3.968 7.552 2.304 18.752-1.664 26.176l-15.936 26.24-99.52 151.936h119.168c23.872 0 43.712 18.752 43.712 41.344 0 18.688-19.84 37.504-43.712 37.504h-154.88v68.16h154.88c23.872-.128 43.584 18.688 43.584 41.152z"/></svg>