<svg class="icon" width="48" height="48" viewBox="0 0 1024 1024" xmlns="http://www.w3.org/2000/svg"><path d="M856.96 789.76V106.24C856.96 45.952 810.88 0 756.736 0H125.248C68.352 0 25.024 45.952 25.024 106.24v683.52c0 60.288 46.08 106.24 100.224 106.24h631.488c56.96 0 100.288-48.832 100.288-106.24zM453.248 198.144c48.768 0 89.472 43.072 89.472 94.72 0 51.776-40.704 94.848-89.472 94.848-48.768 0-89.408-43.072-89.408-94.784s40.64-94.72 89.408-94.72zm192.448 551.424H263.488V557.12c0-40.192 13.568-77.504 40.64-106.24 27.136-25.856 62.336-43.072 100.288-43.072l51.52 48.832 46.08-48.832c37.888 0 73.152 20.096 100.224 45.952 27.136 25.856 43.392 66.048 43.392 106.24v189.568z"/><path d="M876.416 192v626.816c0 28.16-10.56 53.376-29.12 73.088-18.56 19.648-42.368 30.912-68.864 30.912H217.024C224.96 981.76 272.64 1024 328.256 1024h542.848c63.552 0 113.92-53.376 113.92-120.896V312.96c0-64.64-47.68-118.08-108.608-120.896z"/></svg>