<?xml version="1.0" standalone="no"?><!DOCTYPE svg PUBLIC "-//W3C//DTD SVG 1.1//EN" "http://www.w3.org/Graphics/SVG/1.1/DTD/svg11.dtd"><svg class="icon" width="48px" height="47.81px" viewBox="0 0 1028 1024" version="1.1" xmlns="http://www.w3.org/2000/svg"><path fill="#D9DDE1" d="M610.64 499.002h-56.068v-32.111h57.597c14.781 0 23.446-11.214 23.446-25.995 0-14.782-8.665-24.976-23.446-24.976H555.59l58.617-58.616c10.194-10.704 10.194-27.524 0-37.718-10.195-10.704-27.525-10.704-37.719 0l-54.029 54.029-54.028-54.03c-10.195-10.703-27.525-10.703-37.719 0s-10.194 27.525 0 37.72l58.107 58.615h-55.558c-14.782 0-23.447 10.194-23.447 24.976s8.665 25.995 23.447 25.995h57.597v32.111h-57.597c-14.782 0-23.447 9.685-23.447 23.957 0 14.781 8.665 27.014 23.447 27.014h57.597v38.228c0 18.35 13.762 32.112 32.111 32.112 18.35 0 32.112-13.762 32.112-32.112v-38.228h59.126c14.781 0 21.407-9.684 21.407-24.466 0-18.859-10.194-26.505-24.975-26.505z"  /><path fill="#D9DDE1" d="M878.745 0H145.278C65.764 0 0.01 65.242 0.01 145.266v733.468C0.011 958.248 65.254 1024 145.278 1024h733.467c79.514 0 145.266-65.242 145.266-145.266V144.757C1024.011 65.242 958.77 0 878.745 0z m-13.762 576.988L585.154 822.156c-16.82 13.762-38.737 21.918-62.184 21.918s-44.854-8.156-61.674-21.918l-279.83-244.659c-6.116-7.136-9.684-16.31-9.684-25.995 0-18.35 12.233-33.64 29.054-38.228 0 0 4.077-1.529 9.684-1.529h82.573V256.382c0-36.699 27.524-63.713 64.223-63.713h331.309c36.699 0 64.223 27.014 64.223 63.713v255.363h83.592c20.898 1.02 38.228 18.35 38.228 39.757-0.51 9.685-4.078 18.35-9.685 25.486z"  /></svg>