<?xml version="1.0" standalone="no"?><!DOCTYPE svg PUBLIC "-//W3C//DTD SVG 1.1//EN" "http://www.w3.org/Graphics/SVG/1.1/DTD/svg11.dtd"><svg class="icon" width="48px" height="48.00px" viewBox="0 0 1024 1024" version="1.1" xmlns="http://www.w3.org/2000/svg"><path fill="#D9DDE1" d="M796.416 35.648V127.36l113.792 100.16v-192z"  /><path fill="#D9DDE1" d="M0 896m64 0l896 0q64 0 64 64l0 0q0 64-64 64l-896 0q-64 0-64-64l0 0q0-64 64-64Z"  /><path fill="#D9DDE1" d="M472.832 30.272a64 64 0 0 1 78.336 0L1024 396.032h-64V1024H63.04V396.032H0zM634.56 384a37.376 37.376 0 0 0-31.68 16.576L510.272 528.64 410.88 402.112a36.864 36.864 0 0 0-31.744-17.28 42.304 42.304 0 0 0-20.544 6.272c-12.032 6.784-18.048 16.256-18.048 28.352 0 6.272 2.304 12.864 6.848 19.712l77.184 94.272H357.696a40 40 0 0 0-27.392 9.024 31.36 31.36 0 0 0-10.304 24.832 33.28 33.28 0 0 0 9.856 25.216 37.376 37.376 0 0 0 27.008 9.472l116.544 0.768v49.6H357.76c-10.88 0-19.84 3.2-27.008 9.472a32 32 0 0 0-10.688 25.216c0 9.984 3.584 18.24 10.688 24.832a38.4 38.4 0 0 0 27.008 9.856h115.712v74.88c0 10.432 3.584 19.008 10.752 25.6A39.552 39.552 0 0 0 512 832a38.016 38.016 0 0 0 27.456-9.856 33.856 33.856 0 0 0 10.24-25.6v-74.88h116.608a38.016 38.016 0 0 0 27.392-9.792 32.896 32.896 0 0 0 10.304-24.832 32.64 32.64 0 0 0-10.24-25.216 38.976 38.976 0 0 0-27.52-9.472H549.76v-50.368h117.376c11.456 0 20.48-3.2 27.008-9.472A33.28 33.28 0 0 0 704 567.296a32 32 0 0 0-9.856-24.832c-6.592-6.016-15.552-9.024-27.008-9.024H597.76l68.608-94.272a31.744 31.744 0 0 0 7.68-20.48c0-12.16-6.016-21.568-17.984-28.416A43.52 43.52 0 0 0 634.56 384z"  /></svg>