<?xml version="1.0" standalone="no"?><!DOCTYPE svg PUBLIC "-//W3C//DTD SVG 1.1//EN" "http://www.w3.org/Graphics/SVG/1.1/DTD/svg11.dtd"><svg class="icon" width="48px" height="48.00px" viewBox="0 0 1024 1024" version="1.1" xmlns="http://www.w3.org/2000/svg"><path fill="#D9DDE1" d="M938.496053 0.00064H85.504587A85.119947 85.119947 0 0 0 0.00064 85.504587v852.991466C0.00064 985.472024 37.952616 1024 85.504587 1024h852.991466c46.975971 0 85.503947-37.951976 85.503947-85.503947V85.504587A85.119947 85.119947 0 0 0 938.496053 0.00064zM136.128555 171.648533h317.439802c18.047989 0 33.151979 15.103991 33.151979 33.151979a33.407979 33.407979 0 0 1-33.151979 33.151979h-317.439802A33.407979 33.407979 0 0 1 103.040576 204.800512c0-18.047989 15.103991-33.151979 33.151979-33.151979z m0 172.287892h317.439802c18.047989 0 33.151979 15.039991 33.151979 33.151979a33.407979 33.407979 0 0 1-33.151979 33.08798h-317.439802a33.407979 33.407979 0 0 1-33.151979-33.08798c0-18.111989 15.103991-33.151979 33.151979-33.151979z m145.791909 243.967848H136.128555a33.407979 33.407979 0 0 1-33.151979-33.15198c0-18.047989 15.103991-33.087979 33.151979-33.087979h145.151909c18.111989 0 33.151979 15.039991 33.151979 33.087979a32.51198 32.51198 0 0 1-32.511979 33.15198z m651.135593-234.879854L607.74426 778.240154a37.375977 37.375977 0 0 1-13.247992 10.239993l-207.16787 89.727944a32.831979 32.831979 0 0 1-13.247992 3.007998 33.727979 33.727979 0 0 1-21.119987-7.807995 32.51198 32.51198 0 0 1-10.879993-33.151979l51.839968-218.623864a34.367979 34.367979 0 0 1 6.655996-13.247991l334.91179-407.807745a32.831979 32.831979 0 0 1 21.119987-12.031993 163.391898 163.391898 0 0 1 183.039886 139.135913 33.087979 33.087979 0 0 1-6.591996 25.279984z"  /><path fill="#D9DDE1" d="M463.36035 721.216189a68.479957 68.479957 0 0 0-52.159967-16.831989L384.0004 832.64012l108.863932-53.119967c0-0.64 0-1.279999-0.576-1.919999a84.159947 84.159947 0 0 0-28.927982-56.447965z m270.463831-316.351802a84.927947 84.927947 0 0 0-60.799962-20.735987l-210.751868 257.343839c20.287987 4.479997 23.039986 7.743995 39.871975 22.015986 19.711988 16.19199 34.175979 38.271976 44.031973 62.207961L768.00016 461.952351c-5.759996-22.079986-45.183972-62.911961-62.015961-77.823951l27.839982 20.735987zM768.00016 265.792474l-44.479972 52.223967c20.991987 5.951996 26.751983 12.095992 44.479972 25.919984 18.431988 13.823991 35.839978 42.559973 46.975971 61.631962l43.711972-61.631962c-11.839993-44.799972-43.327973-78.079951-90.687943-78.079951z"  /></svg>