<svg class="icon" width="48" height="48" viewBox="0 0 1024 1024" xmlns="http://www.w3.org/2000/svg"><path d="M638.184 1024h-415.8v-62.236c-25.999-14.052-82.603-50.233-132.381-120.491-59.734-84.31-120.89-236.26-72.534-481.11l3.755-18.83H843.61l2.73 20.196c2.617 19.57 60.473 473.43-208.156 603.762V1024zM804.87 513.138s7.395-53.305-3.414-125.326H60.477c-17.521 59.448-12.97 131.015-12.97 131.015l757.362-5.746z"/><path d="M808.965 739.556c-7.396 0-11.89-.342-12.516-.399a22.585 22.585 0 01-20.082-24.234A22.528 22.528 0 01799.92 694.1c6.713.455 163.385 10.411 178.062-135.168 3.983-39.708-2.73-66.901-20.024-80.782-25.032-19.968-73.103-13.596-109.796-.91l-.91.341a22.357 22.357 0 01-22.016-4.55 22.756 22.756 0 017.794-38.4l.568-.172c29.81-10.24 104.278-30.037 152.235 8.306 30.151 24.064 42.496 64.683 36.864 120.775-10.07 99.442-72.021 142.109-122.197 160.427a275.911 275.911 0 01-91.534 15.588zm-445.1-443.734a22.699 22.699 0 01-13.425-40.732c13.369-10.126 41.017-37.262 41.017-56.775 0-17.693-6.258-25.714-15.815-37.831-11.72-14.962-26.34-33.565-26.34-69.12 0-51.77 50.006-86.13 52.11-87.552a22.357 22.357 0 0131.176 6.257 22.756 22.756 0 01-6.087 31.29c-8.989 6.143-32.313 27.192-32.313 50.005 0 19.91 6.997 28.785 16.668 41.073 11.378 14.45 25.543 32.427 25.543 65.878 0 47.445-53.134 88.519-59.164 93.07a22.3 22.3 0 01-13.37 4.437zm121.8 6.258a22.699 22.699 0 01-13.426-40.732c13.37-10.07 41.017-37.206 41.017-56.776 0-17.692-6.258-25.713-15.815-37.83-11.72-14.906-26.34-33.565-26.34-69.12 0-51.77 50.006-86.074 52.11-87.496a22.357 22.357 0 0131.176 6.144 22.756 22.756 0 01-6.087 31.346c-9.046 6.2-32.313 27.193-32.313 50.062 0 19.854 6.997 28.73 16.668 41.017 11.378 14.45 25.486 32.427 25.486 65.877 0 47.446-53.077 88.52-59.107 93.07a22.187 22.187 0 01-13.369 4.438z"/></svg>