<?xml version="1.0" standalone="no"?><!DOCTYPE svg PUBLIC "-//W3C//DTD SVG 1.1//EN" "http://www.w3.org/Graphics/SVG/1.1/DTD/svg11.dtd"><svg class="icon" width="48px" height="48.00px" viewBox="0 0 1024 1024" version="1.1" xmlns="http://www.w3.org/2000/svg"><path fill="#D9DDE1" d="M601.89376 38.4l391.616 403.2c38.528 44.8 32.064 76.8 25.664 96-6.4 12.8-19.2 38.4-64.192 38.4h-29.44v313.6c0 70.4-51.328 134.4-121.984 134.4h-584.32c-70.656 0-121.984-64-121.984-134.4V576h-28.16C24.16576 576 4.90176 544 4.90176 537.6c-6.4-19.2-12.8-51.2 25.664-96L422.18176 38.4C441.38176 12.8 479.90976 0 512.03776 0c32.128 0 64.192 12.8 89.856 38.4z m-134.784 627.2v198.4c0 6.4 6.4 19.2 6.4 25.6 6.4 6.4 12.8 12.8 25.664 12.8h64.192c19.264 0 32.128-12.8 32.128-32s-12.8-32-32.128-32h-32.064v-32h32.064c19.264 0 32.128-12.8 32.128-32s-12.8-32-32.128-32h-32.064v-70.4c83.456-19.2 134.784-96 128.384-179.2-6.4-83.2-77.056-147.2-160.512-147.2s-154.048 64-160.448 147.2c-6.4 83.2 51.328 160 128.384 172.8z m38.528-57.6c-51.392 0-96.32-44.8-96.32-96 0-57.6 44.928-96 96.32-96 51.328 0 96.256 38.4 96.256 96 0 51.2-44.928 96-96.256 96z"  /></svg>