<?xml version="1.0" standalone="no"?><!DOCTYPE svg PUBLIC "-//W3C//DTD SVG 1.1//EN" "http://www.w3.org/Graphics/SVG/1.1/DTD/svg11.dtd"><svg class="icon" width="48px" height="48.00px" viewBox="0 0 1024 1024" version="1.1" xmlns="http://www.w3.org/2000/svg"><path fill="#D9DDE1" d="M116.352 0h791.104C971.84 0 1024 51.072 1024 114.24v795.52c0 63.168-52.16 114.24-116.48 114.24-17.536 0-35.072-3.84-50.816-11.456L512 848.96 167.296 1012.48c-57.984 27.52-127.616 3.84-155.648-52.992A113.472 113.472 0 0 1 0 909.76V114.24C0 51.072 52.16 0 116.352 0z m395.52 581.76l81.664 35.456c13.76 6.08 29.632 8.064 45.056 5.888 38.464-5.504 64.576-35.968 57.92-68.032l-15.68-75.136 65.728-53.12a55.68 55.68 0 0 0 20.672-33.664c5.76-32-21.12-61.952-60.032-66.688L616.32 315.52l-40.576-68.224a66.112 66.112 0 0 0-32.32-26.752c-35.072-14.4-77.824-2.368-95.104 26.752L407.68 315.456l-90.88 11.008a76.416 76.416 0 0 0-40.576 17.152c-27.52 23.168-26.816 60.544 1.216 83.2l65.728 53.12-15.68 75.136a49.92 49.92 0 0 0 7.104 37.312c18.304 28.928 61.248 39.936 95.872 24.832l81.408-35.392z"  /></svg>