<svg class="icon" width="48" height="48" viewBox="0 0 1024 1024" xmlns="http://www.w3.org/2000/svg"><path d="M817.393 1.867H150.167a148.72 148.72 0 00-148.36 148.3v667.226a148.72 148.72 0 00148.3 148.239h667.286a148.72 148.72 0 00148.239-148.24V150.168a148.72 148.72 0 00-148.24-148.36zM669.093 706.2a36.744 36.744 0 01-37.044 37.044H261.36a36.744 36.744 0 01-37.045-37.044 36.744 36.744 0 0137.045-37.105h370.688a36.744 36.744 0 0137.045 37.105zm-444.777-222.51a36.744 36.744 0 0137.045-37.044h296.538a36.744 36.744 0 0137.045 37.044 36.744 36.744 0 01-37.045 37.105H261.361a36.744 36.744 0 01-37.045-37.105zM706.2 298.345H261.36a36.744 36.744 0 01-37.045-37.044 36.744 36.744 0 0137.045-37.045h444.838a36.744 36.744 0 0137.044 37.045 36.744 36.744 0 01-37.044 37.044z"/></svg>