<svg class="icon" width="48" height="48" viewBox="0 0 1024 1024" xmlns="http://www.w3.org/2000/svg"><path d="M928.942.037H98.956A98.172 98.172 0 0028.88 28.708 97.941 97.941 0 00.08 98.594v626.153c-1.088 26.815 8.896 52.862 27.519 72.19 18.623 19.327 44.414 30.206 71.293 30.206H268.87v141.755a53.822 53.822 0 0055.294 55.166c14.528-1.088 28.351-6.592 39.55-15.743l181.754-181.178h379.506c26.24.192 51.519-10.111 70.078-28.607 18.56-18.56 28.927-43.646 28.735-69.821V98.53a91.965 91.965 0 00-25.6-70.142A92.669 92.669 0 00928.943.038zm-292.47 582.891H209.609a51.262 51.262 0 01-51.326-51.198c0-28.287 22.975-51.198 51.326-51.198h426.865c28.415 0 51.39 22.91 51.39 51.198 0 28.287-23.04 51.198-51.39 51.198zm181.818-236.28H209.672a49.918 49.918 0 01-51.39-51.198 52.094 52.094 0 0151.326-51.198H818.29c28.16.384 50.942 23.04 51.39 51.198a49.534 49.534 0 01-51.39 51.199z"/></svg>