<svg class="icon" width="48" height="48" viewBox="0 0 1024 1024" xmlns="http://www.w3.org/2000/svg"><path d="M594.688 591.104c41.088 0 44.48 45.888 44.48 60.032 0 38.848-16.32 61.12-44.48 61.12a37.44 37.44 0 01-36.288-29.568v-60.864a38.592 38.592 0 0136.288-31.04v.32zm-331.392-60.928l26.24 90.24h-50.688l24.448-90.24zM207.04 420.8L94.528 787.264h102.4l25.024-89.088h84.416l28.16 89.088h106.56L326.08 420.8H207.04zm251.2-18.56v386.112h84.48l1.6-20.288c18.88 17.472 43.84 26.816 69.504 25.984 33.024 0 64.64-13.44 87.488-37.248a153.216 153.216 0 0039.104-109.056 145.6 145.6 0 00-38.272-106.24 106.24 106.24 0 00-76.8-31.36 107.328 107.328 0 00-67.776 21.44V401.92l-99.328.32zM152.768 84.48l-47.296 71.04h692.8a64 64 0 0164 64v698.24l74.816-56.384V148.48a64 64 0 00-64-64h-720.32zM174.272 0H896a128 128 0 01128 128v711.808a128 128 0 01-50.56 101.952l-74.048 56.192a128 128 0 01-77.44 26.048H128A128 128 0 010 896V195.328a128 128 0 0122.528-72.512l46.208-67.328A128 128 0 01174.272 0z"/></svg>