<?xml version="1.0" standalone="no"?><!DOCTYPE svg PUBLIC "-//W3C//DTD SVG 1.1//EN" "http://www.w3.org/Graphics/SVG/1.1/DTD/svg11.dtd"><svg class="icon" width="48px" height="48.00px" viewBox="0 0 1024 1024" version="1.1" xmlns="http://www.w3.org/2000/svg"><path fill="#D9DDE1" d="M586.88 768c1.152-7.232 1.6-15.104 1.28-23.68v-41.28H832V640H192v63.04h271.552v36.48c1.856 22.656-10.24 33.92-36.096 33.92h-22.08v58.304h77.504c54.4 2.432 87.68-13.504 100.032-47.936 31.04 63.552 92.8 100.928 185.088 112.192v-57.472A129.664 129.664 0 0 1 680.704 768H586.88zM0 1024v-177.664h45.44v-39.68H0V636.672h45.44v-39.68H0V427.008h45.44v-39.68H0V217.216h45.44v-39.68H0V0l1024 0.128-0.128 177.472h-45.44v39.68h45.44V387.2h-45.44v39.68h45.44v170.048h-45.44v39.68h45.44v170.048h-45.44v39.616h45.44v177.472L0 1024zM832 192H192v65.216h177.152v27.52H209.088v163.2h514.368c60.864 1.6 90.496-26.752 88.512-85.376V284.8h-162.88v-27.52H832V192z m-64 320H256v64h512V512z m-487.36 256c-18.048 36.608-47.552 60.16-88.64 70.528V896c98.56-10.496 162.496-53.12 192-128H280.64z"  /><path fill="#D9DDE1" d="M448 384v42.88h50.112V384H448zM320 384v42.88h42.752V384zM685.248 384H640v42.88h20.16c18.304 1.792 26.752-6.656 25.024-25.216V384zM448 256v27.712h50.112V256z"  /></svg>