<svg class="icon" width="48" height="48" viewBox="0 0 1024 1024" xmlns="http://www.w3.org/2000/svg"><path d="M396.215.512H85.577C38.766.512.877 38.254.877 84.846v309.833c0 46.592 37.889 84.334 84.627 84.334h395.337V84.846c0-46.592-37.888-84.334-84.626-84.334zM.878 629.248v309.833c0 46.592 37.888 84.334 84.626 84.334h310.71c46.812 0 84.627-37.742 84.627-84.334V544.914H85.577c-46.811 0-84.7 37.742-84.7 84.334zm938.496-84.334H544.037v394.167c0 46.592 37.888 84.334 84.553 84.334h310.784c46.738 0 84.626-37.742 84.626-84.334V629.248c0-46.592-37.888-84.334-84.626-84.334zm0-544.402H628.663c-46.812 0-84.626 37.742-84.626 84.334v394.24h395.337c46.738 0 84.626-37.742 84.626-84.334V84.846C1024 38.254 986.112.512 939.374.512zm26.331 336.018c0 46.592-37.888 84.334-84.626 84.334H602.33V142.921c0-46.519 37.888-84.26 84.627-84.26h194.12c46.74 0 84.554 37.741 84.554 84.333v193.463z"/></svg>