<svg class="icon" width="48" height="48" viewBox="0 0 1024 1024" xmlns="http://www.w3.org/2000/svg"><path d="M341.312 412.48V68.288C341.312 30.528 371.904 0 409.6 0h546.112C993.472 0 1024 30.592 1024 68.288v887.424c0 37.76-30.592 68.288-68.288 68.288H768V802.112A34.112 34.112 0 00733.888 768h-102.4a34.112 34.112 0 00-34.176 34.112V1024H68.288C30.528 1024 0 993.408 0 955.712V480.704c0-37.696 30.592-68.224 68.288-68.224h273.024zm204.8-241.792A34.112 34.112 0 00512 204.8v17.088C512 240.704 527.296 256 546.112 256H819.2a34.112 34.112 0 0034.112-34.112V204.8a34.112 34.112 0 00-34.112-34.112H546.112zm0 256A34.112 34.112 0 00512 460.8v17.088C512 496.704 527.296 512 546.112 512H819.2a34.112 34.112 0 0034.112-34.112V460.8a34.112 34.112 0 00-34.112-34.112H546.112zM213.312 531.2a42.688 42.688 0 100 85.312h85.376a42.688 42.688 0 100-85.312h-85.376zm0 170.624a42.688 42.688 0 100 85.376h85.376a42.688 42.688 0 000-85.376h-85.376z"/></svg>