<svg class="icon" width="48" height="48" viewBox="0 0 1024 1024" xmlns="http://www.w3.org/2000/svg"><path d="M1024 341.312v-54.72a40.32 40.32 0 00-21.184-36.48L526.144 5.44a31.168 31.168 0 00-35.328 0C328.384 85.76 197.696 166.144 35.328 242.752 21.12 250.048 7.04 257.344 0 275.648v72.96c7.04 18.304 24.704 25.6 38.848 21.952 10.56 0 17.664 0 28.224 3.648v576.768c0 18.24 3.52 36.48 14.144 51.136 10.56 14.592-7.04 21.888 10.56 21.888H211.84V549.44h589.696V1024c45.888 0 60.032 0 105.92-3.648 28.288-10.944 45.952-36.48 45.952-69.376V374.208h38.784c14.144 0 28.288-10.944 31.808-29.248v-3.648zM321.28 388.8c0 7.296 0 10.944-10.56 10.944H158.912c-10.624 0-14.08 0-14.08-14.592v-51.136c0-7.296 0-10.88 10.56-10.88H307.2c7.04 0 10.624 0 10.624 10.88 3.52 18.24 3.52 36.48 3.52 54.784zm282.496 0c0 7.296-3.52 10.944-10.56 10.944H441.408c-10.624 0-14.144 0-14.144-14.592v-47.488c0-7.296 0-10.88 10.56-10.88H593.28c7.04 0 10.56 3.584 10.56 10.88V388.8zm279.04 0v7.296c-3.584 3.648-7.104 7.296-10.624 3.648H723.84c-10.56 0-14.08 0-14.08-14.592v-47.488c0-10.88 0-14.592 10.56-14.592h151.872c10.56 0 14.08 3.648 14.08 10.944l-3.52 54.784z"/><path d="M689.088 960H331.904c-5.952 0-11.904 5.76-11.904 14.528v37.824c0 8.768 5.952 11.648 14.912 11.648h357.184c5.952 0 11.904-5.76 11.904-14.528v-37.824c0-5.824-5.952-11.648-14.912-11.648zm0-256H331.904c-5.952 0-11.904 5.76-11.904 14.528v37.824c0 8.768 5.952 11.648 14.912 11.648h357.184c5.952 0 11.904-5.76 11.904-14.528v-37.824c0-5.824-5.952-11.648-14.912-11.648zm0 128H331.904c-5.952 0-11.904 5.76-11.904 14.528v37.824c0 8.768 5.952 11.648 14.912 11.648h357.184c5.952 0 11.904-5.76 11.904-14.528v-37.824c0-5.824-5.952-11.648-14.912-11.648z"/></svg>