<?xml version="1.0" standalone="no"?><!DOCTYPE svg PUBLIC "-//W3C//DTD SVG 1.1//EN" "http://www.w3.org/Graphics/SVG/1.1/DTD/svg11.dtd"><svg class="icon" width="48px" height="48.00px" viewBox="0 0 1024 1024" version="1.1" xmlns="http://www.w3.org/2000/svg"><path fill="#D9DDE1" d="M779.048404 865.325089c24.623072-20.274062 44.769221-53.339329 44.769221-86.468553 0-49.565923-42.53076-75.340204-87.236025-75.340203-46.87977 0-87.172069 25.77428-87.172069 75.340203 0 33.065268 17.907688 66.194491 42.466804 86.404597a29.036038 29.036038 0 0 1-11.192305 36.774717c-49.182187 14.709887-105.079758 40.420211-105.079758 67.921304v9.209669c0 34.919993 82.695147 44.129661 160.977328 44.129661 76.04372 0 158.802823-7.290987 158.802823-44.129661v-9.209669c-2.238461-27.501093-60.438449-55.066142-109.620636-67.921304-2.238461 0-17.907688-12.919118-6.715383-36.774717z"  /><path fill="#D9DDE1" d="M931.071888 839.934545c19.186809-24.111423 32.617575-65.171195 32.617575-106.16701 0-60.374493-29.931422-84.869652-68.30504-84.869652-26.861533 0-52.443945 7.546812-62.037349 41.315595 23.024171 24.111423 38.373618 60.310537 38.373618 108.59734 0 50.717132-17.332084 43.618013-38.373618 74.956467 32.617575 14.454063 144.860408 74.061083 94.015364 149.529199 49.757792-2.430329 95.934045-16.884392 95.934046-53.083505v-12.151646c1.854725-36.071201-44.257573-67.409656-86.404597-84.294048-1.918681 0-13.430766-4.796702-5.756043-33.896696zM575.604272 0v240.730498c0 5.308351 2.558241 10.232965 6.651427 12.919118a12.663294 12.663294 0 0 0 13.494723 0.383736l69.328336-40.548123a12.599338 12.599338 0 0 1 12.919118 0l69.328337 40.548123a12.663294 12.663294 0 0 0 13.494723-0.383736 15.413403 15.413403 0 0 0 6.651427-12.919118V0h49.438011C860.208607 0 895.384423 35.175817 895.384423 78.601961v510.241209a158.994691 158.994691 0 0 0-19.890325-1.407032c-43.873837 0-83.142839 18.419337-109.364812 49.118231a162.704141 162.704141 0 0 0-15.797139-0.767472c-88.259322 0-152.40722 66.386359-152.40722 157.843482 0.127912 28.908126 6.075823 57.496471 17.523952 83.974268-52.635813 31.466367-80.07295 71.183062-80.07295 117.039535v9.593405c0 6.395603 0.447692 12.791206 1.470989 19.058897H78.474049C35.175817 1023.296484 0 988.120667 0 944.630566V78.665917C0 35.175817 35.175817 0 78.474049 0H575.604272zM78.026357 319.780151c-9.401536 0-14.070327 3.901318-14.070327 11.76791v40.420211c0 7.866592 4.66879 11.76791 14.070327 11.767909h291.639498c9.401536 0 14.070327-3.901318 14.070326-11.767909v-40.420211C383.736181 323.681469 379.067391 319.780151 369.665855 319.780151H78.026357z m-1.662857 127.912061C68.049216 447.692212 63.95603 451.593529 63.95603 459.460121v40.420211c0 7.866592 4.157142 11.76791 12.40747 11.76791h358.921242C443.599026 511.648242 447.692212 507.746924 447.692212 499.880332v-40.420211C447.692212 451.593529 443.53507 447.692212 435.284742 447.692212H76.3635z m-0.767472 127.91206C67.793392 575.604272 63.95603 579.50559 63.95603 587.372182v40.420211c0 7.866592 3.837362 11.76791 11.639998 11.767909h168.588095C251.986759 639.560302 255.824121 635.658984 255.824121 627.792393v-40.420211C255.824121 579.50559 251.986759 575.604272 244.184123 575.604272H75.596028z"  /></svg>