<?xml version="1.0" standalone="no"?><!DOCTYPE svg PUBLIC "-//W3C//DTD SVG 1.1//EN" "http://www.w3.org/Graphics/SVG/1.1/DTD/svg11.dtd"><svg class="icon" width="48px" height="48.00px" viewBox="0 0 1024 1024" version="1.1" xmlns="http://www.w3.org/2000/svg"><path fill="#D9DDE1" d="M511.958723 971.380242l-443.676228-204.783489c1.471881 0.895928-39.292832-17.598581-68.282495-34.173245 0 24.766003 6.2075 70.138345 29.309637 82.425355l434.396977 195.568232c38.396904 18.11054 54.907573 18.11054 96.504219 0l434.396977-195.568232c21.438272-10.04719 29.309637-57.083398 29.309637-82.489349-27.965745 14.078865-67.514557 33.98126-68.282495 34.173244L511.958723 971.316248zM994.60781 244.526845L560.274828 14.785368c-34.173245-20.22237-58.235305-19.198452-96.632209 0L29.373632 244.59084c-33.085332 21.310282-34.173245 78.39368 0 96.568214l434.396976 195.568232c38.396904 18.11054 54.907573 18.11054 96.50422 0l434.396977-195.568232c31.99742-14.974793 33.085332-78.457674 0-96.632209z"  /><path fill="#D9DDE1" d="M515.862409 66.493199L511.958723 64.061395c8.383324 11.391082 8.19134 6.399484 3.903686 2.431804zM29.309637 557.973573l434.396977 196.400166c38.396904 18.174535 54.907573 18.174535 96.568214 0l434.332982-196.336171c21.438272-10.04719 29.309637-57.275382 29.309637-82.681334-27.965745 14.078865-67.450562 34.045255-68.282495 34.23724L511.958723 715.208896 68.282495 509.593474A832.572874 832.572874 0 0 1 0 475.356234c0 24.829998 6.2075 70.394324 29.309637 82.681334z"  /></svg>