<svg class="icon" width="48" height="48" viewBox="0 0 1024 1024" xmlns="http://www.w3.org/2000/svg"><path d="M674.112 281.6H554.688v-68.288a17.088 17.088 0 00-17.088-17.024h-42.688a17.088 17.088 0 00-17.024 17.024V281.6H358.4v-68.288a17.088 17.088 0 00-17.088-17.024h-42.624a17.088 17.088 0 00-17.088 17.024V281.6h-68.288a17.088 17.088 0 00-17.024 17.088v42.624c0 9.408 7.68 17.088 17.024 17.088H281.6v119.488h-68.288a17.088 17.088 0 00-17.024 17.024V537.6c0 9.408 7.68 17.088 17.024 17.088H281.6v119.424h-68.288a17.088 17.088 0 00-17.024 17.088v42.688c0 9.344 7.68 17.024 17.024 17.024H281.6V819.2c0 9.408 7.68 17.088 17.088 17.088h42.624c9.408 0 17.088-7.68 17.088-17.088v-68.288h119.488V819.2c0 9.408 7.68 17.088 17.024 17.088H537.6c9.408 0 17.088-7.68 17.088-17.088v-68.288h119.424V819.2c0 9.408 7.68 17.088 17.088 17.088h42.688c9.344 0 17.024-7.68 17.024-17.088v-68.288H819.2c9.408 0 17.088-7.68 17.088-17.024V691.2a17.088 17.088 0 00-17.088-17.088h-68.288V554.688H819.2c9.408 0 17.088-7.68 17.088-17.088v-42.688a17.088 17.088 0 00-17.088-17.024h-68.288V358.4H819.2c9.408 0 17.088-7.68 17.088-17.088v-42.624A17.088 17.088 0 00819.2 281.6h-68.288v-68.288a17.088 17.088 0 00-17.024-17.024H691.2a17.088 17.088 0 00-17.088 17.024V281.6zm0 76.8v119.488H554.688V358.4h119.424zm0 196.288v119.424H554.688V554.688h119.424zM477.888 674.112H358.4V554.688h119.488v119.424zm0-196.224H358.4V358.4h119.488v119.488zM942.912 0C988.16 0 1024 36.672 1024 81.088v861.824c0 45.248-36.672 81.088-81.088 81.088H81.088A81.024 81.024 0 010 942.912V81.088C0 36.672 36.672 0 81.088 0h861.824z"/></svg>