<svg class="icon" width="48" height="48" viewBox="0 0 1024 1024" xmlns="http://www.w3.org/2000/svg"><path d="M511.967 1024c-22.225 0-44.45-7.348-66.676-22.044l-318.38-191.173c-37.042-22.105-66.676-66.254-66.676-110.343V318.094c0-44.089 22.225-88.238 66.676-110.282L445.29 16.639c44.45-22.105 88.901-22.105 133.351 0l318.38 191.173c37.043 22.044 66.676 66.193 66.676 110.282V700.44c0 44.149-22.225 88.238-66.675 110.343l-318.38 191.173c-22.286 14.696-44.451 22.044-66.676 22.044zM215.75 693.092l296.216 176.476 296.215-176.476v-367.65L511.967 148.966 215.75 325.442v367.65z"/><path d="M361.39 512.038a150.577 150.577 0 10301.154 0 150.577 150.577 0 00-301.154 0z"/></svg>