<?xml version="1.0" standalone="no"?><!DOCTYPE svg PUBLIC "-//W3C//DTD SVG 1.1//EN" "http://www.w3.org/Graphics/SVG/1.1/DTD/svg11.dtd"><svg class="icon" width="48px" height="48.00px" viewBox="0 0 1024 1024" version="1.1" xmlns="http://www.w3.org/2000/svg"><path fill="#D9DDE1" d="M960 482.88c-53.312-38.528-182.4-61.184-252.48-61.184-181.12 0-328 150.912-328 336.96 0 107.776 49.28 203.648 125.76 265.344H139.648C97.856 1024 64 989.184 64 946.304V77.696C64 34.816 97.92 0 139.648 0h744.704C926.144 0 960 34.816 960 77.696v405.184zM139.648 106.88v810.24h151.232V106.88H139.648z"  /><path fill="#D9DDE1" d="M29.568 192H206.72c16.32 0 29.504 12.736 29.504 28.416V296.32a28.992 28.992 0 0 1-29.504 28.416H29.44A28.992 28.992 0 0 1 0 296.32V220.416C0 204.8 13.248 192 29.568 192z m0 199.104H206.72c16.32 0 29.504 12.8 29.504 28.48V495.36a28.992 28.992 0 0 1-29.504 28.416H29.44A28.992 28.992 0 0 1 0 495.424V419.584c0-15.744 13.248-28.48 29.568-28.48z m0 199.104H206.72c16.32 0 29.504 12.8 29.504 28.48v75.84a28.992 28.992 0 0 1-29.504 28.416H29.44A28.992 28.992 0 0 1 0 694.528V618.688c0-15.744 13.248-28.48 29.568-28.48z m916.416 81.6a213.312 213.312 0 0 0-12.416-20.992 32.512 32.512 0 0 1-4.864-28.416l8.32-27.712a32.896 32.896 0 0 0-15.936-38.4l-69.056-38.72a35.392 35.392 0 0 0-42.112 6.016l-30.336 30.72a195.072 195.072 0 0 0-62.848-1.024l-29.376-29.696a35.392 35.392 0 0 0-42.112-6.016l-69.056 38.72a32.896 32.896 0 0 0-15.872 38.4l6.208 20.352a32.576 32.576 0 0 1-5.504 29.056c-6.592 9.408-12.48 19.2-17.6 29.44a36.544 36.544 0 0 1-23.168 18.624l-21.056 5.056a33.6 33.6 0 0 0-26.56 33.408v76.16a33.6 33.6 0 0 0 26.56 33.408l20.736 4.992c10.24 2.496 18.816 9.344 23.104 18.688 5.12 10.368 11.136 20.352 17.92 29.76 6.4 8.192 8.384 18.816 5.568 28.672l-6.208 20.416c-4.48 14.784 2.048 30.72 15.872 38.4l69.056 38.4c13.696 7.68 31.104 5.312 42.112-5.76l28.992-29.312c9.536 0.96 19.072 1.344 28.672 0.96 11.584 0 23.168-1.024 34.56-2.944l29.632 30.336a35.392 35.392 0 0 0 42.176 5.76l69.056-38.4a32.896 32.896 0 0 0 15.808-38.464l-8.256-27.712a32.512 32.512 0 0 1 4.864-28.032c4.48-7.04 8.64-14.08 12.416-21.376a34.304 34.304 0 0 1 23.104-18.368l29.376-7.04a33.6 33.6 0 0 0 26.24-33.408V729.6a33.6 33.6 0 0 0-26.24-33.408l-29.376-7.04a34.304 34.304 0 0 1-22.4-17.28z m-200.96 196.736c-57.216 0-103.552-44.864-103.552-100.16 0-55.36 46.336-100.224 103.552-100.224 57.216 0 103.616 44.864 103.616 100.224 0 55.296-46.4 100.16-103.616 100.16z"  /></svg>