<svg class="icon" width="48" height="48" viewBox="0 0 1024 1024" xmlns="http://www.w3.org/2000/svg"><path d="M1023.233 890.468c-6.843 35.11-34.343 56.15-68.685 63.185-27.5 0-48.092-7.035-68.684-21.104l-89.277-91.196C679.874 721.955 645.532 667.659 528.755 548.325v-7.035a212.065 212.065 0 00-41.185-98.294c-20.592-35.11-54.934-70.156-82.37-98.295-20.656-21.04-48.092-42.08-82.434-63.184-13.75-14.07-34.342-21.04-61.778-28.075v-7.035c0-28.075 13.686-42.08 27.5-63.184 13.685-7.035 34.278-21.04 54.87-28.075 20.593-7.035 41.186 0 61.842 7.034 27.5 7.035 48.028 21.105 68.62 35.11 48.093 42.144 89.278 84.225 123.62 140.439 6.907 21.04 20.592 42.08 20.592 63.184v7.035c61.842 63.185 116.777 126.37 178.555 182.52 89.277 98.293 109.87 124.45 199.146 222.744 13.75 14.07 20.657 28.139 20.657 49.18 6.843 7.034 6.843 7.034 6.843 14.069v14.005zM0 932.676c6.843-21.104 20.593-35.173 41.185-35.173h41.25V792.238c0-14.07 6.842-21.104 20.592-21.104h549.348c13.75 0 20.592 7.034 20.592 21.104v105.329h41.25c20.592 0 41.184 21.104 41.184 42.144v42.08c0 21.105-13.75 35.174-34.342 42.145H41.25c-13.75-7.035-27.5-14.07-27.5-28.139v-6.97C0 967.721 0 953.716 0 932.676zM521.913.703h20.592c20.593 7.035 41.25 14.07 61.842 28.14 27.5 28.01 54.935 49.115 82.37 84.224 20.593 21.04 41.249 49.115 54.999 70.156 13.685 21.104 20.528 42.208 27.435 63.184 13.75 70.22-27.5 112.364-68.684 126.433-13.75 7.035-27.5 7.035-34.343 7.035-20.592-56.214-48.092-91.323-82.37-133.468-27.5-28.075-54.999-63.184-89.277-84.225-20.656-21.104-48.092-35.11-82.434-42.144v-7.035c0-35.045 13.75-63.184 34.342-84.225 13.75-14.069 27.5-21.104 48.092-28.075h27.5z"/><path d="M191.217 256.512c25.516 0 50.97 8.377 76.422 16.755 33.895 16.755 59.412 33.51 93.37 58.644 33.895 41.889 67.853 75.4 101.812 117.224 16.947 25.133 33.894 58.644 42.4 83.777s8.506 58.644 0 83.777c-16.947 41.89-50.906 75.4-93.37 83.778-16.947 8.313-42.4 0-59.347 0-33.959-8.378-59.476-25.134-84.865-41.889-50.906-33.51-84.864-67.022-127.264-117.288-17.012-16.755-42.464-41.889-59.476-75.4-8.441-25.133-16.947-50.138-16.947-75.335 0-41.888 16.947-67.022 42.464-92.155 16.947-16.755 33.895-33.51 59.348-33.51 8.505-8.378 17.01-8.378 25.517-8.378z"/></svg>