<?xml version="1.0" standalone="no"?><!DOCTYPE svg PUBLIC "-//W3C//DTD SVG 1.1//EN" "http://www.w3.org/Graphics/SVG/1.1/DTD/svg11.dtd"><svg class="icon" width="48px" height="48.00px" viewBox="0 0 1024 1024" version="1.1" xmlns="http://www.w3.org/2000/svg"><path fill="#D9DDE1" d="M928.942329 0.037119H98.956416A98.172441 98.172441 0 0 0 28.878956 28.708079C10.319629 47.203409-0.047995 72.354497 0.08 98.593546v626.153302c-1.087961 26.815028 8.895678 52.862084 27.519002 72.189383 18.623325 19.327299 44.41439 30.206905 71.293416 30.206905h169.977838v141.754861a53.822049 53.822049 0 0 0 55.293996 55.166001c14.527473-1.087961 28.350972-6.591761 39.550566-15.74343l181.753412-181.177432h379.506243c26.239049 0.191993 51.518132-10.111633 70.077459-28.606963 18.559327-18.559327 28.926951-43.646418 28.734959-69.821469V98.529548a91.964666 91.964666 0 0 0-25.599072-70.141457A92.668641 92.668641 0 0 0 928.942329 0.037119z m-292.469398 582.89087h-426.864526a51.262142 51.262142 0 0 1-51.32614-51.198144c0-28.286975 22.975167-51.198144 51.32614-51.198144h426.864526c28.41497 0 51.390137 22.911169 51.390137 51.198144 0 28.286975-23.039165 51.198144-51.390137 51.198144z m181.817409-236.279435h-608.617938a49.91819 49.91819 0 0 1-51.390137-51.198144 52.094112 52.094112 0 0 1 51.32614-51.198144h608.681935c28.158979 0.383986 50.942153 23.039165 51.390137 51.198144a49.534204 49.534204 0 0 1-51.390137 51.198144z"  /></svg>