<?xml version="1.0" standalone="no"?><!DOCTYPE svg PUBLIC "-//W3C//DTD SVG 1.1//EN" "http://www.w3.org/Graphics/SVG/1.1/DTD/svg11.dtd"><svg class="icon" width="48px" height="48.00px" viewBox="0 0 1024 1024" version="1.1" xmlns="http://www.w3.org/2000/svg"><path fill="#D9DDE1" d="M610.048 558.464c-20.416-12.608-33.088-37.76-33.088-62.912 0-27.52 22.912-50.368 37.952-67.712 37.952-44.928 57.792-105.472 57.792-173.76C672.768 113.28 571.648 0 447.552 0 323.456 0 222.848 115.072 222.848 255.872c0 67.712 22.912 128.192 57.792 173.76 22.912 12.608 37.952 40.128 37.952 67.712 0 25.152-12.608 47.36-33.088 62.912v2.368c-2.432 0-4.864 2.432-4.864 2.432-12.608 7.168-25.28 12.544-40.32 12.544C144.64 610.56 63.936 660.928 15.168 723.264h2.432c-12.672 17.344-17.472 37.76-17.472 57.472V1024h896v-243.2c0-25.216-10.24-47.36-22.912-67.776-46.336-61.696-122.816-109.056-215.552-139.584 0 0-37.952-10.24-47.552-14.976z"  /><path fill="#D9DDE1" d="M888.448 591.488s-30.4-7.488-39.744-13.12c-16-13.184-25.408-34.496-25.408-57.6 0-26.368 18.752-47.04 30.336-60.16 30.336-41.984 48.576-97.152 48.576-160.448 0-129.024-81.088-236.16-182.592-236.16-16 0-32.64 2.56-46.4 7.488 34.752 57.664 52.992 125.952 52.992 202.368 0 81.472-24.32 141.888-67.84 207.04l-4.48 4.992v2.56c-4.352 4.992-11.52 13.12-13.76 21.248 0 2.56 0 2.56 2.176 2.56 4.48 2.496 11.648 4.992 18.816 4.992h2.176l9.408 4.992c94.848 34.432 176.512 97.024 229.504 173.44 23.168 34.432 35.328 89.408 35.328 132.032V1024L1024.128 1023.36v-235.072c-3.328-28.8-3.328-64-20.992-92.608-39.68-55.104-52.672-55.104-114.752-104.192z"  /></svg>