<svg class="icon" width="48" height="48" viewBox="0 0 1024 1024" xmlns="http://www.w3.org/2000/svg"><path d="M0 1006.08V904c0-4.8 1.92-9.408 5.377-12.8a18.432 18.432 0 0113.056-5.184h987.136a18.432 18.432 0 0118.432 17.92v102.08a18.432 18.432 0 01-18.432 17.984H18.433a18.368 18.368 0 01-13.056-5.12A17.664 17.664 0 010 1006.08zm90.177-666.24h203.968a18.176 18.176 0 0112.672 5.376c3.392 3.328 5.184 7.872 5.12 12.544v459.776a17.472 17.472 0 01-5.12 12.608 18.112 18.112 0 01-12.672 5.312H90.24a18.112 18.112 0 01-12.736-5.312 17.472 17.472 0 01-5.056-12.608V357.76a17.536 17.536 0 015.12-12.544 18.176 18.176 0 0112.672-5.376zm319.808-146.816h204.032a17.92 17.92 0 0117.728 18.048v606.464a17.472 17.472 0 01-5.056 12.608 18.112 18.112 0 01-12.672 5.312H409.985a18.112 18.112 0 01-12.672-5.312 17.472 17.472 0 01-5.12-12.608V211.072a17.92 17.92 0 0117.792-18.048zM729.857 0h203.968a18.176 18.176 0 0112.672 5.376c3.328 3.392 5.184 7.872 5.12 12.608v799.552a17.472 17.472 0 01-5.12 12.608 18.112 18.112 0 01-12.672 5.312H729.857a18.112 18.112 0 01-12.736-5.312 17.472 17.472 0 01-5.056-12.608V17.92a17.472 17.472 0 015.12-12.608 18.112 18.112 0 0112.672-5.376z"/></svg>