<?xml version="1.0" standalone="no"?><!DOCTYPE svg PUBLIC "-//W3C//DTD SVG 1.1//EN" "http://www.w3.org/Graphics/SVG/1.1/DTD/svg11.dtd"><svg class="icon" width="48px" height="48.00px" viewBox="0 0 1024 1024" version="1.1" xmlns="http://www.w3.org/2000/svg"><path fill="#D9DDE1" d="M951.488 0C989.888 0 1024 40.704 1024 93.12v768c0 52.352-34.112 98.88-72.512 98.88l-345.28 0.064a384 384 0 0 0-478.272-588.672L128 98.88C128 46.528 162.112 0 200.512 0z m-53.312 364.16h-132.928c-14.784 0-29.568 15.168-29.568 40.384 0 20.16 11.072 40.32 29.568 40.32h132.928c14.72 0 29.504-15.104 29.504-40.32s-14.72-40.32-29.504-40.32zM893.568 192l-4.864 0.768H551.04a39.104 39.104 0 0 0-39.04 40.32c0 20.224 14.656 40.32 39.04 40.32h337.664c19.456 0 39.04-15.104 39.04-40.32 0-25.152-19.584-45.376-39.04-40.32z"  /><path fill="#D9DDE1" d="M320 384a320 320 0 1 1 0 640A320 320 0 1 1 320 384z m29.952 203.776a19.072 19.072 0 0 0-34.752-0.704l-26.752 54.016a13.44 13.44 0 0 1-10.304 7.552l-57.984 7.68c-16 2.112-22.784 22.4-11.392 34.24l41.216 43.072c3.136 3.264 4.48 8 3.648 12.544l-10.88 59.648c-2.88 16.448 13.44 29.248 27.904 21.76l52.224-27.392a12.8 12.8 0 0 1 12.544 0.192l51.264 29.184c14.08 8.128 30.976-4.16 28.48-20.736l-8.832-59.968a14.4 14.4 0 0 1 4.096-12.416l42.56-41.6c11.712-11.52 5.632-32-10.368-34.496l-57.6-9.792a13.76 13.76 0 0 1-10.112-7.872z"  /></svg>