<svg class="icon" width="48" height="48" viewBox="0 0 1024 1024" xmlns="http://www.w3.org/2000/svg"><path d="M640 61.056c0-18.752-5.184-33.216-15.616-44.48C613.952 5.376 599.424 0 580.672 0H443.84c-18.752 0-33.28 5.376-43.712 16.64A63.488 63.488 0 00384 60.992V128h256V61.056z"/><path d="M984 102.976C958.4 78.336 926.142 65.728 887.36 64H730.431v72.768c-.64 20.096-7.168 35.584-19.136 47.04-11.904 11.456-28.608 17.728-48.896 18.304H361.6c-20.864-.576-36.992-6.848-48.896-18.304-11.968-11.52-18.56-27.52-19.136-47.04V64H136.64C98.432 65.152 66.24 78.336 40 102.976c-26.24 24.64-39.424 55.04-40 92.288v697.471c.64 36.672 14.336 67.648 40 92.864 25.6 25.216 57.856 37.824 96.64 38.4h750.72A139.648 139.648 0 00984 985.6c26.24-24.64 39.423-55.616 40-92.8V195.2a125.568 125.568 0 00-40-92.223zM396.8 394.688c29.888-29.824 68.032-45.824 115.2-46.976 47.168 1.728 85.312 17.152 114.56 47.552 29.248 28.672 45.376 67.072 45.376 107.2-.64 45.248-16.704 82.56-47.744 111.168a163.84 163.84 0 01-112.768 44.16 167.68 167.68 0 01-112.832-47.04 148.928 148.928 0 01-47.68-108.288c.576-40.704 17.28-79.104 45.888-107.776zm353.28 451.071c-8.32 10.88-18.496 16.64-30.4 17.216H304.32a38.4 38.4 0 01-30.4-14.336c-8.32-9.792-11.328-21.76-7.744-37.248 8.96-33.855 26.24-60.16 51.84-80.255 26.304-19.52 54.976-29.824 85.952-30.4h15.552c31.04 14.912 62.08 21.76 92.48 21.76 30.464 0 61.44-7.424 92.48-21.76h15.552c30.4.64 60.224 11.52 83.52 30.4 24.448 19.456 42.368 46.4 54.272 80.255a39.808 39.808 0 01-7.68 34.368z"/></svg>