<svg class="icon" width="48" height="48" viewBox="0 0 1024 1024" xmlns="http://www.w3.org/2000/svg"><path d="M1024 918.08V105.92C1024 47.424 976.576 0 918.08 0H105.92C47.424 0 0 47.424 0 105.92v812.16C0 976.576 47.424 1024 105.92 1024h812.16c58.496 0 105.92-47.424 105.92-105.92zM176.064 622.656H278.4V403.584H512V295.488H374.72c-31.168 60.416-92.544 109.12-184.064 146.112v-61.44c68.16-44.8 112.96-112.896 134.4-204.48h96.384a633.92 633.92 0 01-17.536 55.488h423.552v64.256H611.328v108.16H809.92v64.256H611.328v154.88H853.76v64.192H611.328v160.64H512v-160.64H176.064V622.72zM384 448h128v192H384V448z"/></svg>