<svg class="icon" width="48" height="48" viewBox="0 0 1024 1024" xmlns="http://www.w3.org/2000/svg"><path d="M1023.974 475.214c-.832-50.367-58.046-91.198-126.972-91.198h-770.03C57.343 384.016 0 425.359 0 475.79v457.012C.832 983.17 58.047 1024 126.973 1024H896.17c54.718 0 102.077-25.791 119.485-61.246l4.096-8.96 1.6-7.232 1.663-16.832v-6.015l.96-448.501zm-422.261 179.26h2.432c9.984 1.151 21.631.64 32.32 0 19.967-1.089 37.31-1.089 53.886 3.455 14.911 5.248 18.175 15.616 17.407 24.32-1.664 8.64-9.983 19.007-25.727 21.311-22.463 1.664-44.799 1.664-67.198 1.088-13.312 0-28.16-.576-41.471 0h-5.76v46.719h102.91c18.175-1.088 36.542 9.28 37.374 22.527 1.6 6.976-1.664 13.248-9.151 19.008a43.199 43.199 0 01-29.056 8.704H567.666v33.47c0 13.248 0 27.136-.832 40.384 0 6.4-4.928 12.671-13.248 17.343a43.007 43.007 0 01-22.4 6.4h-3.327c-17.408-1.152-32.32-12.16-33.28-23.68-.767-13.311-.767-27.199-.767-40.446V801.67h-49.023c-19.008 0-35.711.64-53.119 0a46.847 46.847 0 01-26.495-6.912c-6.72-4.672-10.88-10.944-10.88-17.344-1.6-12.096 13.312-24.831 31.551-25.407 19.968-1.152 41.407-.64 60.607-.64h48.959v-46.719h-5.76a521.715 521.715 0 00-42.24 0c-24.959.64-49.022 1.152-70.461-2.816-16.64-4.032-21.632-15.04-21.632-23.167 0-8.064 5.76-19.008 20.8-23.104 17.343-2.88 34.047-2.304 52.286-1.728 9.984 0 21.568.576 31.424 0h1.663l19.968-13.887-4.096-2.88c-15.744-11.52-32.32-22.464-46.527-32.384a4820.68 4820.68 0 01-66.366-46.718c-8.32-5.248-10.816-12.672-8.32-21.312a31.935 31.935 0 0123.232-19.647h.831c14.912-5.248 33.28 1.728 43.071 9.215L533.62 603.66l4.096-2.88 48.958-34.048 2.496-1.728c17.344-12.095 34.88-24.83 52.287-36.35 16.512-12.16 29.823-15.04 43.903-12.16 11.648 1.792 21.631 9.28 24.96 17.92 3.2 8.127 0 16.767-8.385 21.95-17.407 12.608-35.71 25.408-53.118 37.504l-1.664 1.152c-19.968 13.183-39.807 27.647-59.775 42.175l-3.264 2.24 17.664 15.04zM339.32 84.886c6.72-16.767 29.055-25.983 49.854-20.031l460.597 122.045a40.959 40.959 0 0123.295 16 26.24 26.24 0 011.6 24.703l-12.416 30.015s-4.927 21.952 24.896 29.375c29.823 7.36 47.359-3.327 47.359-3.327l14.911-35.328c20.8-49.342-13.311-103.357-74.75-119.293L414.902 4.89a140.924 140.924 0 00-89.598 5.376c-28.223 11.328-49.023 30.72-59.007 54.655-.832 1.984-1.664 18.048 32.32 25.983 33.343 8 40.767-6.08 40.767-6.08z"/><path d="M164.924 189.397c5.696-20.48 21.375-38.911 41.79-49.407 14.72-7.808 31.168-11.968 48.448-11.968 7.487 0 14.72.64 22.207 2.112l77.95 16.192 405.366 85.438a95.998 95.998 0 0157.343 35.967c6.655 9.92 11.52 21.183 13.12 32.511 0 0 .831 6.4.831 11.968 0 2.816-4.864 7.808-8.256 7.808h-689.07c-5.76 0-6.656-7.808-6.656-7.808l36.927-122.877z"/></svg>