<svg class="icon" width="48" height="48" viewBox="0 0 1024 1024" xmlns="http://www.w3.org/2000/svg"><path d="M320 64.512V320h448V64l-448 .512c0-.512 0-.512 0 0z"/><path d="M192.576 64.448C192.576 28.608 223.808 0 263.04 0h497.92C800.192 0 832 28.608 832 64.448v255.104C832 354.88 800.192 384 760.96 384H263.04c-39.232 0-71.04-28.608-71.04-64.448.576-.512.576-255.104.576-255.104zM0 735.552a64 64 0 0164-64h320.192a64 64 0 0164 64V960a64 64 0 01-64 63.936H64.064A64.64 64.64 0 010 960.064V735.552zm640.32 0v224H960v.512-224.512c0 .448 0 0 0 0H640.32c0 .448 0 0 0 0zm128.064-159.616H256.128v95.68h-64V512h64v63.936h-64V512h640.32v159.616h-64v-95.68z"/><path d="M549.504 735.488c0-35.328 30.4-64 67.84-64H956.16c37.44 0 67.84 28.672 67.84 64V960c0 35.264-30.4 63.936-67.84 63.936H617.408c-37.504 0-67.84-28.672-67.84-64V735.424zM448 384h67.84v127.872H448V384z"/></svg>