<svg class="icon" width="48" height="48" viewBox="0 0 1024 1024" xmlns="http://www.w3.org/2000/svg"><path d="M245.36 92v52.98a52.5 52.5 0 0015.42 37.38 53.28 53.28 0 0037.62 15.6h427.2a53.34 53.34 0 0053.04-52.98V92h106.98c28.2 0 55.38 11.16 75.3 31.02 19.98 19.8 31.2 46.8 31.08 74.88v688.2c0 28.08-11.16 54.96-31.08 74.82a106.92 106.92 0 01-75.3 31.08H138.38c-28.2 0-55.38-11.16-75.3-31.02A105.18 105.18 0 0132 886.1V197.9c0-28.08 11.16-54.96 31.08-74.82A106.92 106.92 0 01138.38 92h106.98zM458.6 727.34h160.02a159.42 159.42 0 00160.02-158.82 159.42 159.42 0 00-160.02-158.88h-213.3v-52.92L245.36 462.56l159.96 105.9v-52.98h213.24a53.4 53.4 0 0147.28 26.1 52.62 52.62 0 010 53.7 53.4 53.4 0 01-47.28 26.1H458.54a53.4 53.4 0 00-47.28 26.1 52.62 52.62 0 000 53.7 53.4 53.4 0 0047.28 26.1h.12z"/><path d="M761.96 332V152c0-32.94-22.2-59.64-49.74-59.82H311.78c-27.48.24-49.62 26.94-49.8 59.82v180a46.14 46.14 0 01-35.4-17.58A66.54 66.54 0 01212 272V92c.18-33.12 22.5-59.88 50.1-60h499.8c13.26 0 26.04 6.24 35.4 17.52C806.78 60.8 812 76.04 812 92v180c-.12 33.06-22.44 59.82-50.04 60z"/></svg>