<svg class="icon" width="48" height="48" viewBox="0 0 1024 1024" xmlns="http://www.w3.org/2000/svg"><path d="M843.265 120.96c33.28 0 60.288 27.008 60.288 60.416V963.52a60.416 60.416 0 01-60.288 60.48H60.289A60.16 60.16 0 010 963.584V181.376c0-33.408 26.944-60.544 60.224-60.544l783.04.064zm-662.528 480v241.728h60.224V600.96h-60.288zm240.896 60.416v181.312h60.288V661.376h-60.288zm240.96-181.312v362.624h60.288V480.064h-60.352.064zM452.8 490.944l294.4-175.36-30.72-51.968L462.849 414.72 329.345 277.76 145.92 400.448l33.28 50.368 142.08-94.976 131.584 135.168v-.128zm510.976 476.16V120.96a60.544 60.544 0 00-60.288-60.48H120.513V0h782.976c32 0 62.656 12.736 85.248 35.392A121.219 121.219 0 011024 120.896v846.272h-60.224z"/></svg>