<svg class="icon" width="48" height="48" viewBox="0 0 1024 1024" xmlns="http://www.w3.org/2000/svg"><path d="M1024 520.576H0V74.368C0 33.408 36.48 0 80.96 0h862.08C987.584 0 1024 33.472 1024 74.368v446.208zM0 619.776h1024V743.68c0 40.896-36.48 74.368-80.96 74.368H80.96C36.416 818.048 0 784.576 0 743.68V619.712zM476.8 896v-76.8h71.488V896H476.8zm189.312 128H357.888C337.152 1024 320 998.784 320 968.128v-16.256C320 921.216 337.152 896 357.888 896h308.224C686.848 896 704 921.216 704 951.872v16.256c0 30.656-17.152 55.872-37.888 55.872z"/></svg>