<svg class="icon" width="48" height="48" viewBox="0 0 1024 1024" xmlns="http://www.w3.org/2000/svg"><path d="M64 0h896a64 64 0 0164 64v896a64 64 0 01-64 64H64a64 64 0 01-64-64V64A64 64 0 0164 0zm176 192a48 48 0 100 96h544a48 48 0 100-96H240zm0 192a48 48 0 100 96h160a48 48 0 100-96H240zm0 192a48 48 0 100 96h96a48 48 0 100-96h-96zm534.08 128H505.92C438.848 704 384 745.152 384 795.456v9.088C384 820.096 399.872 832 420.544 832h438.912C880.128 832 896 820.096 896 804.544v-9.088C896 745.152 841.152 704 774.08 704zM512 512a128 128 0 10256 0 128 128 0 00-256 0z"/></svg>