<svg class="icon" width="48" height="48" viewBox="0 0 1024 1024" xmlns="http://www.w3.org/2000/svg"><path d="M960 0a64 64 0 0164 64v721.152c0 39.68-33.984 75.2-74.24 79.744l-8.64.512H824l57.344 87.488 3.712 6.848c9.152 20.992.64 45.504-21.184 57.6a54.4 54.4 0 01-65.92-10.432l-4.352-5.696-89.088-135.808H315.52l-88.96 135.808c-14.592 22.208-46.08 29.44-70.272 16.064-21.824-12.032-30.336-36.544-21.248-57.6l3.712-6.784 57.28-87.488H82.88c-40.96 0-77.632-32.896-82.368-71.808L0 785.152V64A64 64 0 0164 0h896zM670.08 270.912a44.8 44.8 0 00-61.184-16.32l-141.44 82.048-5.184 3.52a44.8 44.8 0 00-10.368 59.008l42.88 68.48-99.2 57.92-4.992 3.392a44.8 44.8 0 0050.24 73.92l139.008-81.216 5.12-3.456a44.8 44.8 0 0010.24-58.944l-42.688-68.352 101.376-58.752 5.12-3.456a44.8 44.8 0 0011.2-57.792z"/></svg>