<?xml version="1.0" standalone="no"?><!DOCTYPE svg PUBLIC "-//W3C//DTD SVG 1.1//EN" "http://www.w3.org/Graphics/SVG/1.1/DTD/svg11.dtd"><svg class="icon" width="48px" height="48.00px" viewBox="0 0 1024 1024" version="1.1" xmlns="http://www.w3.org/2000/svg"><path fill="#D9DDE1" d="M900.383438 0H117.43631A124.795398 124.795398 0 0 0 0.00064 125.051389v866.080063a32.766792 32.766792 0 0 0 45.246332 30.398879l461.80697-184.185208 470.446653 183.033251c9.919634 4.031851 21.759198 3.199882 30.718867-2.815897a33.08678 33.08678 0 0 0 14.527464-27.262994V477.934376c0.831969-5.503797 1.215955-11.135589 1.215955-16.639386V123.771436A124.091424 124.091424 0 0 0 900.383438 0z m-255.99056 510.317182l51.26211 157.754183a32.510801 32.510801 0 0 1-11.839564 36.478655 32.062818 32.062818 0 0 1-38.654574 0L511.46978 606.825623 377.586717 704.614017a32.382806 32.382806 0 0 1-50.046155-36.414657l51.198112-157.754183-133.883063-97.788394a32.510801 32.510801 0 0 1 18.943301-58.877829h165.305905l51.198112-158.266164a32.574799 32.574799 0 0 1 30.718867-22.591166c14.143478 0 26.687016 9.151663 30.65487 22.655164l51.198112 157.818181h165.305904c14.079481 0 26.559021 9.087665 31.102853 22.463171a31.99882 31.99882 0 0 1-10.879599 36.798643L644.456876 510.317182z"  /></svg>