<?xml version="1.0" standalone="no"?><!DOCTYPE svg PUBLIC "-//W3C//DTD SVG 1.1//EN" "http://www.w3.org/Graphics/SVG/1.1/DTD/svg11.dtd"><svg class="icon" width="48px" height="48.00px" viewBox="0 0 1024 1024" version="1.1" xmlns="http://www.w3.org/2000/svg"><path fill="#D9DDE1" d="M750.250667 540.273778c22.300444 0 40.391111 18.318222 40.391111 40.96v36.977778c30.094222 7.566222 57.457778 23.608889 78.961778 46.193777l31.516444-18.488889a39.936 39.936 0 0 1 40.448 0c12.515556 7.395556 20.195556 20.878222 20.195556 35.555556a41.130667 41.130667 0 0 1-20.195556 35.498667l-31.516444 18.432a170.837333 170.837333 0 0 1 0 92.501333l31.516444 18.488889c12.515556 7.281778 20.195556 20.821333 20.195556 35.498667a41.130667 41.130667 0 0 1-20.195556 35.498666 39.936 39.936 0 0 1-40.391111 0l-31.573333-18.488889c-21.560889 22.584889-48.924444 38.684444-78.961778 46.250667v36.977778c0 22.641778-18.090667 40.96-40.391111 40.96a40.732444 40.732444 0 0 1-40.448-40.96v-36.977778a165.489778 165.489778 0 0 1-78.961778-46.250667l-31.516445 18.545778a40.106667 40.106667 0 0 1-55.182222-15.018667 41.301333 41.301333 0 0 1 14.791111-56.035555l31.459556-18.432a170.894222 170.894222 0 0 1 0-92.558222l-31.516445-18.432a41.301333 41.301333 0 0 1-14.791111-55.978667 40.106667 40.106667 0 0 1 55.182223-15.018667l31.573333 18.432c21.560889-22.584889 48.924444-38.627556 78.961778-46.250666v-36.920889c0-22.641778 18.090667-40.96 40.391111-40.96zM869.376 55.978667c42.154667 0 76.344889 34.702222 76.344889 77.482666v384a41.130667 41.130667 0 0 1-20.195556 35.498667 39.936 39.936 0 0 1-40.391111 0 41.130667 41.130667 0 0 1-20.252444-35.498667c-61.895111-37.319111-110.535111-47.331556-145.806222-29.980444-52.906667 25.998222-57.400889 52.167111-83.683556 72.988444-41.528889 32.881778-105.699556 5.12-136.760889 70.599111-20.650667 43.633778-16.440889 99.669333 12.8 168.220445l-65.706667 78.848c22.300444 0 40.391111 18.375111 40.391112 40.96 0 22.698667-18.090667 41.016889-40.391112 41.016889H127.886222c-42.097778 0-76.344889-34.645333-76.344889-77.368889V133.404444c0-42.780444 34.190222-77.482667 76.344889-77.482666h741.489778zM750.250667 695.182222c-30.321778 0-58.368 16.270222-73.671111 42.780445l-0.284445 0.512a86.926222 86.926222 0 0 0-11.377778 43.235555c0 36.408889 22.414222 68.835556 56.092445 81.351111 33.621333 12.401778 71.395556 2.218667 94.492444-25.6a87.552 87.552 0 0 0 8.760889-98.816l-0.113778-0.170666a85.048889 85.048889 0 0 0-73.955555-43.235556z m-353.450667-81.976889H229.205333a40.334222 40.334222 0 0 0-34.986666 20.48 41.528889 41.528889 0 0 0 0 40.96c7.224889 12.743111 20.593778 20.536889 34.986666 20.536889h167.594667a40.334222 40.334222 0 0 0 34.986667-20.48 41.528889 41.528889 0 0 0 0-40.96 40.334222 40.334222 0 0 0-34.986667-20.536889z m0-182.215111H229.205333a40.732444 40.732444 0 0 0-40.391111 40.96c0 22.641778 18.090667 41.016889 40.391111 41.016889h167.594667c22.300444 0 40.391111-18.375111 40.391111-40.96a40.732444 40.732444 0 0 0-40.391111-41.016889z m125.155556-182.215111H229.262222a40.732444 40.732444 0 0 0-40.391111 40.96c0 22.641778 18.090667 41.016889 40.391111 41.016889h292.807111a40.334222 40.334222 0 0 0 34.986667-20.48 41.528889 41.528889 0 0 0 0-40.96 40.334222 40.334222 0 0 0-34.986667-20.536889z"  /></svg>