<svg class="icon" width="48" height="48" viewBox="0 0 1024 1024" xmlns="http://www.w3.org/2000/svg"><path d="M14.208 768c1.728 0 3.52.256 5.12.832l489.6 166.144a16 16 0 0010.24 0l485.504-166.08a15.872 15.872 0 0113.184 1.344 12.16 12.16 0 016.144 10.368v205.824c0 20.736-19.136 37.568-42.688 37.568H42.688C19.072 1024 0 1007.168 0 986.432V780.544C0 773.568 6.4 768 14.208 768zm497.6-192A515.328 515.328 0 01896 747.392l-376.448 147.52a15.104 15.104 0 01-8.256.832l-2.688-.832L128 746.944A515.52 515.52 0 01511.808 576zM502.016 0c149.248 0 270.208 116.16 270.208 259.392 0 143.296-120.96 259.456-270.208 259.456-149.248 0-270.208-116.16-270.208-259.456C231.808 116.16 352.768 0 502.016 0z"/></svg>