<svg class="icon" width="48" height="48" viewBox="0 0 1024 1024" xmlns="http://www.w3.org/2000/svg"><path d="M64 0h896a64 64 0 0164 64v896a64 64 0 01-64 64H64a64 64 0 01-64-64V64A64 64 0 0164 0zm125.248 669.184a123.374 123.374 0 00-.768 13.824c.128 70.4 55.808 127.36 124.544 127.552 63.168-.128 115.328-48.256 123.52-110.656a128 128 0 007.936-44.416c-1.856-70.528-59.328-128-128-128a128.192 128.192 0 00-127.232 141.696zm486.656-322.432c55.936 38.784 92.032 99.84 97.408 177.408 18.048 0 37.952 5.504 56 12.928-5.44-99.776-56-190.272-135.424-240.192-5.376 11.072-5.376 31.36-17.984 49.92zm-37.952 417.6c-30.72 12.928-61.312 24-97.472 24-36.096 0-68.544-5.504-97.408-24a230.208 230.208 0 01-37.952 44.352c43.328 24 86.656 38.784 135.36 38.784 48.768 0 97.472-12.992 135.424-38.784-10.88-14.784-23.488-25.856-37.952-44.352zM305.792 522.24a236.928 236.928 0 0197.6-177.28c-5.44-18.496-12.672-38.848-18.048-57.28C305.92 339.392 255.36 433.6 249.92 535.232c18.048-7.424 36.096-12.928 56-12.928zM540.48 143.424c-68.736.128-124.416 57.216-124.48 127.552.128 70.336 55.808 127.36 124.48 127.424 68.736-.128 124.416-57.088 124.544-127.424-.128-70.4-55.808-127.36-124.544-127.488zM768 555.584c-68.8.064-124.48 57.088-124.608 127.424.128 70.4 55.808 127.36 124.544 127.552 68.736-.128 124.416-57.152 124.544-127.488-.128-70.336-55.808-127.36-124.48-127.488z"/></svg>