<svg class="icon" width="48" height="48" viewBox="0 0 1024 1024" xmlns="http://www.w3.org/2000/svg"><path d="M77.696 0C36.544 0 0 40.704 0 93.12v768C0 913.472 36.544 960 77.696 960h434.368L512 869.632l.512-8.32 1.408-8 2.368-8.192c10.88-31.936 40.064-53.504 73.984-53.504h46.4l5.696-2.368 8.064-3.776 7.168-3.712c27.136-15.04 34.432-31.04 32.32-64.512l-.32-3.968-6.4-5.184-9.152-8.704A185.216 185.216 0 01624.64 527.36a187.136 187.136 0 01169.024-143.232l13.248-.128 11.2.32a187.52 187.52 0 01142.016 78.08L960 98.944C960 46.528 923.456 0 882.304 0zm176.128 428.16h132.928c14.784 0 29.568 15.168 29.568 40.384 0 20.16-11.072 40.32-29.568 40.32H253.824c-14.72 0-29.504-15.104-29.504-40.32s14.72-40.32 29.504-40.32zM258.432 256l4.864.768H600.96c19.52 0 39.04 15.168 39.04 40.32 0 20.224-14.656 40.32-39.04 40.32H263.296a39.104 39.104 0 01-39.04-40.32c0-25.152 19.584-45.376 39.04-40.32z"/><path d="M588.8 1003.008V869.632a14.08 14.08 0 0114.272-14.016h65.28l5.248-2.176c114.816-45.696 101.312-130.56 97.6-158.528l-2.304-14.72-12.736-7.424a121.792 121.792 0 01-60.8-103.872C695.36 501.824 750.912 448 818.432 448h9.024a123.072 123.072 0 01111.04 93.568 121.344 121.344 0 01-51.008 128.256l-12.032 7.36-1.472 14.08c-5.248 40.448-14.272 117.952 96.832 162.176l6.016 2.176h32.896A14.08 14.08 0 011024 869.632v131.904c0 14.08-5.248 15.488-12.032 15.488h-408.96a14.08 14.08 0 01-14.208-14.016z"/></svg>