<svg class="icon" width="48" height="48" viewBox="0 0 1024 1024" xmlns="http://www.w3.org/2000/svg"><path d="M1024 613.824v410.175H89.407A88.704 88.704 0 01.32 935.743L0 149.952C0 102.4 38.784 64 86.784 64H192.32v168.96h234.56V64h170.688v168.96h234.687V64h107.776c46.336 0 83.968 37.248 83.968 83.072v466.752zm-865.152-306.56l135.168 252.8h-89.408v48H320l.64.64v60.352H204.672v47.936h116.16v108.927h88.704V716.992H526.4v-48H409.472v-60.224l.64-.768h116.224v-47.936h-90.112l135.168-252.8h-99.968L365.12 526.016 258.816 307.328h-99.968zM609.28 730.88L578.88 776l-2.624 49.343h384l-.64-60.607-39.68-46.528c16.511-241.152-98.56-226.368-98.56-226.368-8.513-79.68-68.672-59.904-68.672-59.904-44.288-4.288-60.8 59.2-60.8 59.2C608 477.696 609.28 730.88 609.28 730.88zm60.736 120.831c5.568 70.848 43.968 106.24 115.2 106.24 71.167 0 109.567-35.392 115.2-106.24h-230.4z"/><path d="M384 0v192H256V0h128zm384 0v192H640V0h128z"/></svg>