<?xml version="1.0" standalone="no"?><!DOCTYPE svg PUBLIC "-//W3C//DTD SVG 1.1//EN" "http://www.w3.org/Graphics/SVG/1.1/DTD/svg11.dtd"><svg class="icon" width="48px" height="48.00px" viewBox="0 0 1024 1024" version="1.1" xmlns="http://www.w3.org/2000/svg"><path fill="#D9DDE1" d="M576.0172 640.00048h63.99992v63.99992H576.0172z"  /><path fill="#D9DDE1" d="M999.376671 237.888983l-99.903875-169.087789C874.256827 25.793248 830.096882-0.19072 782.608942 0.00128H241.297618c-47.61594 0-91.327886 25.791968-116.799854 68.799914L24.657889 237.888983c-38.207952 65.087919-31.487961 149.375813 16.51198 206.655741l2.303997 2.687997c7.551991 8.831989 15.93598 16.831979 24.703969 23.67997v463.359421c0 49.663938 41.407948 89.727888 92.287884 89.727888h703.167121c51.071936 0 92.287885-40.25595 92.287885-89.727888V469.504693a159.9998 159.9998 0 0 0 27.007966-25.279968c47.93594-56.703929 54.591932-141.695823 16.44798-206.399742v0.064z m-543.295321 633.407208h-42.495947v-162.495797c-8.31999 14.911981-17.343978 29.439963-26.943966 43.519946a628.799214 628.799214 0 0 0-13.823983-62.719922c25.855968-40.511949 47.551941-92.351885 65.471918-155.519806l43.839945 12.927984c-7.87199 25.599968-16.511979 49.919938-25.919967 73.407908v250.879687h-0.128z m51.199936 3.455996a568.895289 568.895289 0 0 0-35.263956-30.719962 540.159325 540.159325 0 0 0 66.687917-77.951903l39.039951 26.047968c-19.647975 26.879966-43.327946 54.399932-70.527912 82.623897z m167.359791-0.704a797.759003 797.759003 0 0 0-67.391916-81.151898l35.583955-25.343968c23.93597 23.93597 47.99994 49.279938 71.99991 76.159904l-40.191949 30.399962v-0.064z m41.279948-112.319859H471.377331v-44.415945h48.639939v-74.495907h-37.695953v-44.543944h37.759953v-62.719921h47.039941v62.719921h53.567933v-62.719921h47.039941v62.719921h38.527952v44.543944h-38.335952v74.495907h47.99994v44.479945z m223.167721-376.19153a79.039901 79.039901 0 0 1-108.095865 11.199986l-76.159905-58.047927a100.223875 100.223875 0 0 0-132.351834 9.983987 136.31983 136.31983 0 0 1-187.903765 8.831989l-22.015973-18.815976A99.839875 99.839875 0 0 0 289.873558 332.800864l-96.63988 68.351915a79.423901 79.423901 0 0 1-105.919867-12.991984l-2.431997-2.623997a86.207892 86.207892 0 0 1-8.31999-101.055874L180.497694 115.457136a57.791928 57.791928 0 0 1 49.343939-27.839966h564.031295c20.031975 0 38.463952 10.367987 49.279938 27.839966L947.216736 284.480924c19.839975 31.74396 16.25598 73.279908-8.12799 101.055874z"  /></svg>