<?xml version="1.0" standalone="no"?><!DOCTYPE svg PUBLIC "-//W3C//DTD SVG 1.1//EN" "http://www.w3.org/Graphics/SVG/1.1/DTD/svg11.dtd"><svg class="icon" width="48px" height="48.00px" viewBox="0 0 1024 1024" version="1.1" xmlns="http://www.w3.org/2000/svg"><path fill="#D9DDE1" d="M0 454.912h64L63.936 960H512v64H0V454.912zM951.488 0c35.968 0 68.224 33.408 72.128 77.824l0.384 9.088v716.8c0 45.76-30.016 86.848-65.408 91.776l-7.104 0.512H200.512c-35.968 0-68.224-38.208-72.128-83.2L128 803.712V92.288C128 46.528 158.016 5.44 193.408 0.512L200.512 0h750.976zM640 576H448v192l11.264-0.32A192 192 0 0 0 640 576zM416 384a160 160 0 0 0-10.496 319.68L416 704V544H576l-0.256-9.408A160 160 0 0 0 416 384z m451.904 185.6h-115.2a38.4 38.4 0 0 0-6.208 76.288l6.208 0.512h115.2a38.4 38.4 0 0 0 0-76.8z m-179.2-192a38.4 38.4 0 0 0-6.208 76.288l6.208 0.512h179.2a38.4 38.4 0 0 0 6.208-76.288l-6.208-0.512h-179.2z m-192-192a38.4 38.4 0 0 0-6.208 76.288l6.208 0.512h371.2a38.4 38.4 0 0 0 6.208-76.288l-6.208-0.512h-371.2z"  /></svg>