<svg class="icon" width="48" height="48" viewBox="0 0 1024 1024" xmlns="http://www.w3.org/2000/svg"><path d="M407.515 78.08C372.663 31.927 315.21 0 252.525 0 144.53 0 57.418 90.514 57.418 200.521c0 35.511 8.74 71.022 26.149 99.401C156.709 188.123 273.37 106.46 407.479 78.08zm538.112 223.634c15.69-30.171 26.112-63.89 26.112-99.4C971.74 92.27 884.7 1.791 776.704 1.791c-62.683 0-118.418 30.171-154.99 78.08 132.389 26.624 249.052 108.251 323.913 221.842zm-431.908-161.5c-239.433 0-433.628 197.852-433.628 441.893S274.286 1024 513.755 1024c239.47 0 433.628-197.851 433.628-441.893 0-244.077-194.158-441.892-433.628-441.892zm0 505.784l-188.05-161.5 43.52-53.248 139.337 120.686 165.449-200.558 48.75 40.814-208.97 253.806z"/></svg>