<svg class="icon" width="48" height="48" viewBox="0 0 1024 1024" xmlns="http://www.w3.org/2000/svg"><path d="M0 112.896v798.208C0 973.44 50.56 1024 112.896 1024h798.208C973.44 1024 1024 973.44 1024 911.104V112.896C1024 50.56 973.44 0 911.104 0H112.896C50.56 0 0 50.56 0 112.896zm736.448 73.152a34.56 34.56 0 1169.12 0v254.336a34.56 34.56 0 11-69.12 0V186.048zm-259.072 0a34.56 34.56 0 1169.12 0v166.08a34.56 34.56 0 11-69.12 0v-166.08zm-259.008 1.024a34.56 34.56 0 1169.184 0v73.92a34.56 34.56 0 11-69.12 0v-73.92zm69.12 650.752a34.56 34.56 0 11-69.248 0v-255.36a34.56 34.56 0 1169.184 0v255.36zM252.8 522.048A100.864 100.864 0 01152 421.312c0-55.616 45.248-100.8 100.8-100.8s100.736 45.184 100.736 100.8A100.736 100.736 0 01252.8 522.048zM546.432 836.8a34.56 34.56 0 11-69.12 0V677.504a34.56 34.56 0 1169.12 0v159.36zM512 614.848a100.864 100.864 0 01-100.736-100.8c0-55.552 45.184-100.736 100.736-100.736 55.552 0 100.736 45.184 100.736 100.736 0 55.552-45.184 100.8-100.736 100.8zM805.568 836.8a34.56 34.56 0 11-69.184 0v-71.04a34.56 34.56 0 1169.12 0v71.04zm-34.496-134.08a100.864 100.864 0 01-100.736-100.736c0-55.616 45.184-100.8 100.736-100.8 55.552 0 100.8 45.184 100.8 100.8 0 55.552-45.248 100.736-100.8 100.736z"/></svg>