<?xml version="1.0" standalone="no"?><!DOCTYPE svg PUBLIC "-//W3C//DTD SVG 1.1//EN" "http://www.w3.org/Graphics/SVG/1.1/DTD/svg11.dtd"><svg class="icon" width="48px" height="48.00px" viewBox="0 0 1024 1024" version="1.1" xmlns="http://www.w3.org/2000/svg"><path fill="#D9DDE1" d="M396.214857 0.512H85.577143C38.765714 0.512 0.877714 38.253714 0.877714 84.845714v309.833143c0 46.592 37.888 84.333714 84.626286 84.333714h395.337143V84.845714c0-46.592-37.888-84.333714-84.626286-84.333714zM0.877714 629.248v309.833143c0 46.592 37.888 84.333714 84.626286 84.333714h310.710857c46.811429 0 84.626286-37.741714 84.626286-84.333714V544.914286H85.577143C38.765714 544.914286 0.877714 582.656 0.877714 629.248zM939.373714 544.914286H544.036571v394.166857c0 46.592 37.888 84.333714 84.553143 84.333714h310.784c46.738286 0 84.626286-37.741714 84.626286-84.333714V629.248c0-46.592-37.888-84.333714-84.626286-84.333714zM939.373714 0.512H628.662857c-46.811429 0-84.626286 37.741714-84.626286 84.333714V479.085714h395.337143c46.738286 0 84.626286-37.741714 84.626286-84.333714V84.845714c0-46.592-37.888-84.333714-84.626286-84.333714z m26.331429 336.018286c0 46.592-37.888 84.333714-84.626286 84.333714H602.331429v-277.942857c0-46.518857 37.888-84.260571 84.626285-84.260572h194.121143c46.738286 0 84.553143 37.741714 84.553143 84.333715V336.457143z"  /></svg>