<svg class="icon" width="48" height="48" viewBox="0 0 1024 1024" xmlns="http://www.w3.org/2000/svg"><path d="M573.44 0h-128C409.6 0 384 34.112 384 79.616v864.768c0 45.44 30.72 79.616 61.44 79.616h128c35.84 0 66.56-34.112 66.56-79.616V79.616C640 34.176 609.28 0 573.44 0zm-384 128h-128C25.6 128 0 157.888 0 197.696V954.24C0 994.112 30.72 1024 61.44 1024h128c35.84 0 66.56-29.888 66.56-69.696V197.76c0-39.872-30.72-69.76-66.56-69.76zm773.12 128h-128c-35.84 0-66.56 33.152-66.56 77.376v613.248c0 44.224 30.72 77.376 66.56 77.376h128c35.84 0 61.44-33.152 61.44-77.376V327.808c0-38.656-30.72-71.808-61.44-71.808z"/></svg>