<?xml version="1.0" standalone="no"?><!DOCTYPE svg PUBLIC "-//W3C//DTD SVG 1.1//EN" "http://www.w3.org/Graphics/SVG/1.1/DTD/svg11.dtd"><svg class="icon" width="48px" height="48.00px" viewBox="0 0 1024 1024" version="1.1" xmlns="http://www.w3.org/2000/svg"><path fill="#D9DDE1" d="M948.672 0c43.52 0 79.04 32.896 75.072 76.8v866.752c0 29.248-15.808 54.848-43.456 69.504-23.68 14.592-51.392 10.944-75.072 0l-367.616-160.96c-3.968-3.648-11.84-3.648-15.808 0L114.688 1013.12c-7.936 7.296-23.68 10.944-35.584 10.944-11.84 0-23.68-3.648-35.584-7.296C15.872 1002.048 0.064 976.448 0.064 947.2V76.8C0.064 32.896 35.648 0 79.104 0h869.568zM832.064 614.144V161.152c0-12.8-4.032-21.376-16-29.952a41.536 41.536 0 0 0-32 0l-256 102.592a32.192 32.192 0 0 1-28.032 0L240.064 131.2c-8-4.288-24-4.288-32 4.288-8 4.288-16 17.088-16 25.6v453.056c0 17.088 8 29.888 24 38.464L468.096 755.2c40 17.088 35.968 17.088 80 0l256-102.592c16-4.288 27.968-21.376 27.968-38.464z"  /><path fill="#D9DDE1" d="M679.744 447.168l-129.6 41.344c-7.616 3.2-11.392 9.536-7.616 15.872 3.84 6.4 11.456 9.6 19.072 6.4l129.536-41.344c7.68-3.2 11.456-9.6 7.68-15.936 0-6.336-11.52-9.536-19.136-6.336zM470.08 361.344L340.608 320c-7.616 0-15.232 3.2-19.072 9.536-3.84 6.4 0 12.736 7.68 15.872l129.536 41.344c7.616 3.2 15.232 0 19.008-6.4 3.84-9.472 0-15.872-7.616-19.008z m0 123.968l-129.536-38.144a15.04 15.04 0 0 0-19.072 6.4c-3.84 6.336 0 12.672 7.68 15.872l129.536 41.344c7.616 3.2 15.232 0 19.008-6.4 3.84-9.536 0-15.872-7.616-19.072z m95.232-98.56l129.6-41.344c7.616-3.2 11.392-9.536 7.616-15.872-3.84-6.4-11.456-9.536-19.072-6.4l-129.536 41.344c-7.68 3.2-11.456 9.6-7.68 15.936 0 3.2 11.52 6.4 19.072 6.4z"  /></svg>