<?xml version="1.0" standalone="no"?><!DOCTYPE svg PUBLIC "-//W3C//DTD SVG 1.1//EN" "http://www.w3.org/Graphics/SVG/1.1/DTD/svg11.dtd"><svg class="icon" width="48px" height="48.00px" viewBox="0 0 1024 1024" version="1.1" xmlns="http://www.w3.org/2000/svg"><path fill="#D9DDE1" d="M0 256h1024v616.768C1024 956.288 1009.088 1024 869.12 1024H128a128 128 0 0 1-128-128V256z m256 239.616V505.6c1.664 2.88 3.264 4.288 4.928 8.576a38.848 38.848 0 0 0 31.04 14.4c3.264 12.928 8.192 24.448 11.52 35.904 13.056 44.608 27.776 87.68 42.496 130.816 1.6 7.232 4.864 8.64 13.056 8.64h305.92c8.128 0 11.456-1.408 13.056-8.64l54.016-160.96c0-2.88 1.6-4.352 1.6-5.76 17.984 0 29.44-8.64 34.368-23.04v-9.984c0-1.472-1.664-2.88-1.664-7.232a31.552 31.552 0 0 0-32.64-20.096c-16.384 1.408-31.168 14.336-29.44 30.144a29.248 29.248 0 0 0 11.392 18.688l-4.928 2.88c-31.04 15.808-60.48 33.088-91.52 48.896-6.592 4.288-9.856 2.88-14.72-4.288-19.712-30.208-39.296-61.824-58.944-93.44a239.488 239.488 0 0 1-21.248-33.088c21.248-12.928 26.176-30.144 13.056-44.544l-1.6-1.408c-13.12-10.112-32.768-11.52-45.824 0a27.52 27.52 0 0 0-9.792 21.504c0 11.52 8.128 21.568 19.584 25.92-27.776 44.544-53.952 87.68-81.792 130.752l-1.6 1.472a6.656 6.656 0 0 1-9.856 1.408c-8.128-4.288-17.92-10.048-26.176-14.336-22.848-11.52-45.76-24.448-70.336-37.376 1.664-1.408 1.664-2.88 3.328-2.88a25.6 25.6 0 0 0 3.2-31.616c-3.2-7.168-9.792-11.52-17.92-14.4-18.048-4.288-36.032 4.352-40.96 18.688L256 495.616z m255.872 273.344c-36.096 0-72.192-2.176-108.224 0-4.992 0-8.768 2.176-12.48 6.528-6.208 6.528-8.704 21.76-6.208 34.752 2.496 13.056 9.92 21.76 17.408 21.76h222.72c8.704-2.176 14.912-17.408 14.912-32.64 0-17.344-8.704-30.4-18.688-30.4h-109.44zM1024 192H0V110.912C0 49.664 66.176 0 147.84 0h728.32C957.76 0 1024 49.664 1024 110.912V192z"  /></svg>