<svg class="icon" width="48" height="48" viewBox="0 0 1024 1024" xmlns="http://www.w3.org/2000/svg"><path d="M938.496 0H85.505A85.12 85.12 0 000 85.506v852.991C0 985.472 37.953 1024 85.505 1024h852.991c46.976 0 85.504-37.952 85.504-85.504V85.505A85.12 85.12 0 00938.496 0zM136.13 171.65h317.44c18.047 0 33.151 15.104 33.151 33.152a33.408 33.408 0 01-33.152 33.151h-317.44a33.408 33.408 0 01-33.087-33.151c0-18.048 15.104-33.152 33.152-33.152zm0 172.287h317.44c18.047 0 33.151 15.04 33.151 33.152a33.408 33.408 0 01-33.152 33.088h-317.44a33.408 33.408 0 01-33.151-33.088c0-18.112 15.104-33.152 33.152-33.152zM281.92 587.904H136.13a33.408 33.408 0 01-33.152-33.152c0-18.048 15.104-33.088 33.152-33.088H281.28c18.112 0 33.152 15.04 33.152 33.088a32.512 32.512 0 01-32.512 33.152zm651.136-234.88L607.744 778.24a37.376 37.376 0 01-13.248 10.24l-207.168 89.728a32.832 32.832 0 01-13.248 3.008 33.728 33.728 0 01-21.12-7.808 32.512 32.512 0 01-10.88-33.152l51.84-218.624a34.368 34.368 0 016.656-13.248l334.912-407.807a32.832 32.832 0 0121.12-12.032 163.392 163.392 0 01183.04 139.135 33.088 33.088 0 01-6.592 25.28z"/><path d="M463.36 721.216a68.48 68.48 0 00-52.16-16.832L384 832.64l108.864-53.12c0-.64 0-1.28-.576-1.92a84.16 84.16 0 00-28.928-56.448zm270.464-316.352a84.928 84.928 0 00-60.8-20.736L462.272 641.472c20.288 4.48 23.04 7.744 39.872 22.016 19.712 16.192 34.176 38.272 44.032 62.208L768 461.952c-5.76-22.08-45.184-62.912-62.016-77.824l27.84 20.736zM768 265.792l-44.48 52.224c20.992 5.952 26.752 12.096 44.48 25.92 18.432 13.824 35.84 42.56 46.976 61.632l43.712-61.632c-11.84-44.8-43.328-78.08-90.688-78.08z"/></svg>