<svg class="icon" width="48" height="48" viewBox="0 0 1024 1024" xmlns="http://www.w3.org/2000/svg"><path d="M900.383 0H117.436A124.795 124.795 0 00.001 125.051v866.08a32.767 32.767 0 0045.246 30.4l461.807-184.186L977.5 1020.378c9.92 4.032 21.759 3.2 30.718-2.816a33.087 33.087 0 0014.528-27.263V477.934c.832-5.503 1.216-11.135 1.216-16.639V123.771A124.091 124.091 0 00900.383 0zm-255.99 510.317l51.262 157.754a32.51 32.51 0 01-11.84 36.479 32.063 32.063 0 01-38.654 0L511.47 606.826l-133.883 97.788a32.383 32.383 0 01-50.046-36.415l51.198-157.754-133.883-97.788a32.51 32.51 0 0118.943-58.878h165.306l51.198-158.266a32.575 32.575 0 0130.719-22.591c14.143 0 26.687 9.151 30.655 22.655l51.198 157.818H758.18c14.08 0 26.559 9.088 31.103 22.463a31.999 31.999 0 01-10.88 36.799l-133.947 97.66z"/></svg>