<svg class="icon" width="48" height="48" viewBox="0 0 1024 1024" xmlns="http://www.w3.org/2000/svg"><path d="M601.894 38.4L993.51 441.6c38.528 44.8 32.064 76.8 25.664 96-6.4 12.8-19.2 38.4-64.192 38.4h-29.44v313.6c0 70.4-51.328 134.4-121.984 134.4h-584.32c-70.656 0-121.984-64-121.984-134.4V576h-28.16c-44.928 0-64.192-32-64.192-38.4-6.4-19.2-12.8-51.2 25.664-96L422.182 38.4C441.382 12.8 479.91 0 512.038 0c32.128 0 64.192 12.8 89.856 38.4zM467.11 665.6V864c0 6.4 6.4 19.2 6.4 25.6 6.4 6.4 12.8 12.8 25.664 12.8h64.192c19.264 0 32.128-12.8 32.128-32s-12.8-32-32.128-32h-32.064v-32h32.064c19.264 0 32.128-12.8 32.128-32s-12.8-32-32.128-32h-32.064V672c83.456-19.2 134.784-96 128.384-179.2-6.4-83.2-77.056-147.2-160.512-147.2s-154.048 64-160.448 147.2c-6.4 83.2 51.328 160 128.384 172.8zm38.528-57.6c-51.392 0-96.32-44.8-96.32-96 0-57.6 44.928-96 96.32-96 51.328 0 96.256 38.4 96.256 96 0 51.2-44.928 96-96.256 96z"/></svg>