<svg class="icon" width="48" height="47.95" viewBox="0 0 1025 1024" xmlns="http://www.w3.org/2000/svg"><path d="M1013.457 409.088c0-10.88-7.04-18.24-17.664-21.76-53.44-10.944-96.192-44.224-124.48-95.68a195.776 195.776 0 01-17.728-161.728c3.584-7.296 0-18.24-7.04-25.6A470.656 470.656 0 00679.25 1.472c-7.04-3.648-17.664 0-24.768 7.296C618.77 52.864 565.393 74.88 512.017 74.88c-53.44 0-103.296-25.6-142.528-66.112-7.04-7.296-14.144-10.88-24.768-7.296-60.48 25.6-117.44 58.816-167.296 102.976-7.04 3.648-10.56 14.592-7.04 25.6 14.08 55.04 10.56 110.208-17.664 161.664-24.768 47.744-71.104 80.96-124.544 95.488a37.12 37.12 0 00-17.664 21.76 508.8 508.8 0 000 205.888c0 10.88 7.104 18.304 17.728 21.824 53.44 10.88 96.192 44.16 124.48 95.68 29.056 48.448 35.52 107.776 17.728 161.664-3.584 7.296 0 18.24 7.04 25.6a470.528 470.528 0 00167.296 102.912h7.04a26.56 26.56 0 0017.728-7.296c35.712-44.16 89.088-66.048 142.464-66.048 53.44 0 103.296 25.536 142.528 66.048 7.04 7.296 14.144 10.88 24.768 7.296 60.48-25.6 117.44-58.816 167.296-102.976 7.04-3.648 10.56-14.592 7.04-25.536-14.08-55.104-10.56-110.208 17.664-161.664 24.768-47.808 71.104-81.088 124.544-95.68a37.12 37.12 0 0017.664-21.76 508.736 508.736 0 000-205.888zM512.017 768c-139.264 0-256-114.688-256-256s112.256-256 256-256c139.264 0 256 114.688 256 256s-112.256 256-256 256z"/><path d="M512.017 384a128 128 0 10128 128c0-70.208-57.984-128-128-128z"/></svg>