<?xml version="1.0" standalone="no"?><!DOCTYPE svg PUBLIC "-//W3C//DTD SVG 1.1//EN" "http://www.w3.org/Graphics/SVG/1.1/DTD/svg11.dtd"><svg class="icon" width="48px" height="48.00px" viewBox="0 0 1024 1024" version="1.1" xmlns="http://www.w3.org/2000/svg"><path fill="#D9DDE1" d="M602.56 916.416c-11.648-12.352-80.832-12.352-80.832-72.64s135.616-156.8 135.616-156.8l62.4-46.976c-18.048-9.024-84.864-23.808-92.032-27.776l-0.64-71.424c12.672-12.8 31.936-40.96 41.472-99.008 18.304-7.488 30.016-32.512 32-69.888 0.128-3.072 0.576-7.168 1.024-11.84 3.456-35.456 5.184-66.304-8.64-83.712a30.72 30.72 0 0 0-3.712-4.032c4.736-42.368 7.168-73.088 5.44-92.8C691.2 139.456 647.424 7.872 485.12 0 372.608 6.528 282.048 97.344 274.944 179.52c-1.536 17.792 0 46.08 5.12 92.8a35.84 35.84 0 0 0-3.712 4.032c-13.824 17.344-12.16 48-8.832 83.456 0.512 4.736 0.896 8.96 1.024 12.096 2.112 37.44 13.76 62.464 32 70.016 9.472 58.048 28.8 86.272 41.408 99.072l-0.64 71.872c-13.312 7.552-20.096 23.04-76.672 49.472-41.92 19.648-56.128 22.336-68.544 24.64-2.688 0.512-9.408 1.28-20.16 2.304a192 192 0 0 0-173.76 190.72L1.984 979.84c24.064 29.44 44.992 44.16 62.976 44.16h476.8l60.8 0.064v-75.968 10.752-42.368z"  /><path fill="#D9DDE1" d="M1021.76 840.64a10.112 10.112 0 0 0-1.856-1.664l-20.48-18.624L801.088 640l-3.712 3.392-1.024-0.896-196.032 177.856-20.928 18.944a9.216 9.216 0 0 0-3.392 7.04c0 5.376 4.8 9.792 10.688 9.792h65.152V1024h302.08v-167.872h59.52c5.824 0 10.56-4.288 10.56-9.6a9.152 9.152 0 0 0-2.24-5.888z"  /></svg>