<?xml version="1.0" standalone="no"?><!DOCTYPE svg PUBLIC "-//W3C//DTD SVG 1.1//EN" "http://www.w3.org/Graphics/SVG/1.1/DTD/svg11.dtd"><svg class="icon" width="48px" height="48.00px" viewBox="0 0 1024 1024" version="1.1" xmlns="http://www.w3.org/2000/svg"><path fill="#D9DDE1" d="M1023.974401 475.21372C1023.142421 424.846979 965.927852 384.016 897.001575 384.016H126.972826C57.342566 384.016 0 425.358966 0 475.789705v457.012575C0.831979 983.169021 58.046549 1024 126.972826 1024h769.19677c54.718632 0 102.077448-25.791355 119.485013-61.246469l4.095897-8.959776 1.59996-7.231819 1.663959-16.831579v-6.01585L1023.974401 475.21372z m-422.261444 179.259518h2.431939c9.98375 1.151971 21.631459 0.639984 32.319192 0 19.967501-1.087973 37.311067-1.087973 53.886653 3.455914 14.911627 5.247869 18.175546 15.61561 17.407565 24.319392-1.663958 8.639784-9.98375 19.007525-25.727357 21.311467-22.463438 1.663958-44.79888 1.663958-67.19832 1.087973-13.311667 0-28.159296-0.575986-41.470963 0h-5.759856v46.718832h102.909427c18.175546-1.087973 36.543086 9.279768 37.375066 22.527437 1.59996 6.975826-1.663958 13.247669-9.151771 19.007524a43.19892 43.19892 0 0 1-29.055274 8.703783H567.665808v33.471163c0 13.247669 0 27.135322-0.831979 40.382991 0 6.39984-4.927877 12.671683-13.247669 17.343566a43.006925 43.006925 0 0 1-22.39944 6.39984h-3.327916c-17.407565-1.151971-32.319192-12.159696-33.279168-23.679408-0.767981-13.311667-0.767981-27.19932-0.767981-40.446989v-33.407165h-49.022775c-19.007525 0-35.711107 0.639984-53.118672 0a46.846829 46.846829 0 0 1-26.495337-6.911827c-6.719832-4.671883-10.879728-10.943726-10.879728-17.343566-1.59996-12.095698 13.311667-24.831379 31.551211-25.407365 19.967501-1.151971 41.406965-0.639984 60.606485-0.639984h48.958776v-46.718832h-5.759856a521.714957 521.714957 0 0 0-42.238944 0c-24.959376 0.639984-49.022774 1.151971-70.462239-2.81593-16.639584-4.031899-21.631459-15.039624-21.631459-23.167421 0-8.063798 5.759856-19.007525 20.79948-23.103422 17.343566-2.879928 34.047149-2.303942 52.286693-1.727957 9.98375 0 21.567461 0.575986 31.423214 0h1.663959l19.967501-13.887653-4.095898-2.879928c-15.743606-11.519712-32.319192-22.463438-46.526837-32.38319a4820.679483 4820.679483 0 0 1-66.366341-46.718832c-8.319792-5.247869-10.81573-12.671683-8.319792-21.311467a31.935202 31.935202 0 0 1 23.231419-19.647509h0.83198c14.911627-5.247869 33.279168 1.727957 43.070923 9.215769l110.333242 77.438065 4.095897-2.879928 48.958776-34.047149 2.495938-1.727957c17.343566-12.095698 34.879128-24.831379 52.286693-36.351091 16.511587-12.159696 29.823254-15.039624 43.902902-12.159696 11.647709 1.791955 21.631459 9.279768 24.959376 17.919552 3.19992 8.127797 0 16.767581-8.38379 21.951451-17.407565 12.607685-35.711107 25.407365-53.118672 37.503062l-1.663959 1.151972c-19.967501 13.18367-39.807005 27.647309-59.774505 42.174945l-3.263919 2.239944 17.663559 15.039624z m-262.39344-569.58576c6.719832-16.767581 29.055274-25.98335 49.854754-20.031499l460.596485 122.044948a40.958976 40.958976 0 0 1 23.295417 15.9996 26.239344 26.239344 0 0 1 1.59996 24.703383l-12.415689 30.01525s-4.927877 21.951451 24.895377 29.375265c29.823254 7.359816 47.358816-3.327917 47.358816-3.327917l14.911628-35.327116c20.79948-49.342766-13.311667-103.357416-74.750132-119.293018L414.901627 4.889478a140.924477 140.924477 0 0 0-89.59776 5.375865c-28.223294 11.327717-49.022774 30.719232-59.006524 54.654634-0.831979 1.98395-1.663958 18.047549 32.319192 25.98335 33.343166 7.9998 40.766981-6.079848 40.76698-6.079848z"  /><path fill="#D9DDE1" d="M164.923877 189.396865c5.695858-20.479488 21.375466-38.911027 41.790955-49.406765 14.719632-7.807805 31.167221-11.967701 48.446789-11.967701 7.487813 0 14.719632 0.639984 22.207445 2.111948l77.950051 16.191595 405.365866 85.437864a95.9976 95.9976 0 0 1 57.342566 35.967101c6.655834 9.919752 11.519712 21.18347 13.119672 32.511187 0 0 0.831979 6.39984 0.83198 11.967701 0 2.81593-4.863878 7.807805-8.255794 7.807805H134.652634C128.892778 320.0176 127.9968 312.209795 127.9968 312.209795l36.927077-122.876928z"  /></svg>