<?xml version="1.0" standalone="no"?><!DOCTYPE svg PUBLIC "-//W3C//DTD SVG 1.1//EN" "http://www.w3.org/Graphics/SVG/1.1/DTD/svg11.dtd"><svg class="icon" width="48px" height="48.00px" viewBox="0 0 1024 1024" version="1.1" xmlns="http://www.w3.org/2000/svg"><path fill="#D9DDE1" d="M877.696 0H146.304A146.368 146.368 0 0 0 0 146.304v731.392A146.368 146.368 0 0 0 146.304 1024h731.392A146.368 146.368 0 0 0 1024 877.696V146.304A146.368 146.368 0 0 0 877.696 0zM320.064 786.304a128 128 0 1 1-0.064-256 128 128 0 0 1 0.064 256z m135.744-467.968L309.568 464.576a36.736 36.736 0 0 1-51.52 0L184.32 391.488a36.736 36.736 0 0 1 0-51.52c14.08-14.08 37.44-14.08 51.52 0l47.36 47.36L403.84 266.88c14.016-14.08 36.864-14.08 51.456 0 14.08 14.08 14.656 37.44 0.64 51.52z m376.32 440.256H539.52c-19.904 0-36.288-28.928-36.288-64 0-35.136 16.384-64 36.288-64H832c19.904 0 36.288 28.864 36.288 64 0 35.072-16.384 64-36.288 64z m0-301.184H539.52c-19.904 0-36.288-28.864-36.288-64 0-35.072 16.384-64 36.288-64H832c19.904 0 36.288 28.928 36.288 64 0 35.136-16.384 64-36.288 64z"  /><path fill="#D9DDE1" d="M274.816 594.752a63.68 63.68 0 0 0 0 90.368 63.36 63.36 0 0 0 90.24 0 62.848 62.848 0 0 0 18.944-44.8 63.808 63.808 0 0 0-18.304-44.864 63.552 63.552 0 0 0-90.88-0.64z"  /></svg>