<?xml version="1.0" standalone="no"?><!DOCTYPE svg PUBLIC "-//W3C//DTD SVG 1.1//EN" "http://www.w3.org/Graphics/SVG/1.1/DTD/svg11.dtd"><svg class="icon" width="48px" height="48.00px" viewBox="0 0 1024 1024" version="1.1" xmlns="http://www.w3.org/2000/svg"><path fill="#D9DDE1" d="M0 112.896v798.208C0 973.44 50.56 1024 112.896 1024h798.208C973.44 1024 1024 973.44 1024 911.104V112.896C1024 50.56 973.44 0 911.104 0H112.896C50.56 0 0 50.56 0 112.896z m736.448 73.152a34.56 34.56 0 1 1 69.12 0v254.336a34.56 34.56 0 1 1-69.12 0V186.048z m-259.072 0a34.56 34.56 0 1 1 69.12 0v166.08a34.56 34.56 0 1 1-69.12 0V186.048z m-259.008 1.024a34.56 34.56 0 1 1 69.184 0v73.92a34.56 34.56 0 1 1-69.12 0V187.072z m69.12 650.752a34.56 34.56 0 1 1-69.248 0v-255.36a34.56 34.56 0 1 1 69.184 0v255.36zM252.8 522.048a100.864 100.864 0 0 1-100.8-100.736c0-55.616 45.248-100.8 100.8-100.8s100.736 45.184 100.736 100.8a100.736 100.736 0 0 1-100.736 100.736z m293.632 314.752a34.56 34.56 0 1 1-69.12 0v-159.296a34.56 34.56 0 1 1 69.12 0v159.36zM512 614.848a100.864 100.864 0 0 1-100.736-100.8c0-55.552 45.184-100.736 100.736-100.736 55.552 0 100.736 45.184 100.736 100.736 0 55.552-45.184 100.8-100.736 100.8z m293.568 221.952a34.56 34.56 0 1 1-69.184 0v-71.04a34.56 34.56 0 1 1 69.12 0v71.04z m-34.496-134.08a100.864 100.864 0 0 1-100.736-100.736c0-55.616 45.184-100.8 100.736-100.8 55.552 0 100.8 45.184 100.8 100.8 0 55.552-45.248 100.736-100.8 100.736z"  /></svg>