<?xml version="1.0" standalone="no"?><!DOCTYPE svg PUBLIC "-//W3C//DTD SVG 1.1//EN" "http://www.w3.org/Graphics/SVG/1.1/DTD/svg11.dtd"><svg class="icon" width="48px" height="48.00px" viewBox="0 0 1024 1024" version="1.1" xmlns="http://www.w3.org/2000/svg"><path fill="#D9DDE1" d="M909.184 0H114.816C84.224 0 54.912 10.624 33.28 29.44A92.992 92.992 0 0 0 0 100.16v823.68C0 978.88 50.688 1024 114.816 1024h794.368c30.592 0 59.904-10.624 81.472-29.44 21.568-18.816 33.536-44.224 33.344-70.656V99.2C1024 44.416 972.608 0 909.184 0zM256.512 180.608h512a24.96 24.96 0 0 1 19.136 9.344 34.752 34.752 0 0 1 7.744 22.592c0 18.496-12.416 32.064-26.88 32.064h-512c-15.488 0-26.88-18.496-26.88-32 0-17.28 11.392-32 26.88-32z m0 174.528h321.664a24.96 24.96 0 0 1 19.2 9.344 34.752 34.752 0 0 1 7.68 22.656c0 18.432-12.352 32-26.88 32H256.512c-15.488 0-26.88-18.496-26.88-32 0-17.28 11.392-32 26.88-32z m159.296 215.68c0 18.56-12.416 32-26.88 32H256.512a24.96 24.96 0 0 1-19.136-9.344 34.816 34.816 0 0 1-7.744-22.656c0-18.432 12.416-32 26.88-32h132.416c14.464 0 29.952 13.568 26.88 32z m394.112 266.432l-126.208-58.88-126.208 58.88 30.016-117.76-93.056-117.76h126.144l63.104-117.76 63.104 117.76h126.144l-93.056 117.76 30.016 117.76z"  /></svg>