<?xml version="1.0" standalone="no"?><!DOCTYPE svg PUBLIC "-//W3C//DTD SVG 1.1//EN" "http://www.w3.org/Graphics/SVG/1.1/DTD/svg11.dtd"><svg class="icon" width="48px" height="48.00px" viewBox="0 0 1024 1024" version="1.1" xmlns="http://www.w3.org/2000/svg"><path fill="#D9DDE1" d="M921.536 0h-51.2v250.112l-102.528-100.16-102.4 100.16V0h-563.2C45.696 0.256 0 44.864 0 100.16v823.68C0.256 979.2 45.952 1023.744 102.464 1024H921.6c56.512-0.256 102.208-44.864 102.464-100.16V100.16C1023.744 44.8 978.048 0.256 921.536 0z m-409.6 591.296c-126.336 0-228.544 99.84-228.544 223.296H207.104c0-120.128 72.896-223.808 177.792-270.784a183.296 183.296 0 0 1-51.008-205.248c28.16-72.128 98.88-119.68 177.984-119.68 78.912 0 149.632 47.744 177.984 119.68a183.296 183.296 0 0 1-50.944 205.248c104.832 46.976 177.728 150.656 177.728 270.72H740.48c0-123.392-102.272-223.232-228.48-223.232z"  /><path fill="#D9DDE1" d="M383.104 399.36C383.104 471.808 441.344 512 512 512c70.592 0 129.536-36.8 129.536-112.64 0-75.904-58.88-112.512-129.536-112.64-70.592 0-128.896 40.128-128.896 112.64z"  /></svg>