<?xml version="1.0" standalone="no"?><!DOCTYPE svg PUBLIC "-//W3C//DTD SVG 1.1//EN" "http://www.w3.org/Graphics/SVG/1.1/DTD/svg11.dtd"><svg class="icon" width="48px" height="48.00px" viewBox="0 0 1024 1024" version="1.1" xmlns="http://www.w3.org/2000/svg"><path d="M960 0a64 64 0 0 1 64 64v896a64 64 0 0 1-64 64H64a64 64 0 0 1-64-64V64a64 64 0 0 1 64-64h896z m0 64H64v896h896V64z" fill="#D9DDE1" /><path d="M960 460.032V960H64v-259.2l286.912-154.368 310.784 55.872L960 460.032zM960 192v129.216l-298.304 150.4-310.784-55.36L64 560.64V347.392l286.912-128.256 310.784 91.456L960 192z" fill="#D8D8D8" /></svg>