<?xml version="1.0" standalone="no"?><!DOCTYPE svg PUBLIC "-//W3C//DTD SVG 1.1//EN" "http://www.w3.org/Graphics/SVG/1.1/DTD/svg11.dtd"><svg class="icon" width="48px" height="48.00px" viewBox="0 0 1024 1024" version="1.1" xmlns="http://www.w3.org/2000/svg"><path fill="#D9DDE1" d="M221.184 1024h-52.416C110.976 1024 64.064 988.48 64.064 944.64V410.432C64.064 395.84 79.68 384 98.944 384c19.328 0 34.944 11.84 34.944 26.432v534.208c0 14.656 15.616 26.496 34.88 26.496h52.416c19.2 0 34.88 11.84 34.88 26.432 0 14.592-15.616 26.432-34.88 26.432zM25.28 419.776a25.536 25.536 0 0 1-23.552-16 24.32 24.32 0 0 1 6.72-27.2L435.456 6.4a26.24 26.24 0 0 1 36.224 1.984 24.448 24.448 0 0 1-1.984 35.2L42.176 413.376a25.984 25.984 0 0 1-16.896 6.4zM621.76 576a96 96 0 1 0-0.64 192 96 96 0 0 0 0.64-192z"  /><path fill="#D9DDE1" d="M1023.744 482.624a29.952 29.952 0 0 0 0-8.32 28.032 28.032 0 0 0-6.144-9.984L635.968 87.296a24.448 24.448 0 0 0-6.656-4.48 97.088 97.088 0 0 0-127.04 10.56l-332.8 333.184-34.944 35.52a28.032 28.032 0 0 0-6.144 9.984 29.952 29.952 0 0 0 0 8.32 27.52 27.52 0 0 0 0 4.48 22.528 22.528 0 0 0 5.12 12.8H134.464a24.704 24.704 0 0 0 16.96 7.168h29.824v408.128c0 61.312 46.08 111.04 102.848 111.04h587.904a99.2 99.2 0 0 0 72.704-32.512c19.328-20.864 30.144-49.088 30.144-78.528V510.976h23.168a24.704 24.704 0 0 0 16.96-7.232 22.528 22.528 0 0 0 5.12-12.8 27.52 27.52 0 0 0 0-4.48l3.584-3.84z m-178.112 203.52a15.616 15.616 0 0 1-12.608 15.616l-48.448 9.6a16.384 16.384 0 0 0-11.904 10.432l-5.184 13.44a15.616 15.616 0 0 0 0 15.552l27.52 40.896a15.616 15.616 0 0 1 0 20.096l-26.816 26.752a15.68 15.68 0 0 1-20.096 0l-40.96-27.52a16.384 16.384 0 0 0-15.616 0l-12.672 5.184a15.616 15.616 0 0 0-10.432 11.904l-9.664 48.32a15.616 15.616 0 0 1-15.616 12.672h-38.016a15.616 15.616 0 0 1-15.616-12.672l-8.96-47.552a16.384 16.384 0 0 0-10.432-11.904l-12.672-5.184a16.384 16.384 0 0 0-15.616 0l-40.96 27.52a15.68 15.68 0 0 1-20.096 0l-26.816-26.816a15.616 15.616 0 0 1 0-20.032l27.52-40.96a16.32 16.32 0 0 0 0-15.552l-5.12-13.44a16.384 16.384 0 0 0-11.968-10.368l-48.384-9.6a15.616 15.616 0 0 1-12.672-15.68v-37.888a15.616 15.616 0 0 1 12.672-15.616l48.384-9.664a16.384 16.384 0 0 0 11.904-10.432l5.248-13.376a16.32 16.32 0 0 0 0-15.616l-27.52-40.896a15.616 15.616 0 0 1 0-20.032l26.752-26.752a15.68 15.68 0 0 1 20.096 0l40.96 27.52a16.384 16.384 0 0 0 15.616 0l12.672-5.248c5.312-1.92 9.216-6.4 10.432-11.904l9.664-48.32a15.616 15.616 0 0 1 15.68-12.608h37.952a15.616 15.616 0 0 1 15.68 12.608l9.6 48.32a15.616 15.616 0 0 0 10.496 11.904l12.608 5.184a16.384 16.384 0 0 0 15.68 0l40.96-27.52a15.68 15.68 0 0 1 20.096 0l26.816 26.816a15.616 15.616 0 0 1 0 20.032l-27.52 40.96a16.32 16.32 0 0 0 0 15.552l5.12 13.44c1.92 5.248 6.464 9.152 11.968 10.368l48.384 9.6c7.488 1.472 12.8 8.064 12.672 15.68l-0.768 37.12z"  /></svg>