<?xml version="1.0" standalone="no"?><!DOCTYPE svg PUBLIC "-//W3C//DTD SVG 1.1//EN" "http://www.w3.org/Graphics/SVG/1.1/DTD/svg11.dtd"><svg class="icon" width="48px" height="48.00px" viewBox="0 0 1024 1024" version="1.1" xmlns="http://www.w3.org/2000/svg"><path fill="#D9DDE1" d="M360.94464 117.888c51.904-16.832 103.872-28.032 161.536-28.032 161.536 0 311.552 95.36 375.04 235.776 5.76 16.832 23.04 22.4 40.32 22.4 5.76 0 11.584 0 17.344-5.568 23.04-11.264 28.864-33.664 23.04-56.128C897.32864 112.128 719.08864 0.192 522.60864 0 453.16864 5.632 389.74464 16.832 326.25664 44.928c-23.04 11.2-34.56 33.664-23.04 56.128 11.52 16.832 34.56 28.096 57.664 16.832zM1024.43264 482.816v-33.664c0-22.464-23.04-39.296-46.144-39.296-23.04 0-40.384 22.4-40.384 44.864v28.096c0 129.088-40.384 252.608-115.392 359.296-11.52 16.832-5.76 44.928 11.52 56.128 5.76 5.632 17.28 5.632 23.04 5.632 11.584 0 28.864-5.632 34.688-16.832 80.768-117.888 126.912-252.672 126.912-392.96 5.76 0 5.76-5.632 5.76-11.264zM262.83264 477.184c0-89.792 51.968-179.648 132.736-224.576 23.04-11.2 28.8-39.296 17.28-56.128-11.52-22.4-40.32-28.032-57.664-16.832-51.904 33.664-98.112 72.96-126.912 123.52a415.296 415.296 0 0 0-51.968 162.816v11.2c0 84.224-34.56 162.816-98.048 213.312a42.304 42.304 0 0 0-5.76 56.192c11.52 11.2 23.04 16.832 34.56 16.832 11.52 0 23.104-5.632 28.864-11.264 80.768-67.328 126.976-162.752 126.976-269.44v-5.632z m511.232 231.232c-23.104-11.264-46.208 0-57.728 22.4-28.8 67.392-75.008 129.152-126.912 185.28-17.28 16.896-17.28 44.928 0 56.192 5.76 5.568 17.28 11.2 28.8 11.2s23.104-5.632 28.864-11.2a646.4 646.4 0 0 0 144.256-207.744c11.52-22.4 5.76-50.56-17.28-56.128z"  /><path fill="#D9DDE1" d="M780.78464 641.472c-5.76 21.12 5.76 42.24 28.672 47.552h11.456a41.088 41.088 0 0 0 40.064-31.68c11.52-47.488 22.976-95.04 22.976-147.84V504.32c0-179.456-154.752-327.232-343.872-327.232-22.976 0-40.128 15.808-40.128 36.928 0 21.12 17.152 36.928 40.128 36.928 137.536 0 252.16 105.6 257.92 237.568 0 63.36-5.76 110.848-17.28 153.024z"  /><path fill="#D9DDE1" d="M755.95264 509.12v-16.512c0-104.832-91.072-187.584-206.464-187.584-48.576 0-103.232 16.512-139.648 55.168-30.336 27.52-54.656 66.176-60.736 104.832 0 5.504-6.08 11.008-6.08 16.512 0 49.664-12.16 93.824-30.336 137.92-12.16 22.08 0 44.16 24.32 55.168 6.016 0 12.16 5.568 18.176 5.568 18.24 0 36.48-11.072 42.496-27.584 24.32-49.664 36.48-99.328 36.48-148.992v-11.008c0-55.168 54.592-104.832 115.328-104.832 54.656 0 103.232 38.592 115.392 88.256v5.504c0 154.496-78.976 297.92-212.48 391.68-18.24 16.64-24.32 38.656-6.144 55.232 6.08 11.008 24.32 16.576 36.48 16.576 12.16 0 18.176-5.568 30.336-11.072 72.832-55.168 133.568-121.344 176.064-198.592 42.496-71.68 60.736-148.992 66.816-226.24z"  /><path fill="#D9DDE1" d="M576.43264 487.04c0-21.568-17.088-37.76-39.936-37.76-22.784 0-39.872 16.192-39.872 37.76a400.64 400.64 0 0 1-188.16 339.008c-17.088 10.752-22.784 37.632-11.392 53.76 5.76 10.816 22.848 16.192 34.24 16.192 5.696 0 17.088 0 22.784-5.376a469.888 469.888 0 0 0 159.616-172.224A471.36 471.36 0 0 0 576.43264 486.976z m-233.728 247.488c11.392-16.128 11.392-43.008-11.392-53.76-17.088-10.816-45.632-10.816-56.96 10.752a297.408 297.408 0 0 1-85.568 80.64c-17.088 10.88-22.784 37.76-11.392 53.888 5.696 10.752 22.784 16.128 34.176 16.128 11.392 0 17.152 0 22.848-5.376 39.872-32.32 79.808-64.64 108.288-102.272zM126.06464 481.6c5.76-80.704 34.24-161.472 85.504-226.048 17.152-16.128 11.392-43.008-5.696-53.76-17.088-16.192-45.568-10.816-56.96 5.312C80.43264 287.872 40.56064 384.704 40.56064 487.04v5.376c0 37.696-11.392 75.328-34.176 107.648-11.392 16.128-5.76 43.072 11.392 53.76 5.696 5.44 17.088 5.44 22.784 5.44 11.392 0 28.48-5.376 34.24-16.128a273.536 273.536 0 0 0 51.264-161.472c0 5.376 0 5.376 0 0z"  /></svg>