<svg class="icon" width="48" height="48" viewBox="0 0 1024 1024" xmlns="http://www.w3.org/2000/svg"><path d="M741.824 949.44a63.04 63.04 0 0023.424 40.832c20.992 16.384 37.632 30.336 20.992 32.704-16 2.304-167.04 0-178.176 0-11.136 0-354.24 2.304-370.24 0-16.64-2.56 0-16.384 21.12-32.64a63.168 63.168 0 0023.232-40.96l7.872-53.12h443.904l7.872 53.184zM48.64 0h926.72c12.928 0 25.28 5.376 34.432 15.04 9.088 9.6 14.208 22.656 14.208 36.224v742.4c0 28.288-21.76 51.2-48.64 51.2H48.64c-26.88 0-48.64-22.912-48.64-51.2v-742.4C0 22.848 21.76 0 48.64 0zm618.304 285.056L704 248v-23.936L608 128h-24l-37.12 37.056 120.064 120zm-33.856 33.856l-120-120L320 392v120h120l193.088-193.088zM320 576v64h448v-64H320z"/></svg>