<svg class="icon" width="48" height="48" viewBox="0 0 1024 1024" xmlns="http://www.w3.org/2000/svg"><path d="M580.544 448H443.52v128H32v448h960V576H580.544V448zm342.912 320v192H100.48V768h823.04zM288 448h89.6c0-137.728 60.288-153.6 134.4-153.6 74.112 0 134.4 15.872 134.4 153.6H736c0-137.728-100.48-256-224-256S288 310.272 288 448z"/><path d="M512 99.072c217.088 0 387.072 146.304 387.072 412.928H992C992 178.752 781.12 0 512 0 238.4 0 32 178.752 32 512h92.928c0-266.624 162.816-412.928 387.072-412.928zM224 832h64v64h-64v-64zm128 0h64v64h-64v-64zm128 0h64v64h-64v-64zm128 0h64v64h-64v-64z"/></svg>