<svg class="icon" width="48" height="45.18" viewBox="0 0 1088 1024" xmlns="http://www.w3.org/2000/svg"><path d="M32.637 898.226l39.869-41.852a16.447 16.447 0 000-24.446 17.982 17.982 0 00-25.342 0L7.23 870.324A26.11 26.11 0 000 884.275c0 10.495 7.231 17.47 18.11 17.47 7.296 0 10.88 0 14.527-3.519zm1004.52-509.588l-264.744-52.347a24.51 24.51 0 01-21.758-14.015L616.458 91.896a58.363 58.363 0 00-50.747-27.902 58.363 58.363 0 00-50.748 27.902L373.536 318.82a24.51 24.51 0 01-21.759 13.951L87.032 388.638c-21.758 3.456-36.284 17.407-43.516 38.397-7.231 20.926-3.647 41.852 10.88 55.803l181.296 195.503c7.295 7.04 10.879 13.95 7.295 24.446L217.58 957.613a51.26 51.26 0 0025.406 52.347c18.11 13.951 39.868 13.951 61.627 6.976l246.57-104.695a32.061 32.061 0 0125.406 0l250.218 104.695c7.232 3.455 18.11 6.975 25.406 6.975a62.97 62.97 0 0036.22-10.495c18.175-10.431 25.407-31.357 25.407-52.347L884.85 699.33c0-7.04 3.584-17.47 7.232-24.51l181.296-195.439c14.526-13.95 18.174-38.396 10.879-55.867-7.232-17.47-25.342-31.357-47.1-34.877z"/><path d="M156.274 824.504l67.195-70.202a18.43 18.43 0 000-25.853 16.575 16.575 0 00-24.766 0l-67.194 70.202c-3.52 3.711-3.52 7.423-3.52 14.782 0 11.071 7.04 18.495 17.662 18.495 3.52-3.712 7.04-3.712 10.623-7.424zm791.612-561.743c3.583 3.712 7.103 3.712 10.623 3.712 3.583 0 7.04 0 10.623-3.712l49.468-51.771a18.43 18.43 0 000-25.854 16.575 16.575 0 00-24.702 0l-49.532 51.771c0 7.36 0 18.43 3.584 25.854zm21.246-258.73L817.145 162.93c-3.52 3.712-3.52 7.423-3.52 14.783 0 11.135 7.04 18.558 17.663 18.558 3.52 0 10.623 0 14.143-3.776L997.417 33.597a18.43 18.43 0 000-25.854C990.378.32 976.171-3.392 969.132 4.032z"/></svg>