<svg class="icon" width="48" height="48" viewBox="0 0 1024 1024" xmlns="http://www.w3.org/2000/svg"><path d="M951.488 0C989.888 0 1024 40.704 1024 93.12v768c0 52.352-34.112 98.88-72.512 98.88l-345.28.064a384 384 0 00-478.272-588.672L128 98.88C128 46.528 162.112 0 200.512 0zm-53.312 364.16H765.248c-14.784 0-29.568 15.168-29.568 40.384 0 20.16 11.072 40.32 29.568 40.32h132.928c14.72 0 29.504-15.104 29.504-40.32s-14.72-40.32-29.504-40.32zM893.568 192l-4.864.768H551.04a39.104 39.104 0 00-39.04 40.32c0 20.224 14.656 40.32 39.04 40.32h337.664c19.456 0 39.04-15.104 39.04-40.32 0-25.152-19.584-45.376-39.04-40.32z"/><path d="M320 384a320 320 0 110 640 320 320 0 110-640zm29.952 203.776a19.072 19.072 0 00-34.752-.704l-26.752 54.016a13.44 13.44 0 01-10.304 7.552l-57.984 7.68c-16 2.112-22.784 22.4-11.392 34.24l41.216 43.072c3.136 3.264 4.48 8 3.648 12.544l-10.88 59.648c-2.88 16.448 13.44 29.248 27.904 21.76l52.224-27.392a12.8 12.8 0 0112.544.192l51.264 29.184c14.08 8.128 30.976-4.16 28.48-20.736l-8.832-59.968a14.4 14.4 0 014.096-12.416l42.56-41.6c11.712-11.52 5.632-32-10.368-34.496l-57.6-9.792a13.76 13.76 0 01-10.112-7.872z"/></svg>