<svg class="icon" width="48" height="48" viewBox="0 0 1024 1024" xmlns="http://www.w3.org/2000/svg"><path d="M1004.764 183.324h-15.871a37.887 37.887 0 01-26.431-64.382L973.405 108a18.751 18.751 0 000-27.327l-30.91-30.08a18.751 18.751 0 00-27.328 0l-10.88 10.88a37.887 37.887 0 01-63.549-26.43V19.233a19.135 19.135 0 00-20.351-19.2h-40.703c-10.623 0-19.2 8.576-19.2 19.2v15.871a37.887 37.887 0 01-64.317 26.431l-11.071-10.943a18.751 18.751 0 00-27.263 0l-31.36 30.91a18.751 18.751 0 000 27.264l11.008 11.007a37.887 37.887 0 01-26.495 64.318H595.18a19.2 19.2 0 00-19.2 19.583v40.703c0 10.56 8.576 19.2 19.2 19.2h15.807a37.887 37.887 0 0126.495 64.253l-11.007 11.007a18.751 18.751 0 000 27.264l30.079 30.142a18.751 18.751 0 0027.327 0l11.007-10.943a37.887 37.887 0 0164.318 26.43v15.872a19.135 19.135 0 0020.415 20.352h40.703c10.56 0 19.135-8.576 19.135-19.136v-15.871a37.887 37.887 0 0164.318-26.431l11.007 10.943a18.751 18.751 0 0027.263 0l31.36-30.91a18.751 18.751 0 000-27.264l-10.944-11.007a37.887 37.887 0 0126.43-64.318h15.872a19.2 19.2 0 0019.2-19.583v-40.703a19.135 19.135 0 00-19.2-20.351zM801.251 305.432a81.47 81.47 0 1157.15-23.36c-15.551 15.296-36.542 23.68-58.366 23.36h1.216z"/><path d="M855.266 504.017a40.319 40.319 0 0140.702 39.998V984a40.319 40.319 0 01-40.702 39.998H40.703A40.319 40.319 0 010 984V104.03a40.319 40.319 0 0140.703-39.998h471.279a40.319 40.319 0 0140.702 39.999c0 22.08-18.239 95.74-40.702 95.74 27.135 63.742 40.702 114.94 40.702 153.595 0 37.823 30.655 69.374 91.837 94.653 33.215 10.687 58.238 20.799 75.197 30.399 20.8 11.775 36.927 22.975 48.255 33.598 0-22.079 64.765-8 87.293-8zm-251.831 71.997H233.144c-22.72 0-41.15 16.383-41.15 36.543 0 20.223 18.43 36.606 41.15 36.606h370.29c22.72 0 41.087-16.383 41.087-36.606 0-20.16-18.367-36.543-41.086-36.543zM191.993 795.462c0 9.664 4.352 18.944 12.032 25.855 7.68 6.848 18.175 10.688 29.119 10.688h493.678c22.72 0 41.15-16.383 41.15-36.543 0-20.223-18.43-36.606-41.15-36.606H233.144c-22.72 0-41.15 16.383-41.15 36.606z"/></svg>