<?xml version="1.0" standalone="no"?><!DOCTYPE svg PUBLIC "-//W3C//DTD SVG 1.1//EN" "http://www.w3.org/Graphics/SVG/1.1/DTD/svg11.dtd"><svg class="icon" width="48px" height="48.00px" viewBox="0 0 1024 1024" version="1.1" xmlns="http://www.w3.org/2000/svg"><path fill="#D9DDE1" d="M622.976 0H400.96C373.76 0 352 28.608 352 63.936 352 99.328 373.76 128 400.96 128h223.36c25.856 0 47.68-28.672 47.68-64.064C672 28.608 650.24 0 622.976 0z"  /><path fill="#D9DDE1" d="M272.512 64a126.72 126.72 0 0 0-1.728 20.032c0 50.688 32.192 100.48 72.448 100.48h348.8c38.336 0 70.528-49.792 70.464-100.48 0-6.784-0.64-13.44-1.728-20.032h111.808c80.832 0 119.424 56.64 119.424 138.368v684.8c0 98.304-41.216 136.832-126.08 136.832H147.648C62.784 1024 32 974.912 32 887.04V202.432c0-81.664 21.504-138.304 108.992-138.304L272.512 64z m451.84 695.296H299.648a45.44 45.44 0 0 0-46.144 44.608 45.44 45.44 0 0 0 46.08 44.544h424.64a45.44 45.44 0 0 0 46.144-44.544 45.44 45.44 0 0 0-46.08-44.608z m0-213.952H299.648a45.44 45.44 0 0 0-46.144 44.608 45.44 45.44 0 0 0 46.08 44.544h424.64a45.44 45.44 0 0 0 46.144-44.544 45.44 45.44 0 0 0-46.08-44.608z m0-213.888H299.648a45.44 45.44 0 0 0-46.144 44.544 45.44 45.44 0 0 0 46.08 44.544h424.64a45.44 45.44 0 0 0 46.144-44.544 45.44 45.44 0 0 0-46.08-44.544z"  /></svg>