<svg class="icon" width="48" height="48" viewBox="0 0 1024 1024" xmlns="http://www.w3.org/2000/svg"><path d="M1016.512 0H291.52C127.04 0 0 127.04 0 291.52v724.992L7.488 1024H732.48C889.472 1024 1024 896.96 1024 732.48V7.488C1024 0 1016.512 0 1016.512 0zM739.968 695.104c0 22.4-22.4 44.864-44.8 44.864H328.832c-22.4 0-44.864-22.4-44.864-44.8 0-22.464 22.4-44.864 44.8-44.864H695.04c22.4 0 44.864 22.4 44.864 44.8zm0-186.88c0 22.464-22.4 44.864-44.8 44.864H328.832c-22.4 0-44.864-22.4-44.864-44.8s22.4-44.864 44.8-44.864H695.04c22.4 0 44.864 22.4 44.864 44.8zm0-186.88c0 22.464-22.4 44.928-44.8 44.928H328.832c-22.4 0-44.864-14.976-44.864-44.864 0-29.888 22.4-44.8 44.8-44.8H695.04c22.4 0 44.864 22.4 44.864 44.8z"/></svg>