<svg class="icon" width="48" height="48" viewBox="0 0 1024 1024" xmlns="http://www.w3.org/2000/svg"><path d="M396.736 116.608c0 64.704 51.84 116.672 115.264 116.672 63.936 0 115.264-52.48 115.264-116.672C627.264 51.968 575.424 0 512 0c-63.936 0-115.264 52.48-115.264 116.608zm396.672 0c0 64.704 51.84 116.672 115.328 116.672 63.36 0 115.264-52.48 115.264-116.672C1024 51.968 972.16 0 908.736 0c-63.424 0-115.328 52.48-115.328 116.608zM0 116.608C0 181.312 51.328 233.28 115.264 233.28c64 0 115.328-51.968 115.328-116.672C230.592 51.968 178.752 0 115.2 0 51.328 0 0 52.48 0 116.608zM512 268.8c-97.984 0-177.152 80-177.152 179.2h354.304c0-98.56-79.168-179.2-177.152-179.2z"/><path d="M804.224 962.56v-56.256h99.264c66.752 0 120.512-49.152 120.512-110.08V430.08C1024 369.152 970.24 320 903.488 320c-66.688 0-120.512 49.152-120.512 110.08v59.584H241.024v-59.52c0-60.992-53.76-110.144-120.512-110.144C53.76 320 0 369.152 0 430.08v366.592c0 60.928 53.76 110.08 120.512 110.08H234.24v56.32c0 33.536 29.952 60.928 66.688 60.928h436.48c36.736 0 66.752-27.392 66.752-61.44z"/></svg>