<svg class="icon" width="48" height="48" viewBox="0 0 1024 1024" xmlns="http://www.w3.org/2000/svg"><path d="M571.916 25.512a85.29 85.29 0 00-121.612 0L28.07 394.08c-33.55 33.911-39.031 83.604-5.421 117.635l61.679 48.79v377.06c0 46.681 48.367 86.435 94.566 86.435h676.24c46.199 0 81.315-39.694 81.315-86.435l-2.831-377.06 64.57-38.309c33.61-33.911 34.755-83.664 1.205-117.575L571.916 25.51zm100.77 709.85c-40.176 67.642-140.464 151.186-144.68 154.8a24.937 24.937 0 01-16.023 5.842 24.997 24.997 0 01-16.022-5.963c-4.276-3.614-104.685-87.338-144.68-154.74-13.974-23.43-31.321-52.643-31.321-94.807 0-70.894 49.33-128.477 109.805-128.477 31.683 0 61.438 15.72 82.218 43.368 20.901-27.648 50.596-43.368 82.219-43.368 60.534 0 109.805 57.583 109.805 128.477 0 42.164-17.347 71.377-31.321 94.808"/></svg>