<svg class="icon" width="48" height="48" viewBox="0 0 1024 1024" xmlns="http://www.w3.org/2000/svg"><path d="M81.92 0h338.944c31.488.192 60.096 17.728 73.536 45.184l48.448 97.152c1.28 2.56 3.84 4.096 6.72 4.096h392.448c45.312 0 81.984 36.288 81.984 81.088v715.456c0 44.8-36.672 81.024-81.92 81.024H81.92C36.736 1024 0 987.712 0 942.976V81.024C0 36.224 36.672 0 81.92 0zM832 448a64 64 0 00-64-64H448a64 64 0 100 128h320a64 64 0 0064-64zm-640 0a64 64 0 10128 0 64 64 0 00-128 0zm0 256a64 64 0 10128 0 64 64 0 00-128 0zm640 0a64 64 0 00-64-64H448a64 64 0 000 128h320a64 64 0 0064-64z"/></svg>