<svg class="icon" width="48" height="48" viewBox="0 0 1024 1024" xmlns="http://www.w3.org/2000/svg"><path d="M571.815 25.688l427.4 379.042c33.544 33.905 32.4 83.65-1.204 117.555l-64.559 38.301 2.77 376.994c0 46.733-35.05 86.42-81.3 86.42h-676.06c-46.191 0-94.55-39.747-94.55-86.42V560.586l-61.668-48.78c-33.605-34.026-28.124-83.71 5.42-117.615L450.225 25.628a85.275 85.275 0 01121.65 0zm205.48 552.363c0-5.721-3.734-9.636-9.335-11.503-28.305-5.781-50.948-23.426-65.884-50.587a103.583 103.583 0 01-9.394-85.637c1.867-3.854 0-9.635-3.734-13.55a249.081 249.081 0 00-88.527-54.441c-3.734-1.927-9.335 0-13.13 3.854a96.356 96.356 0 01-75.398 34.93c-28.305 0-54.682-13.49-75.459-34.93-3.734-3.854-7.468-5.781-13.068-3.854a320.084 320.084 0 00-88.528 54.441c-3.794 1.927-5.6 7.77-3.794 13.55 7.528 29.148 5.601 58.356-9.334 85.577-13.129 25.293-37.64 42.879-65.884 50.587a19.633 19.633 0 00-9.395 11.563 269.316 269.316 0 000 109.003c0 5.781 3.794 9.636 9.395 11.502 28.305 5.782 50.949 23.427 65.884 50.648 15.417 25.655 18.85 57.03 9.395 85.576-1.867 3.854 0 9.636 3.733 13.55 25.535 24.27 55.706 42.819 88.528 54.502h3.734a14.032 14.032 0 009.394-3.915 96.356 96.356 0 0175.4-34.929c28.304 0 54.681 13.49 75.458 34.93 3.734 3.914 7.468 5.78 13.069 3.914a320.084 320.084 0 0088.527-54.502c3.794-1.927 5.6-7.708 3.794-13.55-7.528-29.148-5.6-58.356 9.334-85.576 13.129-25.294 37.64-42.879 65.884-50.587 4.457-2.41 7.83-6.625 9.395-11.563a269.256 269.256 0 000-109.003zM511.893 783.109c-81.903 0-150.557-67.45-150.557-150.557s66.004-150.556 150.557-150.556c81.903 0 150.557 67.449 150.557 150.556S596.446 783.11 511.893 783.11zm0-240.89a90.334 90.334 0 1090.334 90.333c0-49.563-40.951-90.334-90.334-90.334z"/></svg>