<svg class="icon" width="48" height="48" viewBox="0 0 1024 1024" xmlns="http://www.w3.org/2000/svg"><path d="M768 352.896V58.752C768 26.304 742.4 0 711.04 0H56.832C25.472 0 0 26.432 0 58.752v906.496C0 997.696 25.6 1024 56.832 1024h910.336c31.36 0 56.832-26.432 56.832-58.752v-553.6c.128-32.384-25.408-58.752-56.704-58.752H768zm-568.832-34.624H568.96V406.4H199.168v-88.128zM568.96 612.48H199.168v-88.128H568.96v88.128zm0-411.904H199.168v-88.128H568.96v88.128zM768 906.496V470.528h142.272v435.968H768z"/></svg>