<svg class="icon" width="48" height="48" viewBox="0 0 1024 1024" xmlns="http://www.w3.org/2000/svg"><path d="M922.42 188.247a97.277 97.277 0 01-91.133 67.774h-640.75a97.277 97.277 0 01-91.133-67.774L66.765 67.931a50.367 50.367 0 018.32-47.999A53.63 53.63 0 01120.843.157h782.314a53.63 53.63 0 0145.694 19.84c10.88 13.567 14.08 31.614 8.384 47.934L922.42 188.247z"/><path d="M988.274 198.487a158.46 158.46 0 01-146.428 110.14H185.738A156.603 156.603 0 0139.31 198.552l-19.648-70.526C6.735 150.425-.049 175.704.015 201.431v675.692a147.58 147.58 0 00148.284 146.876h727.21a147.58 147.58 0 00148.284-146.876V198.487a125.372 125.372 0 00-17.728-70.462l-17.791 70.462zm-489.33 582.319H437.89V663.689H315.782v117.117h-61.054V496.91h61.054v114.557H437.89V496.91h61.054v283.832zm233.146 0l-44.927-73.854c-9.28-15.232-16.896-25.087-22.783-29.44a31.103 31.103 0 00-18.88-6.655h-18.56v109.949h-60.99V496.91h100.477c68.222 0 102.333 25.6 102.333 76.99 0 19.263-5.76 35.839-17.151 49.662a91.07 91.07 0 01-47.103 29.12v.704c13.248 4.415 27.84 18.815 43.903 43.262l54.014 84.094H732.09z"/><path d="M665.595 576.012h-25.599v63.998h24.768a40.959 40.959 0 0028.479-9.664 31.167 31.167 0 0010.751-24.255c0-20.095-12.8-30.143-38.399-30.143z"/></svg>