<svg class="icon" width="48" height="48" viewBox="0 0 1024 1024" xmlns="http://www.w3.org/2000/svg"><path d="M782.336 204.8h12.288c7.031 0 12.288-4.3 17.545-8.602a35.908 35.908 0 007.031-19.456V28.058a30.379 30.379 0 00-7.031-19.456A24.508 24.508 0 00794.624 0h-12.288c-7.031 0-12.288 4.3-17.545 8.602a35.908 35.908 0 00-7.031 19.456v146.568c0 8.602 3.482 15.019 7.031 19.388 5.257 8.601 10.514 10.786 17.545 10.786zm-552.96 0h12.288c7.031 0 12.288-4.3 17.545-8.602a35.908 35.908 0 007.031-19.456V28.058a30.379 30.379 0 00-7.031-19.456A24.508 24.508 0 00241.664 0h-12.288c-7.031 0-12.288 4.3-17.545 8.602a35.908 35.908 0 00-7.031 19.456v146.568c0 8.602 3.482 15.019 7.031 19.388 5.257 8.601 12.288 10.786 17.545 10.786z"/><path d="M930.884 68.267h-35.703v133.53c0 15.7-7.714 34.064-18.09 44.51a60.143 60.143 0 01-43.965 18.363h-54.75a65.946 65.946 0 01-46.557-18.364c-12.971-13.107-18.091-28.808-20.685-44.51V68.266h-393.08v133.53c0 15.702-5.188 34.065-18.09 44.51A60.143 60.143 0 01256 264.67h-64.717c-15.496 0-33.587-5.257-43.964-18.364-12.97-10.445-18.09-26.146-18.09-44.51V68.266H93.047C41.437 70.862 0 110.183 0 165.207V927.06c0 26.215 10.377 52.43 28.467 68.13C46.557 1013.555 69.837 1024 95.71 1024h832.58c25.941 0 51.746-10.445 67.243-28.809 18.09-18.295 28.467-41.915 28.467-68.061V167.8c0-26.215-10.377-52.43-28.467-68.13a81.579 81.579 0 00-64.649-31.403zm-690.38 759.33c0 26.214-23.28 49.834-51.747 49.834h-43.963c-25.873 0-49.152-23.62-51.678-49.834v-15.702c0-26.146 23.21-49.766 51.678-49.766h43.963c25.873 0 49.152 23.62 51.746 49.835v15.701zm0-198.998c0 26.215-23.28 49.767-51.747 49.767h-43.963c-25.873 0-49.152-23.552-51.678-49.767v-15.7c0-26.147 23.21-49.767 51.678-49.767h43.963c12.971 0 25.873 5.256 33.656 13.107 10.308 10.513 12.902 23.552 12.902 34.065l5.188 18.295zm0-198.997c0 28.809-23.28 52.36-51.747 52.36h-43.963a48.81 48.81 0 01-33.588-13.107c-10.376-10.444-12.97-23.552-12.97-36.59v-15.702c0-28.877 23.279-52.429 51.746-52.429h43.964c28.467 0 51.677 23.552 51.677 52.36l-5.12 13.108zm227.532 397.995c0 26.214-23.21 49.834-51.746 49.834H369.8c-25.94 0-49.151-23.62-51.746-49.834v-15.702c0-26.146 23.28-49.766 51.747-49.766h46.49c25.94 0 49.151 23.62 51.745 49.835v15.701zm0-198.998c0 26.215-23.21 49.767-51.746 49.767H369.8c-25.94 0-49.151-23.552-51.746-49.767v-15.7c0-13.108 5.189-26.147 12.971-34.066a46.012 46.012 0 0133.587-13.039h46.558c12.97 0 25.873 5.188 33.587 13.04 10.377 10.512 12.971 23.62 12.971 34.132v15.702h10.308zm0-198.997c0 28.809-23.21 52.36-51.746 52.36H369.8a48.81 48.81 0 01-33.655-13.107 47.309 47.309 0 01-12.97-33.996v-15.702c0-28.808 23.347-52.36 51.746-52.36h46.557c12.971 0 25.873 5.188 33.656 13.039 10.308 10.513 12.97 23.62 12.97 34.065v15.701zM705.946 628.6c0 26.215-23.28 49.767-51.747 49.767h-46.49c-25.94 0-49.151-23.552-51.745-49.767v-15.7c0-13.108 5.188-26.147 12.97-34.066a46.012 46.012 0 0133.588-13.039h46.557c12.903 0 25.805 5.188 33.588 13.04 10.376 10.512 12.97 23.62 12.97 34.132v15.702h10.24zm0-198.997c0 28.809-23.28 52.36-51.747 52.36h-46.49a48.81 48.81 0 01-33.655-13.107 47.309 47.309 0 01-12.97-33.996v-15.702c0-28.808 23.347-52.36 51.746-52.36h46.558c12.97 0 25.873 5.188 33.655 13.039 10.308 10.513 12.903 23.62 12.903 34.065v15.701zM933.478 628.6c0 26.215-23.21 49.767-51.677 49.767h-46.558c-25.873 0-49.152-23.552-51.746-49.767v-15.7c0-13.108 5.188-26.147 12.97-34.066a46.012 46.012 0 0133.587-13.039h43.964c12.97 0 25.873 5.188 33.587 13.04 10.377 10.512 12.971 23.62 12.971 34.132l12.97 15.702zm0-198.997c0 28.809-23.21 52.36-51.677 52.36h-46.558a48.81 48.81 0 01-33.656-13.107 47.309 47.309 0 01-12.902-33.996v-15.702c0-28.808 23.21-52.36 51.746-52.36h43.964c12.902 0 25.804 5.188 33.587 13.039 10.308 10.513 12.97 23.62 12.97 34.065l2.526 15.701z"/></svg>