<?xml version="1.0" standalone="no"?><!DOCTYPE svg PUBLIC "-//W3C//DTD SVG 1.1//EN" "http://www.w3.org/Graphics/SVG/1.1/DTD/svg11.dtd"><svg class="icon" width="48px" height="48.00px" viewBox="0 0 1024 1024" version="1.1" xmlns="http://www.w3.org/2000/svg"><path fill="#D9DDE1" d="M1024 520.576H0V74.368C0 33.408 36.48 0 80.96 0h862.08C987.584 0 1024 33.472 1024 74.368v446.208zM0 619.776h1024v123.904c0 40.896-36.48 74.368-80.96 74.368H80.96C36.416 818.048 0 784.576 0 743.68V619.712zM476.8 896v-76.8h71.488V896H476.8zM666.112 1024H357.888C337.152 1024 320 998.784 320 968.128v-16.256c0-30.656 17.152-55.872 37.888-55.872h308.224c20.736 0 37.888 25.216 37.888 55.872v16.256c0 30.656-17.152 55.872-37.888 55.872z"  /></svg>