<svg class="icon" width="48" height="48" viewBox="0 0 1024 1024" xmlns="http://www.w3.org/2000/svg"><path d="M1023.491 471.872V115.648C1025.411 53.76 971.011 2.112 901.827 0H121.86a132.992 132.992 0 00-87.872 35.712A106.112 106.112 0 00.131 116.48v791.04c-1.152 29.888 11.008 58.944 33.92 80.768 22.784 21.888 54.4 34.688 87.808 35.712h780.416a132.992 132.992 0 0087.872-35.712c22.848-21.824 35.008-50.88 33.856-80.768V471.488l-.512.384zM378.115 876.224a27.584 27.584 0 01-38.272 0l-50.048-49.728-49.664 50.048a27.584 27.584 0 01-38.272 0 27.52 27.52 0 010-38.464l50.048-50.368-50.368-50.048a27.52 27.52 0 010-38.464 26.88 26.88 0 0135.712 0l49.664 49.984L339.46 699.2a26.496 26.496 0 0135.776 0 27.52 27.52 0 010 38.464l-46.848 50.368 49.728 51.072a26.88 26.88 0 010 37.44v-.32zm-56.64-413.696v59.52c0 14.464-12.16 26.176-27.2 26.176a26.624 26.624 0 01-26.752-26.176v-59.52H203.78a27.072 27.072 0 01-27.584-26.56c0-14.72 12.352-26.56 27.584-26.56h63.744v-64.64a25.792 25.792 0 0112.416-25.344 28.096 28.096 0 0129.12 0 25.792 25.792 0 0112.416 25.28v63.104h60.48a27.52 27.52 0 0127.584 26.88 25.984 25.984 0 01-7.616 19.584 28.16 28.16 0 01-19.968 8.256h-60.48zm473.856 418.56H622.915c-17.664-1.088-31.744-13.632-32.896-29.44a29.824 29.824 0 018.384-23.424 37.376 37.376 0 0124.512-11.136h172.416c17.92 1.216 32.064 13.888 33.408 29.824.64 17.28-14.144 31.744-33.408 32.896v1.28zm-128.96-89.6v-6.4h13.376l-13.44 6.4zm-42.944-24.768c-18.304-1.92-32.128-15.744-32.128-32.192 0-16.512 13.824-30.336 32.128-32.256h173.376c18.304 1.92 32.128 15.744 32.128 32.256 0 16.448-13.824 30.336-32.128 32.192h-173.44zm176.64-316.16H620.035c-20.48 0-37.184-14.912-37.184-33.28 0-18.368 16.64-33.28 37.184-33.28h180.096c20.544 0 37.248 14.912 37.248 33.28 0 18.368-16.64 33.28-37.248 33.28zm-556.8-359.808h537.6a51.2 51.2 0 110 102.4h-537.6a51.2 51.2 0 110-102.4z"/></svg>