<?xml version="1.0" standalone="no"?><!DOCTYPE svg PUBLIC "-//W3C//DTD SVG 1.1//EN" "http://www.w3.org/Graphics/SVG/1.1/DTD/svg11.dtd"><svg class="icon" width="48px" height="48.00px" viewBox="0 0 1024 1024" version="1.1" xmlns="http://www.w3.org/2000/svg"><path fill="#D9DDE1" d="M503.873016 867.859518h-345.556806V1023.872016H0v-273.053868h499.969504c-3.455568 16.765904-4.927384 35.195601-4.607424 55.161105 0.31996 20.029496 3.1996 40.634921 8.510936 61.880265z m2.367704-526.590177c146.221722 0 239.394076 10.430696 279.645044 30.140233 48.057993 23.165104 99.059618 77.686289 133.423322 128.623922 33.019873 49.721785 3.455568 7.35908 36.283465 52.985377-30.908136-35.323585-95.988001-52.985377-195.367579-52.985377-160.619923 0-248.288964 182.569179-248.288964 182.569179H0c4.927384-13.950256 11.774528-50.425697 44.154481-109.554306 16.63792-28.924384 32.379953-55.609049 49.081864-79.990001 32.315961-49.785777 83.381577-104.306962 125.552306-121.584802 46.074241-19.773528 141.294338-30.204224 287.452069-30.204225z m348.692413 4.287464a52.025497 52.025497 0 0 0 8.95888-29.11636c0-20.925384-12.030496-39.547057-36.027496-55.801025 0-1.151856-0.95988-3.51956-0.95988-4.671416A26.428696 26.428696 0 0 0 831.896013 242.017748c0-15.166104-15.998-29.11636-46.970129-39.547057-31.03612-10.494688-68.983377-16.31796-113.009874-16.31796S589.942257 191.976003 558.906137 202.470691C527.934008 212.901387 511.936008 226.851644 511.936008 242.017748A26.23672 26.23672 0 0 0 516.927384 255.968004 64.631921 64.631921 0 0 0 511.936008 279.1971c0 7.03912 1.983752 14.014248 4.991376 22.141233a101.555306 101.555306 0 0 0-73.974753 0c3.007624-8.126984 4.991376-15.102112 4.991376-22.141233A64.631921 64.631921 0 0 0 442.952631 255.968004 26.108736 26.108736 0 0 0 447.944007 242.017748c0-15.166104-15.998-29.11636-46.970129-39.547057C369.873766 191.976003 331.990501 186.152731 287.964004 186.152731S205.990251 191.976003 174.954131 202.470691C143.982002 212.901387 127.984002 226.851644 127.984002 242.017748A26.23672 26.23672 0 0 0 132.975378 255.968004c0 1.151856-0.95988 3.51956-0.95988 4.671416-23.997 16.253968-36.027497 34.875641-36.027497 55.801025 0 10.494688 3.007624 19.83752 8.958881 29.11636-26.940632 19.83752-40.954881 40.698913-40.954881 63.992001H0V34.939633C0 16.253968 12.990376 0 30.012248 0H929.803775c17.021872 0 30.012248 16.253968 30.012248 34.939633V409.548806h-63.992001c0-23.293088-14.014248-44.154481-40.954881-63.992001z"  /><path fill="#D9DDE1" d="M950.217223 751.266092l-162.539683 136.494938a36.347457 36.347457 0 0 1-23.293088 8.126984 36.347457 36.347457 0 0 1-23.35708-8.126984l-91.44457-76.790401a24.828896 24.828896 0 0 1-8.510936-26.812649 30.844144 30.844144 0 0 1 23.293088-19.581552 37.435321 37.435321 0 0 1 31.868017 7.167104l68.151481 57.208849 139.182602-116.913386c8.31896-7.03912 20.47744-9.726784 31.868017-7.167104 11.390576 2.55968 20.285464 10.046744 23.293088 19.581552a24.828896 24.828896 0 0 1-8.510936 26.812649M799.900012 575.928009a223.972003 223.972003 0 1 0 0 448.071991A223.972003 223.972003 0 0 0 799.900012 575.928009"  /></svg>