<svg class="icon" width="48" height="48" viewBox="0 0 1024 1024" xmlns="http://www.w3.org/2000/svg"><path d="M85.333 326.656v640.455a56.889 56.889 0 0056.89 56.889h738.076a56.889 56.889 0 0056.889-56.889V264.533a29.013 29.013 0 10-58.027 0V869.49a56.889 56.889 0 01-52.68 56.775l-467.398 34.702-50.859 3.413 48.185-18.318 381.838-125.61a56.889 56.889 0 0039.14-54.045V80.668a56.889 56.889 0 00-76.004-53.646L160.94 219.477a113.778 113.778 0 00-75.606 107.179zm339.968-6.144l65.65 106.553 121.173-10.809-76.97 115.37 34.133 126.92-113.095-35.271-100.409 89.6 6.713-137.103-96.427-71.964 117.817-49.55 41.53-133.69z"/></svg>