<?xml version="1.0" standalone="no"?><!DOCTYPE svg PUBLIC "-//W3C//DTD SVG 1.1//EN" "http://www.w3.org/Graphics/SVG/1.1/DTD/svg11.dtd"><svg class="icon" width="48px" height="48.00px" viewBox="0 0 1024 1024" version="1.1" xmlns="http://www.w3.org/2000/svg"><path fill="#D9DDE1" d="M642.770824 486.159059C642.590118 412.973176 584.101647 353.761882 512 353.761882c-72.101647 0-130.590118 59.211294-130.770824 132.397177a56.079059 56.079059 0 0 1-27.587764 48.489412 54.332235 54.332235 0 0 1-55.055059 0A56.079059 56.079059 0 0 1 271.058824 486.098824a245.398588 245.398588 0 0 1 120.289882-212.329412 237.748706 237.748706 0 0 1 241.302588 0c74.631529 43.791059 120.470588 124.807529 120.289882 212.329412 0 30.900706-24.696471 55.958588-55.055058 55.958588a55.476706 55.476706 0 0 1-55.115294-55.958588z"  /><path fill="#D9DDE1" d="M929.069176 481.882353c-35.779765 0-64.752941-25.6-64.752941-57.103059 0-171.489882-157.756235-310.573176-352.316235-310.573176S159.683765 253.289412 159.683765 424.779294c0 31.503059-28.973176 57.103059-64.752941 57.103059S30.117647 456.282353 30.117647 424.779294C30.117647 190.162824 245.880471 0 512 0s481.882353 190.162824 481.882353 424.779294c0 31.503059-29.033412 57.103059-64.813177 57.103059zM933.647059 673.852235H560.188235V525.131294C560.188235 501.278118 538.624 481.882353 512 481.882353c-26.624 0-48.188235 19.395765-48.188235 43.248941v148.720941H90.352941c-33.249882 0-60.235294 24.214588-60.235294 54.091294v241.965177C30.117647 999.785412 57.103059 1024 90.352941 1024h843.294118c33.249882 0 60.235294-24.214588 60.235294-54.091294v-241.965177c0-29.876706-26.985412-54.091294-60.235294-54.091294zM178.657882 892.205176c-26.563765 0-48.188235-19.395765-48.188235-43.309176 0-23.853176 21.624471-43.248941 48.188235-43.248941 26.624 0 48.188235 19.395765 48.188236 43.248941 0 11.504941-5.059765 22.528-14.095059 30.599529a51.139765 51.139765 0 0 1-34.093177 12.649412z m146.070589 0c-19.516235 0-37.044706-10.541176-44.574118-26.74447a40.116706 40.116706 0 0 1 10.480941-47.104 52.284235 52.284235 0 0 1 52.525177-9.396706c18.070588 6.686118 29.756235 22.467765 29.756235 39.936 0 11.504941-5.059765 22.528-14.095059 30.599529a51.139765 51.139765 0 0 1-34.093176 12.649412z"  /></svg>