<?xml version="1.0" standalone="no"?><!DOCTYPE svg PUBLIC "-//W3C//DTD SVG 1.1//EN" "http://www.w3.org/Graphics/SVG/1.1/DTD/svg11.dtd"><svg class="icon" width="48px" height="48.00px" viewBox="0 0 1024 1024" version="1.1" xmlns="http://www.w3.org/2000/svg"><path fill="#D9DDE1" d="M922.419944 188.24727A97.277142 97.277142 0 0 1 831.286621 256.021279H190.537443a97.277142 97.277142 0 0 1-91.133323-67.774009l-32.639041-120.316465a50.36652 50.36652 0 0 1 8.319755-47.998591 53.630425 53.630425 0 0 1 45.758656-19.775419h782.31302a53.630425 53.630425 0 0 1 45.694657 19.839418c10.87968 13.567601 14.079586 31.615071 8.383754 47.934592l-34.814977 120.316465z"  /><path fill="#D9DDE1" d="M988.274009 198.486969a158.459345 158.459345 0 0 1-146.427698 110.140765H185.737584a156.6034 156.6034 0 0 1-146.427699-110.076766L19.662462 128.025039c-12.92762 22.399342-19.711421 47.678599-19.647422 73.405844v675.692152A147.579665 147.579665 0 0 0 148.298684 1023.99872H875.509322a147.579665 147.579665 0 0 0 148.283644-146.875685V198.486969A125.372317 125.372317 0 0 0 1006.065487 128.025039l-17.791478 70.46193zM498.944384 780.805864h-61.054207v-117.11656H315.781764v117.11656H254.727557V496.910203h61.054207v114.556635h122.108413v-114.556635h61.054207v283.831663z m233.145151 0l-44.92668-73.853831c-9.279727-15.231553-16.895504-25.087263-22.783331-29.439135a31.103086 31.103086 0 0 0-18.879446-6.655804h-18.559454V780.805864h-60.990209V496.910203h100.477049c68.221996 0 102.332994 25.599248 102.332994 76.989739 0 19.263434-5.759831 35.838947-17.151497 49.662541a91.069325 91.069325 0 0 1-47.102616 29.119144v0.70398c13.247611 4.41587 27.839182 18.815447 43.90271 43.262729l54.014414 84.09353h-70.333934z"  /><path fill="#D9DDE1" d="M665.595488 576.01188H639.99624v63.99812h24.767273a40.958797 40.958797 0 0 0 28.479163-9.663716A31.167084 31.167084 0 0 0 703.99436 606.090996c0-20.09541-12.799624-30.143115-38.398872-30.143114z"  /></svg>