<svg class="icon" width="48" height="48" viewBox="0 0 1024 1024" xmlns="http://www.w3.org/2000/svg"><path d="M1023.981 320.333l-.512 59.135v568.31s9.6 69.438-54.783 75.774l-9.727.448H86.654c-49.535-.256-70.398-21.44-79.486-39.36A107.07 107.07 0 01.32 953.41L0 943.424V320.333h1023.981zM590.39 453.323l-19.2 51.134c-6.4 3.2-16 6.4-22.399 9.6l-51.199-22.4c-28.8 19.2-51.2 41.6-70.399 70.4l25.6 51.07c-3.2 6.4-6.4 12.8-9.6 22.4l-54.399 19.2c-6.4 32-6.4 67.134 0 99.07l51.199 19.2c3.2 6.4 6.4 16 9.6 22.4l-22.4 51.134c19.2 28.8 41.6 51.135 70.399 70.335l51.2-22.4c6.399 3.2 15.999 6.4 22.399 9.6l19.2 51.2c31.999 6.335 67.198 6.335 99.198 0l19.2-51.2c9.599-3.2 15.999-6.4 25.599-9.6l47.999 22.4c28.8-19.2 51.199-41.6 70.399-70.399l-22.4-47.935c3.2-9.6 6.4-16 9.6-25.6l51.199-19.135c6.4-32 6.4-67.135 0-99.07l-51.2-19.2c-3.2-9.6-6.4-19.2-9.6-25.6l22.4-51.135c-19.2-28.799-41.599-51.199-70.398-70.334l-51.2 22.4c-9.6-3.2-15.999-6.4-25.599-9.6l-16-51.2c-31.999-3.2-67.198-3.2-99.198 3.2zm51.2 172.604c41.599 0 76.798 35.2 76.798 76.735 0 41.6-35.2 76.734-76.799 76.734-41.599 0-76.798-35.199-76.798-76.798 0-41.471 35.2-76.67 76.798-76.67zM468.151 39.697c30.271 44.864 47.167 73.152 47.167 73.152s11.967 12.927 36.287 12.415c-17.792.384 246.012.192 355.066 0h45.95s64.256-6.4 70.4 58.623l.447 10.304v64.639H0V81.297C.256 75.09 4.352 7.058 76.67.915L87.487.467h312.059s36.8-7.68 68.543 39.295z"/></svg>