<svg class="icon" width="48" height="48" viewBox="0 0 1024 1024" xmlns="http://www.w3.org/2000/svg"><path d="M56.896 690.11h56.896c15.104 0 29.568 5.825 40.192 16.257a55.04 55.04 0 0116.64 39.36v250.431a28.16 28.16 0 01-28.416 27.84H28.416A28.16 28.16 0 010 996.158V745.727a55.04 55.04 0 0116.64-39.36 57.536 57.536 0 0140.256-16.256zM341.31 495.296h56.96c15.04 0 29.504 5.888 40.192 16.32a55.04 55.04 0 0116.64 39.36v445.183a28.16 28.16 0 01-28.416 27.84H312.895a28.16 28.16 0 01-28.48-27.84V551.04c0-30.72 25.472-55.68 56.96-55.68zm284.48 111.36h56.896c15.04 0 29.568 5.76 40.192 16.256a55.04 55.04 0 0116.64 39.36v333.887a28.16 28.16 0 01-28.416 27.84H597.31a28.16 28.16 0 01-28.416-27.84V662.271a55.04 55.04 0 0116.64-39.36 57.536 57.536 0 0140.256-16.32zm284.415-222.656h56.96c15.04 0 29.504 5.888 40.192 16.32a55.04 55.04 0 0116.64 39.36v556.48a28.16 28.16 0 01-28.416 27.84H881.79a28.16 28.16 0 01-28.48-27.84v-556.48c0-30.72 25.472-55.68 56.96-55.68z"/><path d="M886.398 93.312h-75.84c-23.487-.192-42.431-20.992-42.431-46.72 0-25.6 18.944-46.464 42.431-46.592H981.31c23.552 0 42.688 20.864 42.688 46.656v186.56a47.616 47.616 0 01-21.248 40.703 39.552 39.552 0 01-42.88 0 47.616 47.616 0 01-21.248-40.703v-64.384l-248.96 301.055a40.128 40.128 0 01-59.2 2.56L371.84 248.512 72.96 562.11a40.128 40.128 0 01-59.839.96 49.792 49.792 0 01-1.92-65.344l327.295-346.24a40.128 40.128 0 0159.264-2.56l258.624 224 229.951-279.68z"/></svg>