<?xml version="1.0" standalone="no"?><!DOCTYPE svg PUBLIC "-//W3C//DTD SVG 1.1//EN" "http://www.w3.org/Graphics/SVG/1.1/DTD/svg11.dtd"><svg class="icon" width="48px" height="48.00px" viewBox="0 0 1024 1024" version="1.1" xmlns="http://www.w3.org/2000/svg"><path fill="#D9DDE1" d="M512.65216 654.336c-18.624 26.432-40.768 52.48-65.28 77.632A380.8 380.8 0 0 1 358.41216 798.08v-143.68h154.24zM358.41216 207.36H256.01216v-51.2h51.84V0h408.96v156.032h51.84v51.2h-102.464V103.68H358.41216v103.68z m563.2 41.216c28.416 0 52.544 9.28 72.768 27.84 20.16 18.56 29.632 41.536 29.632 68.224v575.808c0 26.752-9.856 49.344-29.632 68.288-19.84 18.944-44.352 27.84-72.832 27.84H102.47616c-28.48 0-52.608-9.28-72.832-27.84A88.96 88.96 0 0 1 0.01216 920.384V344.576c0-26.688 9.856-49.28 29.632-68.224 19.84-18.56 44.352-27.84 72.832-27.84h819.072z m-102.848 377.792H613.77216V578.56h154.24V389.76H460.49216v188.8h102.4v47.744H357.96416V485.248c9.088-19.264 15.04-38.976 18.176-59.008 3.2-20.032 7.552-40.064 13.44-60.16l-63.296-15.616a902.08 902.08 0 0 1-107.968 247.04 383.68 383.68 0 0 1 7.936 38.656c1.6 8.32 3.2 16 4.352 23.296 1.152 7.296 2.368 12.032 2.368 13.824 4.352-6.144 10.24-13.44 17.024-21.824l20.928-25.856 20.16-25.536c6.4-8 11.904-14.912 16.256-21.12v283.52h50.56v-58.304c5.184 3.2 13.12 11.264 23.808 23.296s19.776 23.68 28.032 34.624a361.344 361.344 0 0 0 88.64-60.8A390.272 390.272 0 0 0 563.21216 719.552v142.08h50.624v-142.08c15.04 27.648 36.032 53.568 63.36 77.952 27.264 24.448 58.496 45.568 94.464 64.512a127.36 127.36 0 0 0 8.32-12.032c4.736-7.296 10.24-14.912 15.808-22.976 5.568-8 10.688-15.296 15.04-22.208 4.352-6.912 7.104-10.88 7.936-12.416a427.648 427.648 0 0 1-91.776-55.04 293.12 293.12 0 0 1-61.312-64.448h153.088v-46.656zM716.10816 512H512.01216V448h204.096v64z"  /></svg>