<?xml version="1.0" standalone="no"?><!DOCTYPE svg PUBLIC "-//W3C//DTD SVG 1.1//EN" "http://www.w3.org/Graphics/SVG/1.1/DTD/svg11.dtd"><svg class="icon" width="48px" height="48.00px" viewBox="0 0 1024 1024" version="1.1" xmlns="http://www.w3.org/2000/svg"><path fill="#D9DDE1" d="M905.343262 56.641814A85.055841 85.055841 0 0 0 824.575414 0.00192H198.976587c-37.50393 0-68.863871 23.487956-80.767849 56.639894L0.00096 520.000945v447.99916c0 30.783942 25.599952 55.999895 56.959893 55.999895h56.895894c31.359941 0 56.959893-25.215953 56.959893-56.063895v-56.063895h682.43072v56.063895c0 30.847942 25.599952 56.063895 56.959893 56.063895h56.895894c31.359941 0 56.895893-25.215953 56.895893-56.063895V520.000945L905.343262 56.641814zM198.976587 744.064525a84.479842 84.479842 0 0 1-85.24784-83.903843 84.479842 84.479842 0 0 1 85.24784-83.967842 84.479842 84.479842 0 0 1 85.31184 83.967842 84.479842 84.479842 0 0 1-85.31184 83.903843z m625.662827 0a84.479842 84.479842 0 0 1-85.24784-83.903843 84.479842 84.479842 0 0 1 85.24784-83.967842 84.479842 84.479842 0 0 1 85.31184 83.967842 84.479842 84.479842 0 0 1-85.31184 83.903843zM113.728747 464.06505l85.24784-379.967288h625.598827l85.24784 379.967288H113.728747z"  /></svg>