<?xml version="1.0" standalone="no"?><!DOCTYPE svg PUBLIC "-//W3C//DTD SVG 1.1//EN" "http://www.w3.org/Graphics/SVG/1.1/DTD/svg11.dtd"><svg class="icon" width="48px" height="48.00px" viewBox="0 0 1024 1024" version="1.1" xmlns="http://www.w3.org/2000/svg"><path fill="#D9DDE1" d="M571.814709 25.688l427.400631 379.041789c33.544054 33.90539 32.399822 83.649356-1.204454 117.554746l-64.558754 38.301648 2.770245 376.994216c0 46.732829-35.049622 86.419601-81.300669 86.419601H178.861473c-46.190825 0-94.549668-39.746994-94.549668-86.419601v-376.994216l-61.668063-48.780401c-33.604277-34.025836-28.124009-83.709578 5.420045-117.614969l422.161254-368.563035a85.275369 85.275369 0 0 1 121.649891 0z m205.479915 552.362772c0-5.721158-3.733809-9.635635-9.334522-11.502539-28.304678-5.781381-50.94842-23.426637-65.883653-50.587084a103.583075 103.583075 0 0 1-9.394744-85.636705c1.866904-3.854254 0-9.635635-3.733809-13.550112a249.081162 249.081162 0 0 0-88.527396-54.441337c-3.733809-1.927127-9.334521 0-13.128552 3.854254a96.356349 96.356349 0 0 1-75.398843 34.929177c-28.304678 0-54.682228-13.489889-75.459066-34.929177-3.733809-3.854254-7.467617-5.781381-13.06833-3.854254a320.083747 320.083747 0 0 0-88.527396 54.441337c-3.794031 1.927127-5.600713 7.768731-3.794031 13.550112 7.52784 29.147796 5.600713 58.355814-9.334521 85.576483-13.128553 25.293542-37.639199 42.878575-65.883654 50.587083a19.632606 19.632606 0 0 0-9.394744 11.562762 269.315996 269.315996 0 0 0 0 109.00312c0 5.781381 3.794031 9.635635 9.394744 11.502539 28.304678 5.781381 50.94842 23.426637 65.883654 50.647306 15.417016 25.654878 18.849711 57.030914 9.394744 85.576482-1.866904 3.854254 0 9.635635 3.733808 13.550112 25.534433 24.269755 55.706014 42.818353 88.527396 54.50156h3.733808a14.031893 14.031893 0 0 0 9.394744-3.914477 96.356349 96.356349 0 0 1 75.398844-34.929176c28.304678 0 54.682228 13.489889 75.459066 34.929176 3.733809 3.914477 7.467617 5.781381 13.068329 3.914477a320.083747 320.083747 0 0 0 88.527396-54.50156c3.794031-1.927127 5.600713-7.708508 3.794031-13.550112-7.52784-29.147796-5.600713-58.355814 9.334522-85.576482 13.128553-25.293542 37.639199-42.878575 65.883653-50.587083 4.456481-2.408909 7.828953-6.624499 9.394744-11.562762a269.255773 269.255773 0 0 0 0-109.00312zM511.893105 783.109127C429.990208 783.109127 361.336309 715.659683 361.336309 632.552332S427.340408 481.995536 511.893105 481.995536C593.796001 481.995536 662.4499 549.444981 662.4499 632.552332S596.445801 783.109127 511.893105 783.109127z m0-240.890873a90.334077 90.334077 0 1 0 90.334077 90.334078C602.227182 582.989035 561.275734 542.218254 511.893105 542.218254z"  /></svg>