<?xml version="1.0" standalone="no"?><!DOCTYPE svg PUBLIC "-//W3C//DTD SVG 1.1//EN" "http://www.w3.org/Graphics/SVG/1.1/DTD/svg11.dtd"><svg class="icon" width="48px" height="48.00px" viewBox="0 0 1024 1024" version="1.1" xmlns="http://www.w3.org/2000/svg"><path fill="#D9DDE1" d="M0 128a128 128 0 0 1 128-128h768a128 128 0 0 1 128 128v768a128 128 0 0 1-128 128H128a128 128 0 0 1-128-128V128z m192 64v96h211.584V192H192z m0 240v96h211.584v-96H192z m386.112 148.8L668.032 499.2l89.92 81.6L832 513.6l-68.736-62.4c36.992-28.8 63.424-67.2 63.424-115.2 0-81.6-68.736-144-158.656-144s-158.72 62.4-158.72 144c0 48 26.496 86.4 63.488 115.2l-68.736 62.4 74.048 67.2zM668.032 288c31.744 0 52.864 19.2 52.864 48s-21.12 48-52.864 48c-31.744 0-52.864-19.2-52.864-48s21.12-48 52.864-48zM192 672V768h634.688v-96H192z"  /></svg>