<?xml version="1.0" standalone="no"?><!DOCTYPE svg PUBLIC "-//W3C//DTD SVG 1.1//EN" "http://www.w3.org/Graphics/SVG/1.1/DTD/svg11.dtd"><svg class="icon" width="48px" height="48.00px" viewBox="0 0 1024 1024" version="1.1" xmlns="http://www.w3.org/2000/svg"><path fill="#D9DDE1" d="M341.312 412.48V68.288C341.312 30.528 371.904 0 409.6 0h546.112C993.472 0 1024 30.592 1024 68.288v887.424c0 37.76-30.592 68.288-68.288 68.288H768v-221.888a34.112 34.112 0 0 0-34.112-34.112h-102.4a34.112 34.112 0 0 0-34.176 34.112V1024H68.288C30.528 1024 0 993.408 0 955.712V480.704c0-37.696 30.592-68.224 68.288-68.224h273.024z m204.8-241.792A34.112 34.112 0 0 0 512 204.8v17.088c0 18.816 15.296 34.112 34.112 34.112H819.2a34.112 34.112 0 0 0 34.112-34.112V204.8a34.112 34.112 0 0 0-34.112-34.112H546.112z m0 256A34.112 34.112 0 0 0 512 460.8v17.088c0 18.816 15.296 34.112 34.112 34.112H819.2a34.112 34.112 0 0 0 34.112-34.112V460.8a34.112 34.112 0 0 0-34.112-34.112H546.112zM213.312 531.2a42.688 42.688 0 1 0 0 85.312h85.376a42.688 42.688 0 1 0 0-85.312H213.312z m0 170.624a42.688 42.688 0 1 0 0 85.376h85.376a42.688 42.688 0 0 0 0-85.376H213.312z"  /></svg>