<?xml version="1.0" standalone="no"?><!DOCTYPE svg PUBLIC "-//W3C//DTD SVG 1.1//EN" "http://www.w3.org/Graphics/SVG/1.1/DTD/svg11.dtd"><svg class="icon" width="48px" height="48.00px" viewBox="0 0 1024 1024" version="1.1" xmlns="http://www.w3.org/2000/svg"><path fill="#D9DDE1" d="M1001.472 60.8256l22.528 19.2512-0.682667 1.024c0 0.136533-6.417067 6.144-15.223466 17.749333a39.1168 39.1168 0 0 1-4.096 5.9392l-1.365334 1.4336a268.014933 268.014933 0 0 0-51.4048 169.847467c0.341333 8.669867 1.6384 17.681067 4.027734 26.624 8.533333 32.699733 29.013333 118.237867 36.0448 207.735467 9.147733 116.599467-7.645867 199.748267-49.902934 247.330133l-0.4096 0.546133c-11.537067 15.496533-69.358933 81.646933-247.1936 142.267734-0.341333 0-0.682667 0.136533-0.887466 0.273066-45.056 19.524267-115.029333 65.877333-148.411734 93.7984-7.714133 6.5536-34.952533 29.354667-35.498666 29.354667-0.136533-0.136533-24.917333-26.146133-26.965334-27.921067-33.245867-27.4432-103.765333-75.5712-149.572266-95.368533l-0.887467-0.273067c-177.834667-60.6208-235.52-126.7712-247.1936-142.267733l-0.477867-0.546133C41.642667 709.973333 24.849067 626.688 34.133333 510.293333c7.031467-89.634133 27.511467-175.104 36.0448-207.735466 2.321067-9.147733 3.618133-18.090667 3.959467-26.624 1.4336-53.316267-10.308267-102.058667-35.2256-144.7936C20.138667 98.850133 0 81.5104 0 81.5104L24.576 59.869867 25.326933 59.255467 39.185067 47.104C40.072533 46.557867 40.7552 45.943467 41.506133 45.533867L80.6912 12.288a44.6464 44.6464 0 0 1 46.421333-6.826667c37.341867 16.247467 230.946133 92.706133 367.4112-0.273066 0.682667-0.273067 1.2288-0.682667 1.774934-1.024 0.477867-0.136533 0.750933-0.4096 1.2288-0.546134 0.4096-0.273067 0.887467-0.4096 1.4336-0.682666l1.501866-0.682667 1.365334-0.4096c0.546133-0.068267 1.092267-0.4096 1.706666-0.546133l1.160534-0.273067 1.911466-0.4096c0.477867 0 0.750933-0.2048 1.2288-0.2048a8.8064 8.8064 0 0 1 1.911467-0.273067C510.1568 0 510.634667 0 511.044267 0h3.413333a5.051733 5.051733 0 0 0 1.4336 0.136533l1.774933 0.273067c0.273067 0 0.682667 0 1.160534 0.2048l1.774933 0.4096 1.160533 0.273067 1.6384 0.546133 1.365334 0.477867 1.297066 0.546133c0.6144 0.136533 1.024 0.477867 1.6384 0.750933 0.4096 0.136533 0.682667 0.4096 1.160534 0.546134l1.774933 1.024 0.4096 0.273066c134.894933 91.818667 328.0896 16.7936 365.431467 0.750934a47.991467 47.991467 0 0 1 49.629866 7.3728l34.338134 29.218133c1.024 0.546133 2.048 1.365333 3.072 2.4576l11.195733 9.693867 5.7344 4.9152 1.024 0.955733zM364.202667 629.009067c-13.380267 17.408-28.2624 35.6352-46.2848 54.749866v-187.733333c0-36.522667 1.365333-84.650667 3.2768-117.282133H237.7728c-28.740267 0-21.230933-1.2288-45.738667-3.003734v62.8736c26.146133-1.774933 18.909867-2.048 45.738667-2.048h26.2144v234.018134l-1.6384 41.096533v56.32s53.589333-15.701333 70.314667-33.3824c29.764267-31.266133 28.740267-28.194133 51.336533-62.2592-10.171733-24.1664-10.24-24.1664-19.797333-43.349333zM352.938667 276.957867L276.48 191.965867a268.0832 268.0832 0 0 1-43.144533 36.522666c23.005867 22.528 40.823467 45.806933 73.591466 87.517867 11.400533-13.789867 26.624-26.897067 45.943467-39.048533z m302.8992 169.3696h62.395733c32.290133 0 38.5024 1.365333 66.082133 3.072v-48.469334c-29.0816 1.774933-35.6352 1.911467-66.082133 1.911467h-62.395733v-165.205333h67.925333c35.771733 0 54.408533 1.160533 84.992 2.730666v-48.3328c-30.583467 1.706667-49.220267 2.116267-84.992 2.116267H554.325333c-41.301333 0-80.418133-0.4096-118.647466-2.116267v48.401067c39.5264-1.8432 79.0528-2.730667 118.647466-2.730667h47.991467v420.181334H522.922667v-133.12c0-37.410133 0.136533-66.901333 1.979733-88.541867H468.309333c1.8432 23.210667 2.4576 52.8384 2.4576 88.541867v133.461333c-25.941333 0-55.022933-0.887467-82.602666-2.6624v48.469333c27.579733-1.774933 63.965867-2.730667 106.9056-2.730666h236.544c30.446933 0 64.853333 0.955733 104.584533 2.730666v-48.469333c-39.7312 1.774933-74.1376 2.184533-104.584533 2.184533h-75.776V446.327467z"  /></svg>