<svg class="icon" width="48" height="48" viewBox="0 0 1024 1024" xmlns="http://www.w3.org/2000/svg"><path d="M480.4 867.278c0-43.498 37.23-78.808 83.222-78.808h67.422c48.36-24.052 51.495-88.596 49.896-121.667-52.326-38.317-83.99-97.616-83.99-160.688 0-111.944 95.952-195.998 214.804-195.998 6.397 0 13.433 0 19.83.768V72.092C831.584 32.304 797.49 0 755.462 0H76.122C34.095 0 0 32.304 0 72.092v879.304c0 39.788 34.095 72.092 76.122 72.092H480.4v-156.21zM172.842 171.946h407.476c19.83 0 35.63 15.033 35.63 33.775 0 18.807-15.864 33.84-35.694 33.84H172.778c-19.83 0-35.63-15.033-35.63-33.84 0-18.742 15.863-33.775 35.694-33.775zm171.946 415.28H172.714a34.735 34.735 0 01-35.63-34.542c0-18.807 15.864-33.775 35.694-34.543h172.01c19.83 0 35.694 15.032 35.694 34.543 0 18.742-15.864 34.542-35.694 34.542zm92.753-174.248H172.714c-19.83 0-35.63-14.969-35.63-33.776 0-18.742 15.864-33.775 35.694-33.775H437.54c19.83 0 35.63 15.033 35.63 33.775 0 18.807-15.8 33.776-35.63 33.776z"/><path d="M527.608 1023.488c-9.211 0-15.864-6.78-15.864-14.329V872.972c0-8.316 7.484-14.265 15.864-14.265h72.412l5.821-2.303C733.393 809.707 718.425 664.5 714.203 635.906l-2.495-15.032-14.137-7.549c-41.643-22.58-67.486-63.2-67.486-106.059 0-68.445 61.665-123.458 136.7-123.458h9.979c59.17 3.774 110.025 42.859 123.394 95.568 12.474 50.407-10.043 102.35-56.676 130.943l-13.37 7.548-1.662 14.265c-5.821 41.387-15.8 179.11 107.466 224.272l6.717 2.303h64.991c9.212 0 15.864 6.716 15.864 14.265v134.716c0 14.265-5.82 15.8-13.305 15.8H527.608z"/></svg>