<?xml version="1.0" standalone="no"?><!DOCTYPE svg PUBLIC "-//W3C//DTD SVG 1.1//EN" "http://www.w3.org/Graphics/SVG/1.1/DTD/svg11.dtd"><svg class="icon" width="48px" height="48.00px" viewBox="0 0 1024 1024" version="1.1" xmlns="http://www.w3.org/2000/svg"><path fill="#D9DDE1" d="M674.112 281.6H554.688V213.312a17.088 17.088 0 0 0-17.088-17.024h-42.688a17.088 17.088 0 0 0-17.024 17.024V281.6H358.4V213.312a17.088 17.088 0 0 0-17.088-17.024h-42.624a17.088 17.088 0 0 0-17.088 17.024V281.6H213.312a17.088 17.088 0 0 0-17.024 17.088v42.624c0 9.408 7.68 17.088 17.024 17.088H281.6v119.488H213.312a17.088 17.088 0 0 0-17.024 17.024V537.6c0 9.408 7.68 17.088 17.024 17.088H281.6v119.424H213.312a17.088 17.088 0 0 0-17.024 17.088v42.688c0 9.344 7.68 17.024 17.024 17.024H281.6V819.2c0 9.408 7.68 17.088 17.088 17.088h42.624c9.408 0 17.088-7.68 17.088-17.088v-68.288h119.488V819.2c0 9.408 7.68 17.088 17.024 17.088H537.6c9.408 0 17.088-7.68 17.088-17.088v-68.288h119.424V819.2c0 9.408 7.68 17.088 17.088 17.088h42.688c9.344 0 17.024-7.68 17.024-17.088v-68.288H819.2c9.408 0 17.088-7.68 17.088-17.024V691.2a17.088 17.088 0 0 0-17.088-17.088h-68.288V554.688H819.2c9.408 0 17.088-7.68 17.088-17.088v-42.688a17.088 17.088 0 0 0-17.088-17.024h-68.288V358.4H819.2c9.408 0 17.088-7.68 17.088-17.088v-42.624A17.088 17.088 0 0 0 819.2 281.6h-68.288V213.312a17.088 17.088 0 0 0-17.024-17.024H691.2a17.088 17.088 0 0 0-17.088 17.024V281.6z m0 76.8v119.488H554.688V358.4h119.424z m0 196.288v119.424H554.688V554.688h119.424z m-196.224 119.424H358.4V554.688h119.488v119.424z m0-196.224H358.4V358.4h119.488v119.488zM942.912 0C988.16 0 1024 36.672 1024 81.088v861.824C1024 988.16 987.328 1024 942.912 1024H81.088A81.024 81.024 0 0 1 0 942.912V81.088C0 36.672 36.672 0 81.088 0h861.824z"  /></svg>