<svg class="icon" width="48" height="48" viewBox="0 0 1024 1024" xmlns="http://www.w3.org/2000/svg"><path d="M959.991 79.807C959.991 35.84 921.079 0 873.4 0H86.463C38.912 0 0 35.904 0 79.807v89.151h959.991v-89.15zm-190.91 382.717c73.215 0 139.966 31.103 190.91 82.43V259.839H0v537.787c0 54.079 38.912 98.367 86.4 98.367h407.867c-9.28-32.384-21.76-62.528-24.96-98.367-20.16-225.854 140.16-335.037 299.774-335.037z"/><path d="M1003.575 669.114a262.846 262.846 0 00-55.04-81.472 263.486 263.486 0 00-81.28-55.359 242.174 242.174 0 00-98.622-20.288c-35.712 0-68.928 6.72-99.903 20.288A263.166 263.166 0 00532.41 669.05c-13.696 31.103-20.48 64.063-20.48 99.007 0 35.711 6.784 69.055 20.416 100.03 13.504 31.04 31.872 58.24 55.167 81.536a253.886 253.886 0 00181.183 74.367c34.88 0 67.52-6.528 98.559-19.711a255.678 255.678 0 00136.319-136.191 245.118 245.118 0 0020.415-100.095c0-34.944-6.912-67.84-20.415-98.943zm-354.43 244.541c41.089-15.167 70.4-55.039 70.4-101.887H612.282a27.2 27.2 0 11-15.04-49.663l150.399-152.19a26.688 26.688 0 0139.936-1.729l156.414 158.27-.128.065a27.2 27.2 0 01-19.968 45.247h-81.15a123.519 123.519 0 01-122.88 124.287c-26.368 0-50.687-8.256-70.655-22.4z"/></svg>