<?xml version="1.0" standalone="no"?><!DOCTYPE svg PUBLIC "-//W3C//DTD SVG 1.1//EN" "http://www.w3.org/Graphics/SVG/1.1/DTD/svg11.dtd"><svg class="icon" width="48px" height="48.00px" viewBox="0 0 1024 1024" version="1.1" xmlns="http://www.w3.org/2000/svg"><path fill="#D9DDE1" d="M864 1024v-149.312h-704V1024H0v-261.312h1024V1024h-160zM515.968 351.168c149.056 0 244.032 10.496 285.056 30.336 48.96 23.296 100.992 78.208 135.936 129.472 33.664 50.048 62.848 126.72 87.04 183.744H0c4.992-14.016 12.032-50.752 44.992-110.208 17.024-29.184 33.024-56 49.984-80.512 33.024-50.176 84.992-104.96 128-122.496 47.04-19.84 144-30.336 292.992-30.336z m371.072-4.672a52.288 52.288 0 0 0 8.96-29.184c0-20.992-12.032-39.68-36.032-56 0-1.152-0.96-3.456-0.96-4.608a26.56 26.56 0 0 0 4.992-14.08c0-15.168-16-29.12-46.976-39.68-31.04-10.432-68.992-16.256-113.024-16.256s-81.984 5.76-113.024 16.32c-30.976 10.496-46.976 24.448-46.976 39.68 0 4.672 1.984 9.344 4.992 13.952a64.896 64.896 0 0 0-4.992 23.36c0 7.04 1.984 14.016 4.992 22.144a101.312 101.312 0 0 0-73.984 0c3.008-8.128 4.992-15.168 4.992-22.144 0-8.192-1.984-15.168-4.992-23.36a26.24 26.24 0 0 0 4.992-14.016c0-15.168-16-29.12-46.976-39.68C401.92 192.576 364.032 186.752 320 186.752s-81.984 5.76-113.024 16.32c-30.976 10.496-46.976 24.448-46.976 39.68 0 4.672 1.984 9.344 4.992 13.952 0 1.216-0.96 3.52-0.96 4.672-24 16.32-36.032 35.008-36.032 56 0 10.496 3.008 19.84 8.96 29.184-26.944 19.84-40.96 40.832-40.96 64.192h-64V35.008C32 16.32 44.992 0 62.016 0H961.92c17.024 0 30.016 16.32 30.016 35.008v375.68h-64c0-23.36-14.016-44.352-40.96-64.192z"  /></svg>