<?xml version="1.0" standalone="no"?><!DOCTYPE svg PUBLIC "-//W3C//DTD SVG 1.1//EN" "http://www.w3.org/Graphics/SVG/1.1/DTD/svg11.dtd"><svg class="icon" width="48px" height="48.00px" viewBox="0 0 1024 1024" version="1.1" xmlns="http://www.w3.org/2000/svg"><path fill="#D9DDE1" d="M1004.764205 183.324029h-15.871434a37.88665 37.88665 0 0 1-26.431059-64.381706l10.94361-10.94361a18.751332 18.751332 0 0 0 0-27.327027l-30.910898-30.078928a18.751332 18.751332 0 0 0-27.327027 0L904.287785 61.47237a37.88665 37.88665 0 0 1-63.549736-26.431058V19.233875a19.135318 19.135318 0 0 0-20.351275-19.199316h-40.70255c-10.623622 0-19.199316 8.575694-19.199316 19.199316v15.871434a37.88665 37.88665 0 0 1-64.317709 26.431059L685.095593 50.592758a18.751332 18.751332 0 0 0-27.263028 0l-31.358883 30.910898a18.751332 18.751332 0 0 0 0 27.263029l11.007608 11.007608a37.88665 37.88665 0 0 1-26.495056 64.317709H595.178797A19.199316 19.199316 0 0 0 575.979481 203.675304v40.70255c0 10.559624 8.575694 19.199316 19.199316 19.199316h15.807437a37.88665 37.88665 0 0 1 26.495056 64.253711l-11.007608 11.007608a18.751332 18.751332 0 0 0 0 27.263029l30.078928 30.142926a18.751332 18.751332 0 0 0 27.327027 0l11.007608-10.94361a37.88665 37.88665 0 0 1 64.317708 26.431058v15.871435a19.135318 19.135318 0 0 0 20.415273 20.351275h40.70255c10.559624 0 19.135318-8.575694 19.135318-19.135319v-15.871434a37.88665 37.88665 0 0 1 64.317709-26.431059l11.007608 10.94361a18.751332 18.751332 0 0 0 27.263029 0l31.358882-30.910898a18.751332 18.751332 0 0 0 0-27.263029l-10.94361-11.007608a37.88665 37.88665 0 0 1 26.431059-64.317709h15.871434a19.199316 19.199316 0 0 0 19.199316-19.583302v-40.70255a19.135318 19.135318 0 0 0-19.199316-20.351275zM801.251455 305.431679a81.469098 81.469098 0 1 1 57.149964-23.359168c-15.551446 15.295455-36.542698 23.679156-58.36592 23.359168h1.215956z"  /><path fill="#D9DDE1" d="M855.265531 504.016604A40.318564 40.318564 0 0 1 895.968081 544.015179v439.984326a40.318564 40.318564 0 0 1-40.70255 39.998575H40.70255A40.318564 40.318564 0 0 1 0 983.999505V104.030854A40.318564 40.318564 0 0 1 40.70255 64.032279H511.981761a40.318564 40.318564 0 0 1 40.70255 39.998575c0 22.079213-18.23935 95.740589-40.70255 95.740589 27.135033 63.741729 40.70255 114.939905 40.70255 153.594528 0 37.822653 30.654908 69.373529 91.836728 94.652628 33.214817 10.687619 58.237925 20.799259 75.197321 30.398917 20.799259 11.77558 36.926684 22.975182 48.254281 33.598803 0-22.079213 64.765693-7.999715 87.29289-7.999715zM603.434503 576.014039H233.143694C210.424504 576.014039 191.99316 592.397456 191.99316 612.556738c0 20.22328 18.431343 36.606696 41.150534 36.606696h370.290809c22.719191 0 41.086536-16.383416 41.086536-36.606696 0-20.159282-18.367346-36.542698-41.086536-36.542699zM191.99316 795.462222c0 9.663656 4.351845 18.943325 12.031572 25.855079 7.679726 6.847756 18.175353 10.687619 29.118962 10.687619h493.678413c22.719191 0 41.150534-16.383416 41.150534-36.542698 0-20.22328-18.431343-36.606696-41.150534-36.606696H233.143694c-22.719191 0-41.150534 16.383416-41.150534 36.606696z"  /></svg>