<?xml version="1.0" standalone="no"?><!DOCTYPE svg PUBLIC "-//W3C//DTD SVG 1.1//EN" "http://www.w3.org/Graphics/SVG/1.1/DTD/svg11.dtd"><svg class="icon" width="48px" height="48.00px" viewBox="0 0 1024 1024" version="1.1" xmlns="http://www.w3.org/2000/svg"><path fill="#D9DDE1" d="M640 270.528V84.672c0-1.216-0.256-2.368-0.256-3.584v-8.448h-0.64C635.2 31.68 611.2 0 582.08 0H377.984c-29.184 0-53.12 31.68-57.152 72.64H320v275.84h0.256v75.712c0 1.408-0.256 2.688-0.256 3.968v523.2h0.832c4.032 41.024 27.968 72.64 57.152 72.64h204.032c29.184 0 53.12-31.616 57.152-72.64h0.576v-6.272H640v-601.6h-0.256V274.112c0-1.28 0.256-2.432 0.256-3.648zM384 128h128v448H384V128z m144 755.2l0 0z"  /><path fill="#D9DDE1" d="M496 772.288A31.872 31.872 0 0 0 448 800a32 32 0 1 0 48-27.712z m384 0a31.872 31.872 0 0 0-48 27.712 31.872 31.872 0 0 0 48 27.712 31.936 31.936 0 0 0 0-55.424z"  /><path fill="#D9DDE1" d="M1024 270.528V84.672c0-1.216-0.256-2.368-0.256-3.584v-8.448h-0.512C1019.136 31.68 995.2 0 966.08 0h-204.16c-29.184 0-53.056 31.68-57.088 72.64H704v275.84h0.256v75.712c0 1.408-0.256 2.688-0.256 3.968v523.2h0.832c4.032 41.024 27.904 72.64 57.088 72.64h204.16c29.184 0 53.056-31.616 57.152-72.64h0.512v-6.272H1024v-601.6h-0.256V274.112c0-1.28 0.256-2.432 0.256-3.648zM768 128h128v448h-128V128z m144 755.2a96.064 96.064 0 1 1 0-166.336 96 96 0 0 1 0 166.336zM160 768a32 32 0 1 0 0 64 32 32 0 0 0 0-64z"  /><path fill="#D9DDE1" d="M320 270.528V84.672c0-1.216-0.256-2.368-0.256-3.584v-8.448h-0.64C315.2 31.68 291.328 0 262.208 0H57.856C28.736 0 4.864 31.68 0.768 72.64H0v275.84h0.256v75.712C0.256 425.6 0 426.88 0 428.16v523.2h0.768C4.864 992.384 28.8 1024 57.92 1024h204.16c29.184 0 53.056-31.616 57.088-72.64h0.576v-6.272H320v-601.6h-0.256V274.112c0-1.28 0.256-2.432 0.256-3.648zM64 128h128v448H64V128z m96 768a96 96 0 1 1-0.064-192 96 96 0 0 1 0.064 192z"  /></svg>