<svg class="icon" width="48" height="48" viewBox="0 0 1024 1024" xmlns="http://www.w3.org/2000/svg"><path d="M547.456 865.28c-13.376-12.032-94.08 24.32-94.08-35.904 0-60.288 146.368-159.808 142.208-136.32v-20.48a1211.776 1211.776 0 01-42.432-19.008l-.64-69.76c14.464-12.48 36.416-40 47.232-96.704 20.928-7.36 34.304-31.808 36.48-68.352.256-3.008.704-7.04 1.28-11.52 3.904-34.752 5.888-64.832-9.856-81.856a33.792 33.792 0 00-4.288-3.84c5.44-41.472 8.192-71.488 6.208-90.752-3.904-39.168-30.912-167.808-216-175.424-128.448 6.4-206.336 95.104-214.4 175.36-1.792 17.472 0 45.12 5.76 90.752a36.992 36.992 0 00-4.224 3.904c-15.744 16.96-13.888 46.976-10.048 81.536.512 4.672.96 8.768 1.152 11.84 2.432 36.608 15.744 61.056 36.48 68.416 10.88 56.768 32.832 84.352 47.232 96.832l-.704 70.208c-15.232 7.36-30.336 35.072-75.712 59.008-41.408 21.824-109.44 21.632-150.848 44.544-35.584 19.648-48 61.632-48 88.064V1024l532.672-.512h14.528V865.28z"/><path d="M1019.584 808.128l-23.424-21.76L769.536 576l-4.288 3.968-1.152-1.088-224 207.552-24 22.08a10.944 10.944 0 00-3.84 8.256c0 6.272 5.504 11.328 12.224 11.328h74.496v195.392h345.152V828.16h68.096c6.656 0 12.032-5.056 12.032-11.2a10.624 10.624 0 00-2.56-6.848 11.648 11.648 0 00-2.112-1.984z"/></svg>