<svg class="icon" width="48" height="48" viewBox="0 0 1024 1024" xmlns="http://www.w3.org/2000/svg"><path d="M864 1024V874.688H160V1024H0V762.688h1024V1024H864zM515.968 351.168c149.056 0 244.032 10.496 285.056 30.336 48.96 23.296 100.992 78.208 135.936 129.472 33.664 50.048 62.848 126.72 87.04 183.744H0c4.992-14.016 12.032-50.752 44.992-110.208 17.024-29.184 33.024-56 49.984-80.512 33.024-50.176 84.992-104.96 128-122.496 47.04-19.84 144-30.336 292.992-30.336zm371.072-4.672a52.288 52.288 0 008.96-29.184c0-20.992-12.032-39.68-36.032-56 0-1.152-.96-3.456-.96-4.608a26.56 26.56 0 004.992-14.08c0-15.168-16-29.12-46.976-39.68-31.04-10.432-68.992-16.256-113.024-16.256s-81.984 5.76-113.024 16.32C560 213.504 544 227.456 544 242.688c0 4.672 1.984 9.344 4.992 13.952A64.896 64.896 0 00544 280c0 7.04 1.984 14.016 4.992 22.144a101.312 101.312 0 00-73.984 0C478.016 294.016 480 286.976 480 280c0-8.192-1.984-15.168-4.992-23.36A26.24 26.24 0 00480 242.624c0-15.168-16-29.12-46.976-39.68-31.104-10.368-68.992-16.192-113.024-16.192s-81.984 5.76-113.024 16.32C176 213.568 160 227.52 160 242.752c0 4.672 1.984 9.344 4.992 13.952 0 1.216-.96 3.52-.96 4.672-24 16.32-36.032 35.008-36.032 56 0 10.496 3.008 19.84 8.96 29.184C110.016 366.4 96 387.392 96 410.752H32V35.008C32 16.32 44.992 0 62.016 0H961.92c17.024 0 30.016 16.32 30.016 35.008v375.68h-64c0-23.36-14.016-44.352-40.96-64.192z"/></svg>