<svg class="icon" width="48" height="48" viewBox="0 0 1024 1024" xmlns="http://www.w3.org/2000/svg"><path d="M640 270.528V84.672c0-1.216-.256-2.368-.256-3.584V72.64h-.64C635.2 31.68 611.2 0 582.08 0H377.984c-29.184 0-53.12 31.68-57.152 72.64H320v275.84h.256v75.712c0 1.408-.256 2.688-.256 3.968v523.2h.832c4.032 41.024 27.968 72.64 57.152 72.64h204.032c29.184 0 53.12-31.616 57.152-72.64h.576v-6.272H640v-601.6h-.256v-69.376c0-1.28.256-2.432.256-3.648zM384 128h128v448H384V128zm144 755.2z"/><path d="M496 772.288A31.872 31.872 0 00448 800a32 32 0 1048-27.712zm384 0A31.872 31.872 0 00832 800a31.872 31.872 0 0048 27.712 31.936 31.936 0 000-55.424z"/><path d="M1024 270.528V84.672c0-1.216-.256-2.368-.256-3.584V72.64h-.512C1019.136 31.68 995.2 0 966.08 0H761.92c-29.184 0-53.056 31.68-57.088 72.64H704v275.84h.256v75.712c0 1.408-.256 2.688-.256 3.968v523.2h.832c4.032 41.024 27.904 72.64 57.088 72.64h204.16c29.184 0 53.056-31.616 57.152-72.64h.512v-6.272h.256v-601.6h-.256v-69.376c0-1.28.256-2.432.256-3.648zM768 128h128v448H768V128zm144 755.2a96.064 96.064 0 110-166.336 96 96 0 010 166.336zM160 768a32 32 0 100 64 32 32 0 000-64z"/><path d="M320 270.528V84.672c0-1.216-.256-2.368-.256-3.584V72.64h-.64C315.2 31.68 291.328 0 262.208 0H57.856C28.736 0 4.864 31.68.768 72.64H0v275.84h.256v75.712C.256 425.6 0 426.88 0 428.16v523.2h.768C4.864 992.384 28.8 1024 57.92 1024h204.16c29.184 0 53.056-31.616 57.088-72.64h.576v-6.272H320v-601.6h-.256v-69.376c0-1.28.256-2.432.256-3.648zM64 128h128v448H64V128zm96 768a96 96 0 11-.064-192A96 96 0 01160 896z"/></svg>