<svg class="icon" width="48" height="48" viewBox="0 0 1024 1024" xmlns="http://www.w3.org/2000/svg"><path d="M750.25 540.274c22.301 0 40.392 18.318 40.392 40.96v36.978c30.094 7.566 57.458 23.608 78.962 46.193l31.516-18.489a39.936 39.936 0 0140.448 0c12.516 7.396 20.196 20.879 20.196 35.556a41.13 41.13 0 01-20.196 35.499l-31.516 18.432a170.837 170.837 0 010 92.501l31.516 18.489c12.516 7.282 20.196 20.821 20.196 35.499a41.13 41.13 0 01-20.196 35.498 39.936 39.936 0 01-40.391 0l-31.573-18.489c-21.561 22.585-48.925 38.685-78.962 46.251v36.978c0 22.642-18.09 40.96-40.391 40.96a40.732 40.732 0 01-40.448-40.96v-36.978a165.49 165.49 0 01-78.962-46.25l-31.517 18.545a40.107 40.107 0 01-55.182-15.019 41.301 41.301 0 0114.791-56.035l31.46-18.432a170.894 170.894 0 010-92.558l-31.517-18.432a41.301 41.301 0 01-14.79-55.979 40.107 40.107 0 0155.182-15.019l31.573 18.432c21.56-22.585 48.924-38.627 78.962-46.25v-36.921c0-22.642 18.09-40.96 40.39-40.96zM869.377 55.979c42.155 0 76.345 34.702 76.345 77.482v384a41.13 41.13 0 01-20.196 35.499 39.936 39.936 0 01-40.39 0 41.13 41.13 0 01-20.253-35.499c-61.895-37.319-110.535-47.331-145.806-29.98-52.907 25.998-57.401 52.167-83.684 72.988-41.529 32.882-105.7 5.12-136.76 70.6-20.652 43.633-16.442 99.669 12.8 168.22l-65.708 78.848c22.3 0 40.392 18.375 40.392 40.96 0 22.699-18.091 41.017-40.392 41.017H127.886c-42.098 0-76.345-34.646-76.345-77.37v-749.34c0-42.78 34.19-77.482 76.345-77.482h741.49zM750.251 695.182c-30.322 0-58.368 16.27-73.671 42.78l-.285.513a86.926 86.926 0 00-11.378 43.235c0 36.41 22.415 68.836 56.093 81.351 33.621 12.402 71.395 2.219 94.492-25.6a87.552 87.552 0 008.761-98.816l-.114-.17a85.049 85.049 0 00-73.955-43.236zM396.8 613.205H229.205a40.334 40.334 0 00-34.986 20.48 41.529 41.529 0 000 40.96c7.225 12.743 20.593 20.537 34.986 20.537H396.8a40.334 40.334 0 0034.987-20.48 41.529 41.529 0 000-40.96 40.334 40.334 0 00-34.987-20.537zm0-182.215H229.205a40.732 40.732 0 00-40.39 40.96c0 22.642 18.09 41.017 40.39 41.017H396.8c22.3 0 40.391-18.375 40.391-40.96A40.732 40.732 0 00396.8 430.99zm125.156-182.215H229.262a40.732 40.732 0 00-40.39 40.96c0 22.642 18.09 41.017 40.39 41.017H522.07a40.334 40.334 0 0034.987-20.48 41.529 41.529 0 000-40.96 40.334 40.334 0 00-34.987-20.537z"/></svg>