<svg class="icon" width="48" height="48" viewBox="0 0 1024 1024" xmlns="http://www.w3.org/2000/svg"><path d="M503.873 867.86H158.316v156.012H0V750.818h499.97c-3.456 16.766-4.928 35.196-4.608 55.161.32 20.03 3.2 40.635 8.511 61.88zm2.368-526.59c146.221 0 239.394 10.43 279.645 30.14 48.058 23.165 99.06 77.686 133.423 128.623 33.02 49.722 3.456 7.36 36.284 52.986-30.909-35.324-95.988-52.986-195.368-52.986-160.62 0-248.289 182.57-248.289 182.57H0c4.927-13.95 11.775-50.426 44.154-109.555 16.638-28.924 32.38-55.609 49.082-79.99 32.316-49.785 83.382-104.307 125.553-121.584 46.074-19.774 141.294-30.205 287.452-30.205zm348.692 4.287a52.025 52.025 0 008.959-29.117c0-20.925-12.03-39.547-36.027-55.8 0-1.152-.96-3.52-.96-4.672a26.429 26.429 0 004.991-13.95c0-15.166-15.998-29.117-46.97-39.547-31.036-10.495-68.983-16.318-113.01-16.318s-81.974 5.823-113.01 16.318c-30.972 10.43-46.97 24.38-46.97 39.547a26.237 26.237 0 004.991 13.95 64.632 64.632 0 00-4.991 23.23c0 7.038 1.984 14.013 4.991 22.14a101.555 101.555 0 00-73.974 0c3.007-8.127 4.991-15.102 4.991-22.14a64.632 64.632 0 00-4.991-23.23 26.109 26.109 0 004.991-13.95c0-15.166-15.998-29.117-46.97-39.547-31.1-10.495-68.983-16.318-113.01-16.318s-81.974 5.823-113.01 16.318c-30.972 10.43-46.97 24.38-46.97 39.547a26.237 26.237 0 004.991 13.95c0 1.152-.96 3.52-.96 4.671-23.997 16.254-36.027 34.876-36.027 55.801 0 10.495 3.008 19.838 8.959 29.117-26.94 19.837-40.955 40.699-40.955 63.992H0V34.939C0 16.255 12.99 0 30.012 0h899.792c17.022 0 30.012 16.254 30.012 34.94v374.609h-63.992c0-23.293-14.014-44.155-40.955-63.992z"/><path d="M950.217 751.266l-162.54 136.495a36.347 36.347 0 01-23.293 8.127 36.347 36.347 0 01-23.357-8.127l-91.444-76.79a24.829 24.829 0 01-8.511-26.813 30.844 30.844 0 0123.293-19.582 37.435 37.435 0 0131.868 7.168l68.151 57.208L903.567 712.04c8.319-7.04 20.477-9.727 31.868-7.167 11.39 2.56 20.286 10.047 23.293 19.581a24.829 24.829 0 01-8.51 26.813M799.9 575.928a223.972 223.972 0 100 448.072 223.972 223.972 0 000-448.072"/></svg>