<svg class="icon" width="48" height="45.34" viewBox="0 0 1084 1024" xmlns="http://www.w3.org/2000/svg"><path d="M320.753 96.557l-73.427-70.656C124.085 116.254 43.008 255.7 35.78 413.816h102.64c7.71-131.011 77.644-245.76 182.333-317.259zm636.386 317.2h102.701c-7.71-158.058-88.847-297.563-211.607-387.916L775.35 96.557c103.725 71.56 174.08 186.248 181.79 317.2zm-101.195 24.696c0-151.793-84.27-278.709-231.063-312.38V92.46c0-40.96-34.455-74.09-77.101-74.09-42.587 0-76.98 33.13-76.98 74.09v33.611c-147.517 33.552-231.124 160.046-231.124 312.38v247.026l-102.7 98.906v49.453h821.669v-49.393l-102.762-98.786V438.392zM547.84 982.136a103.424 103.424 0 0094.51-60.235c5.12-11.806 7.65-24.696 7.65-38.55H444.535c.603 54.272 46.2 98.785 103.244 98.785z"/></svg>