<svg class="icon" width="48" height="48" viewBox="0 0 1024 1024" xmlns="http://www.w3.org/2000/svg"><path d="M728.715 64.66l72.91 113.713h107.958v795.87h-795.87v-795.87h257.552L439.57 64.66H63.956A63.956 63.956 0 000 128.616v831.428A63.956 63.956 0 0063.956 1024H959.34a63.956 63.956 0 0063.956-63.956V128.616A63.956 63.956 0 00959.34 64.66H728.715z"/><path d="M0 520.538s182.914-162.256 441.68 0c258.83 162.193 517.66-51.42 517.66-51.42v513.886H11.256L0 520.538zM601.506.704c41.572 50.46 82.76 100.155 110.005 159.634 32.042 70.096-20.594 149.977-94.4 159.89-72.206 9.657-137.825-46.688-137.249-118.575.128-21.297 8.57-40.484 18.228-59.031 26.733-51.165 62.676-95.934 100.09-139.744.576-.64 1.472-.96 3.326-2.174z"/></svg>