<svg class="icon" width="48" height="48" viewBox="0 0 1024 1024" xmlns="http://www.w3.org/2000/svg"><path d="M905.343 56.642A85.056 85.056 0 00824.575.002H198.977c-37.504 0-68.864 23.488-80.768 56.64L0 520v448c0 30.783 25.6 55.999 56.96 55.999h56.896c31.36 0 56.96-25.216 56.96-56.064v-56.064h682.43v56.064c0 30.848 25.6 56.064 56.96 56.064h56.896c31.36 0 56.896-25.216 56.896-56.064V520.001L905.343 56.64zM198.977 744.065a84.48 84.48 0 01-85.248-83.904 84.48 84.48 0 0185.248-83.968 84.48 84.48 0 0185.311 83.968 84.48 84.48 0 01-85.311 83.904zm625.662 0a84.48 84.48 0 01-85.247-83.904 84.48 84.48 0 0185.247-83.968 84.48 84.48 0 0185.312 83.968 84.48 84.48 0 01-85.312 83.904zm-710.91-280l85.248-379.967h625.598l85.248 379.967H113.73z"/></svg>