<svg class="icon" width="48" height="48" viewBox="0 0 1024 1024" xmlns="http://www.w3.org/2000/svg"><path d="M621.12 736h38.4v-64c0-191.936 140.672-172.8 147.072-172.8 153.536 0 140.736 166.4 140.736 172.8v64H992c19.2 0 32 12.8 32 25.6V992c0 19.2-12.8 32-32 32H621.12c-19.2 0-32-12.8-32-25.6V768c.128-19.2 12.928-32 32-32zm275.008-64s6.4-115.2-89.536-115.2c-6.4 0-89.472-6.4-89.472 115.2v64h179.072l-.064-64zM.96 947.2c6.4 38.4 44.8 76.8 89.536 76.8h370.88c25.6 0 44.8-19.264 44.8-44.864V755.2c0-217.6 57.6-294.4 185.344-339.2 38.4-12.8 57.6-51.2 51.2-89.536 6.4-25.6-12.8-51.2-38.4-51.2h-6.4l-12.8-89.6C665.92 76.8 570.048 0 455.04 0h-12.8a245.76 245.76 0 00-223.808 185.536l-12.8 89.664c-25.6 0-44.8 19.2-44.8 44.8v6.464c-6.4 38.4 19.2 83.2 51.2 102.4 38.4 25.6 25.6 89.6 83.072 147.2 32 19.2 51.2 57.6 51.2 89.6 0 25.6-19.2 57.6-44.8 63.872-83.072 25.6-166.272 64-242.944 102.4-38.4 19.2-63.936 64.064-57.536 115.2z"/></svg>