<svg class="icon" width="48" height="48" viewBox="0 0 1024 1024" xmlns="http://www.w3.org/2000/svg"><path d="M544 791.616h214.144V896L896 758.976 758.144 618.688v104.384H544V608c0-35.2 28.8-64 64-64h352c35.2 0 64 28.8 64 64v352c0 35.2-28.8 64-64 64H608c-35.2 0-64-28.8-64-64V791.616zm0-554.688h214.144v104.384L896 204.352 758.144 64v104.384H544V64c0-35.2 28.8-64 64-64h352c35.2 0 64 28.8 64 64v352c0 35.2-28.8 64-64 64H608c-35.2 0-64-28.8-64-64V236.928zM64 0h352c35.2 0 64 28.8 64 64v896c0 35.2-28.8 64-64 64H64c-35.2 0-64-28.8-64-64V64C0 28.8 28.8 0 64 0z"/></svg>