<svg class="icon" width="48" height="48" viewBox="0 0 1024 1024" xmlns="http://www.w3.org/2000/svg"><path d="M941.184 861.312H82.624C36.928 861.312 0 822.4 0 774.272V87.04C0 39.04 36.928 0 82.624 0H941.44C986.88 0 1024 38.912 1024 87.04v687.232c0 23.104-8.768 45.248-24.32 61.632a80.512 80.512 0 01-58.496 25.408zm-586.368 0H657.6l22.016 132.928a22.912 22.912 0 01-5.12 23.168 20.992 20.992 0 01-15.168 6.592H353.472a21.248 21.248 0 01-16.384-7.936 22.912 22.912 0 01-4.864-18.24l22.656-136.512h-.064zm-223.36-344.064C231.04 593.856 284.8 638.72 329.6 638.72c44.736 0 142.016-156.672 168.832-156.672 26.816 0 129.728 117.952 194.56 111.936 64.768-6.016 202.88-216.32 241.6-288.832 38.784-72.512-34.24-127.104-88.96-52.48-54.912 74.56-137.792 206.144-167.488 206.144-29.696 0-124.096-106.88-179.712-108.8-55.552-2.112-162.688 157.824-185.6 157.824-22.976 0-97.152-67.392-149.248-90.048-51.904-22.72-131.648 22.848-32 99.456z"/></svg>