<svg class="icon" width="48" height="48" viewBox="0 0 1024 1024" xmlns="http://www.w3.org/2000/svg"><path d="M750.537 391.934c32.128 35.904 64.512 71.68 97.087 107.136 22.4 25.216 40.96 47.68 55.616 67.456 14.72 19.84 26.24 38.015 34.816 54.655 8.384 16.576 14.208 31.744 17.28 45.632 3.136 13.888 4.672 27.712 4.672 41.6v184.511c0 19.84-3.328 37.76-10.24 53.632a126.335 126.335 0 01-117.567 77.44H201.803c-18.304 0-35.84-3.008-52.543-8.96a136.575 136.575 0 01-44.032-25.28 124.8 124.8 0 01-30.08-39.232 115.007 115.007 0 01-11.136-51.52v-196.48c0-15.807 1.472-31.103 4.48-45.567 3.2-14.592 8.832-29.824 16.96-45.696a331.45 331.45 0 0133.728-51.135c14.336-18.112 32.32-38.144 54.08-60.096 17.727-18.432 36.031-37.12 54.72-55.936l50.559-51.2 51.2-51.583h374.91c14.144 16.511 29.504 33.407 45.888 50.56zm-239.04 366.463c17.665 0 34.497-3.712 50.113-11.136 15.68-7.36 29.312-17.28 40.896-29.888 24.191-26.624 37.76-62.464 37.887-99.84a144.063 144.063 0 00-37.887-98.56 131.391 131.391 0 00-40.896-30.015 115.455 115.455 0 00-50.112-11.072 118.271 118.271 0 00-50.56 11.136 133.311 133.311 0 00-69.12 74.24 151.807 151.807 0 000 109.183c6.784 17.408 16 32.384 27.584 44.928 24.576 26.24 57.6 40.96 92.096 41.024zm512.51-480.318c0 19.2-6.271 35.584-18.943 48.896a60.608 60.608 0 01-45.44 19.84H831.753a59.136 59.136 0 01-44.992-19.84c-12.16-12.8-18.816-30.528-18.432-48.896v-69.76H255.755v69.76c0 19.2-6.144 35.584-18.432 48.896a58.752 58.752 0 01-45.056 19.84H64.46a60.544 60.544 0 01-45.44-19.84A68.544 68.544 0 01.012 278.079v-72c0-8.832 2.048-16.384 6.208-22.72C10.252 177.087 167.5 0 512.522 0c345.086 0 502.206 177.215 505.854 183.36a43.52 43.52 0 015.632 22.72v71.999z"/></svg>