<?xml version="1.0" standalone="no"?><!DOCTYPE svg PUBLIC "-//W3C//DTD SVG 1.1//EN" "http://www.w3.org/Graphics/SVG/1.1/DTD/svg11.dtd"><svg class="icon" width="48px" height="42.01px" viewBox="0 0 1170 1024" version="1.1" xmlns="http://www.w3.org/2000/svg"><path fill="#D9DDE1" d="M1075.565714 0H94.72C44.617143 0 0 49.664 0 105.472v813.056C0 974.262857 44.617143 1024 94.72 1024h980.845714C1125.668571 1024 1170.285714 974.336 1170.285714 918.528v-819.2C1170.285714 43.446857 1125.668571 0 1075.565714 0zM317.659429 201.728c27.794286-28.818286 66.852571-40.374857 100.278857-40.374857 33.426286 0 72.411429 17.261714 100.352 46.08 27.794286 28.818286 44.617143 63.414857 44.617143 103.789714 0 40.301714-16.822857 74.898286-44.617143 103.716572-27.867429 28.818286-61.293714 40.301714-100.352 40.301714-38.985143 0-72.411429-17.261714-100.278857-40.301714-27.867429-23.04-38.985143-69.193143-38.985143-109.494858 0-40.374857 11.117714-74.898286 38.985143-103.716571z m339.894857 530.139429c0 23.04-22.235429 46.08-44.544 46.08H228.498286c-27.867429 0-44.617143-23.04-44.617143-46.08V656.969143c0-86.454857 72.411429-161.353143 156.086857-161.353143h161.645714C585.142857 495.616 657.554286 570.514286 657.554286 656.969143v74.898286z m334.409143-63.414858c0 28.818286-22.308571 46.08-44.617143 46.08h-150.454857c-27.794286 0-44.617143-22.966857-44.617143-46.08 0-28.818286 22.308571-46.08 44.617143-46.08h150.454857c22.308571 0 44.617143 23.04 44.617143 46.08z m0-195.876571c0 28.818286-22.308571 46.08-44.617143 46.08H746.788571c-27.867429 0-44.617143-23.04-44.617142-46.08 0-28.818286 22.308571-46.08 44.617142-46.08h200.557715c22.308571 0 44.617143 17.261714 44.617143 46.08z m0-196.022857c0 28.891429-22.308571 46.153143-44.617143 46.153143H707.730286c-27.794286 0-44.617143-23.04-44.617143-46.08 0-28.818286 22.308571-46.08 44.617143-46.08h239.616c22.308571-5.851429 44.617143 17.261714 44.617143 46.08z"  /></svg>