<?xml version="1.0" standalone="no"?><!DOCTYPE svg PUBLIC "-//W3C//DTD SVG 1.1//EN" "http://www.w3.org/Graphics/SVG/1.1/DTD/svg11.dtd"><svg class="icon" width="48px" height="48.00px" viewBox="0 0 1024 1024" version="1.1" xmlns="http://www.w3.org/2000/svg"><path fill="#D9DDE1" d="M359.062588 799.081412c22.046118-27.105882 45.537882-52.886588 70.354824-77.281883l195.523764-203.354353 180.284236-189.500235c13.914353-15.721412 28.973176-30.358588 45.056-43.730823 15.781647-12.890353 26.142118-5.059765 38.731294 8.252235 12.649412 13.372235 21.202824 23.009882 31.984941 34.514823 2.288941 2.770824 16.685176 13.854118 16.685177 17.950118V73.607529A72.884706 72.884706 0 0 0 865.641412 0H102.219294C83.064471 0 64.752941 7.770353 51.2 21.564235 37.707294 35.358118 30.117647 54.091294 30.117647 73.607529v855.160471c0 19.516235 7.589647 38.249412 21.082353 52.043294 13.552941 13.854118 31.924706 21.564235 51.019294 21.564235h189.259294l37.827765-143.962353c6.144-21.564235 16.263529-41.682824 29.756235-59.331764z m78.426353-372.193883h-263.228235a22.768941 22.768941 0 0 1-22.467765-23.009882c0-12.649412 10.059294-23.009882 22.528-23.009882h261.360941c12.468706 0 22.528 10.300235 22.528 23.009882a22.768941 22.768941 0 0 1-22.528 23.009882h1.807059z m182.512941-120.470588h-445.741176a22.768941 22.768941 0 0 1-22.467765-23.070117c0-12.649412 10.059294-22.949647 22.528-22.949648h443.873883c12.408471 0 22.528 10.24 22.528 22.949648s-10.119529 23.009882-22.528 23.009882h1.807058z m123.904-120.591059H174.320941a22.467765 22.467765 0 0 1-19.516235-11.444706 23.431529 23.431529 0 0 1 0-23.070117 22.467765 22.467765 0 0 1 19.516235-11.444706h567.777883c12.468706 0 22.528 10.24 22.528 23.009882a22.768941 22.768941 0 0 1-22.528 22.949647h1.807058z m241.54353 314.24753L881.362824 393.336471a30.599529 30.599529 0 0 0-41.923765 0l-435.742118 444.837647a13.010824 13.010824 0 0 0-3.614117 6.866823l-45.477648 159.62353a15.902118 15.902118 0 0 0 3.132236 14.275764c3.011765 3.132235 6.987294 4.939294 11.264 5.059765h2.710588l168.056471-32.225882a13.854118 13.854118 0 0 0 8.131764-4.156236l437.549177-445.259294a30.840471 30.840471 0 0 0 0-42.345412zM917.865412 587.896471a13.372235 13.372235 0 0 1-19.395765 0l-104.086588-106.255059a14.938353 14.938353 0 0 1 1.084235-19.576471 14.215529 14.215529 0 0 1 19.215059-1.084235l104.086588 106.255059a13.974588 13.974588 0 0 1-0.903529 20.660706z"  /></svg>