<svg class="icon" width="48" height="48" viewBox="0 0 1024 1024" xmlns="http://www.w3.org/2000/svg"><path d="M113.726 127.997h796.528c27.327 0 49.727-28.863 49.727-64.062C959.98 28.735 937.645 0 910.254 0H113.662C86.398 0 63.999 28.863 63.999 64.063c0 35.199 22.335 63.934 49.727 63.934zm861.998 127.998H48.255A47.04 47.04 0 000 301.434V978.54c0 25.088 21.76 45.44 48.255 45.44h927.47a46.911 46.911 0 0048.255-45.44V301.434c0-24.896-21.632-45.44-48.256-45.44zM671.027 763.12H555.38v98.43c0 25.023-19.584 45.375-43.327 45.375-23.68 0-43.263-20.352-43.263-45.44V763.25H353.145c-26.624 0-48.32-18.304-48.32-40.703 0-22.336 21.76-40.64 48.32-40.64H468.79v-58.238H353.145c-26.624 0-48.32-18.368-48.32-40.832 0-22.207 21.76-40.639 48.32-40.639h63.999L393.4 499.702l-28.095-50.367c-12.352-22.144-5.184-48.767 15.871-59.135 21.12-10.432 48.511-.768 60.8 21.248l22.719 40.511c.512.64.832 1.28 1.024 1.92l23.295 41.727 23.616 41.983 23.423-42.11 23.552-41.6a14.4 14.4 0 001.024-1.856l22.463-40.511c12.288-22.08 39.68-31.744 60.8-21.184 21.119 10.24 28.35 36.991 15.87 59.071l-28.03 50.303-23.744 42.495h62.655c26.623 0 48.51 18.304 48.51 40.64 0 22.399-21.759 40.767-48.318 40.767H555.253v58.366h115.582c26.815-.128 48.447 18.24 48.447 40.512 0 22.271-21.76 40.639-48.255 40.639z"/><path d="M442.871 515.19h10.24l-2.24-6.4z"/></svg>