<svg class="icon" width="48" height="48" viewBox="0 0 1024 1024" xmlns="http://www.w3.org/2000/svg"><path d="M929.6 0H87.168C36.288 0 0 36.544 0 87.744v855.808C0 987.456 36.288 1024 87.168 1024h849.664c43.648 0 87.168-36.544 87.168-87.744V87.68C1016.768 36.544 980.48 0 929.6 0zM777.088 533.952C755.328 665.6 646.336 768 508.352 768c-137.984 0-254.144-102.4-268.672-234.048-29.056-7.296-43.584-29.248-43.584-58.496a65.28 65.28 0 11130.688 0c0 29.248-14.528 51.2-36.288 58.496C305.024 643.648 406.72 731.456 522.88 731.456c116.224 0 210.624-87.808 232.384-197.504-21.76-7.296-36.288-29.248-36.288-58.496a65.28 65.28 0 11130.752 0c-21.76 21.888-43.584 43.84-72.64 58.496zM951.36 146.304c0 21.952-21.76 43.84-43.52 43.84H108.864c-29.056 0-43.52-14.592-43.52-43.84v-36.608c0-21.952 21.76-43.84 43.52-43.84h806.144c21.76 0 43.52 21.888 43.52 43.84v36.608h-7.232z"/></svg>