<?xml version="1.0" standalone="no"?><!DOCTYPE svg PUBLIC "-//W3C//DTD SVG 1.1//EN" "http://www.w3.org/Graphics/SVG/1.1/DTD/svg11.dtd"><svg class="icon" width="48px" height="48.00px" viewBox="0 0 1024 1024" version="1.1" xmlns="http://www.w3.org/2000/svg"><path d="M113.725725 127.99744h796.52807C937.581248 127.99744 959.9808 99.134017 959.9808 63.934721c0-35.199296-22.335553-63.934721-49.727005-63.934721H113.661727C86.398272 0 63.99872 28.863423 63.99872 64.062719c0 35.199296 22.335553 63.934721 49.727005 63.934721zM975.724486 255.99488H48.255035A47.039059 47.039059 0 0 0 0 301.433971v677.106458c0 25.087498 21.759565 45.439091 48.255035 45.439091h927.469451a46.911062 46.911062 0 0 0 48.255034-45.439091V301.433971c0-24.895502-21.631567-45.439091-48.255034-45.439091z m-304.697907 507.125858H555.380892v98.430031c0 25.0235-19.583608 45.375092-43.327133 45.375092-23.679526 0-43.263135-20.351593-43.263135-45.439091v-98.238035H353.144937c-26.623468 0-48.319034-18.303634-48.319034-40.703186 0-22.335553 21.759565-40.639187 48.319034-40.639187h115.645687v-58.238835H353.144937c-26.623468 0-48.319034-18.367633-48.319034-40.831184 0-22.207556 21.759565-40.639187 48.319034-40.639187h63.99872l-23.743525-42.49515-28.095438-50.366993c-12.351753-22.143557-5.183896-48.767025 15.871682-59.134817 21.119578-10.431791 48.51103-0.767985 60.798784 21.247575l22.719546 40.51119c0.51199 0.639987 0.831983 1.279974 1.02398 1.919961l23.295534 41.727166 23.615527 41.98316 23.423532-42.111158 23.551529-41.599168a14.399712 14.399712 0 0 0 1.023979-1.855962l22.463551-40.51119c12.287754-22.079558 39.679206-31.743365 60.798784-21.183577 21.119578 10.239795 28.351433 36.99126 15.871683 59.070819l-28.03144 50.302994-23.743525 42.49515h62.654747c26.623468 0 48.51103 18.303634 48.51103 40.639187 0 22.399552-21.759565 40.767185-48.319034 40.767185H555.252895v58.366833h115.581688c26.815464-0.127997 48.447031 18.239635 48.447031 40.511189 0 22.271555-21.759565 40.639187-48.255035 40.639188z" fill="#D9DDE1" /><path d="M442.871143 515.189696h10.239795l-2.239955-6.399872z" fill="#A1ACB5" /></svg>