<?xml version="1.0" standalone="no"?><!DOCTYPE svg PUBLIC "-//W3C//DTD SVG 1.1//EN" "http://www.w3.org/Graphics/SVG/1.1/DTD/svg11.dtd"><svg class="icon" width="48px" height="48.00px" viewBox="0 0 1024 1024" version="1.1" xmlns="http://www.w3.org/2000/svg"><path d="M512.448 8.768l7.296 4.864L960 357.376h-60.032l0.128 108.48A288 288 0 1 0 800 1024h0.576L600.128 1024 0 1023.936v-127.616h59.072v-538.88H0L440.256 13.568A64.64 64.64 0 0 1 512.448 8.768zM409.6 681.28H204.8v68.288h204.8v-68.288z m68.288-204.8H204.8v68.288h273.088V476.48z" fill="#D9DDE1" /><path d="M800 512a224 224 0 1 1 0 448 224 224 0 0 1 0-448z m-26.496 99.2l-9.6 25.536c-4.8 1.6-8 3.2-12.8 4.8l-24-11.2c-14.4 9.6-25.6 20.8-35.2 35.2l11.2 23.936c-1.6 4.8-3.2 8-4.8 12.8l-25.6 9.6c-3.2 16-3.2 33.536 0 49.536l25.6 9.6c1.6 4.8 3.2 9.6 4.8 12.8l-11.2 25.6c9.6 14.336 20.8 25.536 35.2 35.136l25.6-11.2c4.8 1.6 8 3.2 12.8 4.8l8 25.6c16 1.536 33.6 1.536 49.6-1.6l9.6-25.6c3.2-1.6 8-3.2 11.2-4.8l25.6 11.2c14.4-9.6 25.6-20.8 35.2-35.2l-12.8-25.6c1.6-3.2 3.2-6.4 4.8-11.136l27.2-9.6c3.2-16 3.2-33.536 0-49.536l-25.6-9.6c-1.6-3.2-3.2-8-4.8-11.2l11.2-25.6a122.88 122.88 0 0 0-35.2-35.136l-25.6 11.2c-3.2-1.6-8-3.2-11.2-4.8l-9.6-25.6c-16-3.2-33.6-3.2-49.6 0z m24 87.872c20.8 0 38.4 17.6 38.4 38.4 0 20.736-17.6 38.336-38.4 38.336a38.912 38.912 0 0 1-38.4-38.4c0-20.736 17.6-38.336 38.4-38.336z" fill="#D8D8D8" /></svg>