<?xml version="1.0" standalone="no"?><!DOCTYPE svg PUBLIC "-//W3C//DTD SVG 1.1//EN" "http://www.w3.org/Graphics/SVG/1.1/DTD/svg11.dtd"><svg class="icon" width="48px" height="48.00px" viewBox="0 0 1024 1024" version="1.1" xmlns="http://www.w3.org/2000/svg"><path fill="#D9DDE1" d="M959.991 79.807252C959.991 35.839664 921.079365 0 873.399812 0H86.463189C38.911635 0 0 35.903663 0 79.807252V168.958416h959.991V79.807252z m-190.91021 382.716412c73.215314 0 139.966688 31.103708 190.91021 82.431227V259.837564H0v537.786958C0 851.704015 38.911635 895.9916 86.39919 895.9916h407.868176c-9.279913-32.383696-21.759796-62.527414-24.959766-98.367078-20.159811-225.853883 140.158686-335.036859 299.77319-335.036859z"  /><path fill="#D9DDE1" d="M1003.574591 669.113727a262.845536 262.845536 0 0 0-55.039484-81.471236 263.48553 263.48553 0 0 0-81.279238-55.359481A242.17373 242.17373 0 0 0 768.632794 511.9952c-35.711665 0-68.927354 6.719937-99.903063 20.28781a263.165533 263.165533 0 0 0-136.318722 136.766718c-13.695872 31.103708-20.479808 64.063399-20.479808 99.007071 0 35.711665 6.783936 69.055353 20.415808 100.031063 13.503873 31.039709 31.871701 58.239454 55.167483 81.535235A253.88562 253.88562 0 0 0 768.696793 1023.9904c34.879673 0 67.519367-6.527939 98.559076-19.711815a255.677603 255.677603 0 0 0 136.318722-136.190723A245.117702 245.117702 0 0 0 1023.9904 767.9928c0-34.943672-6.911935-67.839364-20.415809-98.943072z m-354.428677 244.541707c41.087615-15.167858 70.39934-55.039484 70.39934-101.887044H612.28226a27.199745 27.199745 0 1 1-15.039859-49.663535l150.39859-152.190573a26.68775 26.68775 0 0 1 39.935625-1.727984l156.414534 158.270516-0.127999 0.064a27.199745 27.199745 0 0 1-19.967813 45.247576h-81.151239a123.518842 123.518842 0 0 1-122.878848 124.286834c-26.367753 0-50.687525-8.255923-70.655337-22.39979z"  /></svg>