<?xml version="1.0" standalone="no"?><!DOCTYPE svg PUBLIC "-//W3C//DTD SVG 1.1//EN" "http://www.w3.org/Graphics/SVG/1.1/DTD/svg11.dtd"><svg class="icon" width="48px" height="48.00px" viewBox="0 0 1024 1024" version="1.1" xmlns="http://www.w3.org/2000/svg"><path fill="#D9DDE1" d="M750.536876 391.934285c32.127859 35.903843 64.511718 71.679686 97.087576 107.135532 22.399902 25.21589 40.959821 47.679791 55.615756 67.455704 14.719936 19.839913 26.239885 38.015834 34.815848 54.655761 8.383963 16.575927 14.207938 31.743861 17.279924 45.631801 3.135986 13.887939 4.67198 27.711879 4.67198 41.599818v184.511192c0 19.839913-3.327985 37.759835-10.239955 53.631766A126.335447 126.335447 0 0 1 832.200519 1023.99552h-630.397242c-18.30392 0-35.839843-3.007987-52.54377-8.959961a136.575402 136.575402 0 0 1-44.031807-25.279889 124.799454 124.799454 0 0 1-30.079869-39.231829A115.007497 115.007497 0 0 1 64.01188 899.004067v-196.479141c0-15.807931 1.471994-31.103864 4.47998-45.5678 3.199986-14.591936 8.831961-29.82387 16.959926-45.6958 9.599958-17.983921 20.863909-35.071847 33.727853-51.135777 14.335937-18.111921 32.319859-38.143833 54.079763-60.095737 17.727922-18.431919 36.031842-37.119838 54.719761-55.935755l50.559778-51.199776 51.199776-51.583774h374.91036c14.143938 16.511928 29.503871 33.407854 45.887799 50.559779zM511.497922 758.396682c17.663923 0 34.495849-3.711984 50.111781-11.135951 15.679931-7.359968 29.311872-17.279924 40.895821-29.88787 24.191894-26.623884 37.759835-62.463727 37.887834-99.839563a144.06337 144.06337 0 0 0-37.887834-98.559569 131.391425 131.391425 0 0 0-40.895821-30.015868 115.455495 115.455495 0 0 0-50.111781-11.071952 118.271483 118.271483 0 0 0-50.559779 11.135952 133.311417 133.311417 0 0 0-69.119697 74.239675 151.807336 151.807336 0 0 0 0 109.183522c6.78397 17.407924 15.99993 32.383858 27.583879 44.927803 24.575892 26.239885 57.599748 40.959821 92.095597 41.023821zM1024.00768 278.078783c0 19.199916-6.271973 35.583844-18.943917 48.895786a60.607735 60.607735 0 0 1-45.439801 19.839914h-127.871441a59.135741 59.135741 0 0 1-44.991803-19.839914c-12.159947-12.799944-18.815918-30.527866-18.431919-48.895786v-69.759694H255.755041v69.759694c0 19.199916-6.143973 35.583844-18.431919 48.895786a58.751743 58.751743 0 0 1-45.055803 19.839914H64.459878a60.543735 60.543735 0 0 1-45.439801-19.839914A68.5437 68.5437 0 0 1 0.01216 278.078783V206.079098c0-8.831961 2.047991-16.383928 6.207973-22.7199C10.252115 177.087225 167.499427 0 512.521918 0c345.08649 0 502.205803 177.215225 505.853787 183.359198A43.51981 43.51981 0 0 1 1024.00768 206.079098v71.999685z"  /></svg>