<svg class="icon" width="48" height="48" viewBox="0 0 1024 1024" xmlns="http://www.w3.org/2000/svg"><path d="M960 0c35.328 0 64 28.48 64 63.616v896.768c0 35.136-28.672 63.616-64 63.616H64c-35.328 0-64-28.48-64-63.616V63.616C0 28.48 28.672 0 64 0h896zM480 827.264H160c-17.664 0-32 14.272-32 31.808 0 17.6 14.336 31.872 32 31.872h320a31.936 31.936 0 000-63.616zm256-127.232H160c-17.664 0-32 14.208-32 31.808 0 17.536 14.336 31.808 32 31.808h576c17.664 0 32-14.272 32-31.808a31.936 31.936 0 00-32-31.808zm-329.792-527.36c-62.208 0-96.192 36.096-96.192 100.864V481.92c0 64.704 33.984 100.8 96.192 100.8 62.208 0 96.256-36.096 96.256-100.8V273.536c0-64.768-33.984-100.8-96.256-100.8zm228.16 0c-62.208 0-96.192 36.096-96.192 100.864V481.92c0 64.704 33.92 100.8 96.192 100.8 62.208 0 96.192-36.096 96.192-100.8V273.536c0-64.768-33.92-100.8-96.192-100.8zm-395.776 4.608H195.84c-4.608 13.76-10.368 26.368-20.16 35.52-9.792 9.152-24.768 14.912-49.536 14.912v44.672h48.96v305.792h63.36V177.28zm167.68 52.672c20.096 0 32.768 10.368 32.768 39.552v216.512c0 29.184-12.672 39.488-32.832 39.488s-32.832-10.304-32.832-39.488V269.44c0-29.248 12.672-39.552 32.832-39.552zm228.096 0c20.16 0 32.832 10.368 32.832 39.552v216.512c0 29.184-12.672 39.488-32.832 39.488S601.6 515.2 601.6 486.016V269.44c0-29.248 12.672-39.552 32.832-39.552z"/></svg>