<svg class="icon" width="48" height="48" viewBox="0 0 1024 1024" xmlns="http://www.w3.org/2000/svg"><path d="M950.537 0c40.384 0 73.152 38.016 73.472 85.12v853.44c0 22.656-7.68 44.416-21.44 60.416-13.696 16-32.32 25.024-51.776 25.024H73.225c-19.456 0-38.08-8.96-51.84-24.96A93.12 93.12 0 01.009 938.496V85.12C.073 38.08 32.841 0 73.225 0h877.312zm-759.36 551.36a33.088 33.088 0 00-29.12 19.712 45.312 45.312 0 000 39.36c6.016 12.16 17.088 19.712 29.12 19.712h169.024a33.088 33.088 0 0029.12-19.712 45.312 45.312 0 000-39.36 33.088 33.088 0 00-29.12-19.712H191.177zm401.28 315.072c20.8 0 37.76-17.6 37.76-39.36a38.592 38.592 0 00-37.76-39.36H195.273a37.44 37.44 0 00-32.64 19.648 40.96 40.96 0 000 39.424c6.72 12.16 19.2 19.648 32.64 19.648h397.184zm241.6-445.696h-91.712v-55.744h91.712a33.216 33.216 0 0032.384-32.832 33.216 33.216 0 00-32.384-32.896h-77.824l87.04-85.632a32.512 32.512 0 000-46.464 33.664 33.664 0 00-46.912-.256l-.256.256-87.04 85.76-87.296-85.76a33.664 33.664 0 00-46.848-.256l-.256.256a32.512 32.512 0 000 46.464l86.912 85.76h-77.76a33.216 33.216 0 00-32.448 32.768c0 17.728 14.336 32.256 32.448 32.896h91.712v55.68h-91.712a33.216 33.216 0 00-32.448 32.896c0 17.664 14.336 32.192 32.448 32.832h91.712v34.304c1.088 17.216 15.68 30.592 33.28 30.592 17.728 0 32.32-13.44 33.408-30.592V486.4h91.712a33.216 33.216 0 0032.384-32.832 33.216 33.216 0 00-32.384-32.896h.128z"/></svg>