<?xml version="1.0" standalone="no"?><!DOCTYPE svg PUBLIC "-//W3C//DTD SVG 1.1//EN" "http://www.w3.org/Graphics/SVG/1.1/DTD/svg11.dtd"><svg class="icon" width="48px" height="48.00px" viewBox="0 0 1024 1024" version="1.1" xmlns="http://www.w3.org/2000/svg"><path fill="#D9DDE1" d="M544 791.616h214.144V896L896 758.976l-137.856-140.288v104.384H544V608c0-35.2 28.8-64 64-64H960c35.2 0 64 28.8 64 64V960c0 35.2-28.8 64-64 64H608c-35.2 0-64-28.8-64-64v-168.384z m0-554.688h214.144v104.384L896 204.352 758.144 64v104.384H544V64c0-35.2 28.8-64 64-64H960c35.2 0 64 28.8 64 64v352c0 35.2-28.8 64-64 64H608c-35.2 0-64-28.8-64-64V236.928zM64 0h352c35.2 0 64 28.8 64 64v896c0 35.2-28.8 64-64 64H64c-35.2 0-64-28.8-64-64V64c0-35.2 28.8-64 64-64z"  /></svg>