<svg class="icon" width="48" height="48" viewBox="0 0 1024 1024" xmlns="http://www.w3.org/2000/svg"><path d="M1001.65 793.385H16.975c-9.728 0-16.96 23.871-16.96 35.39 0 11.52 8.064 35.84 16.96 35.84h262.712L212.233 981.09a32.959 32.959 0 007.68 37.12c11.327 6.335 25.47 4.479 34.75-4.737l84.862-148.86h356.15l77.63 148.476c7.04 10.688 21.183 14.08 32.254 7.68a27.391 27.391 0 008.512-31.615l-64.126-125.436h254.713c9.727 0 16.959-24.32 16.959-35.84 0-11.519-10.24-34.558-19.967-34.558zM67.917 735.786h882.79a38.143 38.143 0 0034.367-42.622V42.623A38.527 38.527 0 00950.707 0H67.917A38.783 38.783 0 0033.55 42.623v652.205a38.335 38.335 0 0034.367 40.958zm147.772-437.235a28.48 28.48 0 0139.039-11.071l146.875 78.91 80.638-150.14-10.624 3.392a28.8 28.8 0 01-26.751-6.4 27.391 27.391 0 01-8.064-25.984 24.32 24.32 0 0118.688-20.927l72.574-22.591a28.8 28.8 0 0134.815 18.367l22.463 73.342a26.111 26.111 0 01-3.392 26.431 26.24 26.24 0 01-25.471 8.128 28.48 28.48 0 01-20.352-18.367l-2.944-10.624L439.746 419.7a28.351 28.351 0 01-37.759 11.967l-149.82-79.741-87.613 119.1a27.967 27.967 0 01-37.375 11.968 27.775 27.775 0 01-9.727-37.567L215.56 298.55zm649.965 21.44c17.6 1.216 30.975 15.103 30.27 31.423 1.089 16.64-12.35 31.103-30.27 32.575h-259.32c-17.92-1.472-31.36-15.936-30.272-32.575-.704-16.32 12.672-30.207 30.271-31.423h259.32zm0 191.994c17.6 1.216 30.975 15.104 30.27 31.423 1.089 16.64-12.35 31.103-30.27 32.575h-168.7c-17.919-1.472-31.359-15.935-30.335-32.575-.64-16.32 12.736-30.207 30.336-31.423H865.59zm0-383.989c17.6 1.216 30.975 15.104 30.27 31.423 1.089 16.64-12.35 31.103-30.27 32.575h-168.7c-17.919-1.472-31.359-15.935-30.335-32.575-.64-16.32 12.736-30.207 30.336-31.423H865.59z"/></svg>