<svg class="icon" width="48" height="48" viewBox="0 0 1024 1024" xmlns="http://www.w3.org/2000/svg"><path d="M401.714 1023.297c-19.825 0-39.01-6.843-57.237-20.145a309.077 309.077 0 01-48.603-44.382 272.433 272.433 0 01-32.04-44.447c-8.057-14.58-8.057-17.906-7.801-18.737 0 0 .127-.192.575-.192h230.353c6.395 22.767 14.709 45.086 24.813 66.19-14.07 15.348-30.249 29.417-47.963 41.568a108.078 108.078 0 01-62.033 20.145z"/><path d="M421.794 833.105c6.268 22.127 14.39 43.743 24.302 64.271a279.403 279.403 0 01-47.196 40.482c-19.058 13.11-39.778 19.824-61.457 19.824-19.506 0-38.5-6.714-56.533-19.633a292.066 292.066 0 01-48.22-43.806 258.555 258.555 0 01-31.656-43.615c-7.034-12.79-7.738-16.564-7.674-17.395h228.434v-.128zm.96-1.663H193.296c-3.005 0-.64 6.715 6.651 20.017 7.29 13.302 17.97 28.01 31.976 43.935 13.941 15.924 30.057 30.696 48.347 43.934 18.29 13.302 37.348 20.017 57.173 20.017a108.717 108.717 0 0062.16-20.017c18.418-12.598 34.406-26.54 48.22-41.632a390.423 390.423 0 01-25.07-66.254z"/><path d="M26.83 895.266A25.708 25.708 0 012.914 882.22c-4.988-8.634-3.197-19.505 5.308-32.423 13.558-23.215 29.61-49.435 47.9-78.021 18.29-28.65 35.812-59.73 52.12-92.602 16.372-32.807 30.697-68.236 42.592-104.88a375.97 375.97 0 0017.97-116.136c0-38.626 5.564-73.736 16.627-104.688a296.095 296.095 0 0143.615-81.282 282.025 282.025 0 0162.033-59.22c23.406-16.179 47.963-28.65 73.352-37.09l.895-.32-.447-.704a115.368 115.368 0 01-18.994-62.545c0-31.528 11.192-58.323 33.255-79.81A113.45 113.45 0 01461.252.074c32.424 0 59.987 10.872 82.05 32.423 22.127 21.488 33.255 48.283 33.255 79.811a111.084 111.084 0 01-17.779 60.243l-.447.703.895.32c26.923 8.441 52.888 20.912 76.997 37.092 24.174 16.243 45.406 36.58 63.248 60.37 17.779 23.918 32.232 51.608 42.976 82.433a314.001 314.001 0 0116.051 103.345c0 27.116 3.134 54.615 9.145 82.05-135.832 42.144-226.835 163.588-226.835 302.362 0 17.203 1.599 34.981 4.988 54.167H26.831v-.128z"/><path d="M961.992 748.114l-11.384-27.5s26.284-60.625 23.982-62.863l-34.79-34.662c-2.43-2.366-61.84 25.26-61.84 25.26l-27.372-11.319s-24.173-61.393-27.499-61.393h-49.114c-3.39 0-25.773 61.521-25.773 61.521l-27.371 11.256s-60.626-26.284-62.928-23.918l-34.662 34.79c-2.43 2.302 25.325 61.712 25.325 61.712l-11.32 27.5s-61.52 24.11-61.52 27.37v49.243c0 3.326 61.585 25.773 61.585 25.773l11.319 27.37s-26.284 60.499-23.982 62.865l34.79 34.79c2.302 2.366 61.713-25.39 61.713-25.39l27.371 11.32s24.174 61.394 27.5 61.394H825.2c3.39 0 25.772-61.522 25.772-61.522l27.371-11.255s60.498 26.284 62.8 23.918l34.79-34.79c2.43-2.302-25.325-61.713-25.325-61.713l11.32-27.371s61.457-24.174 61.457-27.5v-49.242c.128-3.39-61.393-25.708-61.393-25.708zm-90.556 51.289c0 39.522-32.295 71.817-71.817 71.817a71.881 71.881 0 01-71.817-71.817 71.881 71.881 0 01143.634 0z"/></svg>