<svg class="icon" width="48" height="48" viewBox="0 0 1024 1024" xmlns="http://www.w3.org/2000/svg"><path d="M199.619 561.28a87.04 87.04 0 00111.68-50.56 215.232 215.232 0 01200.064-138.24c88.32 0 169.152 55.488 200 138.24a86.4 86.4 0 00111.744 50.56 87.04 87.04 0 0050.56-111.68A389.376 389.376 0 00733.57 269.952a383.104 383.104 0 00-222.208-70.4A387.584 387.584 0 00149.699 449.6c-17.28 45.056 5.504 95.04 49.92 111.68zm-9.92-96.256a347.392 347.392 0 01216.704-205.568 42.88 42.88 0 0154.272 27.776 43.392 43.392 0 01-27.776 54.336 259.712 259.712 0 00-162.304 154.304 43.072 43.072 0 01-40.128 27.776 34.56 34.56 0 01-15.424-3.072 42.88 42.88 0 01-25.344-55.552zm358.656 104.96a41.088 41.088 0 01-37.056 58.048 40.704 40.704 0 01-40.704-40.832V423.68c0-3.136 2.432-6.208 5.504-6.784 3.136-.64 6.848 1.216 8.064 4.288l64.192 148.736zM939.65 0H82.947C36.675 0 .003 36.672.003 82.944v856.128a83.2 83.2 0 0082.944 83.904h856.128c46.272 0 83.904-37.632 83.904-83.904V82.944C1022.979 36.672 985.347 0 939.65 0zM435.33 928.576a48.192 48.192 0 010-96.32 48.192 48.192 0 010 96.32zm151.872 0a48.192 48.192 0 010-96.32c26.56 0 48.192 21.632 48.192 48.192a49.024 49.024 0 01-48.192 48.128zm350.016-190.08H85.379V84.736h851.84v653.632z"/></svg>