<?xml version="1.0" standalone="no"?><!DOCTYPE svg PUBLIC "-//W3C//DTD SVG 1.1//EN" "http://www.w3.org/Graphics/SVG/1.1/DTD/svg11.dtd"><svg class="icon" width="48px" height="48.00px" viewBox="0 0 1024 1024" version="1.1" xmlns="http://www.w3.org/2000/svg"><path fill="#D9DDE1" d="M768 352.896V58.752C768 26.304 742.4 0 711.04 0H56.832C25.472 0 0 26.432 0 58.752v906.496c0 32.448 25.6 58.752 56.832 58.752h910.336c31.36 0 56.832-26.432 56.832-58.752v-553.6c0.128-32.384-25.408-58.752-56.704-58.752H768z m-568.832-34.624H568.96V406.4H199.168V318.272zM568.96 612.48H199.168V524.352H568.96V612.48z m0-411.904H199.168V112.448H568.96v88.128zM768 906.496V470.528h142.272v435.968h-142.272z"  /></svg>