<?xml version="1.0" standalone="no"?><!DOCTYPE svg PUBLIC "-//W3C//DTD SVG 1.1//EN" "http://www.w3.org/Graphics/SVG/1.1/DTD/svg11.dtd"><svg class="icon" width="48px" height="48.00px" viewBox="0 0 1024 1024" version="1.1" xmlns="http://www.w3.org/2000/svg"><path fill="#D9DDE1" d="M843.26464 120.96c33.28 0 60.288 27.008 60.288 60.416v782.144a60.416 60.416 0 0 1-60.288 60.48H60.28864A60.16 60.16 0 0 1 0.00064 963.584V181.376c0-33.408 26.944-60.544 60.224-60.544l783.04 0.064zM180.73664 600.96v241.728h60.224V600.96h-60.288z m240.896 60.416v181.312h60.288v-181.312h-60.288z m240.96-181.312v362.624h60.288V480.064h-60.352 0.064z m-209.792 10.88l294.4-175.36-30.72-51.968L462.84864 414.72 329.34464 277.76 145.92064 400.448l33.28 50.368L321.28064 355.84l131.584 135.168V490.88z m510.976 476.16V120.96a60.544 60.544 0 0 0-60.288-60.48H120.51264V0h782.976c32 0 62.656 12.736 85.248 35.392 22.592 22.72 35.264 53.44 35.264 85.504v846.272h-60.224z"  /></svg>