<svg class="icon" width="48" height="48" viewBox="0 0 1024 1024" xmlns="http://www.w3.org/2000/svg"><path d="M877.696 0H146.304A146.368 146.368 0 000 146.304v731.392A146.368 146.368 0 00146.304 1024h731.392A146.368 146.368 0 001024 877.696V146.304A146.368 146.368 0 00877.696 0zM320.064 786.304a128 128 0 11-.064-256 128 128 0 01.064 256zm135.744-467.968l-146.24 146.24a36.736 36.736 0 01-51.52 0l-73.728-73.088a36.736 36.736 0 010-51.52c14.08-14.08 37.44-14.08 51.52 0l47.36 47.36L403.84 266.88c14.016-14.08 36.864-14.08 51.456 0 14.08 14.08 14.656 37.44.64 51.52zm376.32 440.256H539.52c-19.904 0-36.288-28.928-36.288-64 0-35.136 16.384-64 36.288-64H832c19.904 0 36.288 28.864 36.288 64 0 35.072-16.384 64-36.288 64zm0-301.184H539.52c-19.904 0-36.288-28.864-36.288-64 0-35.072 16.384-64 36.288-64H832c19.904 0 36.288 28.928 36.288 64 0 35.136-16.384 64-36.288 64z"/><path d="M274.816 594.752a63.68 63.68 0 000 90.368 63.36 63.36 0 0090.24 0A62.848 62.848 0 00384 640.32a63.808 63.808 0 00-18.304-44.864 63.552 63.552 0 00-90.88-.64z"/></svg>