<?xml version="1.0" standalone="no"?><!DOCTYPE svg PUBLIC "-//W3C//DTD SVG 1.1//EN" "http://www.w3.org/Graphics/SVG/1.1/DTD/svg11.dtd"><svg class="icon" width="48px" height="48.00px" viewBox="0 0 1024 1024" version="1.1" xmlns="http://www.w3.org/2000/svg"><path fill="#D9DDE1" d="M1001.649617 793.384694H16.974541c-9.727714 0-16.959502 23.871299-16.959501 35.390961 0 11.519662 8.063763 35.838947 16.959501 35.838947H279.686824l-67.454018 116.476578a32.959032 32.959032 0 0 0 7.679774 37.11891c11.327667 6.335814 25.471252 4.479868 34.750979-4.735861l84.861507-148.859627h356.149539l77.629719 148.475638c7.039793 10.687686 21.183378 14.079586 32.255053 7.679775a27.391195 27.391195 0 0 0 8.51175-31.615071l-64.126117-125.436316h254.712518c9.727714 0 16.959502-24.319286 16.959502-35.838947 0-11.519662-10.239699-34.558985-19.967413-34.558985z m-933.732572-57.598308h882.790068a38.14288 38.14288 0 0 0 34.36699-42.622748V42.622748A38.526868 38.526868 0 0 0 950.707113 0H67.917045a38.782861 38.782861 0 0 0-34.366991 42.622748v652.204841a38.334874 38.334874 0 0 0 34.366991 40.958797zM215.688704 298.55123a28.479163 28.479163 0 0 1 39.038853-11.071675l146.875686 78.909682 80.637631-150.139589-10.623688 3.3919a28.799154 28.799154 0 0 1-26.751214-6.399812 27.391195 27.391195 0 0 1-8.063763-25.983237 24.319286 24.319286 0 0 1 18.687451-20.927385l72.573868-22.591336a28.799154 28.799154 0 0 1 34.814977 18.36746l22.463341 73.341846a26.111233 26.111233 0 0 1-3.391901 26.431223 26.239229 26.239229 0 0 1-25.471252 8.127762 28.479163 28.479163 0 0 1-20.351402-18.367461l-2.943913-10.623688-93.437256 178.682751a28.351167 28.351167 0 0 1-37.75889 11.967649L252.167633 351.925662 164.554206 471.026164a27.967178 27.967178 0 0 1-37.374902 11.967648 27.775184 27.775184 0 0 1-9.727714-37.566896l98.109118-146.875686zM865.653611 319.9906c17.599483 1.215964 30.97509 15.103556 30.271111 31.423077 1.087968 16.639511-12.351637 31.103086-30.271111 32.575043H606.333229c-17.919474-1.471957-31.359079-15.935532-30.271111-32.575043-0.703979-16.319521 12.671628-30.207113 30.271111-31.423077h259.320382z m0 191.99436c17.599483 1.215964 30.97509 15.103556 30.271111 31.423077 1.087968 16.639511-12.351637 31.103086-30.271111 32.575043H696.954567c-17.919474-1.471957-31.359079-15.935532-30.335109-32.575043-0.639981-16.319521 12.735626-30.207113 30.335109-31.423077h168.635046z m0-383.98872c17.599483 1.215964 30.97509 15.103556 30.271111 31.423077 1.087968 16.639511-12.351637 31.103086-30.271111 32.575043H696.954567c-17.919474-1.471957-31.359079-15.935532-30.335109-32.575043-0.639981-16.319521 12.735626-30.207113 30.335109-31.423077h168.635046z"  /></svg>