<svg class="icon" width="48" height="48" viewBox="0 0 1024 1024" xmlns="http://www.w3.org/2000/svg"><path d="M359.063 799.081a940.597 940.597 0 0170.354-77.281l195.524-203.355 180.284-189.5c13.915-15.721 28.974-30.359 45.056-43.73 15.782-12.891 26.143-5.06 38.732 8.251 12.65 13.373 21.203 23.01 31.985 34.515 2.289 2.771 16.685 13.854 16.685 17.95V73.608A72.885 72.885 0 00865.64 0H102.22C83.064 0 64.753 7.77 51.2 21.564 37.707 35.358 30.118 54.091 30.118 73.608v855.16c0 19.516 7.59 38.25 21.082 52.043 13.553 13.854 31.925 21.565 51.02 21.565h189.259l37.827-143.963a177.983 177.983 0 0129.757-59.332zm78.426-372.193H174.26a22.769 22.769 0 01-22.468-23.01c0-12.65 10.06-23.01 22.528-23.01h261.36c12.47 0 22.529 10.3 22.529 23.01a22.769 22.769 0 01-22.528 23.01h1.807zm182.513-120.471H174.26a22.769 22.769 0 01-22.468-23.07c0-12.65 10.06-22.95 22.528-22.95h443.874c12.408 0 22.528 10.24 22.528 22.95s-10.12 23.01-22.528 23.01h1.807zm123.904-120.591H174.32a22.468 22.468 0 01-19.516-11.445 23.432 23.432 0 010-23.07 22.468 22.468 0 0119.516-11.445h567.778c12.469 0 22.528 10.24 22.528 23.01a22.769 22.769 0 01-22.528 22.95h1.807zm241.543 314.247L881.363 393.336a30.6 30.6 0 00-41.924 0L403.697 838.174a13.01 13.01 0 00-3.614 6.867l-45.478 159.623a15.902 15.902 0 003.132 14.276c3.012 3.132 6.988 4.94 11.264 5.06h2.711l168.056-32.226a13.854 13.854 0 008.132-4.156l437.55-445.26a30.84 30.84 0 000-42.345zm-67.584 87.823a13.372 13.372 0 01-19.395 0L794.383 481.641a14.938 14.938 0 011.084-19.576 14.216 14.216 0 0119.215-1.084L918.77 567.236a13.975 13.975 0 01-.904 20.66z"/></svg>