<svg class="icon" width="48" height="48" viewBox="0 0 1024 1024" xmlns="http://www.w3.org/2000/svg"><path d="M238.351 171.67c109.387-11.203 210.402-59.03 290.696-123.24 83.727 66.68 189.74 116.193 304.188 124.204 25.901 2.892 51.862 5.903 78.065 5.361 33.19-.723 67.463 3.253 99.508-6.144-2.228 160.829-1.927 321.657-1.686 482.485.843 22.408-11.264 42.767-20.42 63.006a447.85 447.85 0 01-212.39 208.776c-72.342 34.213-147.034 66.921-227.568 83.847-19.396 5.24-39.274.12-58.188-4.216-53.308-13.011-104.086-33.01-153.54-54.393-44.935-19.877-90.112-40.357-128.903-68.849A454.234 454.234 0 0154.814 683.61c-8.071-18.311-5.36-38.25-5.662-57.404.24-133.722 0-267.324.24-400.986 0-17.83-1.445-35.6-2.288-53.429 62.645 12.65 128.06 5.481 191.307-.18zm129.807 134.205c34.515 41.562 76.62 76.258 111.134 118.061-41.08.602-82.1.361-123.12 0-.663 21.564-.663 43.189-.663 64.693 47.164 0 94.328.12 141.553-.12v84.329c-46.743-.302-93.546.722-140.288-.603-1.687 21.926-1.386 43.972-1.145 66.018h141.493c0 55.658-.12 111.255 0 166.852h64.09V638.253h141.433c.3-22.106.602-44.092-1.205-66.078-46.682 1.446-93.425.361-140.228.723v-84.39c47.225.241 94.389.12 141.553.12 0-21.564 0-43.128-.662-64.692-41.804.422-83.607.602-125.35-.06 38.37-39.153 76.8-78.125 114.628-117.76-14.878-14.698-29.516-29.696-44.093-44.695-38.128 42.044-79.028 81.258-118.06 122.218-39.154-40.96-80.114-80.174-118.182-122.278-14.035 15.18-29.636 28.732-42.888 44.574z"/></svg>