<svg class="icon" width="48" height="48" viewBox="0 0 1024 1024" xmlns="http://www.w3.org/2000/svg"><path d="M1006.08 632.576C967.552 494.592 885.056 387.904 756.096 315.52c-11.136-6.272-22.784-11.776-34.304-17.28a887.744 887.744 0 00-419.648 0C99.84 388.672 16 526.464 1.472 727.68c-3.776 52.288-.64 104.064 13.12 155.264A190.4 190.4 0 00198.912 1024c209.28-.448 418.752 0 628.032-.32 67.2-.128 119.04-29.056 156.544-81.792 19.136-26.816 28.16-57.216 33.152-89.216a505.536 505.536 0 00-10.56-220.096m-356.224 181.44h-83.52a1.856 1.856 0 00-1.92 1.792v38.72h-.384c.64 3.2 1.024 6.464 1.024 9.792 0 27.776-23.68 50.432-52.928 50.432-29.12 0-52.864-22.528-52.864-50.432 0-3.456.448-6.592 1.024-9.792h-1.024v-38.72a1.856 1.856 0 00-1.92-1.792h-82.88c-23.232 0-42.368-18.048-42.368-40.384 0-22.4 18.944-40.448 42.368-40.448h82.88a1.856 1.856 0 001.92-1.728v-36.48a1.856 1.856 0 00-1.92-1.856h-82.688v-.128h-.256c-23.232 0-42.368-18.048-42.368-40.448 0-22.208 18.944-40.32 42.368-40.32h75.904c.832 0 1.6-.512 1.728-1.28a24.832 24.832 0 012.304-4.608 1.792 1.792 0 00-.256-2.24l-93.76-89.408c-11.776-11.072-7.936-33.024 8.512-48.64s39.424-19.328 51.072-8.064l91.456 87.232a1.984 1.984 0 002.816 0l84.608-85.888c13.312-13.952 40.512-10.496 57.088 5.376 16.448 15.936 24.704 30.336 8.384 47.936l-99.328 96.832a1.856 1.856 0 00-.64 1.536 1.92 1.92 0 001.92 1.6h83.328v.192c23.296.128 42.048 18.176 42.048 40.384a41.152 41.152 0 01-42.048 40.256h-83.2a1.92 1.92 0 00-1.92 1.792v36.48c0 1.088.96 1.792 1.92 1.792h83.52v.128c23.232.192 42.048 18.24 42.048 40.448 0 21.952-18.816 39.808-42.048 39.936M289.536 245.76a883.712 883.712 0 01484.8-.128 205.44 205.44 0 0024.96-46.72c5.696-15.232 8.832-31.232 13.248-46.976 10.176-36.352.384-67.776-28.928-91.84C744 27.648 698.944 23.808 651.392 42.816c-3.328 1.408-5.504 2.368-8.64-.704-61.12-55.68-159.296-56.256-220.864-1.28-2.88 2.624-4.928 3.2-8.704 1.6a126.72 126.72 0 00-77.888-8.128c-50.816 10.112-92.8 51.712-85.312 108.544a227.2 227.2 0 0039.488 102.912"/></svg>