<svg class="icon" width="48" height="48" viewBox="0 0 1024 1024" xmlns="http://www.w3.org/2000/svg"><path d="M610.048 558.464c-20.416-12.608-33.088-37.76-33.088-62.912 0-27.52 22.912-50.368 37.952-67.712 37.952-44.928 57.792-105.472 57.792-173.76C672.768 113.28 571.648 0 447.552 0 323.456 0 222.848 115.072 222.848 255.872c0 67.712 22.912 128.192 57.792 173.76 22.912 12.608 37.952 40.128 37.952 67.712 0 25.152-12.608 47.36-33.088 62.912v2.368c-2.432 0-4.864 2.432-4.864 2.432-12.608 7.168-25.28 12.544-40.32 12.544-95.68 32.96-176.384 83.328-225.152 145.664H17.6C4.928 740.608.128 761.024.128 780.736V1024h896V780.8c0-25.216-10.24-47.36-22.912-67.776C826.88 651.328 750.4 603.968 657.664 573.44c0 0-37.952-10.24-47.552-14.976z"/><path d="M888.448 591.488s-30.4-7.488-39.744-13.12c-16-13.184-25.408-34.496-25.408-57.6 0-26.368 18.752-47.04 30.336-60.16 30.336-41.984 48.576-97.152 48.576-160.448C902.208 171.136 821.12 64 719.616 64c-16 0-32.64 2.56-46.4 7.488 34.752 57.664 52.992 125.952 52.992 202.368 0 81.472-24.32 141.888-67.84 207.04l-4.48 4.992v2.56c-4.352 4.992-11.52 13.12-13.76 21.248 0 2.56 0 2.56 2.176 2.56 4.48 2.496 11.648 4.992 18.816 4.992h2.176l9.408 4.992c94.848 34.432 176.512 97.024 229.504 173.44 23.168 34.432 35.328 89.408 35.328 132.032V1024l86.592-.64V788.288c-3.328-28.8-3.328-64-20.992-92.608-39.68-55.104-52.672-55.104-114.752-104.192z"/></svg>