<?xml version="1.0" encoding="UTF-8"?>
<svg width="19px" height="20px" viewBox="0 0 19 20" version="1.1" xmlns="http://www.w3.org/2000/svg" xmlns:xlink="http://www.w3.org/1999/xlink">
    <!-- Generator: Sketch 53 (72520) - https://sketchapp.com -->
    <title>zhushuju</title>
    <desc>Created with Sketch.</desc>
    <defs>
        <linearGradient x1="50%" y1="92.9186078%" x2="50%" y2="0%" id="linearGradient-1">
            <stop stop-color="#B7B7B7" offset="0%"></stop>
            <stop stop-color="#FFFFFF" offset="100%"></stop>
        </linearGradient>
    </defs>
    <g id="Page-2" stroke="none" stroke-width="1" fill="none" fill-rule="evenodd">
        <g id="图标" transform="translate(-378.000000, -775.000000)">
            <g id="zhushuju" transform="translate(378.000000, 775.000000)">
                <path d="M18.0662595,18.0190029 L18.0662595,20 L0.935125833,20 L0.935125833,18.0190029 L18.0662595,18.0190029 Z M17.3171201,3.08989569e-05 C17.7649752,-0.00136910769 18.1938303,0.186230634 18.5100431,0.52083013 C18.8248988,0.856829632 19.0026836,1.31042897 18.9999694,1.78362829 L18.9999694,14.6114079 C19.0013265,15.0846072 18.8248988,15.5396066 18.508686,15.8742061 C18.1924732,16.2102056 17.763618,16.3964053 17.3171201,16.3936053 L1.68290802,16.3936053 C1.2335748,16.3952246 0.802932476,16.2082281 0.489985067,15.8756061 C0.172232079,15.5362582 -0.00369363073,15.0817994 5.88185746e-05,14.6100079 L5.88185745e-05,1.78362829 C-0.00261792654,1.31260649 0.173753451,0.85926031 0.491342212,0.52083013 C0.807555007,0.184830627 1.23776728,-0.00276909382 1.68562231,3.08989569e-05 L17.3171201,3.08989569e-05 Z M2.02960398,1.98102799 L2.02960398,14.4126082 L16.996215,14.4126082 L16.996215,1.98102799 L2.02960398,1.98102799 Z" id="Shape" fill="#4C4C4C" fill-rule="nonzero"></path>
                <path d="M6.7653841,7.04861907 C6.92793213,7.0490366 7.08329062,7.11779385 7.19559637,7.23901878 C7.30959583,7.3608186 7.37202411,7.52601836 7.37202411,7.6968181 L7.37202411,11.0288132 C7.37202411,11.171613 7.31773866,11.3088128 7.22273909,11.4110126 C7.12761582,11.5118854 6.99680145,11.5684919 6.86038367,11.5678124 L6.15195842,11.5678124 C5.98907593,11.5684698 5.83306762,11.5001482 5.72038902,11.3788127 C5.60612423,11.2553172 5.54370101,11.0903058 5.54667555,10.9196134 L5.54667555,7.58901827 C5.54667555,7.44621847 5.60096101,7.30901868 5.69596057,7.20681883 C5.79019986,7.10612987 5.91992619,7.04906556 6.05560173,7.04861907 L6.7653841,7.04861907 Z M9.89765508,3.82862381 C10.1826537,3.82862381 10.4120098,4.07222344 10.4133669,4.37322301 L10.4133669,11.0288132 C10.4151773,11.1701515 10.3623878,11.3064225 10.2666504,11.4075475 C10.1709129,11.5086725 10.0400993,11.5663369 9.90308362,11.5678124 L9.19465839,11.5678124 C8.85413519,11.5609182 8.58332157,11.2709032 8.58937552,10.9196134 L8.58937552,4.367623 C8.58720026,4.22628379 8.63964279,4.08986259 8.7351266,3.98847387 C8.83061041,3.88708515 8.96128402,3.82906595 9.0983017,3.8272238 L9.89765508,3.82862381 Z M12.9457836,5.75922097 C13.2267108,5.75922097 13.4547098,6.00142062 13.4547098,6.29822016 L13.4547098,11.0218132 C13.4577392,11.3155656 13.2305112,11.5568458 12.9457836,11.5622124 L12.1410016,11.5622124 C11.8557411,11.5576063 11.627696,11.3161024 11.6307183,11.0218132 L11.6307183,6.40182002 C11.6307183,6.23102027 11.6931466,6.06582052 11.8071461,5.94682069 C11.9199118,5.82662645 12.0752114,5.75890605 12.2373583,5.75922097 L12.9457836,5.75922097 Z" id="Combined-Shape" fill="url(#linearGradient-1)"></path>
            </g>
        </g>
    </g>
</svg>