<?xml version="1.0" encoding="UTF-8"?>
<svg width="20px" height="20px" viewBox="0 0 20 20" version="1.1" xmlns="http://www.w3.org/2000/svg" xmlns:xlink="http://www.w3.org/1999/xlink">
    <!-- Generator: Sketch 53 (72520) - https://sketchapp.com -->
    <title>zhihuishequActive</title>
    <desc>Created with Sketch.</desc>
    <g id="Page-2" stroke="none" stroke-width="1" fill="none" fill-rule="evenodd">
        <g id="图标" transform="translate(-748.000000, -773.000000)" fill="#FFFFFF" fill-rule="nonzero">
            <g id="zhihuishequActive" transform="translate(748.000000, 773.000000)">
                <path d="M11.4508349,15 C12.0593692,15 12.5491651,14.5104 12.5491651,13.92 L12.5491651,13.038 C13.458256,12.2928 14,11.1804 14,9.9744 C14,7.782 12.2115028,6 10,6 C7.78478664,6 6,7.782 6,9.9744 C6,11.1768 6.54174397,12.2892 7.45083488,13.038 L7.45083488,13.92 C7.45083488,14.5104 7.93692022,15 8.54916512,15 L11.4508349,15 Z M10,7.69588971 C11.2374768,7.69588971 12.3019096,8.71842091 12.3111861,10 C12.3180389,10.9467483 11.9907236,11.670297 11.2374768,12.318 L11,12.4836 L11,13.5951131 L9.10963129,13.5951131 L9.10963129,12.4836 L8.87215448,12.318 C8.12261831,11.7888 7.63390944,10.9468 7.63390944,10 C7.63390944,8.416 8.76252319,7.69588971 10,7.69588971 Z" id="Shape"></path>
                <path d="M11.2851406,0.443700835 C10.558598,-0.140505264 9.46330778,-0.147807841 8.72216137,0.421793106 L1.00766703,6.33322857 C0.412559328,6.78963959 0,7.62213328 0,8.36699605 L0,17.3491648 C0,19.2222756 0.814165754,20 2.74552756,20 L7.37495436,20 C7.72179628,20 8.0519955,19.5617953 8.05823129,18.9702914 C8.05823129,18.4100163 7.72179628,18.0053304 7.37495436,18.0053304 L3.51871415,18.0053304 C2.26643229,18.0053304 2.02546844,17.7752993 2.02546844,16.6068871 L2.02546844,8.66640168 C2.02546844,8.31222673 2.25547939,7.84486185 2.54390582,7.62578456 L9.48521358,2.42082584 C9.76998905,2.20174856 10.230011,2.20539984 10.5074845,2.42812842 L17.5052223,7.94112645 C17.7863468,8.16385502 18.0127068,8.63487119 18.0127068,9 L18.0127068,16.6068871 C18.0127068,17.7679967 17.3659139,18.0053304 16.5231121,18.0016791 L16.2602424,18.0016791 C16.0484863,18.0016791 16.3125228,18.0016791 15.4399416,18.0053304 L12.1796276,18.0053304 L12.132165,18.0053304 L12.0737495,18.0016791 C11.4201084,17.9996982 11.055637,17.7936181 11.055637,17.36377 L11.055637,16.8781487 L12.132165,16.8781487 L12.132165,15.8599353 L7.87513691,15.8599353 L7.87513691,16.8781487 L9.00863174,16.8781487 L9.00863174,17.36377 C9.00863174,19.1857627 10.1569916,19.9671384 11.9897773,19.9926974 C12.0116831,19.9963487 12.0372399,20 12.0627966,20 C12.0847024,20 12.1212121,20 12.1613728,19.9963487 L12.2635999,19.9963487 C12.8002921,20 13.3369843,20 13.8736765,19.9963487 L15.4362906,19.9963487 C16.3088719,19.9963487 16.7871486,19.9926974 17.0025557,19.9926974 L17.2617744,19.9926974 C19.1858342,19.9926974 20,19.2149731 20,17.3491648 L20,8.66640168 C20,7.92519019 19.6020445,7.0926965 19.0251917,6.6326342 L11.2851406,0.443700835 Z" id="Path"></path>
            </g>
        </g>
    </g>
</svg>