<?xml version="1.0" encoding="UTF-8"?>
<svg width="21px" height="19px" viewBox="0 0 21 19" version="1.1" xmlns="http://www.w3.org/2000/svg" xmlns:xlink="http://www.w3.org/1999/xlink">
    <!-- Generator: Sketch 53 (72520) - https://sketchapp.com -->
    <title>zaixianxuexiActive@2x</title>
    <desc>Created with Sketch.</desc>
    <g id="Page-2" stroke="none" stroke-width="1" fill="none" fill-rule="evenodd">
        <g id="图标" transform="translate(-894.000000, -836.000000)" fill="#FFFFFF">
            <g id="zaixianxuexiActive" transform="translate(894.000000, 836.000000)">
                <path d="M7.51236951,0.00051351167 L2.30513963,0.00051351167 C1.03228541,0.00108021811 0.000577391987,1.01369485 0,2.2629929 L0,15.7428718 L0.00261591278,15.8527607 C0.0628484843,17.0577587 1.07542122,18.004611 2.30461646,18.0053512 L7.46005132,18.0053512 L7.46999177,18.0125402 C8.28667878,18.6631443 9.32938039,19 10.4824734,19 L10.6655871,18.9974325 C11.7538055,18.9645685 12.726924,18.6395232 13.4860609,18.0387287 L13.5054187,18.0222967 L18.6953835,18.0222967 C19.9678293,18.021447 20.9991343,17.009228 21,15.7603308 L21,2.2629929 C20.9997115,1.0136947 19.9682377,0.000850215154 18.6953835,0 L13.4876305,0 L13.3291064,0.00256750118 C12.2846845,0.0372642246 11.2848819,0.426553632 10.5002616,1.10402421 C9.67460309,0.391480032 8.61232669,-0.000733966258 7.51289271,0.00102700428 L7.51236951,0.00051351167 Z M2.79840682,2.04464609 L7.51236951,2.04464609 C8.41328881,2.04464609 9.25299584,2.43850032 9.81855552,3.12915732 L9.87505917,3.19077727 L10.5002616,3.80440935 L11.1249408,3.19129078 L11.1814445,3.12915732 C11.7417807,2.44152125 12.5910396,2.04223777 13.4881537,2.04464609 L18.2556966,2.04464609 C18.6611626,2.04464609 18.9907672,2.36866435 18.9907672,2.76662658 L18.9907672,15.2728649 C18.9907672,15.6703136 18.6611626,15.9943319 18.2556966,15.9943319 L12.8833553,15.9943319 L12.6364135,16.2372172 C12.128927,16.7096369 11.3828695,16.9720352 10.4824734,16.9720352 C9.59568003,16.9720352 8.8459603,16.7009073 8.31126835,16.2028127 L8.08159147,15.9773864 L2.79840682,15.9773864 C2.39238853,15.9768207 2.06338933,15.6539102 2.06281301,15.2554059 L2.06281301,2.76662658 C2.06281301,2.36866435 2.3929408,2.04464609 2.79840682,2.04464609 Z" id="Shape" fill-rule="nonzero"></path>
                <polygon id="Path" fill-rule="nonzero" points="9 2 11 2 11 18 9 18"></polygon>
                <path d="M14,4 L16,4 C16.5522847,4 17,4.44771525 17,5 C17,5.55228475 16.5522847,6 16,6 L14,6 C13.4477153,6 13,5.55228475 13,5 C13,4.44771525 13.4477153,4 14,4 Z M14,8 L16,8 C16.5522847,8 17,8.44771525 17,9 C17,9.55228475 16.5522847,10 16,10 L14,10 C13.4477153,10 13,9.55228475 13,9 C13,8.44771525 13.4477153,8 14,8 Z" id="Combined-Shape"></path>
                <path d="M4,4 L6,4 C6.55228475,4 7,4.44771525 7,5 C7,5.55228475 6.55228475,6 6,6 L4,6 C3.44771525,6 3,5.55228475 3,5 C3,4.44771525 3.44771525,4 4,4 Z M4,8 L6,8 C6.55228475,8 7,8.44771525 7,9 C7,9.55228475 6.55228475,10 6,10 L4,10 C3.44771525,10 3,9.55228475 3,9 C3,8.44771525 3.44771525,8 4,8 Z" id="Combined-Shape-Copy"></path>
            </g>
        </g>
    </g>
</svg>